<?xml version="1.0" encoding="UTF-8"?><svg id="Layer_1" xmlns="http://www.w3.org/2000/svg" viewBox="0 0 282.41 597.45"><defs><style>.cls-1{fill:#d3639c;}.cls-1,.cls-2{stroke-width:0px;}.cls-2{fill:#9b2a5e;}</style></defs><path class="cls-2" d="M258.22,158.36c-40.01,39.97-109.9,14.62-103.49-14.17,70.41,29.02,88.35,6.35,103.32-12.97,14.97-19.33-19.39-75.45-63.33-80.77C61.77,34.36,15.28,146.3,104.99,267.75c53.98,73.1,53.02,121.88,44.81,148.07h-68.11c15.16-19.92,37.17-76.32-50.63-195.2C-83.65,65.31,150.69-45.12,227.25,18.15c76.55,63.27,59.73,111.48,30.97,140.21Z"/><path class="cls-1" d="M194.72,50.45C61.77,34.36,15.28,146.3,104.99,267.75c53.98,73.1,53.02,121.88,44.81,148.07h42.44c.12-.73.26-1.48.42-2.22,2.3-10.3,8.63-17.66,14.14-16.43,5.12,1.14,7.73,9.25,6.25,18.65h11.35c13.41-42.28,6.93-90.58-42.26-139.32-43-42.6-85.76-93.76-79.53-145.69,6.24-51.94,89.99-68.83,117.82-34.19,27.84,34.64,5.81,45.73-25.42,42.33-31.24-3.41-33.86-23.54-40.28,5.24,70.41,29.02,88.35,6.35,103.32-12.97,14.97-19.33-19.39-75.45-63.33-80.77ZM197.66,356.72c1.46-6.57,7.97-10.71,14.55-9.25,6.57,1.47,10.71,7.98,9.25,14.55-1.47,6.57-7.98,10.72-14.55,9.25-6.58-1.46-10.72-7.98-9.25-14.55ZM86.44,108.65c1.68-7.54,6.31-12.92,10.35-12.03,4.03.9,5.94,7.74,4.26,15.28-1.68,7.54-6.31,12.93-10.35,12.03-4.03-.9-5.94-7.74-4.26-15.28ZM81.75,171.59c-4.84-7.61-6.15-15.44-2.94-17.48,3.22-2.05,9.75,2.47,14.59,10.08,4.84,7.61,6.15,15.44,2.94,17.49-3.22,2.04-9.75-2.47-14.59-10.09ZM177.95,328.49c8.06,12.68,9.29,26.33,2.74,30.49-6.55,4.16-18.39-2.74-26.45-15.42-8.05-12.68-9.28-26.33-2.73-30.49,6.54-4.16,18.38,2.74,26.44,15.42ZM146.19,254.1c4.72-2.99,13.35,2.14,19.28,11.46,5.92,9.33,6.91,19.32,2.19,22.32-4.72,3-13.35-2.13-19.28-11.46-5.93-9.33-6.91-19.32-2.19-22.32ZM112.28,223.05c7.29,11.48,9.38,23.21,4.66,26.2-4.72,3-14.45-3.87-21.74-15.34-7.3-11.47-9.38-23.2-4.66-26.2,4.71-3,14.45,3.87,21.74,15.34ZM123.91,85.69c-6.46,4.11-13.25,4.99-15.17,1.97-1.92-3.02,1.76-8.79,8.22-12.9,6.46-4.1,13.25-4.98,15.17-1.96,1.92,3.01-1.76,8.79-8.22,12.89ZM178.55,72.18c-.65,2.89-5.86,4.19-11.64,2.9-5.79-1.29-9.95-4.68-9.31-7.57.65-2.89,5.86-4.19,11.64-2.9,5.78,1.29,9.95,4.68,9.31,7.57ZM221.3,85.4c-2.58,1.64-6.79-.35-9.39-4.44-2.6-4.1-2.62-8.75-.04-10.39,2.58-1.64,6.79.35,9.39,4.44,2.6,4.1,2.62,8.75.04,10.39ZM173.14,145.99c-2.14,1.36-5.76-.51-8.09-4.18-2.32-3.66-2.48-7.73-.35-9.09,2.14-1.36,5.76.51,8.08,4.18,2.33,3.66,2.49,7.73.36,9.09ZM211.19,147.1c-.59,2.64-4.76,3.94-9.32,2.93-4.56-1.02-7.78-3.97-7.2-6.6.59-2.63,4.76-3.94,9.32-2.93,4.56,1.02,7.78,3.97,7.2,6.6ZM232.34,145.65c-3.97,2.52-8.23,2.92-9.53.88-1.29-2.04.87-5.73,4.84-8.26,3.97-2.52,8.23-2.91,9.53-.87,1.29,2.03-.87,5.73-4.84,8.25ZM245.5,126.04c-1.97,1.26-5.99-1.53-8.97-6.22s-3.8-9.51-1.83-10.76c1.97-1.25,5.98,1.54,8.96,6.23,2.99,4.69,3.81,9.5,1.84,10.75Z"/><path class="cls-2" d="M142.07,595.8c-36.83-8.21-60.03-44.71-51.82-81.54,7.46-33.5,38.35-55.73,71.59-53.28,0,0-48.18,73.83-19.77,134.82Z"/><path class="cls-1" d="M171.78,462.44c-3.32-.74-6.64-1.22-9.94-1.46,0,0-48.18,73.83-19.77,134.82,36.82,8.2,73.33-15,81.53-51.83,8.21-36.82-15-73.33-51.82-81.53ZM155.94,524.57c1.76-7.9,6.74-13.5,11.12-12.52,4.38.97,6.51,8.16,4.75,16.05-1.75,7.89-6.73,13.5-11.12,12.52-4.38-.97-6.51-8.16-4.75-16.05ZM178.19,586.58c-8.75,5.56-17.74,7.07-20.08,3.38-2.35-3.68,2.84-11.18,11.58-16.74,8.75-5.56,17.74-7.07,20.08-3.38,2.35,3.69-2.84,11.18-11.58,16.74ZM202.47,509.87c-4.22,2.68-11.38-1.02-15.99-8.26-4.6-7.25-4.91-15.3-.69-17.98,4.22-2.69,11.38,1.01,15.99,8.26,4.6,7.24,4.91,15.29.69,17.98ZM218.1,544.75c-1.25,5.61-4.54,9.65-7.35,9.02-2.8-.62-4.06-5.68-2.81-11.29,1.25-5.61,4.54-9.65,7.34-9.03,2.81.63,4.07,5.68,2.82,11.3Z"/><path class="cls-2" d="M132.13,72.8c1.92,3.01-1.76,8.79-8.22,12.89-6.46,4.11-13.25,4.99-15.17,1.97-1.92-3.02,1.76-8.79,8.22-12.9,6.46-4.1,13.25-4.98,15.17-1.96Z"/><path class="cls-2" d="M178.55,72.18c-.65,2.89-5.86,4.19-11.64,2.9-5.79-1.29-9.95-4.68-9.31-7.57.65-2.89,5.86-4.19,11.64-2.9,5.78,1.29,9.95,4.68,9.31,7.57Z"/><path class="cls-2" d="M96.34,181.68c-3.22,2.04-9.75-2.47-14.59-10.09-4.84-7.61-6.15-15.44-2.94-17.48,3.22-2.05,9.75,2.47,14.59,10.08,4.84,7.61,6.15,15.44,2.94,17.49Z"/><path class="cls-2" d="M218.1,544.75c-1.25,5.61-4.54,9.65-7.35,9.02-2.8-.62-4.06-5.68-2.81-11.29,1.25-5.61,4.54-9.65,7.34-9.03,2.81.63,4.07,5.68,2.82,11.3Z"/><path class="cls-2" d="M189.77,569.84c2.35,3.69-2.84,11.18-11.58,16.74-8.75,5.56-17.74,7.07-20.08,3.38-2.35-3.68,2.84-11.18,11.58-16.74,8.75-5.56,17.74-7.07,20.08-3.38Z"/><path class="cls-2" d="M213.05,415.82h-20.81c.12-.73.26-1.48.42-2.22,2.3-10.3,8.63-17.66,14.14-16.43,5.12,1.14,7.73,9.25,6.25,18.65Z"/><path class="cls-2" d="M221.46,362.02c-1.47,6.57-7.98,10.72-14.55,9.25-6.58-1.46-10.72-7.98-9.25-14.55,1.46-6.57,7.97-10.71,14.55-9.25,6.57,1.47,10.71,7.98,9.25,14.55Z"/><path class="cls-2" d="M180.69,358.98c-6.55,4.16-18.39-2.74-26.45-15.42-8.05-12.68-9.28-26.33-2.73-30.49,6.54-4.16,18.38,2.74,26.44,15.42s9.29,26.33,2.74,30.49Z"/><path class="cls-2" d="M167.66,287.88c-4.72,3-13.35-2.13-19.28-11.46-5.93-9.33-6.91-19.32-2.19-22.32,4.72-2.99,13.35,2.14,19.28,11.46,5.92,9.33,6.91,19.32,2.19,22.32Z"/><path class="cls-2" d="M116.94,249.25c-4.72,3-14.45-3.87-21.74-15.34-7.3-11.47-9.38-23.2-4.66-26.2,4.71-3,14.45,3.87,21.74,15.34,7.29,11.48,9.38,23.21,4.66,26.2Z"/><path class="cls-2" d="M101.05,111.9c-1.68,7.54-6.31,12.93-10.35,12.03-4.03-.9-5.94-7.74-4.26-15.28,1.68-7.54,6.31-12.92,10.35-12.03,4.03.9,5.94,7.74,4.26,15.28Z"/><path class="cls-2" d="M221.3,85.4c-2.58,1.64-6.79-.35-9.39-4.44-2.6-4.1-2.62-8.75-.04-10.39,2.58-1.64,6.79.35,9.39,4.44,2.6,4.1,2.62,8.75.04,10.39Z"/><path class="cls-2" d="M245.5,126.04c-1.97,1.26-5.99-1.53-8.97-6.22s-3.8-9.51-1.83-10.76c1.97-1.25,5.98,1.54,8.96,6.23,2.99,4.69,3.81,9.5,1.84,10.75Z"/><path class="cls-2" d="M211.19,147.1c-.59,2.64-4.76,3.94-9.32,2.93-4.56-1.02-7.78-3.97-7.2-6.6.59-2.63,4.76-3.94,9.32-2.93,4.56,1.02,7.78,3.97,7.2,6.6Z"/><path class="cls-2" d="M232.34,145.65c-3.97,2.52-8.23,2.92-9.53.88-1.29-2.04.87-5.73,4.84-8.26,3.97-2.52,8.23-2.91,9.53-.87,1.29,2.03-.87,5.73-4.84,8.25Z"/><path class="cls-2" d="M173.14,145.99c-2.14,1.36-5.76-.51-8.09-4.18-2.32-3.66-2.48-7.73-.35-9.09,2.14-1.36,5.76.51,8.08,4.18,2.33,3.66,2.49,7.73.36,9.09Z"/><path class="cls-2" d="M202.47,509.87c-4.22,2.68-11.38-1.02-15.99-8.26-4.6-7.25-4.91-15.3-.69-17.98,4.22-2.69,11.38,1.01,15.99,8.26,4.6,7.24,4.91,15.29.69,17.98Z"/><path class="cls-2" d="M171.81,528.1c-1.75,7.89-6.73,13.5-11.12,12.52-4.38-.97-6.51-8.16-4.75-16.05,1.76-7.9,6.74-13.5,11.12-12.52,4.38.97,6.51,8.16,4.75,16.05Z"/></svg>