<?xml version="1.0" encoding="UTF-8"?><svg id="Layer_1" xmlns="http://www.w3.org/2000/svg" viewBox="0 0 289.61 427.61"><defs><style>.cls-1{fill:#d3639c;}.cls-1,.cls-2{stroke-width:0px;}.cls-2{fill:#9b2a5e;}</style></defs><path class="cls-2" d="M259.76,404.69c-53.08,38.25-84.95,21.68-101.8.4-23.44-29.6,2.3-68.79,21.75-61.1-28.38,39.02-14.54,52.92-2.71,64.57,11.84,11.65,55.1-1.88,63.84-27.92,26.46-78.77-46.69-121.78-142.05-83.17-47.86,19.37-79.5,17.73-98.79,11.76v-43.45c6.15,4.54,16.4,7.63,33.71,7.95h.01c4.84.09,10.23-.03,16.24-.41h.01c11.79-.73,25.95-2.41,42.98-5.27,13.8-2.31,29.49-5.39,47.31-9.36,10.14-2.26,19.74-3.52,28.8-3.91,5.33-.24,10.48-.17,15.44.18,2.63.18,5.21.44,7.74.79,1.9.24,3.78.54,5.62.87.01,0,.02.01.03.01,1.6.29,3.17.61,4.72.97,2.38.53,4.72,1.14,6.99,1.82,1.37.4,2.71.82,4.03,1.28,0-.01,0,0,0,0,2,.67,3.96,1.4,5.87,2.18,4.9,1.99,9.52,4.31,13.85,6.9,5.98,3.57,11.41,7.66,16.3,12.17,39.52,36.34,43.29,98.82,10.1,122.74Z"/><path class="cls-1" d="M98.79,297.47c-47.86,19.37-79.5,17.73-98.79,11.76v48.29c30.29,8.37,73.85,9.3,106.14-9.79,34.76-20.57,53.21-44.32,88.9-33.7,35.69,10.63,37.96,63.81,10.51,76.19-27.46,12.38-32.72-2.48-26.77-21.04,5.96-18.56,20.37-17.5.93-25.19-28.38,39.02-14.54,52.92-2.71,64.57,11.84,11.65,55.1-1.88,63.84-27.92,26.46-78.77-46.69-121.78-142.05-83.17ZM30.68,352.22c-.73,1.56-2.01,2.77-3.58,3.52-.52.25-1.07.45-1.64.6-1.9.49-4.03.39-6.04-.4-4.43-1.76-6.6-6.27-4.82-10.07.41-.87.98-1.63,1.68-2.25.08-.07.16-.14.24-.2.83-.7,1.82-1.22,2.9-1.55.97-.3,2.01-.44,3.07-.41.35.01.71.04,1.07.09h.02c.76.12,1.53.31,2.27.61,1.69.67,3.05,1.73,4,3.01,1.52,2.07,1.92,4.69.83,7.05ZM56.69,329.54c-.73.52-1.51,1.02-2.35,1.5-.63.36-1.29.71-1.98,1.04-.23.11-.46.22-.7.33-.47.22-.96.42-1.46.62-.74.3-1.51.59-2.31.85-8.7,2.86-17.31,2.37-20.66-.94-.43-.42-.77-.89-1.02-1.41-1.23-2.57.23-5.71,3.52-8.54.57-.48,1.18-.96,1.84-1.41.44-.31.91-.62,1.4-.91.41-.25.83-.49,1.26-.72.22-.12.44-.24.66-.35.6-.31,1.23-.6,1.88-.88,1.04-.46,2.13-.87,3.27-1.25.15-.05.29-.1.44-.14.68-.22,1.36-.42,2.04-.59.72-.18,1.43-.35,2.13-.48,1.25-.25,2.48-.43,3.67-.53.08-.02.16-.02.24-.03.65-.05,1.28-.08,1.9-.1,1.86-.04,3.59.1,5.12.42,0,0,.01-.01.01,0,.55.12,1.06.25,1.55.4.25.08.49.16.72.25.46.18.89.38,1.29.6.2.11.39.22.57.35.54.36,1,.77,1.38,1.23.25.3.46.62.62.97,1.41,2.93-.7,6.61-5.03,9.72ZM93.42,334.56c-1.08.35-2.15.64-3.21.86-1.05.22-2.09.37-3.08.45-3.42.3-6.39-.18-8.17-1.35-.26-.17-.49-.35-.7-.56-.31-.3-.55-.64-.73-1.01-.76-1.58-.08-3.47,1.65-5.27.1-.11.2-.21.31-.31.2-.2.42-.4.65-.59.35-.3.72-.59,1.13-.87,1.73-1.23,3.95-2.34,6.49-3.18,4.78-1.57,9.5-1.79,12.61-.81.35.11.68.23.99.38.31.14.6.29.86.47.26.17.49.35.7.56.31.3.55.63.73,1,1.56,3.27-3.02,7.84-10.23,10.23ZM140.93,301.27c-2.27,2.38-6.45,4.81-11.64,6.52-2.06.68-4.1,1.18-6.04,1.52-.48.08-.96.15-1.43.22-.94.12-1.85.21-2.71.25-1.19.06-2.3.04-3.3-.06-.42-.04-.83-.1-1.21-.17-.2-.03-.38-.07-.57-.11-.36-.08-.7-.18-1.03-.29-.8-.28-1.46-.64-1.94-1.09-.29-.26-.51-.56-.67-.89-.65-1.35,0-3,1.59-4.68.11-.12.22-.23.34-.34.46-.46,1-.91,1.59-1.36.3-.23.61-.45.94-.67.33-.23.67-.45,1.03-.66,1.25-.76,2.66-1.49,4.22-2.16,1.11-.47,2.28-.92,3.52-1.33,3.09-1.02,6.13-1.66,8.84-1.91,2.22-.21,4.22-.16,5.85.13.38.07.74.15,1.09.25h.01c.51.15.98.33,1.38.53,0,0,0-.01.01,0,.41.21.76.45,1.05.72.29.26.52.56.67.88.65,1.35.01,3.01-1.59,4.7ZM180.16,299.91c-.68.69-1.6,1.38-2.71,2.02-.36.22-.75.43-1.16.63-.27.14-.55.27-.83.4-.29.13-.58.26-.88.38-.3.13-.61.25-.93.36-.31.12-.63.23-.96.34-5.88,1.94-11.52,1.71-12.59-.51-1.06-2.23,2.84-5.61,8.74-7.55,1.07-.35,2.13-.64,3.16-.85.53-.11,1.05-.2,1.56-.27.09-.01.18-.02.26-.03,3.26-.42,5.95-.06,7.14,1.04.2.19.35.39.46.61.48.99-.03,2.21-1.26,3.43ZM176.63,352.96c.18-.26.4-.51.66-.75.05-.05.1-.09.15-.13.23-.21.48-.4.76-.57.23-.15.47-.29.73-.41,0,0,0,0,.01,0,.39-.19.81-.36,1.26-.51,1.69-.56,3.39-.62,4.64-.28.34.1.64.22.9.37.08.04.14.09.2.13.06.04.11.08.17.13.21.18.39.39.5.63.37.77.08,1.68-.7,2.5-.7.75-1.8,1.43-3.15,1.87-.5.16-1.01.29-1.5.37-1.95.31-3.72-.01-4.56-.86-.15-.14-.27-.31-.36-.49-.29-.62-.16-1.31.29-1.99ZM169.63,373.78c.06-.37.16-.74.29-1.12.09-.25.19-.51.31-.76.39-.83.9-1.56,1.47-2.14.15-.15.3-.29.45-.41.99-.85,2.11-1.27,3.1-1.09.14.03.29.08.43.13.28.11.52.26.73.46,1.15,1.09,1.3,3.36.26,5.59-.13.28-.28.55-.43.8-.15.25-.31.49-.49.71-.09.11-.18.23-.27.33-.09.1-.18.21-.28.3-.1.1-.19.2-.29.28-1.18,1.07-2.56,1.54-3.69,1.1-.28-.11-.53-.27-.73-.47-.82-.78-1.13-2.17-.86-3.71ZM175.63,394.7c-.16.15-.36.27-.58.35-.97.31-2.22-.25-3.34-1.36-.1-.09-.2-.2-.3-.31-.21-.21-.4-.44-.58-.69h0c-.38-.51-.72-1.07-1.01-1.67-.36-.76-.61-1.5-.74-2.2-.35-1.85.07-3.34,1.22-3.72,1.57-.52,3.91,1.28,5.23,4.03,1.14,2.36,1.13,4.65.1,5.57ZM194.12,399.64c-.22.18-.46.37-.73.55-.27.18-.56.36-.87.54-.32.17-.65.34-1,.5-.53.24-1.1.47-1.71.67-2.89.96-5.67,1.06-7.02.38-.34-.18-.59-.4-.72-.68-.29-.61.02-1.35.78-2.1.56-.56,1.38-1.12,2.38-1.63.33-.17.69-.33,1.06-.48.37-.15.76-.3,1.16-.43.21-.07.41-.13.62-.19,2.67-.77,5.16-.82,6.41-.19.34.18.59.4.72.68.32.68-.11,1.54-1.08,2.38ZM219.66,314.98c-.11.24-.27.46-.46.65-.12.14-.26.26-.43.37-.08.05-.16.11-.25.16-.17.1-.36.19-.56.27-.3.13-.64.22-1,.3-2.18.46-5.32.09-8.49-1.16-.55-.22-1.09-.46-1.59-.71-.51-.25-.99-.51-1.44-.79-.46-.28-.88-.56-1.28-.86-.59-.44-1.12-.9-1.55-1.37-1.37-1.45-1.95-2.95-1.39-4.15.15-.32.37-.6.66-.84.21-.18.47-.34.75-.48.19-.09.39-.17.6-.24.11-.04.23-.08.34-.1,1.43-.38,3.35-.37,5.45.06.27.06.55.12.83.19.56.14,1.13.31,1.7.51.29.1.57.21.86.32,5.1,2.01,8.34,5.53,7.25,7.87ZM223.6,324.09c.05-.06.11-.11.17-.17.23-.21.5-.38.81-.48.9-.3,1.99-.04,3.11.65.65.4,1.32.95,1.96,1.61,1.13,1.16,2.19,2.69,3.03,4.43,2.14,4.47,1.98,8.72-.36,9.49-1.42.47-3.32-.46-5.07-2.26-.49-.5-.96-1.06-1.4-1.68,0,0,.01,0,0-.01-.45-.62-.87-1.29-1.25-2.01-.13-.24-.25-.49-.37-.74-1.79-3.72-1.98-7.29-.63-8.83ZM220.6,393.56c-.53.17-1.06.3-1.58.39-1.7.28-3.3.09-4.41-.48-.59-.31-1.05-.73-1.3-1.25-.49-1.04-.07-2.25,1-3.29.19-.19.41-.37.64-.54.34-.26.73-.5,1.16-.72.43-.22.89-.42,1.39-.58,3.17-1.04,6.43-.44,7.28,1.34.86,1.79-1.02,4.09-4.18,5.13ZM233.83,363.28c-1.57,3.34-4.42,5.43-6.37,4.67-1.95-.78-2.27-4.12-.71-7.47.46-.98,1.03-1.86,1.66-2.58.06-.08.13-.15.19-.21.11-.13.22-.25.35-.36.12-.12.24-.23.36-.34.36-.32.74-.58,1.11-.79t.01-.01c.95-.52,1.89-.68,2.69-.37.14.05.27.12.39.2,1.6,1.05,1.77,4.15.32,7.26Z"/><path class="cls-2" d="M232.32,339.62c-2.33.77-5.96-2.23-8.1-6.7-2.14-4.47-1.98-8.72.35-9.49,2.34-.77,5.96,2.23,8.1,6.7,2.14,4.47,1.98,8.72-.36,9.49Z"/><path class="cls-2" d="M227.46,367.95c-1.95-.78-2.27-4.12-.7-7.46,1.57-3.35,4.42-5.44,6.37-4.67,1.95.78,2.27,4.12.7,7.46-1.56,3.35-4.42,5.44-6.37,4.67Z"/><path class="cls-2" d="M160.1,303.53c-1.06-2.23,2.84-5.61,8.74-7.55,5.89-1.94,11.52-1.71,12.59.51,1.07,2.23-2.84,5.61-8.73,7.55-5.89,1.94-11.52,1.71-12.59-.51Z"/><path class="cls-2" d="M19.42,355.94c-4.44-1.76-6.6-6.27-4.82-10.07,1.77-3.81,6.82-5.47,11.25-3.71,4.44,1.75,6.6,6.26,4.82,10.07-1.78,3.8-6.82,5.47-11.25,3.71Z"/><path class="cls-2" d="M26.21,331.53c-2.17-4.53,4.02-10.83,13.83-14.07,9.81-3.23,19.51-2.18,21.68,2.35,2.17,4.53-4.02,10.82-13.83,14.06s-19.51,2.19-21.68-2.34Z"/><path class="cls-2" d="M77.53,332.96c-1.56-3.27,3.02-7.84,10.23-10.22,7.22-2.38,14.33-1.66,15.89,1.6,1.56,3.27-3.02,7.84-10.23,10.22-7.21,2.38-14.33,1.66-15.89-1.6Z"/><path class="cls-2" d="M110.39,307.18c-1.56-3.27,4.36-8.28,13.23-11.21,8.87-2.93,17.33-2.66,18.89.61,1.56,3.26-4.36,8.28-13.23,11.21-8.88,2.93-17.34,2.66-18.89-.61Z"/><path class="cls-2" d="M208.47,315.57c-5.09-2.01-8.34-5.54-7.25-7.88,1.09-2.33,6.1-2.6,11.2-.58,5.09,2.01,8.33,5.54,7.25,7.88-1.09,2.33-6.1,2.6-11.2.58Z"/><path class="cls-2" d="M213.31,392.22c-.85-1.79,1.02-4.09,4.18-5.13,3.17-1.04,6.43-.44,7.29,1.34.85,1.79-1.02,4.09-4.18,5.13-3.17,1.04-6.43.44-7.29-1.34Z"/><path class="cls-2" d="M182.07,401.6c-.66-1.36,1.76-3.44,5.38-4.64s7.1-1.06,7.75.3c.65,1.36-1.76,3.44-5.39,4.63-3.63,1.2-7.09,1.07-7.74-.29Z"/><path class="cls-2" d="M171.22,377.95c-1.78-.71-2.22-3.41-.99-6.06,1.24-2.64,3.67-4.21,5.45-3.51,1.78.7,2.22,3.41.99,6.06-1.24,2.64-3.67,4.21-5.45,3.51Z"/><path class="cls-2" d="M169.83,391.01c-1.31-2.75-1.11-5.39.47-5.91,1.58-.52,3.92,1.28,5.24,4.03,1.31,2.75,1.1,5.39-.48,5.91-1.57.52-3.92-1.28-5.23-4.03Z"/><path class="cls-2" d="M176.35,354.95c-.71-1.48,1.01-3.44,3.85-4.37,2.83-.93,5.7-.49,6.41.98.71,1.48-1.02,3.44-3.85,4.37-2.83.94-5.7.5-6.41-.98Z"/><path class="cls-2" d="M282.82,240.15c-10.92,20.54-22.15,33.81-33.16,41.8-22.51,16.34-44.12,10.62-60.36-.11-10.48-6.92-16.94-16.78-20.24-27.06-7.3-22.72.86-47.51,15.34-47.26-4.34,22.7-3.5,37.43.1,47.44,4.86,13.52,14.76,18.46,23.74,22.88,6.49,3.19,16.18-.45,25.12-8.06,12.62-10.72,23.74-29.33,22.24-47.74-7.78-95.18-92.63-111.64-164.64-31.6C51.82,233.94,20.12,243.3,0,243.24v-45.79c4.72-.52,10.21-1.86,16.65-4.23,4.29-1.57,9.01-3.61,14.19-6.16,10.23-5.03,22.3-12.08,36.59-21.62,13.27-8.86,28.46-19.86,45.88-33.38,3.05-2.37,6.08-4.57,9.11-6.59,3.9-2.64,7.77-5,11.62-7.09,1.66-.92,3.31-1.77,4.96-2.59,2.14-1.05,4.27-2.02,6.39-2.92,3.76-1.59,7.48-2.94,11.16-4.06,1.87-.58,3.74-1.09,5.59-1.55,4.8-1.18,9.53-1.98,14.17-2.43,6.14-.6,12.14-.57,17.96,0,68.55,6.7,113.02,89.29,88.55,135.32Z"/><path class="cls-1" d="M255.6,222.04c-7.78-95.18-92.63-111.64-164.64-31.6C51.82,233.94,20.12,243.3,0,243.24v29.34h0c.52-.03,1.07-.03,1.61-.03.7.01,1.39.05,2.06.12.45.04.89.1,1.32.17.43.06.86.14,1.27.23.21.04.41.09.61.14.61.15,1.19.32,1.75.51.56.19,1.09.4,1.59.63.5.23.97.48,1.4.74.58.35,1.1.73,1.55,1.14.12.1.23.21.33.31,1.06,1.06,1.64,2.27,1.62,3.54-.03,1.4-.79,2.7-2.09,3.79-2.16,1.82-8.78,3.05-13.02,3.24v9.56c23.43,2.47,64.63-7.23,92.94-28.62,9.68-7.31,18.39-16.18,25.27-26.71,23.61-36.13,30.9-69.07,68.07-72.15,37.17-3.07,60.95,53.02,40.74,77.42-6.89,8.31-12.68,12.18-17.43,12.81-2.66.35-4.99-.32-6.99-1.82-4.9-3.66-7.81-12.24-8.79-22.69-2.09-22.32,11.6-27.03-9.42-27.39-4.34,22.7-3.5,37.43.1,47.44,4.86,13.52,14.76,18.46,23.74,22.88,6.49,3.19,16.18-.45,25.12-8.06,12.62-10.72,23.74-29.33,22.24-47.74ZM44.05,236.7c.33-.34.66-.67,1-1,7.71-7.44,17.07-10.25,20.91-6.27,3.83,3.98.7,13.23-6.99,20.67-7.71,7.44-17.07,10.26-20.91,6.28-3.67-3.81-.99-12.42,5.99-19.68ZM50.61,276.75c-.09,4.8-4.04,8.62-8.84,8.54-.59,0-1.17-.08-1.73-.2-.28-.06-.55-.14-.82-.23-.13-.04-.26-.09-.4-.14-.39-.15-.77-.32-1.13-.53-.12-.07-.24-.14-.36-.21-.23-.14-.46-.3-.68-.47-2.12-1.62-3.47-4.19-3.42-7.06.01-.22.02-.44.04-.66.02-.22.05-.44.08-.65.02-.1.04-.2.06-.3.03-.18.07-.36.12-.53.04-.14.08-.28.13-.41.01-.06.03-.11.05-.17.03-.08.05-.15.09-.22.04-.14.1-.27.15-.4.08-.18.17-.36.27-.54.14-.28.3-.55.47-.8.07-.11.13-.2.2-.29.73-1,1.65-1.83,2.72-2.43.14-.08.27-.15.41-.22.18-.1.36-.18.55-.25.08-.04.15-.07.23-.09.14-.06.29-.11.43-.16.21-.07.41-.13.62-.17.19-.05.39-.09.59-.12.15-.03.3-.06.46-.07.1-.02.2-.02.31-.03.23-.02.46-.03.69-.03h.17c.45,0,.88.05,1.31.12.2.03.39.07.58.12.06.01.11.03.17.04.11.03.21.06.32.1.21.05.41.12.61.2.28.11.56.24.83.38.16.08.31.17.47.26.09.05.18.1.26.16.27.17.52.35.76.55.16.13.32.27.47.41.14.14.28.27.41.41.05.05.1.1.14.15.1.12.2.24.3.36.13.16.25.33.37.5.35.51.65,1.06.89,1.65.1.25.2.52.28.78.08.25.14.5.19.75.03.11.05.22.06.34.04.23.07.46.09.7.02.23.03.46.03.69v.17ZM101.15,232.38c-5.67,5.47-12.51,7.59-15.28,4.72-.1-.1-.19-.21-.28-.32-.26-.34-.46-.72-.6-1.13-.62-1.76-.22-4.18,1.01-6.76.25-.51.52-1.02.82-1.54.31-.51.64-1.03,1.01-1.55.73-1.03,1.58-2.06,2.54-3.06.24-.25.49-.5.74-.74.99-.95,2.01-1.8,3.04-2.55,4.89-3.52,9.95-4.55,12.24-2.18,2.77,2.87.42,9.63-5.24,15.11ZM123.23,189.14c-.33.31-.65.62-.98.92-.66.6-1.33,1.17-1.99,1.7-.34.26-.67.52-1,.77-.67.5-1.33.96-1.99,1.38-5.04,3.26-9.68,4.3-11.67,2.24h0c-2.77-2.88.63-10.66,7.6-17.39,6.97-6.74,14.87-9.87,17.64-7,2.77,2.86-.64,10.65-7.61,17.38ZM165.78,162.35c-.24.42-.51.85-.81,1.28-.88,1.3-2,2.63-3.32,3.9-4.62,4.47-9.9,6.5-11.8,4.56-1.17-1.22-.75-3.69.83-6.46.24-.42.51-.85.81-1.28.74-1.09,1.64-2.19,2.69-3.26.2-.22.41-.43.63-.64h0c1.07-1.04,2.18-1.94,3.27-2.7.44-.3.87-.58,1.3-.83,2.82-1.66,5.4-2.23,6.81-1.35.15.09.29.2.41.33,1.17,1.21.76,3.68-.83,6.45ZM207.9,162.93c-.16.14-.33.27-.52.4-1.3.93-3.18,1.61-5.34,1.9-.88.13-1.81.19-2.77.17-.34-.01-.67-.02-1-.05h-.01c-1.17-.08-2.27-.27-3.28-.55-.14-.04-.29-.08-.43-.12-.28-.09-.55-.18-.81-.28-.26-.1-.52-.2-.76-.32-.36-.17-.71-.35-1.03-.54-.21-.13-.41-.26-.6-.4-1.25-.92-1.98-2.05-1.96-3.26.02-.99.54-1.91,1.44-2.69.16-.14.33-.27.52-.4,1.3-.93,3.17-1.61,5.34-1.9.88-.12,1.8-.18,2.76-.16.34.01.68.02,1.02.04,1.16.09,2.27.28,3.28.55.29.08.57.16.84.26.28.09.54.19.79.3.76.32,1.44.69,2,1.11.19.13.36.27.53.43,0,0,0,0,.01,0,.08.07.16.15.23.23.77.77,1.2,1.65,1.19,2.58-.02,1-.54,1.92-1.44,2.7ZM231.04,181.51h0c-1.07,1.05-3.09.88-5.34-.24-.35-.18-.71-.37-1.07-.59-.36-.21-.72-.45-1.08-.72-.55-.4-1.1-.84-1.64-1.32-.36-.32-.71-.66-1.06-1.02-.68-.71-1.29-1.43-1.82-2.16-.52-.73-.98-1.46-1.35-2.18-.19-.35-.35-.7-.49-1.04-.87-2.12-.9-3.96.12-4.94.12-.12.26-.22.4-.31.22-.13.46-.22.72-.29,1.11-.27,2.6.05,4.22.84.35.17.71.37,1.07.59s.72.46,1.09.72c.91.66,1.82,1.45,2.69,2.35.68.71,1.28,1.43,1.82,2.16.13.18.26.37.38.55.37.54.69,1.09.97,1.62.09.17.18.35.26.53.16.35.3.69.42,1.03.67,1.9.62,3.52-.31,4.42ZM193.76,238.94c.04.18.08.36.11.55.11.6.16,1.24.15,1.91-.03,1.45-.35,2.78-.86,3.81-.14.29-.3.56-.47.8-.44.61-.96,1.04-1.52,1.24-.24.09-.48.13-.73.13-.48-.01-.92-.18-1.33-.49-1.24-.93-2.09-3.1-2.05-5.61.06-3.33,1.66-6,3.58-5.97.53.01,1.02.22,1.46.6.06.04.11.09.16.14.68.64,1.21,1.66,1.5,2.89ZM185.53,217.3c.15-.39.35-.79.59-1.18.37-.59.84-1.18,1.42-1.73.55-.53,1.13-.98,1.72-1.32,1.8-1.05,3.63-1.21,4.58-.23,1.25,1.3.46,4.09-1.77,6.24-2.22,2.15-5.04,2.85-6.3,1.55-.2-.21-.35-.46-.45-.74-.25-.72-.17-1.63.21-2.59ZM200.31,264.52c-.09.04-.19.06-.29.08-1.45.28-3.67-.73-5.54-2.66-.2-.21-.39-.42-.57-.64-.18-.21-.35-.43-.51-.65-.08-.11-.15-.22-.23-.33-.21-.33-.4-.65-.56-.97-.51-1.01-.74-1.98-.65-2.76.01-.11.03-.2.06-.29.01-.1.04-.19.08-.27.03-.09.07-.16.12-.24,0,0,0-.03.02-.04.02-.03.04-.07.07-.1-.01-.01,0-.02.02-.03.05-.08.11-.15.17-.21.11-.11.25-.19.39-.27.05-.03.11-.05.16-.07.14-.06.29-.11.46-.14.14-.02.27-.03.42-.03.11,0,.22.01.33.02.11.01.23.02.34.05.12.02.24.05.36.08.12.03.24.07.36.11.16.06.32.13.49.2.17.07.35.15.52.24.17.09.34.19.52.3.17.1.33.21.5.32.17.13.35.25.51.4.01,0,.02.01.03.01.04.04.08.07.11.09.15.12.29.25.43.38.18.16.35.33.53.51.2.21.39.42.57.64.27.32.51.64.73.97h.01c.21.33.4.66.56.98h.01c.1.22.2.43.27.64.05.11.08.21.12.32.42,1.25.35,2.35-.3,2.98-.18.18-.39.3-.62.38ZM217.31,265.5h0c-.93.91-1.9,1.64-2.82,2.19-.27.15-.53.3-.78.42-.25.13-.5.23-.75.32-1.27.48-2.33.49-2.9-.1-1.16-1.2.21-4.41,3.06-7.16.17-.16.34-.32.51-.47,0-.01,0,0,0,0,.12-.11.23-.21.34-.3.12-.11.23-.2.35-.29.22-.18.45-.34.67-.5.44-.32.88-.59,1.31-.82,0,0,.02-.02.03-.02.2-.1.4-.2.6-.29.1-.05.21-.1.31-.14.17-.07.34-.13.51-.19.14-.04.28-.08.42-.12.02-.01.04-.01.06-.01.93-.22,1.69-.12,2.14.34.08.07.13.15.18.23.19.33.26.75.21,1.24,0,.07-.01.14-.03.21-.07.45-.23.96-.48,1.5-.11.25-.25.51-.4.77-.11.18-.23.37-.35.57-.57.87-1.31,1.76-2.2,2.62ZM236.2,199.84c.1-.14.21-.27.32-.38.56-.59,1.19-.92,1.86-.91.39.01.76.13,1.11.35.12.07.23.16.34.26.11.09.22.19.32.31.21.23.4.5.59.8.85,1.42,1.37,3.58,1.33,6-.05,2.88-.9,5.39-2.1,6.67-.11.12-.22.23-.34.32-.23.19-.47.34-.71.44-.27.11-.53.16-.81.16-.13,0-.26-.02-.38-.05-.13-.03-.25-.07-.37-.12-.24-.1-.47-.25-.7-.44-1.37-1.17-2.3-3.92-2.24-7.11.04-2.63.75-4.94,1.78-6.3ZM242.54,243.8c-.1.1-.2.2-.3.3-.4.38-.81.72-1.23,1.01-.43.3-.86.54-1.29.74-.61.28-1.22.47-1.79.55-1.18.18-2.24-.07-2.94-.79-1.45-1.5-.79-4.53,1.46-6.89l.3-.3c.39-.38.81-.72,1.23-1.02.43-.29.86-.54,1.29-.74.65-.3,1.3-.49,1.91-.57,1.14-.14,2.15.11,2.82.81,1.46,1.51.79,4.53-1.46,6.9Z"/><path class="cls-2" d="M231.04,181.51c-1.83,1.77-6.39.03-10.18-3.9-3.8-3.92-5.38-8.54-3.55-10.32,1.84-1.77,6.39-.03,10.19,3.9,3.79,3.93,5.37,8.54,3.54,10.32Z"/><path class="cls-2" d="M238.11,213.85c-2.11-.04-3.77-3.49-3.69-7.72.07-4.23,1.85-7.62,3.96-7.59,2.11.04,3.77,3.49,3.69,7.72-.07,4.22-1.85,7.62-3.96,7.59Z"/><path class="cls-2" d="M149.85,172.09c-1.89-1.96.33-7.16,4.96-11.64,4.62-4.47,9.91-6.51,11.79-4.55,1.89,1.96-.33,7.16-4.95,11.63-4.62,4.47-9.91,6.51-11.8,4.56Z"/><path class="cls-2" d="M2.98,287.11L0,272.58c.53-.02,1.07-.03,1.61-.02,7.52.13,13.57,3.5,13.5,7.53-.06,3.74-5.36,6.72-12.13,7.03Z"/><path class="cls-2" d="M41.77,285.29c-4.8-.09-8.63-4.04-8.54-8.84.08-4.81,4.04-8.63,8.84-8.54,4.8.08,8.62,4.04,8.54,8.84-.09,4.8-4.04,8.62-8.84,8.54Z"/><path class="cls-2" d="M38.06,256.38c-3.84-3.98-.72-13.24,6.99-20.68,7.71-7.44,17.07-10.25,20.91-6.27,3.84,3.97.72,13.23-6.99,20.68-7.71,7.44-17.06,10.26-20.91,6.28Z"/><path class="cls-2" d="M85.87,237.1c-2.77-2.87-.42-9.63,5.25-15.11,5.67-5.48,12.51-7.59,15.28-4.72,2.76,2.87.41,9.63-5.25,15.11-5.67,5.47-12.51,7.59-15.28,4.72Z"/><path class="cls-2" d="M105.6,196.14c-2.77-2.87.64-10.65,7.61-17.38,6.97-6.74,14.87-9.87,17.64-7,2.77,2.86-.64,10.65-7.61,17.38-6.98,6.73-14.87,9.87-17.64,7Z"/><path class="cls-2" d="M199.28,165.4c-5.51-.09-9.94-2.56-9.88-5.51.05-2.94,4.56-5.26,10.06-5.16,5.51.1,9.93,2.56,9.88,5.51-.05,2.94-4.56,5.26-10.07,5.16Z"/><path class="cls-2" d="M234.99,245.61c-1.51-1.57-.73-4.79,1.76-7.19,2.49-2.4,5.74-3.08,7.25-1.51,1.51,1.57.73,4.79-1.76,7.19-2.49,2.4-5.74,3.08-7.25,1.51Z"/><path class="cls-2" d="M210.06,268.33c-1.16-1.2.21-4.4,3.06-7.16s6.1-4.02,7.26-2.82c1.16,1.2-.22,4.4-3.07,7.15-2.85,2.76-6.09,4.02-7.25,2.82Z"/><path class="cls-2" d="M190.44,247.37c-1.93-.03-3.43-2.76-3.38-6.09.06-3.33,1.66-6,3.58-5.97,1.92.04,3.43,2.76,3.38,6.09-.06,3.33-1.66,6-3.58,5.97Z"/><path class="cls-2" d="M194.48,261.94c-2.33-2.41-3.22-5.33-1.98-6.53,1.24-1.19,4.13-.21,6.46,2.2,2.33,2.41,3.21,5.33,1.97,6.53-1.23,1.19-4.13.21-6.46-2.2Z"/><path class="cls-2" d="M185.77,220.63c-1.26-1.3-.47-4.1,1.76-6.25,2.22-2.14,5.05-2.84,6.3-1.54,1.26,1.3.47,4.1-1.76,6.24-2.22,2.15-5.04,2.85-6.3,1.55Z"/><path class="cls-2" d="M206.17,65.98c-2.36,16.49-6.55,29.18-11.9,38.85-13.27,24.04-33.66,29.47-50.87,28.46-8.59-.51-15.6-3.5-20.98-7.82-15.63-12.55-17.54-36.28-4.9-42.45,3.65,20.15,9.64,30.33,16.52,35.36,7.35,5.38,15.72,4.89,23.38,4.4,6.62-.42,13.88-7.91,18.89-17.95,6.21-12.46,8.95-28.85,2.66-40.52C144.64.54,71.66,23.42,37.47,108.96,25.72,138.35,12.34,156.93,0,168.67v-57.95c9.68-9.13,21.91-24.88,38.18-51.9,62.39-103.55,176.22-50.32,167.99,7.16Z"/><path class="cls-1" d="M178.97,64.31C144.64.54,71.66,23.42,37.47,108.96c-11.75,29.39-25.13,47.97-37.47,59.71v32.41c1.3.15,2.29.57,2.81,1.29.1.13.17.28.23.43.7,1.77-.55,4.23-3.04,6.56v12.4c20.16-11.02,48.85-32.54,67.43-56.32,8.38-10.7,14.7-21.87,17.27-32.74,8.29-35-5.9-60.14,23.03-77.4,28.94-17.26,65.6,12.9,55.55,37.89-8.94,22.21-19.3,22.4-27.56,7.57-8.26-14.84-3.83-21.23-18.2-17.74,3.65,20.15,9.64,30.33,16.52,35.36,7.35,5.38,15.72,4.89,23.38,4.4,6.62-.42,13.88-7.91,18.89-17.95,6.21-12.46,8.95-28.85,2.66-40.52ZM49.33,98.93c.07-.34.15-.68.25-1.04.03-.12.06-.25.1-.38.11-.4.23-.81.37-1.23.47-1.46,1.08-3,1.83-4.57,1.15-2.41,2.49-4.61,3.87-6.45.25-.33.5-.65.75-.96.44-.54.89-1.05,1.34-1.51.07-.07.13-.14.2-.2.43-.44.86-.84,1.29-1.2.19-.16.38-.31.57-.45.86-.63,1.68-1.07,2.43-1.28.46-.12.89-.16,1.3-.11.11.02.23.04.34.08.26.07.49.19.7.34.28.2.51.48.7.82.14.25.26.54.36.86.46,1.57.36,3.88-.3,6.6-.11.46-.23.93-.38,1.4-.49,1.67-1.18,3.46-2.05,5.29-.42.88-.86,1.73-1.33,2.54-.23.41-.46.8-.7,1.19-.28.46-.58.92-.88,1.35-.19.29-.39.58-.59.86-.37.51-.75,1-1.13,1.47,0,.01-.01.01-.01.01-.32.39-.64.76-.95,1.11-.19.2-.38.4-.57.59-.19.2-.38.38-.57.56-1.32,1.23-2.6,2.06-3.73,2.37-.11.03-.21.06-.31.07-.34.07-.67.08-.98.04h-.01c-.12,0-.23-.04-.34-.07-.43-.12-.79-.37-1.08-.71-1.09-1.29-1.25-4-.49-7.39ZM46.91,131.09c2.93-6.16,7.8-10.42,10.87-9.53.49.14.91.41,1.25.79.14.15.26.31.37.5,1.12,1.86.99,5.35-.44,9.25h-.01c-.26.73-.57,1.47-.92,2.21-1.26,2.63-2.86,4.91-4.53,6.6-.22.23-.45.44-.67.64-.45.41-.89.77-1.34,1.08-.11.07-.23.15-.34.22-.22.15-.44.28-.65.39h-.01c-.22.12-.43.22-.64.31-.98.4-1.9.52-2.7.29-3.07-.89-3.18-6.6-.24-12.75ZM13.97,159.43c3.99-8.36,10.67-14.14,14.93-12.9.14.04.27.09.4.14.39.17.75.39,1.06.67.1.08.2.18.3.29.19.21.37.44.52.7.16.25.3.53.42.83.41,1,.62,2.23.64,3.62.02,1.39-.16,2.96-.54,4.62-.21.91-.48,1.85-.8,2.82-.41,1.2-.91,2.44-1.51,3.69-.23.48-.46.94-.7,1.4-.36.69-.75,1.36-1.15,2-.39.64-.8,1.26-1.22,1.85-.98,1.38-2.03,2.62-3.1,3.69-.29.3-.6.59-.91.87t-.01,0c-.3.27-.61.53-.92.77-.46.37-.91.69-1.37.98t0,.01c-.3.19-.6.36-.9.52-.45.23-.9.43-1.33.58-1.19.42-2.32.52-3.31.23-.7-.2-1.29-.58-1.76-1.11-2.46-2.69-2.07-9.28,1.27-16.28ZM30.93,187.67c.03.31.04.61.02.92,0,.04,0,.08,0,.12-.02.31-.06.61-.12.92-.04.18-.08.37-.13.55-.3,1.06-.85,2.09-1.6,3-.1.12-.2.23-.3.34-.1.12-.21.23-.32.34-.17.17-.36.34-.55.5-.19.17-.39.33-.6.47-.18.13-.35.25-.54.36-.26.16-.53.31-.81.45-1.24.6-2.51.89-3.72.89-.16,0-.32,0-.47-.02-.95-.06-1.85-.3-2.64-.71-.26-.13-.51-.28-.74-.46-.37-.27-.71-.59-1-.94-.03-.03-.05-.06-.08-.09-.05-.07-.11-.14-.16-.22-.03-.04-.06-.08-.09-.12-.06-.08-.11-.16-.16-.25-.07-.14-.15-.27-.21-.41-.02-.03-.04-.06-.05-.09-.06-.1-.11-.21-.15-.32-.07-.18-.13-.36-.18-.54h0c-.11-.37-.18-.74-.21-1.11t0-.02c-.05-.55-.02-1.1.07-1.65.26-1.62,1.1-3.21,2.38-4.48.14-.15.29-.28.44-.42.61-.54,1.31-1.01,2.08-1.38.16-.08.31-.15.47-.21.31-.14.62-.25.93-.34,1.95-.58,3.89-.41,5.43.39.26.13.51.28.74.46.24.16.46.35.67.57.1.1.2.21.3.32.01.01,0,.01,0,.01.2.23.37.46.52.72.16.26.3.53.41.82.13.33.23.67.29,1.02.04.2.07.4.09.61ZM89.4,57.65c-.04.52-.13,1.08-.25,1.66-.17.81-.42,1.67-.74,2.57-.27.73-.58,1.48-.95,2.25-.14.29-.28.58-.43.87-.29.56-.59,1.1-.91,1.61-2.27,3.66-5.05,6.02-6.78,5.52-.24-.07-.45-.19-.63-.36-.18-.16-.33-.38-.45-.63-.6-1.31-.42-3.69.52-6.46.17-.56.39-1.14.64-1.72.15-.34.31-.68.47-1.03,2.39-5.02,6.03-8.6,8.12-7.99,1.1.32,1.55,1.72,1.39,3.71ZM119.75,45.75c-.41.29-.84.57-1.29.84-.45.26-.93.52-1.42.76-3.91,1.91-7.68,2.19-9.11.81-.2-.19-.36-.41-.46-.67-.18-.47-.18-1.01,0-1.59.33-1.14,1.3-2.43,2.71-3.64.53-.45,1.12-.89,1.76-1.3h0c.43-.29.88-.56,1.35-.81,0,0,0-.01.01-.01l.72-.36c3.36-1.64,6.62-2.08,8.38-1.3.01,0,.01.01.01.01.28.13.52.29.72.48.2.19.35.41.45.66.65,1.63-.99,4.08-3.84,6.12ZM147.29,45.78c-.04.09-.09.17-.13.25-.34.53-.94.96-1.71,1.25-.11.04-.23.08-.36.12-.35.12-.73.2-1.13.27h-.02c-.27.04-.55.08-.83.1-1.54.12-3.34-.07-5.14-.59-4.21-1.22-6.84-3.82-5.89-5.82.11-.24.28-.46.49-.66.34-.34.81-.61,1.36-.83.11-.05.23-.09.35-.12.35-.11.73-.2,1.14-.27h.01c.27-.04.55-.07.84-.1,1.54-.12,3.34.07,5.14.59,1.36.39,2.55.93,3.51,1.55.32.21.61.42.88.64.14.11.27.23.38.34,1.14,1.08,1.6,2.26,1.11,3.28ZM164.07,63c-.02.19-.06.37-.1.55h0c-.04.19-.1.36-.16.52-.14.37-.32.7-.53.97-.22.26-.47.47-.76.61-.07.03-.14.07-.22.09-.4.15-.84.16-1.28.05-.17-.04-.35-.1-.52-.18-.33-.15-.66-.36-.98-.62-.1-.08-.2-.17-.29-.26-.1-.09-.19-.18-.28-.28-.1-.1-.19-.2-.28-.31-.18-.22-.36-.46-.52-.71-.17-.25-.33-.52-.47-.8-.15-.29-.29-.59-.41-.9-.06-.14-.11-.29-.16-.43-.1-.29-.18-.58-.25-.86-.07-.29-.13-.57-.17-.85-.2-1.36-.07-2.62.37-3.54.05-.12.11-.24.18-.35.06-.1.13-.2.22-.29.03-.06.07-.11.12-.15.06-.07.12-.13.19-.18.08-.08.16-.14.25-.18.06-.04.12-.08.19-.11.45-.22.95-.26,1.45-.15.05.01.09.02.12.03.15.04.3.09.45.16.33.15.66.36.98.62.1.08.2.17.29.26.1.09.19.18.28.28.09.09.19.2.28.31.18.22.35.46.52.71.33.5.62,1.08.87,1.7.6,1.5.79,3.03.62,4.29ZM168.67,83.48c1.29-2.7,3.7-4.5,5.38-4.01.12.04.24.08.35.14.1.06.2.12.3.21.27.23.48.55.63.93,0,0,.01,0,0,.01.27.73.29,1.69.04,2.75-.13.56-.33,1.14-.61,1.73-.72,1.5-1.78,2.72-2.87,3.43-.22.14-.44.26-.66.36-.65.29-1.29.38-1.85.22-1.68-.49-2-3.07-.71-5.77ZM127.1,88.03c-1.15,2.42-3.21,4.05-4.6,3.65-.1-.03-.19-.07-.28-.11-.08-.05-.17-.11-.24-.17-.9-.77-.91-2.75.09-4.83.45-.94,1.04-1.77,1.68-2.4.99-.98,2.08-1.48,2.92-1.24.19.06.37.15.51.27.91.77.92,2.75-.08,4.83ZM129.63,105.68c-.94-2.37-.44-4.9,1.11-5.66,1.55-.75,3.57.55,4.51,2.91.93,2.37.44,4.9-1.11,5.66-1.56.76-3.57-.55-4.51-2.91ZM147.51,116.12c-.03.06-.06.11-.09.17-.07.11-.16.21-.25.3-.19.19-.42.35-.7.49-.14.07-.29.13-.45.18-.23.08-.49.15-.76.19-.87.16-1.91.13-2.96-.1-.2-.05-.41-.1-.62-.16-.42-.12-.81-.27-1.17-.44-.24-.11-.46-.22-.67-.35-.15-.09-.3-.18-.43-.28-.01,0-.02-.01-.03-.02-.13-.09-.24-.19-.35-.28-.01-.01-.02-.01-.03-.03-.08-.07-.15-.14-.22-.21-.09-.09-.17-.18-.24-.27-.22-.27-.37-.55-.45-.82-.02-.07-.04-.12-.04-.18-.02-.1-.03-.19-.03-.28,0-.22.05-.43.14-.63.28-.57.9-.98,1.73-1.21.14-.04.29-.07.44-.1.06-.02.12-.03.18-.03,1.03-.17,2.26-.09,3.49.27.13.04.26.08.38.12.24.07.47.16.69.27.11.05.21.09.32.15.18.08.36.18.52.29.16.1.31.2.44.3.28.21.52.43.72.66.38.45.59.93.58,1.39,0,.21-.05.41-.14.61ZM162.11,107.4c-.19.92-.54,1.96-1.05,3.03-.2.42-.41.83-.65,1.21-.11.2-.23.4-.36.59-.07.13-.15.25-.24.36-.26.38-.52.73-.8,1.05-.73.84-1.47,1.44-2.11,1.65-.3.12-.58.14-.83.07-.07-.02-.14-.05-.2-.09-.6-.34-.79-1.35-.59-2.68.05-.34.12-.7.23-1.08.2-.76.51-1.59.91-2.43.04-.09.09-.18.13-.27.01-.02.02-.04.03-.06.1-.2.21-.39.31-.58.49-.88,1.04-1.67,1.59-2.3.1-.12.21-.24.32-.35.1-.12.2-.22.31-.31.05-.05.1-.1.15-.14.12-.12.24-.22.36-.31.16-.13.33-.23.48-.32.12-.07.23-.13.35-.17.01-.02.02-.02.03-.01.11-.06.22-.09.32-.11.11-.03.21-.04.31-.04.11,0,.21.01.3.04.29.08.51.3.65.61.15.33.22.76.21,1.28,0,.17-.01.35-.03.54-.02.18-.05.37-.08.57,0,.03-.01.07-.02.11,0,.05-.02.09-.03.14Z"/><path class="cls-2" d="M147.29,45.79c-.94,1.99-5.12,2.62-9.32,1.39-4.21-1.22-6.84-3.82-5.89-5.81.95-1.99,5.12-2.62,9.33-1.4,4.2,1.22,6.84,3.83,5.89,5.82Z"/><path class="cls-2" d="M162.52,65.65c-1.71.83-4.05-.93-5.24-3.93-1.19-3-.77-6.11.94-6.94,1.71-.83,4.05.93,5.24,3.93,1.19,3,.77,6.11-.94,6.94Z"/><path class="cls-2" d="M79.34,72.13c-2.09-.61-1.85-5.17.55-10.2,2.39-5.02,6.03-8.6,8.12-7.99,2.1.61,1.85,5.17-.54,10.19-2.39,5.02-6.03,8.6-8.13,8Z"/><path class="cls-2" d="M0,209.36v-8.53c1.31.21,2.3.72,2.81,1.54.1.13.17.28.23.43.7,1.77-.55,4.23-3.04,6.56Z"/><path class="cls-2" d="M25.97,195.64c-3.88,1.89-8.12.66-9.47-2.75-1.36-3.41.7-7.71,4.58-9.6,3.88-1.89,8.11-.66,9.47,2.75,1.35,3.41-.7,7.71-4.58,9.6Z"/><path class="cls-2" d="M14.46,176.81c-4.26-1.24-4.48-9.02-.49-17.38,3.99-8.36,10.68-14.14,14.94-12.9,4.26,1.23,4.48,9.01.49,17.38-3.99,8.36-10.67,14.14-14.93,12.91Z"/><path class="cls-2" d="M47.15,143.84c-3.07-.89-3.18-6.6-.25-12.76,2.94-6.15,7.8-10.42,10.87-9.53,3.07.9,3.18,6.61.25,12.76-2.94,6.15-7.8,10.42-10.87,9.53Z"/><path class="cls-2" d="M50.91,107.03c-3.07-.89-2.63-7.75.98-15.31,3.61-7.57,9.02-12.98,12.09-12.09,3.07.89,2.63,7.75-.98,15.31-3.61,7.57-9.03,12.98-12.09,12.09Z"/><path class="cls-2" d="M117.04,47.35c-4.45,2.17-8.73,2.24-9.56.14-.83-2.09,2.11-5.55,6.56-7.72,4.45-2.17,8.73-2.23,9.56-.14.83,2.09-2.11,5.55-6.56,7.72Z"/><path class="cls-2" d="M169.38,89.25c-1.68-.49-2-3.08-.71-5.77,1.29-2.7,3.7-4.5,5.38-4.01,1.68.49,2,3.08.71,5.77-1.29,2.7-3.7,4.5-5.38,4.01Z"/><path class="cls-2" d="M156.07,115.36c-1.29-.37-1.13-3.18.35-6.28s3.71-5.3,4.99-4.93c1.28.37,1.12,3.18-.35,6.28-1.47,3.1-3.7,5.3-4.98,4.93Z"/><path class="cls-2" d="M134.14,108.59c-1.56.76-3.57-.55-4.51-2.91-.93-2.37-.44-4.9,1.11-5.66,1.55-.76,3.57.55,4.51,2.91.93,2.37.44,4.9-1.11,5.66Z"/><path class="cls-2" d="M141.68,117.19c-2.58-.75-4.16-2.44-3.52-3.79.64-1.34,3.25-1.83,5.84-1.08,2.58.75,4.15,2.45,3.51,3.79-.64,1.34-3.25,1.83-5.83,1.07Z"/><path class="cls-2" d="M122.5,91.68c-1.39-.4-1.58-2.69-.43-5.11,1.15-2.41,3.21-4.05,4.6-3.65,1.39.4,1.58,2.69.43,5.11-1.15,2.42-3.21,4.05-4.6,3.65Z"/></svg>