<?xml version="1.0" encoding="UTF-8"?><svg id="Layer_2" xmlns="http://www.w3.org/2000/svg" viewBox="0 0 580.76 468.69"><defs><style>.cls-1{fill:#e2bf9f;}.cls-1,.cls-2,.cls-3,.cls-4,.cls-5,.cls-6,.cls-7{stroke-width:0px;}.cls-2{fill:#ceae8e;}.cls-8{stroke:#9b2a5e;stroke-miterlimit:10;}.cls-8,.cls-5{fill:#9b2a5e;}.cls-3{fill:#d3639c;}.cls-4{fill:#fff;}.cls-6{fill:#f2d5bd;}.cls-7{fill:#aa8c71;}</style></defs><polygon class="cls-6" points="443.72 0 382.19 61.38 181.07 118.98 108.58 139.74 169.54 78.92 443.72 0"/><polygon class="cls-1" points="382.19 61.38 314.93 128.48 193.84 163.34 40.75 207.41 108.58 139.74 181.07 118.98 382.19 61.38"/><path class="cls-7" d="M150.46,430.64l-41.97,12.08-5.77-20.04c7.47.46,15.23,1.31,23.24,2.62,7.93,1.29,16.11,3.05,24.5,5.34Z"/><path class="cls-7" d="M380.61,356.63h0s-11.5-39.95-11.5-39.95h0s-10.74-37.3-10.74-37.3l-43.44-150.9-121.09,34.86-153.09,44.07,27,93.77c12.39-.42,25.67-.12,39.47,1.29,1.08.11,2.15.22,3.23.35,18.21,2.08,37.27,6.13,56.37,13.04,1.32.48,2.64.97,3.97,1.48,14.11,5.4,28.22,12.39,41.99,21.34,8.31,5.39,16.5,11.5,24.5,18.4,13.54,11.67,25.84,19.59,37.1,24.27h0c1.89.79,3.76,1.49,5.59,2.09,8.96,2.96,17.22,3.78,24.89,2.76.01,0,.03,0,.04-.01l6.82-1.97,1.03-.29,5.42-1.57h.01l12.47-3.59,5.35-1.54,37.91-10.91h.01l8.74-2.52-2.06-7.17ZM214.72,327.69l-53.54-53.54,50.13-50.13,37.95-37.95,53.54,53.54-88.08,88.08Z"/><polygon class="cls-4" points="302.8 239.61 214.72 327.69 161.18 274.15 211.31 224.02 249.26 186.07 302.8 239.61"/><path class="cls-3" d="M373.92,366.32c-35.9,48.82-81.67,60.7-135.26,38.93h-.01c-11.95-4.85-24.29-11.38-36.99-19.54-7.63-4.9-15.35-9.18-23.1-12.89-33.21-15.95-66.97-21.63-96.63-22.36-35.93-.87-65.83,5.53-81.43,9.77v-49.51c14.78-3.77,38.67-8.56,67.25-9.53h0c42.74-1.46,95.99,5.64,145.03,37.49,8.31,5.39,16.5,11.5,24.5,18.4,26.94,23.23,49.01,31.6,67.59,29.12.01,0,.03,0,.04-.01,4.63-.62,9.05-1.91,13.27-3.83h.01l55.73-16.04Z"/><path class="cls-8" d="M494.9,251.84c-44.59,180.84-194.31,251.1-290.64,200.23-18.63-9.84-36.66-16.76-53.8-21.43-8.39-2.29-16.57-4.05-24.5-5.34-8.01-1.31-15.77-2.16-23.24-2.62-51.8-3.21-89.75,11.98-102.22,17.83v-80.28c15.6-4.24,45.5-10.64,81.43-9.77,29.66.73,63.42,6.41,96.63,22.36,7.75,3.71,15.47,7.99,23.1,12.89,12.7,8.16,25.04,14.69,36.99,19.54h.01c53.59,21.77,99.36,9.89,135.26-38.93h.01l8.74-2.52,112.23-111.96Z"/><path class="cls-5" d="M554.37,122.87c-23.62,11.12-44.9-17.91-17-22.31,34.56-5.45,13.01-27.14,13.01-27.14-54.65-44.24-42.65,55.23-42.65,55.23.55,27.86-1.01,54.05-4.36,78.57l-32.66-113.46c33.84-63.7,69.53-47.53,77.07-43.76,10.41,5.21,41.81,39.04,6.59,72.87Z"/><path class="cls-3" d="M554.37,122.87c35.22-33.83,3.82-67.66-6.59-72.87-7.54-3.77-43.23-19.94-77.07,43.76l-7.28-25.31c17.23-25.13,38.06-40.92,64.83-40.57,50.13.66,73.52,72.68,26.11,94.99Z"/><polygon class="cls-2" points="511.46 235.31 494.9 251.84 382.67 363.8 380.61 356.63 380.61 356.62 369.11 316.68 369.11 316.67 358.37 279.38 314.93 128.48 382.19 61.38 443.72 0 463.43 68.45 470.71 93.76 503.37 207.22 511.46 235.31"/><path class="cls-5" d="M24.69,312.47c-2.62-.56-6.3-.66-9.78.02-4.97-.13-9.66,1.57-13.04,5.58-2.96,3.51-.84,8.02,3.54,8.54.53.06,1.1.12,1.69.17,1.11.76,2.44,1.27,3.87,1.46,4.42.59,8.56-.95,12.06-3.48.19-.1.38-.2.56-.31.66-.26,1.33-.52,1.99-.81,1.76-.76,2.49-2.57,2.42-4.37.07-.21.14-.42.2-.65.66-2.5-.83-5.58-3.49-6.15Z"/><path class="cls-5" d="M82.32,311.8c-.46-.75-1.09-1.4-1.84-1.96-.88-1.44-2.5-2.3-4.31-2.51-4.18-.49-9.02-1.86-13.11-.35-4.41,1.63-6.07,6.7-3.42,10.57,2.38,3.48,7.24,4.24,11.14,4.32,4.03.08,10.06-.64,11.8-4.93.87-1.69.97-3.71-.27-5.13Z"/><path class="cls-5" d="M48.34,304.49c-3.84-2.08-8.23-1.46-11.48,1.39-1.81,1.58-1.82,4.34-.63,6.27.04.07.09.14.13.21.03.04.06.09.09.13.39.59.89,1.08,1.56,1.38.1.04.19.08.29.12.07.03.14.06.22.09,1.3.54,2.54.93,4.02.93,1.38,0,2.54-.33,3.75-.81.82-.23,1.6-.65,2.22-1.22,1.04-.64,1.87-1.61,2.15-2.84.48-2.12-.3-4.56-2.3-5.65Z"/><path class="cls-5" d="M116.04,308.3c-.06-1.29-.48-2.63-1.46-3.54-.9-.83-1.84-1.18-2.98-1.38-.53-.33-1.1-.59-1.71-.76-1.2-.34-2.46-.3-3.61.06-.03,0-.05,0-.08-.01-1.13-.15-2.79.65-3.54,1.46-.76.83-1.23,1.75-1.38,2.87-.32,2.35,1,4.39,3.11,5.29.8.6,1.77.97,2.87.98.44.14.87.29,1.31.43,1.51.5,3.01.12,4.17-.74,1.9-.72,3.39-2.58,3.3-4.68Z"/><path class="cls-5" d="M138.65,318.93c-.33-.98-1.01-1.89-2.15-2.57-4.87-2.9-10.43-3.65-15.91-2.24-3.56.92-4.97,5.8-2.21,8.36,4.62,4.28,10.58,6.62,16.91,6.24.68-.04,1.29-.2,1.84-.42,4.9-.88,5.82-7.06,1.51-9.37Z"/><path class="cls-5" d="M174.27,319.55c-.99-.91-2.13-1.65-3.36-2.13-1.4-.98-3.07-1.54-4.9-1.63-1.98-.09-3.83,1.33-4.57,3.07-.77,1.83-.4,4.04,1.03,5.46.51.51,1.07.99,1.67,1.42.02.01.04.02.06.04.51.36,1.03.69,1.59.95,1.68.79,3.11,1.13,4.95,1.36.77.1,1.87-.3,2.52-.68.94-.55,1.63-1.4,2.05-2.39.75-1.77.44-4.11-1.03-5.46Z"/><path class="cls-5" d="M196.78,341.52c-2.39-1.65-5-2.95-7.75-3.87-1.51-.67-3.1-1.07-4.72-1.16-.27-.03-.54-.03-.81-.02-1.39.02-2.8.27-4.2.8-4.23,1.61-4.74,6.5-1.19,9.14,4.59,3.41,10.47,5.02,16.15,4.43,4.96-.51,6.77-6.38,2.52-9.32Z"/><path class="cls-5" d="M222.24,346.6s-.02-.02-.03-.03c-.2-.33-.43-.62-.73-.85-1.09-.85-1.9-1.46-3.25-1.86-.86-.26-1.82-.4-2.72-.31-1.14.12-2.1.35-3.03,1.07-.83.64-1.55,1.55-1.79,2.6-.2.88-.2,1.78,0,2.66.25,1.11,1.27,2.48,2.3,2.99,1.06.53,2.13,1.06,3.19,1.58,2.25,1.12,4.87.76,6.45-1.29,1.54-1.99,1.34-4.74-.39-6.57Z"/><path class="cls-5" d="M245.05,370.38c-.11-.37-.26-.74-.47-1.11-1.28-2.21-3.12-3.83-5.27-4.86-1.61-.95-3.36-1.56-5.4-1.43-3.53.22-6.74,3.05-7.11,6.62-.75,7.3,8.97,9.94,14.65,9.23,2.02-.25,3.75-1.05,4.57-3.07.74-1.84.4-3.9-.96-5.37Z"/><path class="cls-5" d="M281.95,384.49c-.5-.22-.99-.42-1.49-.61-2.9-2.89-6.8-3.16-10.41-1.56-.16.07-.31.17-.46.27-1.57.68-2.74,2.15-2.98,3.92-.34,2.53,1.19,4.69,3.58,5.49.55.18,1.1.32,1.66.43,2.74,1.53,5.83,1.83,8.91,1.2,1.92-.39,3.34-2.33,3.58-4.16.24-1.79-.59-4.19-2.39-4.98Z"/><path class="cls-5" d="M320.33,390.27c-.03-.77-.24-1.5-.56-2.15-.51-1.21-1.49-2.1-2.73-2.66-1.58-1.48-4.15-2.22-6.01-.82-.02.01-.04.03-.06.04-1.17.17-2.17.46-3.06,1.3-1.1.66-1.98,1.69-2.26,2.92-.51,2.23.36,4.41,2.3,5.65,2.44,1.56,5.86,1.81,8.53.57,2.15-.54,3.96-2.55,3.86-4.85Z"/><path class="cls-5" d="M340.42,380.35s-.02-.05-.04-.07c-.09-.14-.19-.26-.29-.39-.62-1.1-1.66-1.96-3-2.43-1.06-.37-2.23-.29-3.3.08-1.98.27-3.82,1.33-4.81,3.16-1.07,1.98-.81,4.43.78,6.06.59.61,1.3,1.06,2.06,1.38,1.43,1.27,3.52,1.76,5.39,1.23,1-.28,2.25-.83,2.97-1.62.98-1.07,1.49-2.41,1.47-3.86-.02-1.32-.49-2.53-1.24-3.55Z"/><path class="cls-5" d="M483,64.88c-.28-.86-.72-1.53-1.3-2.12-.62-1.2-1.69-2.19-3.05-2.51-1.14-.27-2.26-.25-3.31-.03-.45.03-.9.08-1.36.19-2.55.61-4.39,3.24-4.54,5.79-.2,1.02-.2,2.1.07,3.21.5,2.07,2.69,3.73,4.82,3.67,1.4-.04,2.78-.25,4.02-.95.56-.32,1.07-.74,1.52-1.22,1.06-.39,2.13-1.21,2.64-2.18.61-1.16.92-2.57.5-3.85Z"/><path class="cls-5" d="M491.84,48.72c-.2-.62-.55-1.16-1.03-1.61-.45-.49-.99-.83-1.61-1.03-.6-.31-1.24-.46-1.93-.43-.44.06-.89.12-1.33.18-.85.24-1.58.67-2.21,1.29-.26.34-.52.67-.78,1.01-.45.78-.68,1.62-.68,2.52v.65c-.03.69.12,1.33.43,1.93.2.62.55,1.16,1.03,1.61.45.49.99.83,1.61,1.03.6.31,1.24.46,1.93.43.44-.06.89-.12,1.33-.18.85-.24,1.58-.67,2.21-1.29.26-.34.52-.67.78-1.01.45-.78.68-1.62.68-2.52v-.65c.03-.69-.12-1.33-.43-1.93Z"/><path class="cls-5" d="M516.62,36.23c-.3-.21-.61-.38-.93-.54-.49-.38-1.05-.66-1.65-.81-1.67-.41-3.22-.37-4.68.04-2.64.49-5.13,2.08-6.67,4.31-1.97,2.87.19,6.32,2.99,7.34,4.2,1.54,8.63.25,11.96-2.5,2.67-2.2,1.39-6.2-1.01-7.85Z"/><path class="cls-5" d="M532.53,31.5l-.21.21c-4.56,4.56,2.51,11.63,7.07,7.07l.21-.21c4.56-4.56-2.51-11.63-7.07-7.07Z"/><path class="cls-5" d="M558.4,48.7v.4c0,6.43,10,6.45,10,0v-.4c0-6.43-10-6.45-10,0Z"/><path class="cls-5" d="M570.76,77.98v.4c0,6.43,10,6.45,10,0v-.4c0-6.43-10-6.45-10,0Z"/></svg>