<?xml version="1.0" encoding="UTF-8"?><svg id="Layer_1" xmlns="http://www.w3.org/2000/svg" viewBox="0 0 191.35 161.32"><defs><style>.cls-1{stroke:#330d1d;stroke-miterlimit:7.04;stroke-width:2.73px;}.cls-1,.cls-2{fill:#9b2a5e;}.cls-3{fill:none;}.cls-3,.cls-4,.cls-5,.cls-6,.cls-7,.cls-8,.cls-9,.cls-10,.cls-11,.cls-12,.cls-13,.cls-14,.cls-15,.cls-16,.cls-17,.cls-18,.cls-2,.cls-19,.cls-20{stroke-width:0px;}.cls-4{fill:#10a6ad;}.cls-5,.cls-13{opacity:.64;}.cls-5,.cls-16{fill:#fff;}.cls-6{fill:#f4c3de;}.cls-7{fill:#350b1c;}.cls-8{fill:#84f4f4;}.cls-9{fill:#36c8ea;}.cls-10{fill:#b24787;}.cls-11{fill:#561a38;}.cls-12{fill:#c65995;}.cls-13,.cls-19{fill:#82e9f4;}.cls-14{fill:#26a1b5;}.cls-15{fill:#d3639c;}.cls-17{fill:#3f0422;}.cls-18{fill:#64e0f4;}.cls-20{fill:#16a0b7;}</style></defs><path class="cls-1" d="M120.36,17.75v36.01c0,2.27,1.84,4.12,4.12,4.12,1.76,0,3.02,1.69,2.52,3.37l-1.05,3.55,4.81-4.88c1.28-1.3,3.03-2.04,4.86-2.04h37.98c9.05,0,16.38-7.34,16.38-16.38v-23.74c0-9.05-7.34-16.38-16.38-16.38h-36.86c-9.05,0-16.38,7.34-16.38,16.38Z"/><path class="cls-16" d="M128.37,13.4c0-.29.1-.54.31-.73.2-.2.45-.31.75-.31s.52.1.73.31c.2.19.31.43.31.73v11.68c0,.29-.1.54-.31.75-.2.19-.45.29-.73.29s-.54-.1-.75-.29c-.2-.2-.31-.45-.31-.75v-11.68ZM134.87,21.98c.08.61.27,1.11.59,1.49.32.38.69.57,1.11.57.31,0,.58-.07.82-.21.25-.14.45-.36.57-.65.2-.38.52-.57.94-.57.29,0,.54.1.73.31.2.2.31.45.31.75,0,.08,0,.15-.02.23-.01.08-.06.19-.15.34-.32.6-.76,1.06-1.32,1.4-.55.33-1.17.5-1.87.5-.54,0-1.04-.12-1.51-.36-.46-.25-.86-.59-1.2-1.01-.33-.42-.6-.91-.8-1.47-.19-.57-.29-1.19-.29-1.83s.1-1.26.29-1.82c.2-.57.48-1.07.82-1.49.34-.43.75-.77,1.2-1.01.46-.24.96-.36,1.49-.36.48,0,.93.1,1.34.31.42.2.78.49,1.09.86.32.37.58.81.78,1.32.2.5.34,1.04.4,1.64-.03.29-.14.55-.34.76-.19.22-.43.32-.73.32h-4.24ZM136.57,18.83c-.32,0-.62.13-.9.38-.28.25-.47.54-.57.86h2.75c-.1-.37-.26-.67-.48-.9-.2-.23-.47-.34-.8-.34ZM144.85,23.7c0,.1.03.18.1.25.06.06.15.1.25.1h.34c.29,0,.54.1.75.31.2.2.31.45.31.75s-.1.54-.29.75c-.18.19-.44.29-.78.29h-.32c-.33,0-.65-.06-.96-.19-.29-.13-.55-.3-.76-.52-.22-.23-.39-.49-.52-.78-.13-.31-.19-.63-.19-.97v-4.63h-.32c-.29,0-.54-.1-.75-.31-.19-.2-.29-.45-.29-.75s.1-.52.29-.73c.2-.2.45-.31.75-.31h.32v-1.45c0-.28.1-.52.31-.73.2-.2.45-.31.75-.31s.54.1.73.31c.2.2.31.45.31.73v1.45h.69c.29,0,.54.1.75.31.2.2.31.45.31.73s-.1.54-.31.75c-.2.2-.45.31-.75.31h-.69v4.66ZM149.59,16.46c-.22.18-.45.27-.69.27-.29,0-.54-.1-.75-.31-.19-.2-.29-.45-.29-.73,0-.22.04-.38.11-.5.08-.13.17-.24.29-.34.29-.24.45-.57.48-.99l-.06-.38c0-.31.1-.57.31-.78.2-.22.45-.32.75-.32s.51.1.69.29c.19.18.31.4.36.67.03.1.04.18.04.25v.23c0,.52-.11,1.01-.32,1.47s-.52.85-.92,1.19ZM155.67,16.76c.54,0,1.07.11,1.61.34.55.23.97.57,1.28,1.01.05.08.09.17.11.29.03.1.04.19.04.27,0,.29-.1.54-.29.75-.19.19-.43.29-.73.29-.22,0-.38-.04-.5-.11-.11-.09-.25-.22-.4-.38-.2-.18-.39-.28-.57-.31-.18-.04-.36-.06-.55-.06-.23,0-.43.06-.61.17-.17.11-.25.25-.25.42,0,.18.06.32.17.44.11.11.34.17.69.17h.11c.48,0,.93.08,1.34.25.42.15.78.37,1.07.65.31.28.54.61.71.97.18.36.27.75.27,1.17s-.09.82-.27,1.19c-.17.36-.4.68-.71.96-.29.27-.65.48-1.07.65-.41.15-.85.23-1.34.23-.37,0-.73-.06-1.09-.17-.34-.1-.66-.25-.96-.44-.29-.19-.55-.41-.76-.67-.22-.25-.37-.53-.46-.82-.03-.06-.04-.13-.06-.19v-.13c0-.29.1-.54.31-.73.2-.2.45-.31.75-.31.22,0,.41.06.59.19.18.13.31.29.38.5.08.2.23.37.46.5.23.13.51.19.84.19.37,0,.68-.09.92-.27.25-.19.38-.41.38-.67s-.13-.48-.38-.67c-.24-.19-.55-.29-.92-.29h-.11c-.51,0-.95-.07-1.32-.21-.37-.14-.68-.33-.92-.57-.24-.24-.42-.53-.54-.86-.11-.33-.17-.68-.17-1.05s.08-.71.23-1.03c.15-.33.36-.62.63-.86.27-.24.58-.43.94-.57.36-.14.74-.21,1.15-.21ZM166.36,13.4c0-.29.1-.54.29-.73.2-.2.45-.31.75-.31s.54.1.73.31c.2.19.31.43.31.73v3.86c.28-.18.55-.31.82-.38.28-.09.59-.13.92-.13.54,0,1.03.13,1.49.38.46.24.86.57,1.2.99.34.42.61.92.8,1.49.2.57.31,1.19.31,1.83s-.1,1.26-.31,1.83c-.19.56-.46,1.05-.8,1.47-.34.42-.75.75-1.2.99-.46.24-.96.36-1.49.36-.68,0-1.29-.19-1.85-.57-.09.18-.22.32-.38.42-.15.1-.33.15-.54.15-.29,0-.54-.1-.75-.29-.19-.2-.29-.45-.29-.75v-11.68ZM168.43,21.45c0,.37.04.71.13,1.03.1.31.23.57.38.8.17.23.35.41.55.55.22.13.44.19.67.19s.45-.06.65-.19c.22-.14.4-.32.55-.55.17-.24.29-.52.38-.82.1-.32.15-.66.15-1.01s-.05-.69-.15-1.01c-.09-.32-.22-.59-.38-.82-.15-.24-.34-.43-.55-.57-.2-.14-.42-.21-.65-.21s-.45.07-.67.21c-.2.13-.38.31-.54.55-.15.23-.28.5-.38.82-.09.32-.14.66-.15,1.03ZM177.85,21.98c.08.61.27,1.11.59,1.49.32.38.69.57,1.11.57.31,0,.58-.07.82-.21.25-.14.45-.36.57-.65.2-.38.52-.57.94-.57.29,0,.54.1.73.31.2.2.31.45.31.75,0,.08,0,.15-.02.23-.01.08-.06.19-.15.34-.32.6-.76,1.06-1.32,1.4-.55.33-1.17.5-1.87.5-.54,0-1.04-.12-1.51-.36-.46-.25-.86-.59-1.2-1.01-.33-.42-.6-.91-.8-1.47-.19-.57-.29-1.19-.29-1.83s.1-1.26.29-1.82c.2-.57.48-1.07.82-1.49.34-.43.75-.77,1.2-1.01.46-.24.96-.36,1.49-.36.48,0,.93.1,1.34.31.42.2.78.49,1.09.86.32.37.58.81.78,1.32.2.5.34,1.04.4,1.64-.02.29-.14.55-.34.76-.19.22-.43.32-.73.32h-4.24ZM179.56,18.83c-.32,0-.62.13-.9.38-.28.25-.47.54-.57.86h2.75c-.1-.37-.26-.67-.48-.9-.2-.23-.47-.34-.8-.34ZM130.91,36.07h1.13c.29,0,.54.1.73.31.2.2.31.45.31.73s-.1.54-.31.75c-.19.2-.43.31-.73.31h-1.13v6.06c0,.29-.1.54-.31.75-.19.19-.43.29-.73.29s-.54-.1-.75-.29c-.2-.2-.31-.45-.31-.75v-6.06h-.52c-.29,0-.54-.1-.75-.31-.19-.2-.29-.45-.29-.75s.1-.52.29-.73c.2-.2.45-.31.75-.31h.52v-1.57c0-.42.08-.82.23-1.19.17-.37.38-.69.65-.96.28-.27.61-.48.97-.63.37-.17.76-.25,1.19-.25.25,0,.52.02.78.06.28.03.55.14.8.34.15.11.29.25.4.42.13.17.19.36.19.57,0,.29-.1.54-.31.73-.19.19-.44.29-.75.29-.17,0-.3-.01-.4-.04-.09-.04-.18-.09-.27-.15-.05-.04-.11-.07-.19-.1-.06-.04-.15-.06-.27-.06-.25,0-.48.09-.67.27-.19.17-.29.38-.29.63v1.62ZM135.87,35.88c.18,0,.34.04.48.13.15.09.28.2.38.34.24-.14.48-.25.73-.34.25-.09.56-.13.92-.13.17,0,.34.01.54.04.2.03.39.08.57.15.18.08.32.19.44.34.13.15.19.36.19.61,0,.29-.1.54-.31.75-.2.19-.45.29-.75.29-.18,0-.33-.02-.46-.06h-.1s-.05-.02-.08-.02c-.04,0-.07,0-.1-.02-.45.01-.8.19-1.05.54-.25.33-.38.73-.38,1.2v4.51c0,.29-.1.54-.31.75-.19.19-.43.29-.73.29s-.54-.1-.75-.29c-.19-.2-.29-.45-.29-.75v-7.3c0-.29.1-.54.29-.73.2-.2.45-.31.75-.31ZM141.87,36.91c0-.29.1-.54.31-.73.2-.2.45-.31.75-.31s.52.1.73.31c.2.19.31.43.31.73v7.28c0,.29-.1.54-.31.75-.2.19-.45.29-.73.29s-.54-.1-.75-.29c-.2-.2-.31-.45-.31-.75v-7.28ZM141.69,33.07c0-.33.11-.61.34-.84.24-.24.54-.36.88-.36s.61.12.84.36c.24.23.36.51.36.84s-.12.64-.36.88c-.23.23-.51.34-.84.34s-.64-.11-.88-.34c-.23-.24-.34-.54-.34-.88ZM148.37,41.1c.08.61.27,1.11.59,1.49.32.38.69.57,1.11.57.31,0,.58-.07.82-.21.25-.14.45-.36.57-.65.2-.38.52-.57.94-.57.29,0,.54.1.73.31.2.2.31.45.31.75,0,.08,0,.15-.02.23-.01.08-.06.19-.15.34-.32.6-.76,1.06-1.32,1.4-.55.33-1.17.5-1.87.5-.54,0-1.04-.12-1.51-.36-.46-.25-.86-.59-1.2-1.01-.33-.42-.6-.91-.8-1.47-.19-.57-.29-1.19-.29-1.83s.1-1.26.29-1.82c.2-.57.48-1.07.82-1.49.34-.43.75-.77,1.2-1.01.46-.24.96-.36,1.49-.36.48,0,.93.1,1.34.31.42.2.78.49,1.09.86.32.37.58.81.78,1.32.2.5.34,1.04.4,1.64-.03.29-.14.55-.34.76-.19.22-.43.32-.73.32h-4.24ZM150.07,37.94c-.32,0-.62.13-.9.38-.28.25-.47.54-.57.86h2.75c-.1-.37-.26-.67-.48-.9-.2-.23-.47-.34-.8-.34ZM160.93,39.66c0-.47-.11-.87-.34-1.2-.23-.33-.57-.5-1.03-.5s-.82.17-1.09.52c-.25.33-.38.74-.38,1.22v4.49c0,.29-.1.54-.31.75-.2.19-.45.29-.75.29s-.54-.1-.75-.29c-.19-.2-.29-.45-.29-.75v-7.26c0-.29.1-.54.29-.73.2-.2.45-.31.75-.31.18,0,.34.04.5.13.15.08.28.18.38.32.23-.14.47-.25.71-.34.25-.09.57-.13.94-.13.54,0,1.01.1,1.43.31.43.19.8.46,1.09.8.31.34.54.75.69,1.2.17.46.25.95.25,1.47v4.53c0,.29-.1.54-.31.75-.2.19-.45.29-.75.29s-.54-.1-.75-.29c-.19-.2-.29-.45-.29-.75v-4.53ZM172.96,44.19c0,.29-.1.54-.31.75-.2.19-.45.29-.75.29-.19,0-.38-.05-.55-.15-.17-.1-.29-.24-.38-.42-.56.38-1.17.57-1.83.57-.52,0-1.02-.12-1.49-.36-.46-.24-.86-.57-1.2-.99-.34-.42-.62-.91-.82-1.47-.19-.57-.29-1.19-.29-1.83s.1-1.26.29-1.83c.2-.57.48-1.07.82-1.49.34-.42.75-.75,1.2-.99.47-.25.97-.38,1.49-.38.33,0,.64.04.92.13.28.08.55.2.82.38v-3.86c0-.29.1-.54.29-.73.2-.2.45-.31.75-.31s.54.1.75.31c.2.19.31.43.31.73v11.68ZM169.14,43.14c.31,0,.57-.08.78-.25.22-.18.39-.4.54-.65.15-.25.26-.54.32-.84.06-.31.1-.59.1-.84,0-.37-.05-.71-.15-1.03-.09-.32-.22-.59-.38-.82-.15-.24-.34-.43-.55-.55-.2-.14-.42-.21-.65-.21s-.45.07-.67.21c-.2.14-.38.33-.54.57-.15.23-.28.5-.38.82-.09.32-.13.66-.13,1.01s.04.69.13,1.01c.1.31.23.58.38.82.15.23.33.41.54.55.22.13.44.19.67.19ZM178.31,35.88c.54,0,1.07.11,1.61.34.55.23.97.57,1.28,1.01.05.08.09.17.11.29.03.1.04.19.04.27,0,.29-.1.54-.29.75-.19.19-.43.29-.73.29-.22,0-.38-.04-.5-.11-.11-.09-.25-.22-.4-.38-.2-.18-.39-.28-.57-.31-.18-.04-.36-.06-.55-.06-.23,0-.43.06-.61.17-.17.11-.25.25-.25.42,0,.18.06.32.17.44.11.11.34.17.69.17h.11c.48,0,.93.08,1.34.25.42.15.78.37,1.07.65.31.28.54.61.71.97.18.36.27.75.27,1.17s-.09.82-.27,1.19c-.17.36-.4.68-.71.96-.29.27-.65.48-1.07.65-.41.15-.85.23-1.34.23-.37,0-.73-.06-1.09-.17-.34-.1-.66-.25-.96-.44-.29-.19-.55-.41-.76-.67-.22-.25-.37-.53-.46-.82-.03-.06-.04-.13-.06-.19v-.13c0-.29.1-.54.31-.73.2-.2.45-.31.75-.31.22,0,.41.06.59.19.18.13.31.29.38.5.08.2.23.37.46.5.23.13.51.19.84.19.37,0,.68-.09.92-.27.25-.19.38-.41.38-.67s-.13-.48-.38-.67c-.24-.19-.55-.29-.92-.29h-.11c-.51,0-.95-.07-1.32-.21-.37-.14-.68-.33-.92-.57-.24-.24-.42-.53-.54-.86-.11-.33-.17-.68-.17-1.05s.08-.71.23-1.03c.15-.33.36-.62.63-.86.27-.24.58-.43.94-.57.36-.14.74-.21,1.15-.21Z"/><path class="cls-3" d="M14.56,110.85c-.03.11-.05.23-.06.35,0-.02-.02-.03-.02-.05h0c.02-.11.05-.21.08-.3Z"/><path class="cls-7" d="M164.83,122.13c.2-.2.69.3.61.6-.65.67-1.33,1.25-2.03,1.76,1.05-1.23,1.28-2.22,1.25-2.19.06-.05.11-.11.17-.17Z"/><path class="cls-7" d="M158.68,127.61c2.38-.89,3.85-2.09,4.73-3.12.7-.51,1.38-1.09,2.03-1.76-.19.69-.58,1.45-1.21,2.22h0c-1.68,1.29-3.54,2.18-5.55,2.67t0,0Z"/><path class="cls-7" d="M158.65,127.62s.02,0,.03,0t0,0s0,0,0,0c0,0-.01,0-.02,0Z"/><path class="cls-7" d="M158.67,127.62s0,0-.01,0c0,0-.02,0-.02,0,0,0,0,0,.01,0,0,0,.01,0,.02,0Z"/><path class="cls-15" d="M135.64,119.07c-9.04-7.06-20.3-.89-24.43,1.86l-.1.74v.02l-.05.37-.27,2.04s.08-.02.12-.03c.47-.12.93-.23,1.4-.33.21-.05.43-.09.64-.14.15-.03.3-.06.44-.09.33-.06.66-.12.98-.18.09-.01.19-.03.28-.04.04,0,.08-.02.12-.02,3.09-1.82,7.02-3.43,11.19-3.43,3.1,0,6.33.89,9.47,3.24,9.33,6.99,18.14,6.42,23.23,4.53h0s.02-.01.03-.01c2.38-.89,3.85-2.09,4.73-3.12-7.92,5.77-18.63,1.73-27.77-5.42Z"/><path class="cls-17" d="M157.97,147.87s.01.04.01.06c0-.02,0-.04-.02-.06h0Z"/><path class="cls-7" d="M157.15,148.12c.14.45.09,1.01-.2,1.69h0c-1.27,1.58-3.2,3.52-5.77,4.93,3.94-3.02,5.05-4.72,5.25-5.64.28-.35.53-.68.73-.98Z"/><path class="cls-7" d="M156.67,147.41c.23.19.39.43.47.71-.21.29-.45.62-.73.98.16-.73-.25-.98-.29-1.03.12-.15.22-.3.32-.44.06-.09.14-.16.23-.22Z"/><path class="cls-2" d="M156.12,148.07c-.1-.09-.24-.18-.45-.26-1.32-.48-4.23-.03-7.04,1.77-1.14.73-2.58.84-4.17.32-2.23-.73-7.98-3.91-13.31-17.68-2.43-6.28-9.76-8.17-15.95-7.26,0,0-.02,0-.02,0-.1.02-.21.03-.31.05-.1.02-.21.03-.31.05-.36.06-.72.13-1.08.2-.19.04-.38.08-.58.12-.16.04-.32.07-.49.11-.03,0-.07.02-.11.02-.19.05-.38.09-.57.14-.2.05-.39.1-.59.15-.2.05-.39.11-.59.16l-1.24,9.35-.11.86c10.06-.24,12.9,4.24,16.93,11.31,5.13,9,12.64,10.29,21.57,7.77,4.16-1.17,7.08-4.07,8.72-6.15.16-.73-.25-.98-.29-1.03Z"/><path class="cls-17" d="M156.3,126.3c.15-.02.31-.03.47-.05-.11.01-.21.03-.31.04-.05,0-.1,0-.15.01Z"/><path class="cls-8" d="M156.07,126.32c.08,0,.15-.01.23-.02-.1.01-.2.02-.3.03h.07Z"/><path class="cls-2" d="M155.72,126.35c.12,0,.24-.02.36-.03h-.07s-.05.01-.08.01c-.07,0-.14,0-.21.01Z"/><path class="cls-17" d="M155.14,126.37c.17,0,.33,0,.5-.02-.06,0-.13,0-.19.01-.02,0-.04,0-.06,0-.08,0-.17,0-.25,0Z"/><path class="cls-2" d="M155.1,149.34c.14-.16.27-.31.4-.46-.13.15-.26.31-.4.46Z"/><path class="cls-8" d="M155.39,126.37c-.17,0-.34,0-.52,0,.09,0,.18,0,.27,0,.08,0,.16,0,.25,0Z"/><path class="cls-2" d="M164.43,120.99c-.34-.32-.95-.18-1.29-.07-.32.11-.7.26-1.1.42-3.61,1.44-10.31,4.11-18.43-8.27-3.02-4.61-8.14-7.64-14.03-8.32-6.24-.72-12.41,1.3-16.97,5.53l-1.26,9.54h0s-.15,1.12-.15,1.12c4.14-2.75,15.4-8.92,24.43-1.86,9.14,7.14,19.84,11.19,27.77,5.42,1.05-1.23,1.28-2.22,1.25-2.19.11-.58.03-1.06-.23-1.31ZM153.06,126.29s-.05,0-.08,0c.02,0,.05,0,.08,0,.03,0,.05,0,.08,0-.03,0-.05,0-.08,0ZM153.27,126.31s0,0,0,0h0s-.02,0-.04,0c.01,0,.02,0,.04,0h0s.03,0,.05,0c.02,0,.03,0,.04,0,.03,0,.05,0,.08,0-.05,0-.11,0-.16-.01ZM153.61,126.34s-.05,0-.07,0h-.08s.05,0,.08,0,.05,0,.07,0,.05,0,.07,0c.05,0,.1,0,.15.01-.07,0-.14,0-.22-.02ZM154.33,126.37h0s-.08,0-.11,0c.07,0,.14,0,.22,0-.03,0-.06,0-.1,0ZM155.92,126.34s-.07,0-.1,0c.06,0,.12-.01.18-.02-.02,0-.05,0-.08,0ZM156.45,126.29s-.1.01-.15.02c.15-.02.31-.03.47-.05-.11.01-.21.03-.32.04Z"/><path class="cls-15" d="M147.69,155.25c-8.93,2.52-16.43,1.23-21.57-7.77-4.03-7.07-6.86-11.55-16.93-11.31l-.03.21h0s-.08.65-.08.65c.04,0,.08,0,.12,0-.04,0-.08,0-.12,0l-.34,2.62h.06c7.59,0,12.07,5.47,15.14,10.63.07.12.14.24.21.36.09.16.18.31.27.47,2.5,4.37,6.57,7.37,11.16,8.24,3.97.75,8.16-.08,12.3-2.41.07-.04.14-.08.22-.12,0,0,0,0,0,0,1.03-.59,2.05-1.28,3.07-2.05,3.94-3.02,5.05-4.72,5.24-5.64-1.64,2.08-4.56,4.98-8.72,6.15Z"/><path class="cls-17" d="M153.26,126.31s.06,0,.09,0c-.03,0-.05,0-.08,0,0,0,0,0,0,0h0Z"/><path class="cls-15" d="M129.02,116.94c-.24-.05-.48-.09-.72-.13.24.03.48.08.72.13Z"/><polygon class="cls-14" points="117.04 70.91 116.68 71.17 116.68 71.17 117.04 70.91"/><path class="cls-4" d="M116.69,69.8s0-.02-.01-.03h0s0,.02,0,.03Z"/><rect class="cls-14" x="116.64" y="71.18" width=".04" height="0" transform="translate(-19.78 79.04) rotate(-34.68)"/><path class="cls-14" d="M116.68,71.17l-.03.02h-.08s.02,0,.02-.01h.09Z"/><path class="cls-14" d="M116.59,71.18s-.01.01-.02.02h-.13s0,0,0,0h.16Z"/><path class="cls-14" d="M116.57,71.2s-.06.06-.1.09l-.03-.07h.13Z"/><path class="cls-14" d="M116.64,71.2l-.16.12v-.03s.05-.06.09-.09h.08Z"/><polygon class="cls-14" points="116.65 71.19 116.48 71.32 116.48 71.32 116.48 71.31 116.64 71.2 116.65 71.19"/><rect class="cls-14" x="116.47" y="71.29" width="0" height=".03" transform="translate(-19.07 54.59) rotate(-24.44)"/><polygon class="cls-14" points="116.47 71.29 116.47 71.29 116.43 71.21 116.47 71.29"/><rect class="cls-14" x="116.43" y="71.2" width="0" height=".02"/><polygon class="cls-20" points="116.43 71.2 116.39 71.12 116.39 71.11 116.43 71.2"/><polygon class="cls-14" points="116.43 71.2 116.42 71.2 116.39 71.12 116.43 71.2"/><path class="cls-18" d="M116.34,71.42s-.03.02-.05.04c-.02.02-.03.03-.05.04,0,0-.02,0-.03.01.02-.01.05-.04.09-.06.01,0,.03-.02.04-.03Z"/><path class="cls-18" d="M116.48,71.32s-.06.04-.09.07c-.01.01-.03.02-.05.03-.01,0-.03.02-.04.03-.04.03-.07.05-.09.06,0,0,.02-.02.03-.03.02-.02.04-.03.06-.05.06-.05.12-.1.17-.14v.03Z"/><path class="cls-20" d="M116.39,71.11l-.21-.46s0,0,0-.01l.21.47Z"/><path class="cls-20" d="M116.28,70.14l-.43-.23.33.73s0,0,0,.01l-.38-.82c.03.05.63.37,1.08.61l-.59-.3Z"/><path class="cls-2" d="M113.61,80.95c-.14.11-.3.23-.47.35.17-.13.32-.24.47-.35Z"/><path class="cls-17" d="M110.91,124.08s-.08.02-.12.03h0s.08-.02.12-.03Z"/><path class="cls-17" d="M109.49,126.1s0,0,0,0c0,0,0,0,0,0Z"/><path class="cls-17" d="M109.49,126.1s0,0-.01,0h0s0,0,.01,0Z"/><polygon class="cls-17" points="109.47 126.09 109.47 126.09 109.47 126.09 109.47 126.09"/><path class="cls-17" d="M109.45,126.08s.01,0,.02,0h-.02Z"/><path class="cls-17" d="M109.2,137.02s-.08,0-.12,0h0s.08,0,.12,0Z"/><polygon class="cls-17" points="108.91 125.19 107.47 136.08 108.51 128.19 108.91 125.19"/><path class="cls-2" d="M108.28,86.38c-.17.09-.34.18-.51.27h0c.17-.09.34-.18.51-.27Z"/><path class="cls-2" d="M113.47,83.2c-.14.09-.27.19-.42.29-.06.05-.13.09-.2.13-.63.43-1.34.9-2.14,1.38-.11.06-.22.13-.33.19-.49.3-1.01.59-1.56.89-.09.05-.18.1-.27.15-.09.05-.18.11-.28.15-.17.09-.34.18-.51.27h0c-.17.09-.34.18-.52.27-.58.3-1.2.59-1.86.9-.04.02-.09.04-.13.06-.02,0-.03.02-.05.02-.07.03-.14.06-.22.1-.02.01-.04.02-.07.03-.12.06-.25.11-.38.17-.31.13-.63.27-.95.4-.2.08-.39.16-.58.24-.02.01-.05.02-.08.03-.17.07-.35.14-.53.2-.4.15-.82.31-1.24.46-.42.15-.86.3-1.3.44-.23.08-.46.15-.7.22-.18.06-.37.11-.56.17-.27.08-.53.15-.81.23-.42.12-.85.23-1.28.33-.08.02-.16.04-.24.06-.2.05-.4.1-.6.14-.02,0-.04,0-.06.02-.22.05-.44.1-.66.15-.04,0-.07.02-.11.02-.24.05-.48.1-.73.15-.26.05-.52.1-.77.14-.19.03-.39.07-.58.1-.25.04-.49.08-.74.12-.15.02-.3.05-.45.07-.42.06-.84.11-1.28.16-.08,0-.17.02-.26.03-.3.04-.61.06-.91.09-.23.02-.46.04-.69.06-.27.02-.54.04-.82.05-.07,0-.13,0-.2,0-.24.01-.47.02-.71.03-.58.02-1.17.03-1.77.03-.51,0-1.02,0-1.54-.02-1.21-.04-2.41-.1-3.57-.18-.53-.04-1.06-.08-1.58-.12-.17-.02-.33-.03-.49-.05-.32-.03-.63-.06-.94-.09-.28-.03-.56-.06-.84-.09-.17-.02-.33-.04-.5-.05-.39-.05-.78-.09-1.17-.14-.58-.07-1.15-.15-1.71-.23-.19-.03-.37-.05-.56-.08-.31-.04-.61-.09-.91-.14-.25-.04-.49-.08-.73-.12-.17-.03-.34-.06-.51-.09-.72-.12-1.42-.25-2.1-.38-.38-.07-.74-.15-1.11-.22-.36-.08-.72-.15-1.08-.23-.18-.04-.36-.08-.53-.11-.12-.02-.24-.05-.36-.08-.09-.02-.19-.05-.29-.06-.3-.07-.6-.14-.89-.21-.17-.04-.33-.08-.49-.12-.17-.04-.33-.08-.49-.12-.17-.04-.34-.09-.51-.13-.3-.08-.6-.15-.9-.23-.15-.04-.3-.08-.45-.12-.3-.08-.59-.16-.87-.24-.28-.08-.56-.16-.83-.24-.14-.04-.27-.08-.41-.12-.27-.08-.53-.16-.79-.24-.21-.06-.42-.13-.62-.19-.35-.11-.68-.22-1.01-.33-.08-.03-.16-.05-.24-.08-.24-.08-.46-.16-.69-.23-.19-.07-.38-.13-.55-.2-.11-.04-.21-.07-.31-.11-.19-.07-.38-.14-.55-.2-.43-.16-.82-.31-1.16-.44-.08-.03-.16-.07-.24-.1-.02,0-.05-.02-.07-.03l4.78,22.67,2.89,13.71.02.1s0,0,0,0c0,0,0,.02,0,.03l.03.16,1.62,7.67.98,4.65c.16.16.25.38.25.61,0,.1-.02.21-.06.31l.79,3.74c.89.87,5.34,4.99,12.23,7.17,10.18,3.21,20.63.89,31.07-6.9l.52-3.95s0-.01,0-.02h0v-.02l1.44-10.89v-.02s0-.03.01-.04l.34-2.6.13-1.03s0,0,0-.02h0s1.55-11.74,1.55-11.74l3.61-27.34c-.32.24-.68.51-1.09.79ZM66.56,122.17c-2.7,0-4.9-2.19-4.9-4.9s2.19-4.9,4.89-4.9,4.9,2.19,4.9,4.9-2.19,4.9-4.9,4.9ZM87.66,123.31h0c-.9.86-2.13,1.31-3.66,1.34h-.14c-4.09,0-5.3-3.17-5.36-4.85-.02-.32.12-.63.37-.86.25-.23.58-.37.95-.38.36-.01.71.11.98.32.27.22.42.52.43.84.02.42.23,2.53,2.63,2.53h.05s.03,0,.03,0c.75-.01,1.33-.2,1.7-.55.6-.57.69-1.53.68-1.86h0c-.04-.66.54-1.23,1.28-1.27.75-.04,1.4.46,1.44,1.12.02.38.05,2.26-1.4,3.63ZM100.29,121.29c-2.7,0-4.9-2.2-4.9-4.9s2.19-4.9,4.9-4.9,4.9,2.2,4.9,4.9-2.2,4.9-4.9,4.9Z"/><path class="cls-2" d="M105.39,87.81s-.09.04-.13.06h0s.09-.04.13-.06Z"/><path class="cls-2" d="M105.26,87.87h0s-.03.02-.05.02c-.07.03-.14.06-.22.1.09-.04.18-.08.27-.12Z"/><path class="cls-7" d="M100.29,111.5c-2.7,0-4.9,2.2-4.9,4.9s2.19,4.9,4.9,4.9,4.9-2.2,4.9-4.9-2.2-4.9-4.9-4.9ZM98.72,117.02c-.72,0-1.31-.59-1.31-1.31s.59-1.31,1.31-1.31,1.32.59,1.32,1.31-.59,1.31-1.32,1.31Z"/><path class="cls-2" d="M101.17,89.52c-.42.15-.86.3-1.3.44.44-.14.88-.29,1.3-.44Z"/><path class="cls-16" d="M98.72,114.39c.72,0,1.32.59,1.32,1.32s-.59,1.31-1.32,1.31-1.31-.59-1.31-1.31.59-1.32,1.31-1.32Z"/><path class="cls-7" d="M87.74,119.75s0,0,0,0h0s0,0,0,0Z"/><path class="cls-8" d="M86.61,82.56c-.23.02-.46.04-.69.06-.07,0-.14.01-.2.02-.14.01-.28.02-.43.03-.25.02-.5.04-.75.05l2.07-.16Z"/><path class="cls-7" d="M89.05,119.68c-.05-.66-.7-1.17-1.44-1.12-.74.04-1.32.61-1.28,1.27h0c.01.33-.08,1.29-.68,1.87-.38.35-.95.54-1.7.55,0,0-.03,0-.03,0h-.05c-2.4,0-2.61-2.11-2.63-2.53-.01-.32-.17-.62-.43-.84-.27-.22-.62-.33-.98-.32-.37.01-.71.15-.95.38-.25.24-.39.54-.37.86.07,1.68,1.27,4.85,5.36,4.85h.14c1.53-.03,2.76-.48,3.66-1.33h0c1.44-1.37,1.42-3.26,1.4-3.64Z"/><path class="cls-8" d="M78.28,83.55c-.11,0-.22-.01-.33-.02,0,0,0,0,0,0,.11,0,.22.01.33.02Z"/><path class="cls-9" d="M117.34,70.69l-.3.22s-.56.41-.57.38c-.1.09.34-.29.23-.2-.03.03-.25.17-.29.2l.02-.09-.04-.09-.21-.47-.33-.73.43.23.59.3s.02.01.03.02l.15.08.11.06s.04.02.05.03c.01,0,.02,0,.03.01l.06.03s.04.02.04.02Z"/><path class="cls-19" d="M118.1,71.55s0,.03,0,.05v-.51s-.07-.04-.07-.04c-.02.01-.03.03-.04.04,0,0-.02.02-.02.02-.07.06-.14.13-.21.2-.15.14-.32.29-.49.44-.07.07-.14.13-.22.19-.03.03-.06.06-.1.08-.04.03-.07.06-.11.09-.07.06-.15.12-.23.19-.01,0-.02.02-.03.02-.14.12-.29.24-.45.36-.02.02-.04.03-.06.05-.08.07-.17.14-.27.2-.18.14-.37.28-.56.42-.19.15-.39.29-.6.44-.83.58-1.75,1.19-2.78,1.8-.24.14-.49.29-.75.44-.15.08-.3.17-.45.25-.14.08-.27.15-.42.23-.14.08-.28.15-.42.23-.27.14-.53.28-.81.42-.2.1-.4.2-.6.3-.13.06-.26.13-.39.19-.11.06-.23.11-.34.17-.14.07-.29.14-.44.2-.31.14-.62.29-.94.43-.16.07-.32.14-.48.21-.59.26-1.2.5-1.83.75-.15.06-.3.11-.44.17-.96.36-1.96.71-3.01,1.05-.38.12-.76.24-1.15.36,0,0,0,0,0,0-.2.06-.41.12-.61.18-.18.05-.37.11-.56.16-.14.04-.27.08-.41.11-.36.1-.73.2-1.09.29-.16.04-.33.08-.49.12-.29.07-.58.14-.87.2-.24.06-.49.11-.73.16-.05.01-.11.02-.16.03-.15.03-.3.06-.45.09-.42.08-.84.17-1.27.25-.2.03-.39.07-.6.11-.49.08-.99.17-1.5.24-.19.03-.38.05-.57.08-.36.05-.71.1-1.08.14,0,0,0,0-.01,0-.17.02-.34.04-.51.06-.08,0-.17.02-.25.03-.21.02-.43.05-.64.07-.36.04-.73.08-1.1.11-.1,0-.2.02-.3.03-.23.02-.45.04-.68.05-.29.02-.59.04-.89.06-.97.06-1.94.09-2.92.09-.41,0-.83,0-1.24-.02-.28,0-.57-.02-.85-.03-.29,0-.57-.02-.86-.04-.15,0-.3-.02-.45-.03-.11,0-.22-.02-.33-.02-.01,0-.02,0-.03,0h-.03s-.05,0-.06,0c-.21-.02-.42-.03-.63-.05-.16-.02-.32-.03-.48-.04-.21-.02-.41-.03-.62-.05-.17-.02-.36-.04-.53-.05-.08,0-.16-.02-.24-.02-.14-.02-.27-.03-.4-.05-.14-.02-.27-.03-.4-.05-.16-.02-.33-.04-.49-.06-.18-.02-.36-.05-.53-.07-.15-.02-.3-.04-.46-.07-.2-.03-.4-.05-.6-.09-.2-.03-.4-.06-.61-.09-.12-.02-.24-.04-.36-.06-.22-.04-.43-.07-.65-.11-.4-.07-.8-.14-1.2-.22-.36-.07-.72-.14-1.08-.21-.96-.19-1.91-.4-2.84-.62-.14-.03-.28-.07-.42-.1-.1-.03-.2-.05-.3-.07-.04,0-.07-.02-.1-.02,0,0,0,0,0,0-.16-.04-.32-.08-.48-.12-.02,0-.03,0-.04-.01-.01,0-.02,0-.03,0-.05-.02-.11-.03-.16-.04-.04,0-.07-.02-.11-.03-.04,0-.07-.02-.11-.03-.99-.25-1.94-.52-2.86-.78-.27-.08-.55-.16-.81-.24-.27-.08-.54-.16-.8-.24-.21-.07-.42-.13-.63-.2-.41-.13-.81-.26-1.21-.39-.2-.06-.39-.13-.58-.19-.03-.01-.07-.02-.1-.03-.07-.02-.13-.05-.19-.07-.03,0-.06-.02-.09-.03-.24-.08-.49-.17-.72-.25-.02,0-.03,0-.05-.02,0,0,0,0-.01,0,0,0-.02,0-.02,0-.55-.19-1.07-.37-1.57-.56-.1-.04-.2-.08-.3-.11-.32-.12-.63-.23-.93-.35-.11-.04-.23-.08-.34-.13-.07-.03-.15-.06-.22-.08-.02,0-.03,0-.04-.02,0,0-.02,0-.03-.01-.14-.05-.27-.11-.41-.16-.26-.1-.52-.2-.76-.3-.07-.03-.14-.05-.2-.08-.14-.06-.29-.12-.43-.17,0,0-.02,0-.02,0-.02,0-.03-.01-.05-.02-.08-.03-.15-.06-.22-.09-.17-.08-.34-.14-.5-.21-.04-.02-.08-.04-.13-.05-.03-.02-.07-.03-.1-.04-.09-.04-.19-.08-.3-.13-.05-.02-.11-.05-.16-.07-.03-.01-.05-.02-.08-.03-.03,0-.05-.02-.08-.03l-.05-.02s-.02,0-.02,0c-.02,0-.04-.02-.06-.03,0,0-.01,0-.02,0-.01,0-.02-.01-.03-.02-.02,0-.03-.01-.05-.02,0,0-.01,0-.02,0,0,0-.02,0-.02-.01,0,0-.02,0-.02,0,0,0-.02,0-.02,0l.02.95.02.74.33,5.18c-.11.08,0,.71-.05.84l1.35.68.77.38s12.78,6.1,32.27,6.74c19.49.64,32.27-11.08,32.27-11.08l.63-.58,1.52-1.4.14-.13v-1.18s.04-4.88.04-4.88c0,0,0,0,0,0h0v-.07s.01-.02.02-.02c0,0,0-.02.01-.02,0,0,0,0,0,0,.01-.05.03-.1.04-.16.02-.1.04-.21.03-.31,0-.03,0-.05-.01-.07Z"/><path class="cls-7" d="M66.56,112.38c-2.7,0-4.89,2.19-4.89,4.9s2.19,4.9,4.9,4.9,4.9-2.19,4.9-4.9-2.19-4.9-4.9-4.9ZM65.25,117.71c-.73,0-1.32-.59-1.32-1.31s.59-1.31,1.32-1.31,1.31.59,1.31,1.31-.59,1.31-1.31,1.31Z"/><path class="cls-16" d="M65.25,115.08c.72,0,1.32.59,1.32,1.32s-.59,1.31-1.32,1.31-1.32-.59-1.32-1.31.59-1.32,1.32-1.32Z"/><path class="cls-8" d="M64.98,81.44s-.07-.02-.1-.02h0s.07.01.1.02Z"/><path class="cls-8" d="M64.36,81.28s-.02,0-.03,0h0s.02,0,.03,0Z"/><path class="cls-8" d="M64.33,81.27c-.05-.01-.11-.03-.16-.04-.07-.02-.14-.04-.22-.06.13.03.25.06.38.1Z"/><path class="cls-2" d="M62.67,135.15c.16.16.25.38.25.61,0,.1-.02.21-.06.31l-.11-.52s0-.02,0-.03h0s0-.02,0-.02v-.05s-.07-.3-.07-.3Z"/><path class="cls-7" d="M60.07,122.83l1.62,7.67-1.62-7.67Z"/><path class="cls-15" d="M61.16,136.33c-.08-.03-.16-.06-.25-.09.08.03.16.06.25.09h0Z"/><polygon class="cls-7" points="58.46 123.55 60.75 134.38 60.75 134.38 58.46 123.55"/><path class="cls-7" d="M60.75,134.38h0l-.11-.03s.07.02.11.03h0Z"/><path class="cls-7" d="M60.64,134.35c-.21-.06-.41-.11-.62-.16.2.04.41.1.62.16Z"/><path class="cls-7" d="M60.05,122.82v.02s0-.02,0-.03c0,0,0,0,0,.01Z"/><path class="cls-7" d="M165.61,119.74c-.73-.68-1.82-.85-3.01-.45-.37.12-.77.28-1.19.45-3.59,1.43-9.01,3.6-16.35-7.61-3.3-5.04-8.87-8.35-15.28-9.09-6.08-.7-12.09,1-16.83,4.7l3.55-26.94-.23.21s-.29.27-.75.64c-.26.21-.58.47-.97.76l-3.61,27.34-1.55,11.73h0s0,.02,0,.02l-.13,1.03-.34,2.6s0,.03,0,.04v.02s-1.44,10.89-1.44,10.89h0v.02s0,.01,0,.02l-.52,3.95c-10.44,7.8-20.9,10.12-31.07,6.9-6.88-2.17-11.34-6.3-12.23-7.17l-.79-3.74-.11-.52s0-.02,0-.03v-.02s-.02-.05-.02-.05l-.06-.3-.98-4.65-1.62-7.67-.03-.11s0,.02,0,.02c0,.03,0,.05,0,.08v.02s0-.02,0-.03c0-.06-.01-.13-.03-.19-.02-.06-.04-.12-.07-.17.03.05.05.11.07.17,0,0,0,0,0,.02l-.02-.1-2.89-13.71-4.78-22.67c-.39-.16-.72-.3-.96-.4-.37-.16-.58-.25-.59-.26l-.38-.17,4.53,21.47c-2.71-2.15-8.73-6.09-15.71-5.2-5.92.75-11.1,4.79-15.42,12.01-4.58,7.66-8.55,11.84-11.8,12.43-2.2.39-3.84-.92-5.29-2.08-1.22-.97-2.36-1.89-3.68-1.59-1.72.41-2.9,1.83-3.01,3.62,0,.02,0,.03,0,.05-.14,2.57,1.84,6.08,7.82,8.2,1.83.65,3.57.94,5.23.94,6.55,0,11.82-4.49,16.57-8.55,4.56-3.89,8.5-7.26,12.49-5.81.59.21,1.19.43,1.8.64-4,1.19-7.43,3.93-9.7,7.84-3.84,6.6-6.95,10.68-10.1,13.22-3.65,2.95-7.47,3.93-12,3.07-5.87-1.12-8.99-.91-10.11.65-.62.87-.54,2.02.24,3.42.85,1.5,2.51,2.97,4.82,4.24,3.9,2.15,8.55,3.26,13.56,3.26.8,0,1.62-.03,2.44-.08,6.35-.45,13.01-2.65,19.26-6.38,3.83-2.28,6.4-4.54,8.46-6.35,3.88-3.41,5.85-5.13,11.62-3.33.91.91,5.52,5.25,12.89,7.6,2.63.84,5.8,1.46,9.41,1.46,6.56,0,14.55-2.07,23.36-8.66,7.54-.39,11.75,5.11,14.88,10.56,2.76,4.8,7.25,8.11,12.33,9.08.94.18,2.01.3,3.19.3,3.83,0,8.83-1.24,14.41-5.72,3.94-3.16,5.66-5.74,5.12-7.67,0-.02,0-.04-.02-.06,0,0,0-.02,0-.02-.17-.53-.61-1.24-1.69-1.64-2.07-.76-5.59.04-8.56,1.93-.69.44-1.62.49-2.71.13-1.56-.51-7.04-3.22-12.25-16.67-2.23-5.76-7.94-8.3-13.66-8.56,4.54-1.85,10.11-2.47,15.3,1.43,4.99,3.74,10.57,5.84,16.14,6.08.34.02.69.02,1.03.02,4.11,0,8-1.03,10.82-2.88,2.04-1.34,3.42-3.02,3.88-4.74.36-1.31.11-2.48-.66-3.21ZM60.04,122.89v.04s0,0,0,.01c0-.02,0-.03,0-.05ZM59.99,123.15h0s0,.03-.02.04c0-.01.01-.02.02-.04ZM59.71,123.53s0,0,0,0c.11-.08.2-.19.26-.32,0,0,0,.02,0,.02-.02.04-.04.07-.06.11l-.05.06s-.05.05-.07.08c-.01,0-.02.02-.04.03,0,0,0,0-.02.01s0,0-.01.01c0,0,0,0-.02,0h0s-.01,0-.02.01c0,0,0-.01.02-.01ZM59.37,123.68s.04,0,.06-.01c-.02,0-.04.02-.06.02h0ZM42.7,119.19c-4.93-1.78-9.43,2.06-14.19,6.12-5.87,5.02-11.95,10.2-20.11,7.3-.04-.01-.08-.03-.11-.04-.56-.21-1.32-.56-1.38-.58-3.9-2.21-5.14-4.04-5.25-5.38-.02-.24,0-.46.05-.67h0c-.02-.13-.07-.25-.14-.36.07,0,.15.01.24.02.19-.77.73-1.32,1.51-1.54.04-.01.07-.02.1-.03.5-.12,1.33.55,2.21,1.25,1.56,1.25,3.7,2.97,6.67,2.43,3.81-.68,8.05-5.02,12.97-13.24,4.03-6.74,8.8-10.5,14.16-11.19,8.47-1.09,15.74,5.97,15.81,6.03.04.04.08.08.13.11l.14.1,2.44,11.54.13.64c-.36-.08-.75-.16-1.16-.24-.76-.14-1.59-.29-2.49-.4,0,0,0,0,0,0-.48-.06-.98-.12-1.5-.17-.11-.01-.23-.02-.35-.03-.71-.06-1.45-.1-2.2-.12-.11,0-.22,0-.33,0-.5,0-1.01,0-1.52.02-.18,0-.36.02-.55.03-.18,0-.36.02-.54.03,0,0,0,0-.01,0-1.61-.53-3.19-1.08-4.7-1.62ZM56.61,122.28h0c-.08-.01-.16-.03-.25-.05.08.02.17.03.25.05ZM52.81,121.74c-.1,0-.2-.02-.3-.03.02,0,.03,0,.05,0,.09,0,.17.02.25.02ZM49.64,143.03c-2.01,1.76-4.51,3.95-8.2,6.16-4.58,2.73-9.35,4.58-14,5.51-.33.07-.65.13-.98.18-1.88.33-3.75.5-5.57.52-.05,0-.1,0-.14,0-4.7.03-9.1-.96-12.85-3.03-.03-.02-.05-.03-.08-.05-1.33-.43-4.08-3.56-4.17-3.71h0c-.05-.11-.11-.21-.14-.31h0s-.04-.1-.06-.14c-.02-.05-.03-.09-.05-.14-.02-.05-.03-.09-.04-.13,0-.03-.02-.06-.02-.09,0-.03-.01-.06-.01-.09-.03-.21,0-.38.08-.49.23-.32,1.52-1.27,8.39.04,1.18.23,2.3.33,3.39.33,8.53,0,14.31-6.76,20.52-17.44,2.59-4.45,6.84-7.22,11.67-7.61.38-.03.77-.05,1.15-.07.36-.02.71-.02,1.07-.02.25,0,.5,0,.75,0,.36,0,.71.02,1.07.04.47.03.93.06,1.38.11.12,0,.24.02.36.03.2.02.4.05.6.07.02,0,.03,0,.05,0,.1.02.2.03.3.04.28.04.55.07.81.11.19.03.37.06.55.09.45.07.87.15,1.28.23.08.02.17.03.25.05.09.02.18.04.27.05.14.03.28.06.41.09.22.05.43.1.62.14.03,0,.06.02.1.02s.06.01.09.02l-.04-.17c.18.12.28.18.29.18.07.05.14.08.22.11-.14-.04-.3-.08-.47-.12h0s0,0,0,0l2.28,10.83h0s.2.96.2.96l.11.5s0,.03,0,.04l.09.44.57,2.69c-5.84-1.47-8.37.76-12.08,4.02ZM109.47,126.09s0,0,.01,0t-.01,0s0,0,0,0h0ZM131.15,132.22c5.33,13.77,11.09,16.95,13.31,17.68,1.59.52,3.03.41,4.17-.32,2.81-1.79,5.72-2.25,7.04-1.77.21.08.36.17.45.26.11-.16.22-.3.32-.44.06-.09.14-.16.23-.22.23.19.39.43.47.71.14.45.09,1.01-.2,1.69h0c-1.27,1.58-3.2,3.52-5.77,4.93-1.02.78-2.04,1.46-3.07,2.05,0,0,0,0,0,0-.08.04-.15.08-.22.12-4.14,2.33-8.33,3.17-12.3,2.41-4.58-.87-8.65-3.87-11.16-8.24-.09-.16-.18-.31-.27-.47-.07-.12-.14-.24-.21-.36-3.07-5.16-7.55-10.63-15.14-10.63h-.06l.34-2.62h0s.08-.64.08-.64h0s.03-.23.03-.23l.11-.86,1.24-9.35c.2-.05.39-.11.59-.16.2-.05.39-.1.59-.15.19-.05.38-.09.57-.14.04,0,.08-.02.11-.02.17-.04.33-.07.49-.11.2-.05.39-.08.58-.12.36-.07.72-.14,1.08-.2.11-.02.21-.04.31-.05.11-.02.21-.03.31-.05,0,0,.02,0,.02,0,6.19-.91,13.51.98,15.95,7.26ZM165.44,122.73c-.19.69-.58,1.45-1.21,2.22-.11.08-.21.16-.32.24-.11.08-.21.16-.32.23-.11.08-.21.15-.33.22-.11.08-.22.14-.33.21-.11.07-.22.14-.33.2-.11.07-.22.13-.34.19-.11.07-.23.12-.34.18-.08.05-.17.08-.25.12l-.34.16c-.17.08-.34.15-.51.22-.13.05-.26.1-.39.15-.12.05-.24.09-.37.14-.09.04-.19.07-.28.1-.06.02-.12.04-.17.05-.15.05-.31.1-.46.14-.16.04-.32.08-.47.12h0s0,0,0,0c0,0,0,0-.01,0-5.09,1.89-13.9,2.46-23.23-4.53-3.14-2.36-6.37-3.24-9.47-3.24-4.17,0-8.1,1.61-11.19,3.43-.04,0-.08.01-.12.02-.09.02-.19.03-.28.04-.32.05-.65.11-.98.18-.14.03-.3.06-.44.09-.21.04-.43.09-.64.14-.46.1-.93.21-1.4.33-.04,0-.08.02-.12.03h0s.27-2.04.27-2.04l.05-.37v-.02l.1-.74.15-1.12h0s1.26-9.54,1.26-9.54c4.56-4.23,10.73-6.25,16.97-5.53,5.9.68,11.01,3.71,14.03,8.32,8.11,12.39,14.82,9.71,18.43,8.27.4-.16.77-.31,1.1-.42.33-.11.94-.25,1.29.07.26.24.34.73.23,1.31.06-.05.11-.11.17-.17.2-.2.7.3.61.6Z"/><path class="cls-7" d="M60.04,122.74s0,.05,0,.08c0,0,0,0,0-.01,0-.02,0-.04,0-.06Z"/><path class="cls-7" d="M60.04,122.95s0-.07,0-.1c0,.03,0,.06,0,.09,0,0,0,0,0,0Z"/><path class="cls-7" d="M60.03,122.67v-.03s0,.02,0,.03l.03.16-.03-.14v-.02Z"/><path class="cls-2" d="M60.02,122.63l-.02-.1.02.11s0,0,0-.01Z"/><path class="cls-7" d="M59.98,123.18v-.04s.01,0,.01,0c0,.01,0,.02-.01.03Z"/><path class="cls-7" d="M59.95,122.44c.03.06.06.12.07.18,0,0,0,0,0,.01v.03s0,.02,0,.02c0,.02,0,.03,0,.05,0,.02,0,.04,0,.06,0-.13-.04-.25-.1-.36Z"/><path class="cls-7" d="M59.74,123.51s-.01.01-.02.01c.11-.08.2-.19.26-.32,0,0,0,.02,0,.02-.02.04-.04.07-.06.11l-.04.06s-.05.05-.07.08c-.01,0-.02.02-.04.03,0,0,0,0-.01.01Z"/><path class="cls-7" d="M59.72,123.52s.02,0,.02-.01c0,0-.02.01-.03.02t0,0Z"/><path class="cls-7" d="M59.7,123.54s.01-.01.02-.02t0,0h0s0,0-.01.01Z"/><path class="cls-7" d="M59.43,123.67s-.04.01-.06.02h0s.04-.01.06-.02Z"/><path class="cls-7" d="M58.42,123.37c.18.12.28.18.29.18.07.05.14.08.22.11-.15-.04-.3-.08-.47-.12l-.04-.17Z"/><path class="cls-2" d="M58.46,123.55l2.28,10.83s-.07-.02-.11-.03c-.21-.06-.41-.11-.62-.16.2.05.41.1.62.16.04,0,.07.02.11.03l.2.96c-7.69-2.5-13.04,3.43-18.65,8.57-7.14,6.54-17.47,9.16-24.6,9.1-.17,0-.34,0-.5,0-.12,0-.25,0-.37-.01s-.24-.01-.36-.02c-7.48-.41-12.02-3.88-12.97-4.68t0,0s-.04-.09-.06-.14-.03-.09-.04-.14c-.01-.04-.03-.09-.04-.13,0-.03-.01-.06-.02-.09,0-.03-.01-.06-.01-.09-.03-.21,0-.38.08-.49.23-.32,1.52-1.27,8.4.04,1.18.22,2.3.33,3.39.33,8.53,0,14.31-6.76,20.52-17.44,2.59-4.45,6.84-7.22,11.67-7.61.38-.03.76-.05,1.14-.07.61-.02,1.22-.03,1.82-.01.36,0,.71.02,1.07.04.47.03.93.06,1.38.1.12,0,.25.02.37.03.2.02.4.04.6.07.01,0,.03,0,.04,0,.1.01.2.02.3.04.28.04.55.07.81.11.19.03.37.06.55.09.45.07.87.15,1.27.23.08.02.16.03.25.05.09.02.18.04.27.05.14.03.28.06.41.09.22.05.42.1.62.14.06.02.13.03.19.05h0Z"/><path class="cls-7" d="M58.46,123.55h0c-.06-.01-.13-.03-.19-.04.06.01.13.03.19.04Z"/><path class="cls-16" d="M58.43,76.72c-.32.07-.66.11-1.01.11-.04,0-.07,0-.11,0l1.11-.11Z"/><path class="cls-7" d="M56.61,122.28h0c-.08-.01-.16-.03-.25-.04.08.01.16.03.25.04Z"/><path class="cls-2" d="M1.73,125.97c.01-.12.03-.24.06-.35,0-.01,0-.02,0-.03.32-.86,1.09-1.39,1.51-1.54.04-.01.07-.02.1-.03.5-.12,1.33.55,2.21,1.25,1.56,1.25,3.7,2.97,6.67,2.43,3.81-.69,8.05-5.02,12.97-13.24,4.03-6.74,8.8-10.5,14.16-11.19,8.47-1.09,15.74,5.96,15.81,6.04.04.04.08.07.13.1l.14.1,2.44,11.54.13.64c-.36-.08-.75-.16-1.16-.24-2.57-1.48-7.07-3.85-12.16-5.51-9.64-3.15-13.34,4.06-20.56,10.11-6.55,5.49-11.29,6.77-16.62,5.23-3.01-.87-4.97-3.18-5.92-4.69-.02-.24,0-.46.04-.67,0,.01.01.03.02.05Z"/><path class="cls-15" d="M44.76,115.95c-9.64-3.15-13.34,4.06-20.56,10.11-6.55,5.49-11.29,6.77-16.61,5.23-3.01-.87-4.97-3.18-5.92-4.69.11,1.34,1.34,3.17,5.25,5.38.06.02.81.37,1.38.58.04.01.08.03.11.04,8.15,2.9,14.23-2.28,20.11-7.3,4.76-4.06,9.26-7.9,14.19-6.12,1.51.55,3.09,1.09,4.7,1.62,0,0,0,0,.01,0,.18-.02.36-.02.54-.03.19-.01.37-.02.55-.03.51-.02,1.01-.02,1.52-.02.11,0,.22,0,.33,0,.75.02,1.49.06,2.2.12.12,0,.24.02.35.03.52.05,1.02.1,1.5.17,0,0,0,0,0,0,.9.11,1.73.26,2.49.4-2.57-1.48-7.07-3.85-12.15-5.51Z"/><path class="cls-7" d="M52.56,121.72c.09,0,.17.01.25.02-.12-.01-.24-.02-.36-.03.04,0,.07,0,.11,0Z"/><path class="cls-7" d="M51.4,122.5c.47.02.93.06,1.38.1-.45-.04-.91-.08-1.38-.1Z"/><path class="cls-9" d="M51.04,73.48c-.01.08-.02.16-.03.25,0,.04,0,.08-.01.11,0,.04,0,.07-.01.11-.02.14-.03.28-.05.41,0,0,0,.02,0,.03,0,.03,0,.06-.01.09-.01.12-.03.24-.04.36,0,0,0,.02,0,.03,0,.03,0,.07,0,.1,0,.04,0,.07-.01.11,0,.07-.01.14-.02.21-.02.18-.03.34-.05.5,0,0,0,.01,0,.02h0s0,.07,0,.1c-.2-.08-.4-.16-.58-.24-.09-.04-.17-.07-.25-.11-.31-.13-.59-.25-.83-.35l1.94-1.72Z"/><path class="cls-8" d="M50.93,74.39c0,.06-.01.11-.02.16,0,.03,0,.06,0,.09h0c-.01.11-.02.22-.04.32,0-.03,0-.07,0-.1,0,0,0-.02,0-.03.01-.12.03-.24.04-.36,0-.03,0-.06.01-.09Z"/><path class="cls-8" d="M50.83,75.29c-.02.18-.03.34-.05.5.01-.15.03-.32.05-.5Z"/><path class="cls-4" d="M50.77,75.82v.08h0s0-.05,0-.08Z"/><path class="cls-8" d="M49.17,76.16c-.05-.02-.1-.04-.15-.06h0s.1.04.15.06Z"/><path class="cls-7" d="M50.33,122.46c-.6-.01-1.21,0-1.82.01.61-.02,1.22-.03,1.82-.01Z"/><path class="cls-15" d="M49.02,76.1h0s-.07-.03-.07-.03c-.02,0-.04-.02-.06-.03.04.01.08.03.13.05Z"/><path class="cls-15" d="M48.84,76.02s-.05-.02-.07-.03c.01,0,.02,0,.03.01,0,0,.02,0,.03.02Z"/><path class="cls-9" d="M48.74,77.65l-.05-.75s.02,0,.03.01l.02.74Z"/><path class="cls-15" d="M48.7,75.96h0s-.07-.03-.1-.04c.03.01.07.03.1.04Z"/><path class="cls-15" d="M7.89,132.26c.27.07.54.13.81.19-.27-.05-.54-.12-.81-.19Z"/><path class="cls-15" d="M3.64,148.61c.17.17,4.65,3.95,12.83,4.37.12,0,.24.01.36.02s.25,0,.37.01c.17,0,.33,0,.5,0,7.14.06,17.47-2.56,24.6-9.1,5.61-5.14,10.96-11.07,18.65-8.57l.11.5s0,.03,0,.04l.09.44c-.08-.03-.16-.06-.25-.09.08.03.16.06.25.09l.57,2.68c-5.84-1.47-8.37.76-12.08,4.01-2.01,1.76-4.51,3.95-8.2,6.16-11.64,6.94-24.5,8.16-33.55,3.18-.03-.01-.06-.03-.08-.04-1.33-.43-4.08-3.56-4.17-3.72h0Z"/><path class="cls-2" d="M16.47,152.97c-8.18-.42-12.65-4.19-12.83-4.37h0c-.05-.11-.1-.21-.14-.31.95.8,5.49,4.27,12.97,4.68Z"/><path class="cls-7" d="M1.8,125.59c.19-.77.73-1.32,1.51-1.54-.42.15-1.19.68-1.51,1.54h0Z"/><path class="cls-7" d="M1.81,125.59s0,.02,0,.03c0,0,0-.02,0-.03h0Z"/><path class="cls-15" d="M1.71,125.92c.02-.1.05-.2.08-.3-.03.11-.05.23-.06.35,0-.02-.02-.03-.02-.05h0Z"/><path class="cls-7" d="M1.8,125.63c-.03.09-.06.19-.08.3-.02-.13-.07-.25-.14-.35.07,0,.15.01.24.02,0,0,0,.02,0,.03Z"/><path class="cls-12" d="M147.76,128.41c.97,0,.97-1.51,0-1.51s-.97,1.51,0,1.51h0Z"/><path class="cls-10" d="M111.76,137.85c-.42,0-.85-.01-1.27-.02-.16,0-.32.07-.43.18s-.19.28-.18.43c.02.34.27.61.61.61h.27c.09.06.2.1.3.09.23-.02.47-.05.7-.07.17-.02.31-.06.43-.18.11-.11.19-.28.18-.43-.02-.34-.27-.61-.61-.61Z"/><path class="cls-10" d="M115.75,139.36s-.08-.06-.12-.1c-.1-.06-.2-.08-.31-.08h-.07c-.08,0-.16.01-.24.05-.08.02-.14.07-.2.13-.06.06-.1.12-.13.2-.04.07-.06.15-.05.24,0,.05.01.11.02.16.03.1.08.19.16.27.04.03.08.06.12.1.1.06.2.08.31.08h.07c.08,0,.16-.01.24-.05.08-.02.14-.07.2-.13.06-.06.1-.12.13-.2.04-.07.06-.15.05-.24,0-.05-.01-.11-.02-.16-.03-.1-.08-.19-.16-.27Z"/><path class="cls-10" d="M118.89,141.44s0-.02-.01-.02c-.04-.05-.08-.12-.13-.16-.05-.04-.11-.1-.17-.12-.05-.02-.13-.07-.2-.08-.06-.01-.12-.02-.19-.03-.01,0-.02,0-.03,0-.06,0-.13.01-.19.02-.01,0-.02,0-.03,0-.06.02-.11.05-.17.07,0,0-.02,0-.03.01-.05.03-.1.07-.14.11,0,0-.02.01-.02.02-.06.06-.1.12-.13.2-.04.07-.06.15-.05.24,0,.08.01.16.05.24.02.08.07.14.13.2.04.03.08.06.12.1.05.03.1.05.15.06,0,0,0,0,0,0,0,0,0,0,0,0,.07.04.15.07.23.07.03,0,.06.01.09.01.06,0,.13,0,.19,0,.11,0,.21-.03.31-.08.07-.04.13-.09.17-.16.05-.06.09-.13.11-.21.03-.11.03-.22,0-.33-.02-.06-.04-.12-.07-.17Z"/><path class="cls-10" d="M121.79,144.11s0,0,0,0c-.02-.02-.03-.04-.05-.06-.02-.02-.03-.04-.05-.07,0,0,0,0-.01-.01-.08-.08-.17-.13-.27-.16-.11-.03-.22-.03-.33,0-.11.04-.22.09-.33.13-.08.02-.15.06-.21.11-.07.04-.12.1-.16.17-.04.07-.07.15-.07.23-.02.08-.01.16.01.24.02.05.04.1.06.15.05.09.13.17.22.22.05.02.1.04.15.06.04.01.09.02.13.02.05.03.1.06.16.07.05,0,.11.01.16.02.11,0,.21-.03.31-.08.06-.03.11-.07.15-.11,0,0,0,0,.01-.01.02-.02.04-.05.05-.07.02-.02.04-.04.05-.07.03-.05.07-.15.08-.17,0-.01,0-.02,0-.04.02-.14.04-.25,0-.39-.02-.06-.04-.12-.07-.18Z"/><path class="cls-10" d="M124.19,147.93c.08,0,.16-.01.24-.05.08-.02.14-.07.2-.13.06-.06.1-.12.13-.2.04-.07.06-.15.05-.24,0-.05-.01-.11-.02-.16-.03-.1-.08-.19-.16-.27-.04-.03-.08-.06-.12-.1-.1-.06-.2-.08-.31-.08h-.07c-.08,0-.16.01-.24.05-.08.02-.14.07-.2.13-.06.06-.1.12-.13.2-.04.07-.06.15-.05.24,0,.05.01.11.02.16.03.1.08.19.16.27.04.03.08.06.12.1.1.06.2.08.31.08h.07Z"/><path class="cls-10" d="M125.05,149.66s-.08-.06-.12-.1c-.1-.06-.2-.08-.31-.08-.05,0-.11.01-.16.02-.1.03-.19.08-.27.16-.02.02-.05.05-.07.07-.06.06-.1.12-.13.2-.04.07-.06.15-.05.24,0,.08.01.16.05.24.02.08.07.14.13.2.04.03.08.06.12.1.1.06.2.08.31.08.05,0,.11-.01.16-.02.1-.03.19-.08.27-.16l.07-.07c.06-.06.1-.12.13-.2.04-.07.06-.15.05-.24,0-.08-.01-.16-.05-.24-.02-.08-.07-.14-.13-.2Z"/><path class="cls-10" d="M127.71,153.2l-.1-.12c-.08-.08-.17-.13-.27-.16-.05,0-.11-.01-.16-.02-.11,0-.21.03-.31.08-.05.02-.09.05-.14.07-.07.04-.13.09-.17.16-.05.06-.09.13-.11.21-.03.08-.03.16-.01.24,0,.08.03.16.07.23.03.04.06.08.1.12.08.08.17.13.27.16.05,0,.11.01.16.02.11,0,.21-.03.31-.08.05-.02.09-.05.14-.07.07-.04.13-.09.17-.16.05-.06.09-.13.11-.21.03-.08.03-.16.01-.24,0-.08-.03-.16-.07-.23Z"/><path class="cls-10" d="M129.87,154.66c-.79,0-.79,1.23,0,1.23s.79-1.23,0-1.23Z"/><path class="cls-10" d="M134.43,158.04h0c-.02-.06-.04-.11-.06-.16-.04-.07-.09-.13-.16-.17-.06-.05-.13-.09-.21-.11-.06-.02-.12-.02-.18-.02-.07,0-.13,0-.2.02-.05.02-.1.04-.14.06-.09.05-.17.13-.22.22-.03.05-.05.1-.07.15h0s-.02.17-.02.17v.02c0,.05,0,.1.02.15,0,0,.06.14.06.15h0s.03.05.05.06c.02.02.03.04.05.06,0,0,0,0,0,0,.04.04.08.07.13.1h0s.14.06.15.07h.01c.05,0,.11.02.16.02h.01c.05,0,.11-.01.17-.02h0s.14-.06.15-.06h0s0,0,0,0c.04-.03.09-.06.13-.1h0s.1-.13.1-.13h0s0,0,0,0c0,0,.06-.14.06-.15.02-.05.02-.11.02-.17,0,0-.02-.16-.02-.16ZM134.37,158.36s0,0,0,0c0-.02,0-.03,0-.05,0,.02,0,.03,0,.04Z"/><path class="cls-10" d="M138.82,157.83c-.12-.11-.27-.18-.43-.18-.08,0-.16.01-.24.04-.02,0-.05,0-.07.01-.13.01-.27.01-.4,0-.06-.01-.13-.02-.19-.04-.15-.04-.33-.02-.47.06-.13.07-.25.22-.28.37-.04.16-.03.33.06.47.09.13.21.24.37.28.24.07.49.09.74.09,0,0,0,0,.01,0,.26.15.6.09.82-.11.06-.06.1-.12.13-.19.02-.02.03-.04.05-.06.02-.05.04-.1.06-.15.03-.08.03-.16.01-.24-.02-.13-.07-.26-.17-.35Z"/><path class="cls-10" d="M140.31,157.78c-.79,0-.79,1.23,0,1.23s.79-1.23,0-1.23Z"/><path class="cls-10" d="M145.07,157.18s-.08-.06-.12-.1c-.1-.06-.2-.08-.31-.08h-.07c-.08,0-.16.01-.24.05-.08.02-.14.07-.2.13-.06.06-.1.12-.13.2-.04.07-.06.15-.05.24,0,.05.01.11.02.16.03.1.08.19.16.27.04.03.08.06.12.1.1.06.2.08.31.08h.07c.08,0,.16-.01.24-.05.08-.02.14-.07.2-.13.06-.06.1-.12.13-.2.04-.07.06-.15.05-.24,0-.05-.01-.11-.02-.16-.03-.1-.08-.19-.16-.27Z"/><path class="cls-10" d="M147.69,155.72c-.79,0-.79,1.23,0,1.23s.79-1.23,0-1.23Z"/><path class="cls-10" d="M147.15,127.72v.04c0,.79,1.23.79,1.23,0v-.04c0-.79-1.23-.79-1.23,0Z"/><path class="cls-10" d="M150.96,127.39c-.79,0-.79,1.23,0,1.23s.79-1.23,0-1.23Z"/><path class="cls-10" d="M144.25,126.93c.07,0,.13-.02.2-.03.01,0,.03,0,.04-.01.04-.01.07-.02.1-.04.04,0,.08-.02.12-.04.08-.02.14-.07.2-.13.03-.04.06-.08.1-.12.04-.07.06-.14.07-.22,0-.01,0-.02.01-.03,0,0,0-.01,0-.02.02-.06.02-.13.03-.2,0-.01,0-.02,0-.03,0-.03,0-.07-.01-.1,0-.03,0-.07-.01-.1,0-.01,0-.02,0-.03-.02-.06-.05-.12-.07-.18,0-.01-.01-.02-.02-.03-.03-.05-.07-.09-.1-.14,0,0,0,0-.01-.01-.05-.05-.11-.1-.18-.13-.05-.02-.11-.05-.16-.07,0,0-.01,0-.02,0,0,0-.01,0-.02,0-.03,0-.07-.01-.09-.01-.03,0-.06,0-.09-.01,0,0-.01,0-.02,0,0,0,0,0,0,0-.04,0-.12.02-.17.02,0,0-.02,0-.03,0-.02,0-.12.05-.15.06,0,0,0,0,0,0,0,0,0,0-.01,0,0,0,0,0-.01,0-.03.02-.1.07-.13.1,0,0,0,0,0,0,0,0,0,0,0,0-.04.04-.07.09-.1.13,0,0-.01.02-.02.02,0,0,0,0,0,.01-.02.05-.05.11-.07.16,0,0,0,.02,0,.03,0,0,0,.01,0,.02,0,.04-.01.08-.02.12,0,0,0,0,0,0,0,0,0,0,0,.02-.06.1-.08.2-.08.31,0,.08.01.16.05.24.02.08.07.14.13.2.08.08.17.13.27.16.03.01.05.02.08.02.07.01.16.03.24.03Z"/><path class="cls-10" d="M140,125.59c.07.04.15.06.24.05.05,0,.11-.01.16-.02.1-.03.19-.08.27-.16.03-.04.06-.08.1-.12.06-.1.08-.2.08-.31v-.14c0-.08-.01-.16-.05-.24-.02-.08-.07-.14-.13-.2-.06-.06-.12-.1-.2-.13-.07-.04-.15-.06-.24-.05-.05,0-.11.01-.16.02-.1.03-.19.08-.27.16-.03.04-.06.08-.1.12-.06.1-.08.2-.08.31v.14c0,.08.01.16.05.24.02.08.07.14.13.2.06.06.12.1.2.13Z"/><path class="cls-10" d="M136.91,122.35l.05.03c.08.1.19.18.31.21,0,0,.02,0,.03,0,.02,0,.05.02.07.03.04.01.08.02.12.02.04,0,.08.01.12.01.03,0,.07,0,.09-.01.02,0,.06,0,.09-.01,0,0,.02,0,.02,0,.06-.02.12-.04.18-.08.12-.08.16-.13.24-.24.07-.1.1-.22.1-.34,0-.06-.01-.13-.02-.19,0-.04-.03-.07-.04-.1-.01-.03-.02-.07-.04-.1-.03-.05-.07-.1-.11-.14,0,0-.01-.01-.02-.02-.05-.04-.09-.08-.15-.11-.05-.03-.11-.05-.17-.07,0,0-.02,0-.03,0-.14-.02-.23-.04-.38,0-.06.02-.12.05-.18.08-.03.01-.13.05-.14.06,0,0,0,0,0,0,0,0-.12.09-.13.1,0,0,0,0,0,0-.06.06-.1.12-.13.2-.04.07-.06.15-.05.24,0,.08.01.16.05.24.02.08.07.14.13.2Z"/><path class="cls-10" d="M135.36,121.28s0,0,0-.01c0,0,0,0,0,0,0,0,0,0,0,0-.02-.05-.04-.1-.06-.15,0,0,0,0,0,0,0,0,0-.02-.02-.03-.03-.05-.07-.09-.11-.14,0,0,0,0-.01-.01-.04-.04-.09-.08-.14-.1,0,0,0,0,0,0,0,0,0,0,0,0-.05-.02-.1-.04-.15-.06,0,0,0,0,0,0,0,0-.01,0-.02,0-.06,0-.11-.02-.17-.02,0,0,0,0,0,0-.14,0-.21.03-.34.09-.03.02-.05.04-.08.06,0,0-.02.01-.02.02-.01,0-.02.02-.03.03,0,0,0,0-.01.01-.09.11-.13.16-.17.29,0,.03-.01.08-.01.09,0,.02-.01.07-.01.1,0,0,0,0,0,0,0,0,0,0,0,0,0,.04.02.13.02.16,0,0,0,.01,0,.02,0,0,0,0,0,.01.02.05.04.11.07.16,0,0,0,0,0,.01,0,0,0,0,0,0,.02.02.04.05.05.06.01.02.03.04.05.06,0,0,0,0,.01.01.04.04.13.1.13.1,0,0,0,0,.01,0,.05.03.11.05.16.07,0,0,0,0,.01,0,.03,0,.09.01.08.01,0,0,.06,0,.08.01,0,0,0,0,0,0,0,0,0,0,0,0,.02,0,.14-.02.16-.02,0,0,0,0,0,0,.03,0,.07-.03.09-.04.02,0,.06-.02.09-.04.05-.03.1-.06.14-.11,0,0,0,0,0,0,.02-.02.08-.11.1-.13,0,0,0,0,0,0,0,0,0,0,0,0,0,0,0,0,0,0,0,0,0,0,0,0,.02-.05.04-.1.06-.15,0,0,0,0,0-.01.01-.06.02-.12.02-.18,0,0,0-.01,0-.02,0-.06-.01-.12-.02-.18Z"/><path class="cls-10" d="M132.58,118.38s0,0,0-.01c0,0,0,0,0-.01-.02-.05-.04-.1-.06-.15,0,0,0-.01-.01-.02,0,0,0,0,0,0-.02-.02-.08-.1-.1-.13,0,0,0,0,0,0,0,0,0-.01-.02-.02-.02-.02-.05-.04-.07-.05-.02-.02-.05-.04-.07-.05,0,0-.01,0-.02-.01-.05-.02-.1-.05-.15-.06,0,0,0,0-.01,0,0,0-.01,0-.02,0,0,0,0,0-.01,0-.05,0-.12-.02-.17-.02,0,0-.02,0-.02,0,0,0-.01,0-.02,0-.03,0-.06,0-.09.01-.03,0-.06,0-.09.01-.01,0-.03,0-.04.01-.05.02-.11.04-.15.07,0,0,0,0-.01,0,0,0-.01,0-.02.01-.05.03-.1.07-.14.11,0,0-.01.01-.02.02-.03.04-.07.09-.1.13,0,0,0,0,0,.01-.02.03-.03.07-.04.09-.01.02-.03.06-.04.09,0,0,0,0,0,.01,0,.03-.02.14-.02.16,0,0,0,0,0,0,0,.08.01.16.05.24.01.04.03.08.06.11.02.04.03.08.05.11.05.09.13.17.22.22,0,0,.01,0,.02.01,0,0,0,0,0,0,.03.01.12.05.15.06,0,0,0,0,.01,0,0,0,0,0,.01,0,0,0,0,0,0,0,.05,0,.12.02.17.02,0,0,.02,0,.03,0,0,0,0,0,.01,0,.03,0,.07,0,.09-.01.02,0,.06,0,.09-.01,0,0,.02,0,.02,0,0,0,0,0,.01,0,.05-.02.1-.04.15-.06,0,0,.02,0,.02-.01,0,0,.01,0,.02-.01.04-.03.09-.07.13-.1,0,0,0,0,.01,0,.05-.05.09-.11.13-.16.04-.05.07-.14.08-.19,0,0,0-.01,0-.02,0,0,0,0,0-.01,0,0,0,0,0,0,0-.05.02-.12.02-.17,0,0,0-.02,0-.02,0,0,0,0,0,0,0-.03-.02-.13-.02-.16Z"/><path class="cls-10" d="M129.42,119.73c.1.06.2.08.31.08.05,0,.11-.01.16-.02.1-.03.19-.08.27-.16.02-.02.05-.05.07-.07.06-.06.1-.12.13-.2.04-.07.06-.15.05-.24,0-.08-.01-.16-.05-.24-.02-.08-.07-.14-.13-.2-.04-.03-.08-.06-.12-.1-.1-.06-.2-.08-.31-.08-.05,0-.11.01-.16.02-.1.03-.19.08-.27.16-.02.02-.05.05-.07.07-.06.06-.1.12-.13.2-.04.07-.06.15-.05.24,0,.08.01.16.05.24.02.08.07.14.13.2.04.03.08.06.12.1Z"/><path class="cls-10" d="M126.15,118.95h0c0-.06-.02-.11-.02-.17h0s0,0,0,0h0s0,0,0-.01c-.02-.05-.04-.1-.06-.14,0,0,0,0,0,0-.04-.07-.09-.13-.16-.17-.06-.05-.13-.09-.21-.11-.08-.02-.17-.03-.25,0-.08,0-.16.03-.23.07-.04.03-.08.06-.13.1-.02.02-.04.05-.06.08,0,0,0,0-.01,0-.07.05-.12.1-.16.17-.02.05-.04.1-.06.15-.03.11-.03.22,0,.33.02.05.04.1.06.15.05.09.13.17.22.22h0s.05.02.08.03c.02,0,.05.02.08.03h0s0,0,.01,0c.05,0,.12.02.17.02h.01s.05,0,.08-.01c.03,0,.06,0,.08,0h0s0,0,0,0,0,0,.01,0h0s.12-.05.15-.06c0,0,0,0,0,0,0,0,0,0,0,0,.05-.03.1-.07.14-.11,0,0,0,0,0,0,.04-.04.07-.09.1-.13,0,0,0-.02.01-.02.01-.02.05-.12.06-.14h0s0,0,0,0c0,0,0,0,0-.02h0c0-.06.02-.11.02-.17,0,0,0,0,0,0s0,0,0-.01Z"/><path class="cls-10" d="M127.04,118.12s.1-.04.15-.06c.07-.04.13-.09.17-.16.04-.04.06-.08.08-.14.04-.07.06-.15.05-.24,0-.05-.01-.11-.02-.16-.02-.05-.04-.1-.06-.15-.04-.07-.09-.13-.16-.17-.06-.05-.13-.09-.21-.11-.09-.02-.18-.03-.28-.05-.08-.03-.16-.03-.24-.01-.08,0-.16.03-.23.07-.05.03-.09.06-.12.1-.06.02-.11.05-.16.09-.07.04-.12.1-.16.17-.04.07-.07.15-.07.23-.02.08-.01.16.01.24.02.05.04.1.06.15.05.09.13.17.22.22.05.02.1.04.15.06.11.03.22.03.33,0,.16-.03.33-.06.49-.09Z"/><path class="cls-10" d="M123.22,118.87c-.05-.09-.13-.17-.22-.22-.05-.02-.1-.04-.15-.06-.1-.03-.19-.02-.29,0-.05,0-.11-.02-.12-.02,0,0,0,0,0,0,0,0,0,0-.01,0,0,0,0,0,0,0-.02,0-.14.02-.17.02,0,0,0,0-.01,0,0,0,0,0,0,0-.02,0-.13.06-.15.06,0,0,0,0,0,0-.01,0-.05.04-.07.05-.02.01-.05.04-.06.05,0,0,0,0,0,0-.01.01-.09.11-.1.13,0,0,0,0,0,0,0,.01-.03.08-.04.1,0,.02-.02.04-.02.06-.02.06-.02.13-.02.19,0,0,0,.01,0,.02,0,.11.03.21.08.31,0,0,0,0,0,0,0,0,.09.12.1.13,0,0,0,0,0,0,.04.04.09.08.14.11.01,0,.04.02.07.03.02.01.07.03.08.03,0,0,0,0,0,0,.02,0,.07.01.09.01.02,0,.06,0,.08,0,0,0,0,0,.01,0,0,0,0,0,0,0,.03,0,.14-.02.17-.02,0,0,0,0,0,0,0,0,0,0,0,0,.02,0,.1-.04.08-.03,0,0,.05-.02.08-.03,0,0,0,0,0,0,0,0,0,0,0,0,0,0,.01,0,.03-.02.01,0,.03,0,.04-.01.08-.02.15-.06.21-.11.07-.04.12-.1.16-.17.04-.07.07-.15.07-.23.02-.08.01-.16-.01-.24-.02-.05-.04-.1-.06-.15Z"/><path class="cls-10" d="M117.71,121.2c.15-.04.27-.13.35-.25.07,0,.13-.02.19-.05.08-.02.14-.07.2-.13.06-.06.1-.12.13-.2.04-.07.06-.15.05-.24,0-.05-.01-.11-.02-.16-.03-.1-.08-.19-.16-.27-.04-.03-.08-.06-.12-.1-.1-.06-.2-.08-.31-.08-.1,0-.2.01-.3.04-.02,0-.04.01-.07.02-.06.03-.13.05-.19.08,0,0,0,0,0,0-.05,0-.11.01-.16.02-.1.03-.19.08-.27.16-.08.09-.14.18-.17.3-.03.12-.03.24,0,.36.05.18.17.32.32.42.16.1.36.12.53.08Z"/><path class="cls-10" d="M114.66,121.92c0-.08-.03-.16-.07-.23-.03-.04-.06-.08-.1-.12-.08-.08-.17-.13-.27-.16-.05,0-.11-.01-.16-.02-.11,0-.21.03-.31.08-.04.02-.08.05-.12.07-.06.01-.11.03-.16.06-.07.06-.15.11-.22.17-.07.04-.13.09-.17.16-.05.06-.09.13-.11.21-.03.08-.03.16-.01.24,0,.08.03.16.07.23.03.04.06.08.1.12.08.08.17.13.27.16.05,0,.11.01.16.02.11,0,.21-.03.31-.08.05-.03.09-.06.14-.08.09-.04.18-.08.27-.13.06-.03.1-.07.14-.12.05-.04.1-.08.13-.13.05-.06.09-.13.11-.21.03-.08.03-.16.01-.24Z"/><path class="cls-10" d="M60.44,137.08c-.05-.09-.13-.17-.22-.22,0,0,0,0-.01,0-.02-.01-.05-.02-.07-.03-.03-.01-.05-.02-.08-.03,0,0,0,0,0,0,0,0,0,0-.01,0-.03,0-.08-.01-.09-.01-.01,0-.03,0-.05,0-.04-.02-.07-.04-.11-.05-.05,0-.11-.01-.16-.02-.11,0-.21.03-.31.08,0,0,0,0,0,0-.01,0-.12.09-.13.1,0,0,0,0,0,0,0,0,0,0,0,0,0,0-.09.12-.1.13,0,0,0,0,0,0,0,0,0,0,0,0,0,.01-.06.14-.06.15,0,0,0,0,0,0,0,0,0,0,0,0,0,.03-.01.1-.01.09,0,0,0,.06-.01.09,0,.03,0,.07.01.1,0,.03,0,.07.02.1,0,0,0,0,0,0,.01.03.05.12.06.15,0,0,0,0,0,0,0,0,0,.01.01.02.02.02.04.05.05.07.02.02.03.05.05.07.02.02.06.05.08.06.02.01.05.04.08.06,0,0,0,0,0,0,.04.02.11.05.15.06,0,0,0,0,.01,0,0,0,0,0,.01,0,.03,0,.14.02.16.02,0,0,0,0,0,0,.01,0,.02,0,.03,0,.05,0,.12-.01.17-.02,0,0,0,0,0,0,0,0,.01,0,.02,0,0,0,.01,0,.02,0,.05-.02.11-.04.16-.07.02-.01.05-.02.07-.04.05-.04.1-.08.15-.12.01,0,.02-.02.03-.03.08-.08.13-.17.16-.27.03-.08.03-.16.01-.24,0-.08-.03-.16-.07-.23Z"/><path class="cls-10" d="M54.36,137.7s-.06-.05-.09-.06c0,0,0,0-.01,0-.15-.08-.31-.1-.47-.06-.32.08-.61.25-.86.46-.12.11-.22.23-.32.37-.1.14-.16.29-.22.44-.03.11-.03.22,0,.33.03.1.08.19.16.27.08.08.17.13.27.16.11.03.22.03.33,0,.17-.03.32-.09.47-.16.15-.07.28-.17.41-.27.13-.11.23-.24.33-.37.1-.13.16-.29.22-.44,0-.05.01-.11.02-.16,0-.05-.01-.11-.02-.16-.04-.13-.12-.24-.22-.32Z"/><path class="cls-10" d="M48.35,142.49s0-.03,0-.05c-.02-.07-.05-.14-.08-.2-.05-.09-.13-.17-.22-.22-.01,0-.02,0-.04-.01-.02-.02-.05-.04-.07-.06-.08-.06-.17-.09-.26-.12-.02,0-.04-.01-.06-.01-.07-.01-.14-.03-.21-.02-.16,0-.27.04-.41.11-.02,0-.03.02-.04.03-.05.04-.11.08-.15.12-.06.06-.11.12-.15.2,0,.02-.02.04-.03.06-.03.03-.07.06-.1.09-.05.05-.09.11-.13.16-.01.02-.03.04-.04.06-.08.16-.13.33-.13.51,0,.09.01.18.03.26.02.08.05.17.1.24.12.19.3.34.52.4.41.12.82-.08,1.13-.34.04-.03.07-.07.1-.11.06-.07.13-.15.17-.24.08-.17.15-.36.13-.56,0-.09-.02-.19-.05-.27,0,0,0,0,0,0Z"/><path class="cls-10" d="M43.7,146.33s0,0,0,0c0,.01,0,.01,0,0Z"/><path class="cls-10" d="M44.96,145.98s0-.05-.01-.08c0-.03,0-.06-.01-.08-.02-.08-.06-.15-.11-.21-.02-.03-.04-.05-.06-.07-.01-.01-.02-.03-.03-.04-.08-.08-.17-.13-.27-.16-.03,0-.08-.01-.09-.01,0,0-.06-.01-.09-.01-.06,0-.11.01-.17.02,0,0,0,0,0,0,0,0,0,0,0,0-.01,0-.13.06-.15.06,0,0,0,0,0,0,0,0,0,0,0,0,0,0,0,0,0,0-.01.01-.11.09-.12.1,0,0,0,0,0,0,0,0,0,0,0,0,0,0,0,0,0,0-.01.02-.08.11-.1.12,0,0,0,0,0,0,0,0,0,0,0,0,0,0,0,0,0,0,0,0,0,0,0,0-.01.02-.03.06-.03.08,0,.01-.02.05-.03.08,0,0,0,.01,0,.02,0-.06-.02.12-.02.17,0,0,0,0,0,0,0,.01.02.15.02.16,0,0,0,0,0,0,0,0,0,0,0,0,0,0,0,0,0,0,.01.04.06.13.07.16,0,0,0,0,0,0,.03.05.06.09.1.13,0,0,0,0,0,0,.02.02.08.06.06.05,0,0,.04.03.06.05,0,0,0,0,0,0,.05.03.1.05.16.07.03,0,.08.01.09.01.01,0,.06.01.09.01,0,0,0,0,0,0,0,0,0,0,0,0,.02,0,.15-.02.16-.02,0,0,0,0,0,0,0,0,.01,0,.02,0,0,0,.11-.04.15-.07,0,0,0,0,0,0,0,0,0,0,0,0,.02-.01.11-.08.12-.1,0,0,0,0,0,0,0,0,0,0,0,0,0,0,0,0,0,0,0,0,0,0,0,0,.03-.04.06-.08.1-.12h0s0,0,0,0c0,0,0,0,0,0,0-.01.06-.14.06-.15,0,0,0,0,0,0,0,0,0,0,0,0,0,0,0,0,0,0,0-.05.01-.11.02-.16h0s0,0,0,0c0,0,0,0,0,0,0,0,0,0,0,0Z"/><path class="cls-10" d="M40.4,148.25c-.11-.14-.24-.2-.41-.23-.07-.02-.15-.04-.23-.05-.2-.02-.39.05-.56.15-.17.05-.33.11-.48.2-.31.18-.63.48-.74.84-.11.36.09.75.43.9.21.09.43.09.65.03.26-.06.49-.18.7-.33.35-.14.7-.34.81-.72.07-.23.03-.47-.1-.66-.02-.04-.05-.09-.07-.12Z"/><path class="cls-10" d="M34.35,151.38c-.08-.08-.17-.13-.27-.16-.09-.02-.18-.03-.27-.05-.08-.03-.16-.03-.24-.01-.08,0-.16.03-.23.07-.07.04-.13.09-.17.16-.05.05-.08.12-.1.19-.01.02-.02.03-.03.04,0,0-.01.01-.01.02,0,.01-.02.03-.02.04-.06.1-.08.2-.08.31,0,.11.03.21.08.31.05.09.13.17.22.22.1.06.2.08.31.08.02,0,.04,0,.06,0,0,0,.02,0,.03,0,.06,0,.13-.01.19-.03.02,0,.04,0,.06-.01,0,0,.02,0,.03-.01.06-.02.12-.05.17-.07.08-.04.15-.1.22-.16.02-.01.03-.03.04-.04.05-.05.09-.11.13-.17.06-.1.08-.2.08-.31,0-.08-.01-.16-.05-.24-.02-.08-.07-.14-.13-.2Z"/><path class="cls-10" d="M27.74,153.5c-.22-.12-.48-.17-.73-.15,0,0-.02,0-.03-.01-.08-.03-.16-.03-.24-.01-.08,0-.16.03-.23.07-.11.07-.21.17-.26.29-.08.08-.16.17-.22.27-.11.19-.11.43,0,.62.11.19.31.3.53.3.07,0,.14,0,.21,0,.12-.01.24-.03.36-.06.15-.04.29-.11.42-.19.02,0,.03,0,.05,0,.14-.04.3-.15.37-.28.08-.14.11-.32.06-.47-.05-.15-.14-.29-.28-.37Z"/><path class="cls-10" d="M21.61,154.34c-.03-.07-.08-.13-.13-.18-.05-.06-.12-.1-.18-.14-.01,0-.02-.01-.03-.02-.06-.03-.12-.05-.18-.07-.07-.03-.16-.03-.23-.04-.03,0-.05,0-.08,0-.06,0-.13.01-.19.03-.04,0-.07.03-.11.04-.03.01-.07.03-.1.05-.03.02-.06.05-.09.07-.1.03-.19.08-.26.15-.08.08-.13.17-.16.27-.06.21,0,.45.16.6.08.07.17.14.26.19.07.03.15.07.22.09.08.02.16.03.25.04.03,0,.06,0,.09,0,.04,0,.08-.01.12-.02.02,0,.03,0,.05,0,.08,0,.16-.01.24-.05.08-.02.14-.07.2-.13,0,0,.02-.02.03-.03.05-.05.1-.1.14-.16.06-.1.08-.2.08-.31,0-.06-.01-.13-.03-.19-.02-.06-.05-.12-.07-.18Z"/><path class="cls-10" d="M15.95,153.91s-.06-.08-.1-.12c-.08-.08-.17-.13-.27-.16-.05,0-.11-.01-.16-.02-.11,0-.21.03-.31.08-.05.02-.09.05-.14.07-.07.04-.13.09-.17.16-.05.06-.09.13-.11.21-.03.08-.03.16-.01.24,0,.08.03.16.07.23.03.04.06.08.1.12.08.08.17.13.27.16.05,0,.11.01.16.02.11,0,.21-.03.31-.08.05-.02.09-.05.14-.07.07-.04.13-.09.17-.16.05-.06.09-.13.11-.21.03-.08.03-.16.01-.24,0-.08-.03-.16-.07-.23Z"/><path class="cls-10" d="M48.53,119.16c-.18-.09-.36-.19-.54-.28-.13-.07-.25-.13-.39-.18-.09-.03-.18-.05-.27-.05-.07,0-.14,0-.21.02-.07.01-.14.04-.2.08-.06.03-.13.08-.18.13-.09.09-.15.2-.19.32-.05.15-.04.32-.01.47.02.08.05.15.09.22.03.07.09.14.14.19.12.12.27.2.43.25,0,0,0,0,.01,0,.06.03.12.05.19.08.14.05.29.07.43.07.07,0,.15,0,.22-.02.05,0,.1,0,.16,0,.13-.02.26-.07.35-.17.05-.06.09-.12.12-.19.03-.03.05-.06.07-.1.08-.14.11-.32.06-.47-.05-.15-.14-.29-.28-.37Z"/><path class="cls-10" d="M43.74,118.7c.07-.03.15-.06.22-.1.07-.04.13-.09.17-.16.05-.06.09-.13.11-.21,0-.05.01-.11.02-.16,0-.11-.03-.21-.08-.31-.09-.14-.17-.21-.3-.3-.07-.05-.16-.09-.25-.11-.05-.02-.11-.03-.17-.03,0,0-.02,0-.02,0-.07-.02-.15-.03-.23-.04-.02,0-.05,0-.07,0-.07,0-.15.01-.23.03-.07.02-.14.05-.21.09-.07.03-.12.09-.18.13-.03.04-.06.08-.1.12-.04.07-.07.15-.07.23-.01.05-.01.11,0,.16,0,.08.03.16.07.23.03.07.09.14.14.2.05.06.12.11.19.15.15.1.31.13.48.14.02,0,.04,0,.06,0,0,0,.02,0,.02,0,.03,0,.06,0,.09,0,.08,0,.16-.02.24-.03.03,0,.06-.02.08-.03Z"/><path class="cls-10" d="M38.27,118.58s.06-.01.1-.02c.08-.02.15-.06.22-.09.03-.01.06-.03.08-.04.07-.04.13-.1.2-.15.03-.02.05-.04.07-.07.05-.05.08-.1.11-.15.05-.06.09-.12.1-.2.04-.16.03-.33-.06-.47-.08-.13-.21-.25-.37-.28-.09-.02-.17-.03-.26-.04-.04,0-.07,0-.11,0-.12.01-.25.03-.36.07-.08.03-.16.06-.23.1-.07.04-.14.1-.21.15-.1.08-.17.18-.24.28-.06.1-.08.2-.08.31,0,.08.01.16.05.24.02.08.07.14.13.2.08.08.17.13.27.16.11.02.23.04.34.03.08,0,.16-.02.24-.03Z"/><path class="cls-10" d="M34.87,118.98s-.08-.06-.12-.1c-.1-.06-.2-.08-.31-.08-.05,0-.11.01-.16.02-.1.03-.19.08-.27.16-.02.02-.05.05-.07.07-.06.06-.1.12-.13.2-.04.07-.06.15-.05.24,0,.08.01.16.05.24.02.08.07.14.13.2.04.03.08.06.12.1.1.06.2.08.31.08.05,0,.11-.01.16-.02.1-.03.19-.08.27-.16l.07-.07c.06-.06.1-.12.13-.2.04-.07.06-.15.05-.24,0-.08-.01-.16-.05-.24-.02-.08-.07-.14-.13-.2Z"/><path class="cls-10" d="M30.78,121.62c-.12-.02-.23-.04-.35-.03-.12.01-.23.03-.34.07-.11.04-.21.09-.31.16-.09.07-.18.13-.26.22-.13.15-.23.31-.29.49-.02.04-.05.07-.07.11-.04.07-.07.15-.07.23-.02.08-.01.16.01.24.02.08.06.16.12.22.03.09.08.18.15.25.06.06.12.1.2.13.07.04.15.06.24.05.11,0,.21-.03.31-.08.11-.08.23-.16.33-.26.1-.1.19-.21.27-.33.08-.11.15-.23.21-.36.13-.07.25-.22.28-.37.04-.16.03-.33-.06-.47-.08-.13-.21-.26-.37-.28Z"/><path class="cls-10" d="M26.2,126.29c.08.08.17.13.27.16.02,0,.05,0,.07.01.08.03.16.03.24.01.08,0,.16-.03.23-.07.07-.04.13-.09.17-.16.05-.06.09-.13.11-.21,0-.05.01-.11.02-.16,0-.11-.03-.21-.08-.31-.03-.04-.06-.08-.1-.12-.08-.08-.17-.13-.27-.16-.02,0-.05,0-.07-.01-.08-.03-.16-.03-.24-.01-.08,0-.16.03-.23.07-.07.04-.13.09-.17.16-.05.06-.09.13-.11.21,0,.05-.01.11-.02.16,0,.11.03.21.08.31.03.04.06.08.1.12Z"/><path class="cls-10" d="M23.37,128.07c-.06-.06-.12-.1-.2-.13-.07-.04-.15-.06-.24-.05-.05,0-.11.01-.16.02-.1.03-.19.08-.27.16-.03.04-.06.08-.1.12-.06.1-.08.2-.08.31v.07c0,.08.01.16.05.24.02.08.07.14.13.2.06.06.12.1.2.13.07.04.15.06.24.05.05,0,.11-.01.16-.02.1-.03.19-.08.27-.16.03-.04.06-.08.1-.12.06-.1.08-.2.08-.31v-.07c0-.08-.01-.16-.05-.24-.02-.08-.07-.14-.13-.2Z"/><path class="cls-10" d="M18.4,131.12s-.05-.05-.07-.07c-.06-.06-.12-.1-.2-.13-.07-.04-.15-.06-.24-.05-.08,0-.16.01-.24.05-.08.02-.14.07-.2.13l-.1.12c-.06.1-.08.2-.08.31,0,.05.01.11.02.16.03.1.08.19.16.27.02.02.05.05.07.07.06.06.12.1.2.13.07.04.15.06.24.05.08,0,.16-.01.24-.05.08-.02.14-.07.2-.13.03-.04.06-.08.1-.12.06-.1.08-.2.08-.31,0-.05-.01-.11-.02-.16-.03-.1-.08-.19-.16-.27Z"/><path class="cls-10" d="M13.64,131.94c-.79,0-.79,1.23,0,1.23s.79-1.23,0-1.23Z"/><path class="cls-10" d="M50.43,139.5s0-.06-.01-.09c0,0,0,0,0-.01-.03-.11-.09-.22-.18-.31-.09-.09-.12-.1-.22-.14-.02,0-.06-.03-.1-.04-.03,0-.07,0-.09-.01-.02,0-.06,0-.09-.01,0,0,0,0-.01,0,0,0,0,0,0,0-.03,0-.07,0-.1-.01-.11,0-.21.03-.31.08-.05.03-.1.07-.14.11,0,0,0,0,0,0,0,0,0,0,0,0,0,0,0,0,0,0-.03.04-.06.08-.1.12,0,0,0,.01-.01.02-.01.03-.03.06-.03.08,0,.02-.03.05-.03.08,0,0,0,.01,0,.02,0,.03,0,.07-.01.09,0,.02,0,.06-.01.09,0,0,0,0,0,.01,0,0,0,.01,0,.02,0,.06.01.12.03.18,0,0,0,.01,0,.02.01.03.02.06.03.08,0,.02.02.06.04.08,0,0,0,.01.01.02.03.05.07.1.11.14.04.04.1.08.14.11,0,0,.01,0,.02.01,0,0,0,0,0,0,.04.02.11.05.15.06,0,0,0,0,.01,0,0,0,0,0,.01,0,.03,0,.07.01.09.01.02,0,.06,0,.09.01,0,0,.02,0,.02,0,.04,0,.13,0,.18-.03.06-.02.11-.04.17-.07,0,0,.01,0,.02-.01.02-.02.1-.07.14-.11.04-.04.08-.09.11-.14,0,0,0-.01.01-.02,0,0,0,0,0-.01.01-.02.02-.06.03-.08.01-.02.02-.05.03-.08,0,0,0-.02,0-.02.01-.06.02-.12.03-.18,0,0,0-.02,0-.02,0-.03,0-.07-.01-.09Z"/><path class="cls-15" d="M107.65,122.15l-.16-.16c-.17-.18-.36-.31-.59-.38-.22-.12-.46-.17-.71-.16-.25,0-.49.04-.71.16-.23.07-.43.2-.59.38l-.29.37c-.17.29-.25.6-.25.93l.07.49c.09.31.25.58.47.81l.16.16c.17.18.36.31.59.38.22.12.46.17.71.16.25,0,.49-.04.71-.16.23-.07.43-.2.59-.38l.29-.37c.17-.29.25-.6.25-.93l-.07-.49c-.09-.31-.25-.58-.47-.81h0Z"/><path class="cls-15" d="M63.32,126.81h.16c.25,0,.49-.04.71-.16.23-.07.43-.2.59-.38.18-.17.31-.36.38-.59.12-.22.17-.46.16-.71l-.07-.49c-.09-.31-.25-.58-.47-.81l-.37-.29c-.29-.17-.6-.25-.93-.25h-.16c-.25,0-.49.04-.71.16-.23.07-.43.2-.59.38-.18.17-.31.36-.38.59-.12.22-.17.46-.16.71l.07.49c.09.31.25.58.47.81l.37.29c.29.17.6.25.93.25h0Z"/><path class="cls-11" d="M116.47,71.29l-.49-1.05c-23.93-8.13-39.81-6.1-49.68-3.19-10.76,3.17-15.23,7.71-15.44,7.92l-.03,1.37-.32.1c.09.05,9.59,4.65,22.42,6.34,2.82.37,5.93.62,9.24.62,10.67,0,23.38-2.56,34.64-11.74l-.21-.27-.12-.11ZM73.11,81.59c-10.5-1.38-18.73-4.74-21.27-5.86,1.66-1.42,6.53-5.11,14.88-7.55,9.54-2.79,25.66-4.48,48.64,3.1-14.27,11.22-30.81,11.82-42.25,10.31Z"/><path class="cls-2" d="M115.36,71.28c-14.27,11.22-30.81,11.82-42.25,10.31-10.5-1.38-18.73-4.74-21.27-5.86,1.66-1.42,6.53-5.11,14.88-7.55,9.54-2.79,25.66-4.48,48.64,3.1Z"/><path class="cls-15" d="M113.94,32.1l-29.89,50.61s-7.56-.11-7.85-.18l31.37-54.14,6.37,3.71Z"/><path class="cls-7" d="M115.19,31.68l-.51.85-30.15,50.55c-.25-.13-.58-.02-.84-.14l30.24-50.84-6.37-3.71-31.37,54.14c-.08-.02-1.06.77-1.27.73l31.9-55.29.49-.85.74.43,6.39,3.71.74.43Z"/><path class="cls-6" d="M100.78,45.03c-.15,0-.3-.04-.44-.11-.44-.24-.59-.79-.35-1.23l7.51-13.47c.24-.44.79-.59,1.23-.35.44.24.59.79.35,1.23l-7.51,13.47c-.17.3-.47.46-.79.46Z"/><path class="cls-13" d="M116.48,71.31c-.06.05-.11.09-.17.14-.02.02-.04.03-.06.05,0,0-.02.02-.03.03,0,0,0,0,0,0,0,0-.01.01-.02.02,0,0-.01,0-.02.01,0,0,0,0,0,0-.1.08-.2.16-.3.24-.1.08-.2.16-.3.24-.1.08-.2.16-.31.24-.1.08-.21.16-.31.24-.11.08-.21.16-.32.24-.11.08-.22.16-.33.24-.09.07-.19.14-.29.2-.05.03-.1.07-.15.1-.2.14-.4.28-.61.41-.12.08-.24.16-.36.24-.12.08-.25.16-.37.24-.25.16-.5.32-.76.47-.26.16-.53.31-.8.47-.28.16-.56.32-.84.48-.27.15-.55.3-.83.45,0,0,0,0,0,0-.28.15-.57.3-.86.44,0,0-.01,0-.02,0-.28.14-.58.29-.87.43-.3.14-.61.29-.92.43-.15.07-.31.14-.47.21-.16.07-.31.14-.47.21-.64.28-1.29.55-1.97.81l-.51.19c-.17.06-.34.13-.51.19l-1.05.37c-.18.06-.35.12-.53.18l-1.08.35c-.18.06-.37.11-.55.17-.18.06-.37.11-.55.17-.19.05-.38.11-.56.16-.19.05-.38.11-.57.16l-.9.24h-.04s-.56.15-.56.15l-.4.1c-.15.04-.29.07-.44.11l-.6.14c-.2.05-.4.09-.6.13-.2.04-.41.08-.61.13-.2.04-.41.08-.61.12l-.63.12h-.08c-.18.05-.35.08-.53.11l-1.26.2c-.42.06-.85.13-1.29.18l-.89.11c-.14.02-.28.03-.41.05l-.6.06c-.23.02-.45.04-.68.07l-2.07.16c-.96.06-1.92.08-2.88.08-.23,0-.47,0-.7,0-.17,0-.34,0-.51,0-.2,0-.41,0-.61-.02-.2,0-.41-.01-.61-.02-.46-.02-.93-.05-1.39-.08-.14,0-.28-.02-.43-.03-.2-.01-.4-.03-.6-.05s-.4-.03-.6-.05c-.2-.02-.4-.04-.6-.06-.14-.01-.29-.03-.43-.05-.17-.02-.35-.04-.52-.06-.24-.03-.48-.06-.72-.09-.24-.03-.48-.06-.72-.1-.2-.03-.4-.05-.59-.09-.09-.01-.18-.02-.27-.04-.02,0-.04,0-.05,0-.15-.02-.3-.04-.45-.07,0,0,0,0-.01,0-.24-.04-.48-.08-.72-.12-.15-.02-.3-.05-.45-.08-.32-.06-.64-.12-.96-.17-.29-.06-.58-.11-.86-.17-.09-.02-.19-.04-.28-.06-.19-.04-.38-.08-.57-.12-.09-.02-.18-.04-.28-.06-.19-.04-.38-.08-.56-.12-.47-.1-.93-.21-1.39-.32l-.55-.13c-.14-.03-.29-.07-.43-.11-.4-.1-.79-.2-1.18-.3-.32-.09-.64-.17-.96-.26-.03,0-.06-.02-.09-.02-.52-.14-1.03-.29-1.53-.43-.33-.1-.66-.2-.99-.29-.16-.05-.32-.1-.48-.15-.16-.05-.32-.1-.48-.15-.16-.05-.31-.1-.47-.15s-.31-.1-.46-.15c-.15-.05-.3-.1-.46-.15-.14-.05-.29-.09-.43-.14,0,0-.01,0-.02,0-.29-.1-.58-.2-.87-.29-.85-.29-1.66-.58-2.41-.86-.14-.05-.28-.1-.41-.15-.22-.08-.43-.16-.64-.24,0,0-.02,0-.03-.01-.13-.05-.26-.1-.39-.15-.1-.04-.19-.08-.29-.11-.52-.2-1-.4-1.44-.58v-.08s0-.01,0-.01c0,0,0-.01,0-.02.01-.15.03-.32.05-.5,0-.07.01-.14.02-.21,0-.04,0-.07.01-.11.01-.11.02-.21.04-.32h0s0-.06,0-.09c0-.05.01-.11.02-.16,0,0,0-.02,0-.03.02-.14.03-.27.05-.41,0-.04,0-.07.01-.11s0-.08.01-.11c.01-.08.02-.16.03-.25v-.07s.02-.05.02-.05l.3-1.76c1.69-8.75,7.8-25.99,29.61-26.15,5.11-.04,9.85.75,14.09,2.33,2.18.81,4.27,1.85,6.2,3.09.54.35,1.07.71,1.58,1.08.38.28.75.56,1.11.84,0,0,0,0,0,0,.2.16.4.32.6.48.15.13.3.25.44.38.08.07.16.14.24.21.13.11.25.22.38.33.34.31.68.63,1,.95.13.13.26.26.39.39,3.07,3.12,5.23,6.5,6.71,9.42l.14.28s0,0,0,0c.1.2.19.39.28.59.05.1.09.2.14.3.05.1.09.2.14.3,0,0,0,0,0,0,.1.23.2.45.3.67.05.11.09.22.14.33.11.27.22.52.32.77.05.13.11.27.15.39.05.13.1.26.15.39.06.15.11.29.16.43.05.14.1.28.14.41l.38.82.21.46h0s.03.09.03.09v.02h0l.03.08Z"/><path class="cls-9" d="M119.72,69.97s-.02-.06-.02-.09c0-.02,0-.03-.02-.04,0-.03-.02-.05-.03-.07-.01-.02-.02-.05-.04-.07-.01-.02-.02-.04-.04-.05-.02-.04-.05-.07-.09-.11-.05-.05-.1-.09-.16-.12-.03-.02-.06-.03-.09-.05l-.05-.02-2.09-.96c-1.73-4.64-5.76-12.76-14.12-18.44-.24-.16-.48-.32-.72-.48-.03-.02-.05-.03-.07-.05-.22-.14-.44-.28-.66-.41-.53-.32-1.07-.63-1.62-.92-.18-.1-.36-.2-.55-.29-.11-.06-.22-.11-.33-.17-.35-.18-.7-.34-1.06-.51-.2-.09-.41-.19-.62-.27-.2-.09-.41-.18-.62-.26-.27-.11-.55-.22-.83-.33-.08-.03-.16-.06-.24-.09-.2-.08-.4-.15-.6-.22-4.27-1.51-9.02-2.26-14.09-2.22-24.26.17-30.13,20.26-31.53,28.91v.07s-2.28,2.2-2.28,2.2c-.01.01-.02.02-.03.04-.01.02-.03.03-.04.05-.02.02-.03.04-.04.05-.02.02-.03.04-.04.06,0,.02-.02.03-.02.05,0,.02-.02.04-.03.06-.02.04-.03.08-.04.12,0,.02,0,.04,0,.05,0,.02,0,.03,0,.05,0,.02,0,.05,0,.08v.05s0,.03,0,.05h0s.5,7.83.5,7.83c.02.32.21.59.5.73l2.5,1.15h0s.38.18.38.18c.02,0,.22.1.59.26.24.11.57.24.96.4.02,0,.05.02.07.03.08.03.16.06.24.1.34.14.73.28,1.16.44.17.06.36.13.55.2.1.04.2.08.31.11.18.07.36.13.55.2.22.08.45.15.69.23.08.03.16.05.24.08.32.11.66.22,1.01.33.2.06.41.13.62.19.26.08.52.16.79.24.13.04.27.08.41.12.27.08.55.16.83.24.29.08.58.16.87.24.15.04.3.08.45.12.29.08.59.15.9.23.17.05.34.09.51.13.16.04.32.08.49.12.16.04.33.08.49.12.29.07.59.14.89.21.1.02.19.04.29.06.12.03.24.05.36.08.17.04.35.08.53.11.36.08.71.15,1.08.23.37.07.74.15,1.11.22.69.13,1.39.26,2.1.38.17.03.34.06.51.09.24.04.48.08.73.12.3.05.61.1.91.14.18.03.37.05.56.08.56.08,1.13.16,1.71.23.38.05.77.09,1.17.14.17.02.33.04.5.05.28.03.56.06.84.09.31.03.62.06.94.09.17.02.33.03.49.05.52.05,1.05.08,1.58.12,1.16.08,2.35.14,3.57.18.52.02,1.03.02,1.54.02.6,0,1.18-.01,1.77-.03.24,0,.47-.02.71-.03.07,0,.14,0,.2,0,.28-.02.55-.03.82-.05.23-.02.46-.03.69-.06.31-.03.61-.05.91-.09.08,0,.17-.02.26-.03.43-.05.86-.1,1.28-.16.15-.02.3-.04.45-.07.25-.04.5-.08.74-.12.19-.03.39-.07.58-.1.26-.05.52-.09.77-.14.24-.05.49-.1.73-.15.04,0,.07-.02.11-.02.22-.05.44-.1.66-.15.02,0,.04,0,.06-.02.2-.05.4-.09.6-.14.08-.02.16-.04.24-.06.43-.11.86-.22,1.28-.33.27-.08.54-.15.81-.23.19-.05.37-.11.56-.17.24-.07.47-.14.7-.22.45-.14.88-.29,1.3-.44.43-.15.84-.3,1.24-.46.18-.07.36-.14.53-.2.03,0,.05-.02.08-.03.2-.08.39-.16.58-.24.32-.13.64-.27.95-.4.13-.05.25-.11.38-.17.02,0,.05-.02.07-.03.08-.03.14-.06.22-.1.02,0,.03-.02.05-.02.05-.02.09-.04.13-.06.66-.3,1.28-.6,1.86-.9.18-.09.35-.18.52-.27h0c.17-.09.34-.18.51-.27.1-.05.19-.1.28-.15.09-.05.18-.1.27-.15.55-.3,1.06-.6,1.56-.89.11-.06.22-.13.33-.19.8-.48,1.51-.95,2.14-1.38.07-.04.13-.09.2-.13.14-.1.28-.2.42-.29.4-.28.77-.55,1.09-.79.39-.29.71-.55.97-.76.46-.37.71-.61.75-.64l.23-.21h0s2.97-2.73,2.97-2.73c.17-.16.28-.39.28-.63v-7.29c0-.06,0-.12-.02-.18ZM116.68,69.77s0,.02,0,.03c0-.01,0-.02-.01-.03h0ZM51.04,73.48h0s0,0,0,0v-.07s.02-.05.02-.05c0-.02,0-.03,0-.05h0s0-.08.02-.11c0-.02,0-.03,0-.05,0-.03,0-.05,0-.06,0,0,0,0,0,0l.03-.19c.07-.41.14-.84.23-1.3.15-.8.35-1.67.58-2.6.05-.18.09-.36.14-.54.05-.16.09-.32.14-.49.05-.16.09-.33.14-.49.05-.16.09-.32.14-.48,0-.01,0-.02.01-.04.05-.16.1-.32.16-.49.04-.11.07-.22.11-.34.03-.1.07-.2.1-.31,0-.01,0-.02.01-.04.04-.11.08-.23.12-.35.19-.53.39-1.07.61-1.61.07-.17.14-.34.21-.51.07-.17.14-.34.22-.52.08-.19.17-.38.25-.56.08-.18.17-.36.25-.54.1-.2.19-.39.29-.59.18-.37.38-.73.58-1.1.06-.11.12-.23.19-.34.05-.09.11-.18.16-.28.06-.11.12-.21.19-.32.34-.57.7-1.14,1.09-1.7.13-.19.26-.37.39-.56.06-.09.13-.18.19-.27.01-.02.02-.03.04-.05.08-.1.15-.2.23-.3.11-.15.23-.3.35-.46.09-.12.19-.24.28-.35.09-.11.18-.22.27-.33.05-.05.09-.11.13-.16.16-.18.32-.36.48-.54.02-.03.05-.06.08-.09.14-.15.28-.3.42-.46.08-.08.16-.16.24-.24.06-.06.12-.13.18-.19.06-.06.11-.12.17-.17,0,0,0,0,0-.01.04-.04.08-.07.11-.11.16-.16.33-.32.49-.47.08-.08.17-.15.25-.23.17-.16.34-.31.52-.46.09-.08.17-.15.27-.23s.18-.15.27-.22c.18-.15.36-.29.55-.43.19-.14.38-.28.57-.42.19-.14.39-.28.59-.41.2-.14.4-.27.61-.4.1-.07.2-.13.31-.19.15-.1.31-.19.47-.28.16-.1.32-.19.48-.28.22-.12.44-.24.66-.36.22-.12.45-.23.68-.34.23-.11.46-.22.7-.33,1.3-.58,2.69-1.08,4.18-1.48.27-.07.55-.14.83-.21.28-.07.56-.13.85-.19.24-.05.49-.1.73-.14.01,0,.02,0,.04,0,.25-.04.5-.09.76-.13.08-.02.15-.02.23-.04.3-.05.61-.09.91-.13.23-.03.46-.05.7-.08.27-.03.54-.05.81-.08.12,0,.25-.02.38-.03.2-.02.4-.03.61-.04.12,0,.24-.01.37-.02.1,0,.2,0,.3-.01.05,0,.09,0,.14,0,.07,0,.15,0,.22,0,.04,0,.09,0,.13,0,.1,0,.19,0,.29,0,.14,0,.28,0,.43,0h0c.14,0,.28,0,.41,0,.27,0,.54,0,.8,0,.11,0,.21,0,.32,0,.06,0,.12,0,.18,0,.18,0,.36,0,.54.02.24,0,.48.02.72.04.06,0,.11,0,.17,0,.3.02.6.04.89.06h0c.6.05,1.19.11,1.77.18h0c.58.07,1.16.16,1.73.26.29.05.57.1.85.16h0c.56.11,1.12.23,1.67.36.28.07.55.14.82.21.55.14,1.08.3,1.61.47s1.06.35,1.57.54c2.18.81,4.27,1.85,6.2,3.09.14.09.28.18.42.27.1.06.2.13.3.2.16.11.32.21.47.33.13.09.26.18.39.27.19.14.37.28.56.42.18.14.37.28.55.43,0,0,0,0,0,0,.2.16.4.32.6.48.15.13.3.25.44.38.08.07.17.14.24.21.05.04.09.08.14.12.08.07.16.14.24.21h0c.34.31.68.63,1,.95.13.13.26.26.39.39,3.09,3.12,5.24,6.5,6.71,9.42.05.09.09.19.14.28,0,0,0,0,0,0,.1.2.19.39.29.58.02.05.05.1.07.15.02.05.05.1.07.15.05.1.09.2.14.3,0,0,0,0,0,0,.1.23.2.46.3.67.05.11.09.22.14.33.11.27.22.52.32.77.05.13.11.27.15.39.05.13.1.26.15.39.05.11.08.22.12.33.01.04.02.07.04.11.05.14.1.28.14.41h0s0,0,0,0c0,0,0,0,.02.01.01,0,.03.02.06.04.01.01.03.02.05.03.07.04.16.09.27.15.09.05.19.11.3.16.09.05.18.1.27.14l.13.07s.02.01.03.02l.15.08.11.06s.04.02.05.03c.01,0,.02.01.03.02l.06.03s.04.02.04.02l-.3.22-.36.26-.03.02h0s-.17.13-.17.13h0s-.06.04-.09.06c-.02.01-.03.02-.05.04-.02.01-.03.02-.05.04-.02.02-.03.03-.05.04,0,.01-.02.01-.03.01,0,0,0,0-.01,0,0,0-.02.01-.02.02,0,0-.02,0-.02.02,0,0,0,0,0,0-.1.08-.2.16-.3.24h0c-.1.08-.19.16-.3.24-.1.08-.2.16-.31.24-.1.08-.21.16-.31.24-.11.08-.21.16-.32.24,0,0,0,0,0,0-.08.06-.17.12-.26.19-.02.02-.05.03-.07.05-.09.07-.19.14-.29.2-.05.04-.1.07-.15.1-.06.05-.13.09-.2.14-.07.05-.14.1-.21.14-.07.05-.13.09-.2.14-.12.08-.24.16-.36.24-.12.08-.25.16-.37.24-.13.08-.25.16-.38.24-.13.08-.26.15-.39.23-.13.08-.26.16-.39.24s-.27.16-.4.24c-.28.16-.56.32-.84.48-.27.15-.55.3-.83.45,0,0,0,0,0,0-.28.15-.57.3-.86.44h0s0,0,0,0c0,0,0,0-.01,0-.29.14-.58.29-.87.43-.15.07-.3.14-.46.22-.08.03-.15.07-.23.11-.08.04-.15.07-.23.11-.15.07-.31.14-.47.21-.16.07-.31.14-.47.21-.16.07-.32.14-.48.21-.23.1-.46.19-.69.29-.26.11-.52.21-.79.31l-.51.2c-.17.07-.34.13-.51.19-.07.03-.14.05-.22.08-.2.08-.4.15-.61.22-.07.03-.15.05-.22.08h0c-.18.06-.35.12-.53.18-.04.01-.08.03-.12.04-.04.01-.08.03-.12.04t0,0c-.27.09-.55.18-.83.27-.18.06-.37.11-.55.17-.18.06-.37.11-.55.17-.14.04-.29.08-.44.13-.04.01-.08.02-.12.04-.19.05-.38.11-.57.16l-.9.24h-.04s-.32.09-.32.09l-.13.03-.11.03-.4.1c-.14.04-.29.07-.44.11l-.14.03-.46.1-.14.03-.07.02h-.02s-.08.02-.12.03c-.02,0-.03,0-.05.01-.02,0-.03,0-.04,0-.05,0-.11.02-.16.03-.1.02-.2.04-.3.06-.1.02-.2.04-.31.06-.2.04-.41.08-.61.12l-.63.12-.08.02h0c-.18.03-.35.06-.53.09-.25.04-.5.08-.75.12-.17.03-.34.06-.51.08-.43.06-.85.13-1.29.18l-.89.11c-.07,0-.13.02-.2.02-.07,0-.14.02-.22.03l-.6.06c-.23.02-.45.04-.68.07-.11,0-.23.02-.34.03-.11,0-.23.02-.35.03-.07,0-.14.01-.2.02-.14.01-.28.02-.43.03-.25.02-.5.04-.75.05-.96.06-1.92.08-2.88.08-.23,0-.47,0-.7,0-.17,0-.34,0-.51,0-.2,0-.41-.01-.61-.02-.2,0-.4-.02-.61-.02-.46-.02-.93-.05-1.39-.08-.14-.01-.28-.02-.43-.03-.2-.02-.4-.03-.6-.05-.2-.02-.4-.04-.6-.05h0c-.2-.02-.4-.04-.6-.06-.14-.02-.29-.03-.43-.05-.17-.02-.35-.04-.52-.06h0c-.24-.03-.48-.06-.72-.09-.24-.03-.48-.06-.72-.1-.1-.01-.2-.03-.3-.04-.05,0-.1-.01-.15-.02-.05,0-.1-.02-.15-.02-.09-.01-.18-.02-.27-.04h-.05c-.15-.03-.3-.05-.45-.08h0s0,0-.01,0c-.12-.02-.24-.04-.36-.06-.12-.02-.24-.04-.36-.06-.15-.02-.3-.05-.45-.08-.16-.03-.32-.06-.48-.08h0c-.16-.03-.32-.06-.48-.09-.14-.03-.29-.06-.44-.08-.14-.03-.29-.06-.43-.09-.09-.02-.19-.04-.28-.05-.19-.04-.38-.08-.57-.12-.09-.02-.18-.04-.27-.06-.1-.02-.19-.04-.28-.06-.05-.01-.1-.02-.14-.03-.05-.01-.09-.02-.14-.03-.2-.04-.39-.09-.59-.13-.07-.02-.14-.03-.22-.05-.06-.01-.11-.03-.17-.04-.01,0-.02,0-.03,0-.13-.03-.26-.06-.38-.09-.09-.02-.18-.04-.27-.06-.09-.02-.18-.05-.27-.07-.14-.03-.29-.07-.43-.11-.2-.05-.4-.1-.59-.15-.2-.05-.39-.1-.58-.15-.32-.08-.64-.17-.96-.26h0s-.06-.02-.09-.03c-.26-.07-.52-.14-.77-.21-.25-.07-.51-.15-.75-.22-.17-.05-.33-.1-.5-.14h0c-.16-.05-.33-.1-.49-.15-.16-.05-.32-.1-.48-.14-.16-.05-.32-.1-.48-.15-.16-.05-.32-.1-.47-.15-.08-.02-.15-.05-.23-.08-.08-.02-.15-.05-.23-.08-.08-.02-.15-.05-.23-.07-.08-.02-.15-.05-.23-.08-.14-.05-.29-.09-.43-.14h0s0,0,0,0c-.3-.1-.58-.2-.87-.3-.86-.3-1.66-.58-2.41-.86-.14-.05-.28-.1-.41-.15-.22-.08-.44-.17-.65-.24,0,0-.02,0-.03-.01-.13-.05-.26-.1-.39-.15-.1-.04-.19-.08-.29-.11-.26-.1-.51-.2-.75-.3s-.47-.19-.69-.28h0c-.2-.08-.39-.16-.58-.24-.09-.04-.17-.07-.25-.11-.32-.13-.59-.25-.83-.35l1.94-1.72ZM118.08,71.98v.18s-.06,3.45-.06,3.45v1.45l-.02.02-.02,1.19v.06l-2.29,2.05s-12.78,11.72-32.27,11.08c-19.49-.64-32.27-6.74-32.27-6.74l-.78-.36s0-.02.01-.02l-1.35-.68c.05-.12-.06-.75.05-.84l-.33-5.18-.05-.75s.02,0,.03.01l-.02-.95s-.07-.03-.1-.05c.03.02.07.03.1.04,0,0,.02,0,.02.01,0,0,.02,0,.02,0,0,0,.02.01.02.01,0,0,.01,0,.02,0,0,0,.01,0,.02,0,0,0,.02.01.03.02.01,0,.02,0,.03.02,0,0,.01,0,.02,0,.02.01.04.02.06.03,0,0,.02,0,.03.01h0s.02,0,.04.02c.02.01.05.02.08.03.02.01.05.02.08.03.05.02.11.05.16.07.1.04.2.09.3.13.03.02.06.03.1.04.05.02.09.04.13.05.16.07.33.13.5.21.07.03.14.06.22.09.02,0,.03,0,.05.02,0,0,.02,0,.02,0,.14.06.28.11.43.17.07.03.13.05.2.08.24.09.5.2.76.3.14.05.27.11.41.16,0,0,.02,0,.03.01.01,0,.03,0,.04.02.07.03.14.06.22.08.11.04.22.08.34.13.3.11.61.23.93.35.1.04.2.08.3.11.5.18,1.02.37,1.57.56,0,0,.02,0,.02,0,0,0,0,0,.01,0,.02,0,.03.01.05.02.24.08.48.17.72.25.03,0,.06.02.09.03.03.01.07.02.1.03.06.02.13.04.19.07.19.06.39.13.58.19.39.13.8.26,1.21.39.2.07.42.13.63.2.26.08.53.16.8.24.27.08.54.16.81.24.93.27,1.88.53,2.86.78.04,0,.07.02.11.03.03,0,.07.02.11.03.05.01.11.03.16.04,0,0,.02,0,.03,0,.01,0,.02,0,.04.01.16.04.32.08.48.12h0s.07.02.1.03c.1.02.2.05.3.07.14.03.28.07.42.1.93.22,1.88.43,2.84.62.36.07.72.14,1.08.21.4.07.8.15,1.2.22.21.04.43.07.65.11.12.02.24.04.36.06.2.04.4.06.61.09.2.03.4.06.6.09.15.02.3.05.46.07.18.02.36.05.53.07.16.02.33.04.49.06.14.02.27.03.4.05.14.02.27.03.4.05.08,0,.15.02.24.02.17.02.36.04.53.05.2.02.41.04.62.05.16.02.32.03.48.04.21.02.42.03.63.05.02,0,.04,0,.06,0h.06c.11,0,.22.02.33.02.15,0,.3.02.45.03.29.02.57.03.86.04.28,0,.57.02.85.03.41,0,.83.02,1.24.02.97,0,1.95-.03,2.92-.09.3-.02.6-.04.89-.06.23-.02.46-.04.68-.05.1,0,.2-.02.3-.03.37-.03.74-.07,1.1-.11.21-.02.43-.04.64-.07.08-.01.17-.02.25-.03.17-.02.34-.04.51-.06,0,0,0,0,.01,0,.36-.05.72-.09,1.08-.14.19-.03.38-.05.57-.08.51-.08,1.01-.16,1.5-.24.2-.03.4-.07.6-.11.43-.08.85-.16,1.27-.25.15-.03.3-.06.45-.09.05-.01.11-.02.16-.03.24-.05.49-.11.73-.16.3-.07.58-.14.87-.2.17-.04.33-.08.49-.12.37-.09.74-.19,1.09-.29.14-.03.27-.07.41-.11.19-.05.37-.11.56-.16.2-.06.41-.12.61-.18,0,0,0,0,0,0,.39-.12.78-.24,1.15-.36,1.04-.33,2.05-.68,3.01-1.05.15-.06.3-.11.44-.17.63-.25,1.24-.49,1.83-.75.16-.07.32-.14.48-.21.32-.14.63-.28.94-.43.15-.07.3-.14.44-.2.12-.06.23-.11.34-.17.13-.06.27-.13.39-.19.2-.1.4-.2.6-.3.27-.14.54-.28.81-.42.14-.08.28-.15.42-.23.14-.08.28-.15.42-.23.15-.08.3-.17.45-.25.26-.15.51-.3.75-.44,1.03-.61,1.96-1.22,2.78-1.8.21-.14.41-.29.6-.44.19-.14.38-.28.56-.42.09-.07.18-.14.27-.2.02-.02.04-.03.06-.05.15-.12.3-.24.45-.36.01,0,.02-.02.03-.02.08-.07.15-.13.23-.19.04-.03.08-.06.11-.09.03-.03.06-.05.1-.08.08-.06.15-.12.22-.19.17-.15.34-.3.49-.44.07-.07.14-.13.21-.2,0,0,.02-.01.02-.02.02-.01.03-.03.04-.04l.08.04v.43s0,.03,0,.03c0,.02,0,.05.01.07.02.12,0,.25-.03.36Z"/><path class="cls-5" d="M76.22,53.16c-5.53,4.1-9.42,7.57-10.67,9.52-.79,1.23-2.77,2.71-4.54,2.77-.23,0-.46,0-.68-.05-.65-.13-1.76-.62-1.83-2.45-.03-.93.22-1.88.74-2.75.64-1.08,1.86-2.95,3.65-4.91,1.79-1.96,4.15-4.02,7.06-5.46,4.36-2.16,7.77-2.65,8.89-1.28.51.62.85,2.05-2.62,4.63Z"/><path class="cls-5" d="M60.36,74.72c-.1.09-.2.18-.31.26-.29.22-.73.4-1.22.51l-1.11.11c-.63-.01-1.27-.16-1.8-.49-.08-.05-.16-.11-.24-.17-.64-.51-1.53-1.75-.39-4.34.02-.05.05-.1.08-.14.35-.51,2.17-3,3.92-3h.06c.66.02,1.23.39,1.62,1.02,1.55,2.58.81,4.97-.6,6.25Z"/></svg>