<?xml version="1.0" encoding="UTF-8"?><svg id="Layer_2" xmlns="http://www.w3.org/2000/svg" viewBox="0 0 245.95 143.08"><defs><style>.cls-1{fill:#d83831;}.cls-2{fill:#8c345d;}</style></defs><path class="cls-2" d="M245.95,91.73c-.2,9.95-5.53,18.86-15.94,26.57-10.57,7.83-26.45,14.25-45.92,18.57-18.35,4.06-39.48,6.21-61.12,6.21s-42.76-2.15-61.11-6.21c-19.47-4.32-35.35-10.74-45.92-18.57C5.53,110.59.2,101.68,0,91.73c4.26,13.12,18.05,24.12,40.29,32.03,22.2,7.89,51.56,12.24,82.68,12.24,15.56,0,30.68-1.09,44.69-3.16,14.01-2.07,26.9-5.13,38-9.08,22.23-7.91,36.02-18.91,40.29-32.03Z"/><path class="cls-2" d="M245.62,86.66c-2.1,14.7-16.08,27.04-40.45,35.71-22.05,7.84-51.24,12.16-82.2,12.16-30.95-.01-60.14-4.32-82.19-12.16C16.4,113.7,2.42,101.36.33,86.66c.19-1.32.47-2.67.84-4.03,1.16,5.82,4.36,11.24,9.56,16.18,18.27,17.36,61.28,28.15,112.24,28.15s93.97-10.79,112.24-28.15c5.2-4.94,8.4-10.36,9.57-16.18.36,1.36.64,2.7.84,4.03Z"/><path class="cls-2" d="M236.95,71.92c-.47,6.61-5.47,12.08-8.17,14.58,2.75-3.84,5.3-9.2,5.36-15.91.06-.47.39-4.05-.9-9.56,2.73,3.46,3.98,7.11,3.71,10.89Z"/><path class="cls-2" d="M243.79,76.98c.18,7.57-3.05,14.55-9.59,20.77-9.17,8.71-24.94,15.89-45.61,20.77-19.3,4.56-41.99,6.97-65.62,6.97s-46.31-2.41-65.62-6.97c-20.66-4.88-36.44-12.06-45.6-20.77-6.54-6.22-9.77-13.2-9.6-20.77.18-7.81,4-16.32,11.34-25.3v6.24c-4.31,4.38-6.32,9.13-5.96,14.11.69,9.72,10.04,16.8,10.42,17.08,1.6,1.3,3.36,2.56,5.25,3.78.43.34.71.54.77.58l.05-.06c9.66,6.05,22.79,11.05,38.5,14.63,18.02,4.11,38.93,6.29,60.45,6.29s42.43-2.18,60.46-6.29c15.71-3.58,28.85-8.59,38.5-14.63l.04.06c.07-.04.34-.23.76-.57,1.89-1.22,3.64-2.48,5.24-3.78.4-.29,9.75-7.37,10.45-17.09.35-4.98-1.65-9.73-5.96-14.11v-6.24c7.34,8.98,11.15,17.49,11.33,25.3Z"/><path class="cls-2" d="M17.18,86.51c-2.69-2.48-7.71-7.95-8.18-14.58-.27-3.78.97-7.44,3.7-10.9-1.28,5.51-.95,9.09-.9,9.56.06,6.72,2.62,12.08,5.38,15.92Z"/><path class="cls-2" d="M232.68,70.45v.09c-.09,11.61-8.35,19.16-10.84,21.18-20.48,13.14-57.42,21.13-98.87,21.13s-78.39-7.99-98.89-21.15c-2.52-2.04-10.72-9.56-10.81-21.16v-.09s-.55-4.77,1.6-11.83l.09-.09v-8.58c1.21,3.12,3.15,6.11,5.83,8.95,18,19.08,64.54,27.44,103.98,27.44,1.17,0,2.34-.01,3.49-.03,27.74-.35,53.15-4.62,71.55-12.02,16.89-6.8,27.48-16.06,31.18-27.1v11.34l.08.09c2.16,7.07,1.61,11.79,1.61,11.83Z"/><path class="cls-2" d="M228.57,49.31c-4.29,9.49-14.21,17.53-29.31,23.61-18.23,7.34-43.45,11.57-71.02,11.92-1.27.02-2.54.03-3.81.03-46.3,0-87.21-10.7-102.57-26.98-3.17-3.36-5.25-6.92-6.23-10.66,4.97,10.45,17.51,19.1,36.8,25.26,19,6.08,43.32,9.36,69.03,9.36,2.01,0,4.03-.02,6.06-.06,26.83-.54,51.87-4.63,70.52-11.53,14.95-5.52,25.27-12.65,30.53-20.95Z"/><path class="cls-2" d="M226.95,49.11c-5.18,7.77-15.13,14.49-29.42,19.77-18.5,6.85-43.37,10.91-70.04,11.44-27.78.55-54.27-2.73-74.61-9.23-12.82-4.1-28.02-11.08-34.73-22.23,5.82,6.7,17.04,12.76,32.87,17.6,21.07,6.45,48.34,10.12,75.04,10.12.51,0,1.01,0,1.52-.01,25.63-.13,51.93-4.47,72.17-11.9,12.42-4.56,21.74-9.94,27.2-15.56Z"/><path class="cls-2" d="M61.33,44.67c-.63,1.91-4.1,3.18-6.01,3.87l-.11.04c-.11.04-11.27,3.54-21.42.65-4.08-1.5-8.72-3.63-9.24-4.53,2.13,1.71,7.17,3.7,8.9,4.36h.05c3.06.92,6.16,1.24,9.03,1.24,6.76-.01,12.22-1.78,12.56-1.89l.16-.06c1.87-.71,4.74-1.8,6.08-3.68Z"/><path class="cls-2" d="M64.76,55.2c-2.02-.69-4.02-1.44-6.01-2.25-1.8-.74-2.23-.7-3.46-.23-.44.16-.98.37-1.86.6-4.75,1.24-7,.86-9.6.42-1.75-.29-3.55-.59-6.23-.44-1.98.11-9.21.42-11.52.51-.47-.33-.93-.65-1.38-.98-.08-.98-.29-3.78-.22-6.29,2.36,1.64,7.13,3.46,8.83,4.09h.06c3.15.91,6.36,1.23,9.32,1.23,7,0,12.65-1.77,13-1.89l.13-.05c1.88-.68,4.72-1.72,6.17-3.48l2.77,8.76Z"/><path class="cls-2" d="M192.11,21.19c-8.18,2.94-19.27,1.77-24.42-.75,8.82-3.14,17.39-2.88,24.42.75Z"/><path class="cls-2" d="M216.3,35.81c-.4,2.14-1.52,4.23-3.28,6.24,1.64-3.29,2.14-6.6,1.45-9.78-1.22-5.64-6-10.62-13.44-14.03l-.23-.1c-3.51-1.61-3.88-1.77-4.45-1.39-.45.3-.43.79-.41,1.12.02.59.05,1.55-2.08,2.6-7.86-4.52-17.66-4.9-27.68-1.06-.03.02-.07.03-.1.04-.07-.06-.15-.11-.22-.17-.61-.54-.86-1.03-.74-1.46.13-.5,1.14-2.21,8.46-3.6.55-.1,1.49-.18,2.39-.24,2.4-.19,3.12-.24,3.21-1.04,0-.03-.01-.05-.01-.08h.4v-2.74c29.41,6.62,38.18,17.95,36.73,25.69Z"/><path class="cls-2" d="M163.77,28.55c-2.47.79-6,1.37-10.35,1.37-3.91,0-7.16-.47-9.58-1.14,2.72-.86,6.41-1.35,10.36-1.35,3.56,0,6.93.4,9.57,1.12Z"/><path class="cls-2" d="M167.78,25.79c0,.6-.65,1.27-1.87,1.9-2.97-1.1-7.21-1.74-11.71-1.74-4.97,0-9.61.78-12.54,2.09-1.69-.73-2.6-1.54-2.6-2.25,0-1.72,5.46-4.12,14.36-4.12h.02c3.95,0,7.65.5,10.43,1.39,2.41.78,3.91,1.82,3.91,2.73Z"/><path class="cls-1" d="M52.38,23.24c-.03-.1-.06-.2-.1-.3-.13-.37-.27-.73-.43-1.09-.33-.75-.71-1.48-1.14-2.16-.26-.42-.55-.83-.85-1.22-.09-.12-.19-.24-.28-.35-1.16-1.41-2.79-2.62-4.57-3.19-1.11-.35-2.28-.45-3.44-.21-.48.1-.96.26-1.44.49h-.02c-.05.03-.18.1-.34.2-.33-.06-.65-.1-.96-.11-.16-.15-.32-.29-.48-.42-4.34-3.74-7.2-2.57-7.73-2.3-1.07-.65-2.3-.86-3.67-.24-1.49.68-2.33,1.98-2.74,3.48-.53,1.91-.36,4.16-.02,5.82.14.68.32,1.36.53,2.03.15.49.32.99.51,1.47.06.18.13.35.2.52.61,1.5,1.35,2.96,2.12,4.32.32.56.66,1.12,1.03,1.67.37.55.76,1.09,1.17,1.59.3.37.59.74.87,1.12.5.66.96,1.33,1.43,2.02h0c.14.21.27.41.41.61l.31.46v2.73l13.24,4.3,1.56-1.83.12-3.77c.8-.36,1.5-.86,2.11-1.48.39-.38.75-.81,1.07-1.27.22-.31.42-.64.61-.98.57-1.04.99-2.2,1.28-3.36.11-.49.21-.98.28-1.47.03-.22.06-.43.08-.64.05-.47.08-.92.09-1.36v-.11c.02-1.64-.27-3.34-.81-4.97ZM34.79,16.51c-.61-.81-2.54-2.55-2.79-2.81.84-.13,2.44.01,4.75,1.83-.82.23-1.46.6-1.96.98ZM50.12,34.42c-.8,1.46-1.93,2.66-3.45,3.23l.25-.34c3.43-4.83,3.03-9.68,3.03-9.69-.48-6.46-6.96-10.94-7.94-11.43.85-.15,1.71-.06,2.54.2,1.5.47,2.87,1.5,3.86,2.7,1.03,1.24,1.87,2.75,2.44,4.36.56,1.59.86,3.26.83,4.84-.04,1.92-.52,4.23-1.56,6.13Z"/><path class="cls-2" d="M30.6,36.75c-1.25.37-2.46.84-3.57,1.5-1.11.68-3.62,2.65-3.56,4.63l-.03-.02c-.52.9-.51,1.62-.36,2.13-.18,2.19-.06,4.91.05,6.64-4.83-3.92-7.57-8.11-8.02-12.42-.43-4.21,2.88-8.83,10.1-14.07.06.18.13.35.2.52.61,1.5,1.35,2.96,2.12,4.32.32.56.66,1.12,1.03,1.67.37.55.76,1.09,1.17,1.59.3.37.59.74.87,1.12-.14.8-.14,1.6,0,2.39Z"/><path class="cls-2" d="M60.57,42.84c-.36,2.06-3.93,3.41-5.85,4.13l-.12.05c-.11.03-10.86,3.53-20.65.65-4-1.52-8.54-3.69-8.94-4.56-.42-.92,1.37-2.75,2.78-3.59,1.49-.9,3.18-1.43,4.96-1.79v2.45l13.24,4.3,1.56-1.83.12-3.77c.8-.36,1.5-.86,2.11-1.48,2.03.4,3.97.97,5.94,1.73.21.08.43.16.66.24,2.37.88,4.48,1.81,4.19,3.47Z"/><path class="cls-2" d="M127.45,64.36c-.47.01-.94.01-1.41.01,1.98-8.47-6.19-16.45-14.9-21.26-11.49-6.35-25.01-8.96-37.86-11.1-7.31-1.21-13.95-1.77-20.26-1.69.03-.22.06-.43.08-.64,6.8-.17,13.94.4,21.82,1.75,13.01,2.21,26.67,4.92,38.23,11.48,8.68,4.92,16.85,13.09,14.3,21.45Z"/><path class="cls-2" d="M124.52,64.37c-15.52-.14-31.49-2.05-47.66-5.72-3.56-.81-6.99-1.76-10.37-2.87l-3.6-11.36c.07-.7-.06-1.6-.88-2.48-.43-2.21-3.3-3.27-5.12-3.95-.23-.08-.44-.16-.64-.24-1.8-.69-3.57-1.23-5.4-1.62.22-.31.42-.64.61-.98.57-1.04.99-2.2,1.28-3.36,6.32-.09,12.96.46,20.3,1.67,12.73,2.12,26.1,4.71,37.39,10.94,8.33,4.6,16.18,12.17,14.09,19.97Z"/><path class="cls-2" d="M213.03,32.59c-1.1-5.11-5.7-9.85-12.61-13.01l-.23-.1c-1.25-.57-2.21-1.01-2.78-1.24-.03.95-.44,2.54-3.58,3.86-9.47,4.01-23.06,2.23-28.13-1.11-.05-.02-.11-.04-.17-.08l.02-.02c-.24-.17-.46-.33-.66-.51-1.33-1.16-1.38-2.24-1.19-2.95.54-2.01,3.69-3.53,9.61-4.66.41-.07.96-.13,1.56-.18-13.18-3.08-34.18-3.93-49.12-3.37-22.63.84-53.95,5.5-73.37,14.02.54,1.63.83,3.33.81,4.97,6.86-.17,14.05.41,21.98,1.77,13.13,2.23,26.94,4.97,38.71,11.65,9.03,5.13,17.5,13.69,15.1,22.72,3.6-.05,7.17-.19,10.72-.43,31.35-2.15,56.7-8.99,68.89-17.9,3.9-4.54,5.39-9.06,4.44-13.43ZM123,36.63c-1.75,0-3.78-.47-3.78-1.77s2.03-1.77,3.78-1.77,3.77.46,3.77,1.77-2.03,1.77-3.77,1.77ZM153.42,31.39c-7.67,0-15.83-1.96-15.83-5.6s8.16-5.59,15.83-5.59h.02c4.1,0,7.96.52,10.88,1.46,3.23,1.04,4.93,2.47,4.93,4.13,0,3.64-8.15,5.6-15.83,5.6Z"/><path class="cls-2" d="M178.1,9.79v2.11c-12.98-3.71-36.24-4.76-52.4-4.15-12.13.45-25.66,1.92-38.09,4.13-14.29,2.54-26.64,5.98-35.76,9.97-.33-.75-.71-1.48-1.14-2.16C82.45,5.45,137.84,1.13,178.1,9.79Z"/><path class="cls-2" d="M230.96,38.58c-.08.66-.19,1.33-.33,1.98-2.2,7.96-13.45,16.14-31.39,22.73-20.08,7.37-46.2,11.67-71.67,11.81-27.04.13-54.79-3.52-76.11-10.05-9.52-2.91-17.31-6.24-23.22-9.85,3.11-.13,7.89-.34,9.45-.43,2.51-.14,4.23.15,5.89.43,2.66.44,5.16.86,10.22-.45.96-.25,1.57-.49,2.02-.66.87-.34.94-.36,2.37.22,2.36.96,4.73,1.84,7.12,2.64l.09.27.38-.12c3.5,1.15,7.06,2.14,10.76,2.98,16.56,3.77,32.93,5.69,48.83,5.76l.2.08s.02-.05.03-.08c.22,0,.45,0,.67,0,4.55,0,9.06-.16,13.53-.46,19.89-1.36,38.51-4.8,52.41-9.67,15.31-5.37,24.14-12.16,25.54-19.64.9-4.83-1.65-10.01-7.2-14.57-6.7-5.5-17.22-9.86-31.27-12.97C138.58-.45,82.03,3.92,49.86,18.47c-.09-.12-.19-.24-.28-.35-1.16-1.41-2.79-2.62-4.57-3.19-1.11-.35-2.28-.45-3.44-.21C55.71,7.21,84.43,1.63,116.58.3c38.23-1.59,71.82,3.09,92.16,12.82,13.59,6.5,21.06,15.06,22.22,25.46Z"/></svg>