<?xml version="1.0" encoding="UTF-8"?><svg id="Layer_1" xmlns="http://www.w3.org/2000/svg" viewBox="0 0 329.14 212.47"><defs><style>.cls-1{fill:#330d1d;}.cls-1,.cls-2,.cls-3,.cls-4,.cls-5,.cls-6,.cls-7,.cls-8,.cls-9,.cls-10,.cls-11,.cls-12,.cls-13,.cls-14,.cls-15,.cls-16,.cls-17,.cls-18,.cls-19,.cls-20,.cls-21{stroke-width:0px;}.cls-2{fill:none;}.cls-3{fill:#10a6ad;}.cls-4,.cls-13{opacity:.64;}.cls-4,.cls-16{fill:#fff;}.cls-5{fill:#f4c3de;}.cls-6{fill:#741a3e;}.cls-7{fill:#350b1c;}.cls-8{fill:#84f4f4;}.cls-9{fill:#36c8ea;}.cls-10{fill:#b24787;}.cls-11{fill:#561a38;}.cls-12{fill:#c65995;}.cls-13,.cls-20{fill:#82e9f4;}.cls-14{fill:#26a1b5;}.cls-15{fill:#d3639c;}.cls-17{fill:#3f0422;}.cls-18{fill:#64e0f4;}.cls-19{fill:#9b2a5e;}.cls-21{fill:#16a0b7;}</style></defs><polygon class="cls-1" points="310.38 133.89 313.34 133.89 313.34 142.8 314.49 142.8 314.49 133.89 317.56 133.89 317.56 132.8 310.38 132.8 310.38 133.89"/><path class="cls-1" d="M328.1,132.8l-3.75,5.82-3.7-5.82h-1.12v10h1.15v-4.57c0-.92-.01-1.72-.04-2.39-.02-.37-.04-.74-.07-1.1l3.35,5.17h.8l3.42-5.19c-.03.4-.06.8-.08,1.2-.03.69-.04,1.46-.04,2.31v4.57h1.15v-10h-1.05Z"/><path class="cls-6" d="M38.58,141.14c-2.01-2.1-4.39-3.72-7.13-4.88-2.74-1.16-5.74-1.73-8.99-1.73s-6.18.58-8.92,1.73c-2.74,1.16-5.13,2.77-7.16,4.85-2.03,2.08-3.61,4.53-4.72,7.35-1.11,2.82-1.67,5.91-1.67,9.24s.56,6.42,1.67,9.24c1.11,2.82,2.69,5.27,4.72,7.35,2.03,2.08,4.42,3.69,7.16,4.85,2.74,1.16,5.71,1.73,8.92,1.73s6.25-.58,8.99-1.73c2.74-1.16,5.11-2.78,7.13-4.88,2.01-2.1,3.57-4.56,4.69-7.38,1.11-2.82,1.67-5.88,1.67-9.18s-.56-6.41-1.67-9.21c-1.11-2.8-2.67-5.25-4.69-7.35ZM35.4,163.73c-.71,1.84-1.68,3.46-2.92,4.85-1.24,1.39-2.71,2.46-4.4,3.21-1.69.75-3.56,1.12-5.62,1.12s-3.87-.37-5.58-1.12c-1.71-.75-3.19-1.81-4.43-3.18-1.24-1.37-2.2-2.99-2.89-4.85-.69-1.86-1.03-3.88-1.03-6.07s.34-4.26,1.03-6.1c.68-1.84,1.65-3.44,2.89-4.81,1.24-1.37,2.72-2.43,4.43-3.18,1.71-.75,3.57-1.12,5.58-1.12s3.93.37,5.62,1.12c1.69.75,3.16,1.82,4.4,3.21,1.24,1.39,2.21,3.01,2.92,4.85.71,1.84,1.06,3.85,1.06,6.03s-.35,4.19-1.06,6.03Z"/><path class="cls-6" d="M62.81,154.07c1.48-.92,3.16-1.38,5.04-1.38,1.11,0,2.22.21,3.34.64,1.11.43,2.16,1.01,3.15,1.73.03.02.05.04.08.06,1.49,1.12,3.58.91,4.77-.52l.09-.11c1.19-1.44,1.03-3.57-.38-4.8-1.01-.88-2.19-1.64-3.53-2.26-2.48-1.16-5.24-1.73-8.28-1.73s-6.01.77-8.54,2.31c-2.53,1.54-4.52,3.64-5.97,6.29-1.46,2.65-2.18,5.65-2.18,8.99s.73,6.33,2.18,8.99c1.45,2.65,3.44,4.75,5.97,6.29,2.52,1.54,5.37,2.31,8.54,2.31,2.82,0,5.51-.59,8.06-1.77,1.32-.61,2.5-1.32,3.53-2.12,1.51-1.18,1.72-3.39.5-4.88h0c-1.18-1.44-3.29-1.68-4.77-.55-.09.07-.17.13-.26.19-.94.69-1.94,1.21-2.99,1.57-1.05.36-2.13.55-3.24.55-1.84,0-3.51-.47-5.01-1.41-1.5-.94-2.69-2.2-3.56-3.79-.88-1.58-1.32-3.38-1.32-5.39s.43-3.82,1.28-5.42c.86-1.6,2.02-2.87,3.5-3.79Z"/><path class="cls-6" d="M102.73,145.04h-3.24c-.44,0-.8-.36-.8-.8v-4.47c0-1.84-1.49-3.34-3.34-3.34h-1.22c-1.84,0-3.34,1.5-3.34,3.34l.11,30.43v7.33c0,1.84,1.5,3.34,3.34,3.34h1.22c1.84,0,3.34-1.5,3.34-3.34v-7.33l-.11-16.65c0-.66.54-1.2,1.2-1.2h2.84c1.85,0,3.34-1.5,3.34-3.34v-.64c0-1.84-1.5-3.34-3.34-3.34Z"/><path class="cls-6" d="M136.28,147.97c-2.65-1.52-5.65-2.28-8.99-2.28s-6.4.76-9.05,2.28c-2.65,1.52-4.75,3.61-6.29,6.26-1.54,2.65-2.31,5.67-2.31,9.05s.77,6.4,2.31,9.05c1.54,2.65,3.64,4.74,6.29,6.26,2.65,1.52,5.67,2.28,9.05,2.28s6.33-.76,8.99-2.28c2.65-1.52,4.74-3.6,6.26-6.26,1.52-2.65,2.28-5.67,2.28-9.05s-.76-6.4-2.28-9.05c-1.52-2.65-3.61-4.74-6.26-6.26ZM135.6,168.68c-.83,1.58-1.97,2.85-3.4,3.79-1.43.94-3.07,1.41-4.91,1.41s-3.5-.47-4.97-1.41c-1.48-.94-2.62-2.2-3.43-3.79-.81-1.58-1.22-3.38-1.22-5.39s.41-3.82,1.22-5.42c.81-1.6,1.96-2.87,3.43-3.79,1.48-.92,3.13-1.38,4.97-1.38s3.48.46,4.91,1.38c1.43.92,2.57,2.17,3.4,3.75.83,1.58,1.23,3.4,1.19,5.46.04,2.01-.35,3.81-1.19,5.39Z"/><path class="cls-19" d="M184.03,155.24c-.6-1.1-1.28-2.1-2.06-3h-.01c-.17-.2-.35-.38-.53-.57-2.38-2.39-5.53-4.02-9.04-4.5-.03,0-.05,0-.08,0-.68-.1-1.39-.14-2.1-.14-3.89,0-7.45,1.4-10.21,3.72-.39.33-.99.06-.99-.45v-13.76c0-1.29-1.04-2.33-2.33-2.33h0c-1.29,0-2.33,1.04-2.33,2.33v25.23h.04c-.03.37-.04.75-.04,1.12v2.11c0,.4.01.79.04,1.18.29,3.93,2.01,7.47,4.65,10.08,2.87,2.85,6.82,4.6,11.17,4.6.12,0,.25,0,.37,0h.04c.07,0,.14,0,.21,0,2.91,0,5.51-.73,7.81-2.18,2.22-1.4,3.99-3.31,5.3-5.74.01-.02.02-.03.03-.05.04-.07.08-.14.11-.21,1.33-2.55,1.99-5.46,1.99-8.74s-.68-6.18-2.05-8.71ZM179.95,170.32c-.98,1.89-2.31,3.38-4.01,4.48-1.71,1.1-3.65,1.65-5.85,1.65s-4.15-.54-5.85-1.62c-1.7-1.08-3.04-2.56-4.01-4.45-.97-1.89-1.46-4.04-1.46-6.44s.49-4.55,1.46-6.41c.97-1.87,2.31-3.34,4.01-4.42,1.7-1.08,3.65-1.61,5.85-1.61s4.15.54,5.85,1.61c1.7,1.08,3.04,2.55,4.01,4.42.97,1.87,1.46,4,1.46,6.41s-.48,4.49-1.46,6.37Z"/><path class="cls-19" d="M274.81,163.64c0,3.28.67,6.19,1.99,8.74.03.07.07.14.11.21,0,.02.02.03.03.05,1.31,2.43,3.08,4.34,5.3,5.74,2.3,1.45,4.9,2.18,7.81,2.18.07,0,.14,0,.21,0h.04c.12,0,.24,0,.37,0,4.36,0,8.3-1.76,11.17-4.6,2.64-2.61,4.36-6.15,4.65-10.08.03-.39.04-.78.04-1.18v-2.11c0-.38-.01-.75-.04-1.12h.04v-25.23c0-1.29-1.04-2.33-2.33-2.33h0c-1.29,0-2.33,1.04-2.33,2.33v13.76c0,.51-.6.78-.99.45-2.76-2.33-6.32-3.72-10.21-3.72-.71,0-1.42.05-2.1.14-.03,0-.05,0-.08,0-3.51.48-6.65,2.11-9.04,4.5-.18.18-.36.36-.53.55h-.01c-.77.91-1.46,1.91-2.06,3.02-1.37,2.53-2.05,5.43-2.05,8.71ZM279.48,163.64c0-2.41.48-4.55,1.46-6.41.98-1.87,2.31-3.34,4.01-4.42,1.71-1.08,3.65-1.61,5.85-1.61,2.2,0,4.15.54,5.85,1.61,1.7,1.08,3.04,2.55,4.01,4.42.97,1.87,1.46,4,1.46,6.41,0,2.4-.49,4.55-1.46,6.44-.97,1.89-2.31,3.37-4.01,4.45-1.7,1.08-3.65,1.62-5.85,1.62s-4.15-.55-5.85-1.65c-1.7-1.1-3.04-2.59-4.01-4.48-.97-1.89-1.46-4.01-1.46-6.37Z"/><rect class="cls-19" x="192.99" y="134.2" width="4.67" height="46.05" rx="2.33" ry="2.33"/><path class="cls-19" d="M254.85,147.78c-.69-.02-1.37,0-2.03.08-2.59.28-4.96,1.29-6.92,2.81-.16.12-.31.24-.46.37-2.74,2.32-4.23,5.79-4.23,9.38v5.38s0,11.65,0,11.65c0,1.55,1.26,2.81,2.81,2.81h0c1.03,0,1.86-.83,1.86-1.86v-17.93c0-1.24.25-2.4.75-3.49.11-.24.24-.48.37-.71,1.79-2.48,4.82-4.03,8.18-3.73,4.55.4,8.25,4.68,8.25,9.25v15.99c0,1.37,1.11,2.47,2.47,2.47h0c1.25,0,2.26-1.01,2.26-2.26v-16.14c0-7.33-5.98-13.82-13.31-14.07Z"/><path class="cls-19" d="M186.08,162.89v1.06c0-3.28-.68-6.18-2.05-8.71-.6-1.1-1.28-2.1-2.06-3,2.55,2.81,4.11,6.55,4.11,10.65Z"/><path class="cls-19" d="M186.08,163.95v1.05c0,2.79-.72,5.41-1.99,7.69,1.33-2.55,1.99-5.46,1.99-8.74Z"/><path class="cls-19" d="M235.46,160.61s0-.02,0-.02c0-.05-.01-.1-.02-.16,0-.05,0-.09-.02-.13,0-.02,0-.05-.01-.08,0-.01,0-.02,0-.02-.31-1.9-.91-3.64-1.78-5.25-.6-1.11-1.29-2.11-2.07-3.01-.02-.03-.06-.07-.09-.1-.14-.16-.29-.31-.44-.46-2.4-2.4-5.58-4.04-9.12-4.51h0c-.68-.09-1.38-.14-2.09-.14-4.37,0-8.33,1.77-11.2,4.63-2.88,2.87-4.66,6.84-4.66,11.24v2.12c0,1.71.27,3.36.77,4.91.79,2.43,2.15,4.6,3.92,6.36,2.87,2.84,6.81,4.6,11.17,4.6.12,0,.25,0,.37,0h.04c3.25-.08,6.26-1.14,8.74-2.9.6-.43,1.18-.9,1.71-1.41l.09-.08s.03-.03.05-.04c.04-.04.07-.07.1-.1.42-.45.63-1.02.63-1.59,0-.31-.06-.62-.19-.9-.11-.27-.28-.53-.5-.75-.28-.28-.62-.48-.98-.58-.22-.07-.45-.1-.67-.1-.51,0-1.02.17-1.44.5-.07.05-.14.11-.2.18-.09.09-.17.18-.24.28-.54.54-1.14,1.01-1.79,1.43-.01,0-.03.02-.05.03-1.69,1.08-3.62,1.62-5.8,1.62-1.34,0-2.58-.2-3.73-.6,0,0-.02,0-.02,0-.74-.26-1.43-.59-2.09-1.01-1.71-1.08-3.04-2.56-4.01-4.45-.59-1.13-1-2.36-1.23-3.68-.1-.59.36-1.13.96-1.13h20.37c.35.1.86.1,1.61,0,3.99-.56,4.04-3.58,3.92-4.69ZM229.48,160.64h-19.6c-.66,0-1.11-.64-.92-1.26.22-.74.51-1.44.86-2.11.97-1.87,2.31-3.34,4.01-4.42,1.7-1.08,3.65-1.62,5.85-1.62s4.15.54,5.85,1.62c1.7,1.08,3.04,2.55,4.01,4.42.35.67.64,1.37.86,2.11.19.63-.27,1.26-.92,1.26Z"/><path class="cls-1" d="M48.96,191.05c0,1.73-2.64,1.73-2.64-.02s2.64-1.73,2.64.02ZM46.62,206.78h2v-12.12h-2v12.12Z"/><path class="cls-1" d="M53.29,194.74h1.86l.12,1.76c.73-1.42,2.2-1.98,3.57-1.98,1.66,0,3.37.71,4.06,2.64.88-1.86,2.54-2.64,4.25-2.64,3.18,0,5.08,2.08,5.08,5.37v6.89h-2v-6.89c0-1.98-1.15-3.49-3.13-3.49s-3.3,1.56-3.3,3.54v6.84h-2v-6.84c0-1.98-1.25-3.54-3.25-3.54s-3.27,1.56-3.27,3.54v6.84h-2v-12.07l.02.02Z"/><path class="cls-1" d="M76.72,194.76h1.91l.1,2.32c.95-1.61,2.74-2.54,4.64-2.54,3.47.07,6.01,2.52,6.01,6.23s-2.52,6.28-6.13,6.28c-1.71,0-3.62-.73-4.57-2.44v7.87h-1.95v-17.71ZM87.37,200.82c0-2.71-1.78-4.32-4.25-4.32s-4.23,1.86-4.23,4.32,1.78,4.32,4.23,4.35c2.42,0,4.25-1.64,4.25-4.35Z"/><path class="cls-1" d="M98.73,194.44c3.69,0,6.28,2.59,6.28,6.33s-2.64,6.23-6.28,6.23-6.25-2.57-6.25-6.23,2.66-6.33,6.25-6.33ZM98.75,196.28c-2.47,0-4.28,1.81-4.28,4.5,0,2.54,1.78,4.35,4.25,4.35s4.28-1.81,4.3-4.35c0-2.69-1.86-4.5-4.28-4.5Z"/><path class="cls-1" d="M110.75,194.69l.15,1.81c.83-1.56,2.32-2,3.71-2,1.05-.02,2.08.34,2.81.9l-.9,1.71c-.64-.44-1.27-.66-2.1-.66-1.93.02-3.54,1.39-3.54,3.62v6.72h-2v-12.07h1.86l.02-.02Z"/><path class="cls-1" d="M123.7,194.74h3.74v1.71h-3.76v6.38c0,1.42.46,2.32,1.91,2.32.54,0,1.15-.17,1.69-.44l.59,1.66c-.81.37-1.54.56-2.35.59-2.59.05-3.81-1.47-3.81-4.13v-6.38h-2.42v-1.71h2.42v-3.32l2-.22v3.54Z"/><path class="cls-1" d="M148.13,206.83l-.05-2.2c-.95,1.66-2.78,2.44-4.45,2.44-3.47,0-6.18-2.39-6.18-6.33s2.76-6.25,6.21-6.23c1.81,0,3.59.83,4.47,2.39l.02-2.2h1.95v12.07h-1.93l-.05.05ZM143.73,196.42c-2.39,0-4.32,1.71-4.32,4.4s1.93,4.42,4.32,4.42c5.81,0,5.81-8.84.02-8.84l-.02.02Z"/><path class="cls-1" d="M154.75,194.69h1.83l.1,1.93c1.05-1.44,2.52-2.1,4.13-2.1,3.05,0,5.3,2.05,5.3,5.59v6.67h-2v-6.65c0-2.32-1.37-3.76-3.66-3.76-2.2.02-3.71,1.76-3.71,3.93v6.47h-1.98v-12.09Z"/><path class="cls-1" d="M182.45,189.66v17.1h-1.88l-.1-2.2c-.98,1.66-2.74,2.44-4.52,2.44-3.44,0-6.11-2.27-6.11-6.25s2.66-6.25,6.08-6.25c1.71,0,3.66.78,4.52,2.42v-7.23h1.98l.02-.02ZM176.1,196.35c-2.35,0-4.25,1.54-4.25,4.37s1.91,4.37,4.25,4.37,4.28-1.76,4.28-4.4-1.91-4.35-4.3-4.35h.02Z"/><path class="cls-1" d="M197.26,194.74h3.74v1.71h-3.76v6.38c0,1.42.46,2.32,1.91,2.32.54,0,1.15-.17,1.69-.44l.59,1.66c-.81.37-1.54.56-2.35.59-2.59.05-3.81-1.47-3.81-4.13v-6.38h-2.42v-1.71h2.42v-3.32l2-.22v3.54Z"/><path class="cls-1" d="M206.42,194.69l.15,1.81c.83-1.56,2.32-2,3.71-2,1.05-.02,2.08.34,2.81.9l-.9,1.71c-.64-.44-1.27-.66-2.1-.66-1.93.02-3.54,1.39-3.54,3.62v6.72h-2v-12.07h1.86l.02-.02Z"/><path class="cls-1" d="M225.5,206.83l-.05-2.2c-.95,1.66-2.78,2.44-4.45,2.44-3.47,0-6.18-2.39-6.18-6.33s2.76-6.25,6.21-6.23c1.81,0,3.59.83,4.47,2.39l.02-2.2h1.95v12.07h-1.93l-.05.05ZM221.11,196.42c-2.39,0-4.32,1.71-4.32,4.4s1.93,4.42,4.32,4.42c5.81,0,5.81-8.84.02-8.84l-.02.02Z"/><path class="cls-1" d="M244,189.66v17.1h-1.88l-.1-2.2c-.98,1.66-2.74,2.44-4.52,2.44-3.44,0-6.11-2.27-6.11-6.25s2.66-6.25,6.08-6.25c1.71,0,3.66.78,4.52,2.42v-7.23h1.98l.02-.02ZM237.65,196.35c-2.35,0-4.25,1.54-4.25,4.37s1.91,4.37,4.25,4.37,4.28-1.76,4.28-4.4-1.91-4.35-4.3-4.35h.02Z"/><path class="cls-1" d="M259.44,204.85c-1.22,1.44-3.32,2.15-5.2,2.15-3.74,0-6.35-2.47-6.35-6.3s2.61-6.25,6.25-6.25,6.5,2.27,6.03,7.08h-10.26c.22,2.22,2.05,3.62,4.37,3.62,1.37,0,3.03-.54,3.84-1.51l1.34,1.22h-.02ZM258.26,199.87c-.1-2.35-1.71-3.62-4.08-3.62-2.1,0-3.93,1.27-4.28,3.59h8.36v.02Z"/><path class="cls-2" d="M99.9,78.87c-.03.1-.05.21-.06.33,0-.02-.02-.03-.02-.04h0c.02-.1.05-.19.08-.28Z"/><path class="cls-7" d="M241.44,89.49c.19-.19.65.28.58.57-.62.63-1.25,1.18-1.91,1.66.99-1.16,1.2-2.09,1.17-2.07.05-.05.1-.1.16-.16Z"/><path class="cls-7" d="M235.65,94.66c2.24-.84,3.62-1.97,4.45-2.94.66-.48,1.3-1.03,1.91-1.66-.18.65-.55,1.37-1.14,2.09h0c-1.59,1.21-3.34,2.05-5.23,2.51t0,0Z"/><path class="cls-7" d="M235.62,94.67s.02,0,.03,0t0,0s0,0,0,0c0,0-.01,0-.02,0Z"/><path class="cls-7" d="M235.64,94.66s0,0-.01,0c0,0-.02,0-.02,0,0,0,0,0,.01,0,0,0,.01,0,.02,0Z"/><path class="cls-15" d="M213.95,86.62c-8.51-6.65-19.12-.84-23.01,1.75l-.09.7v.02l-.05.35-.25,1.92s.07-.02.11-.03c.44-.11.88-.22,1.31-.32.2-.04.4-.09.6-.13.14-.03.28-.06.42-.08.31-.06.62-.12.92-.17.09-.01.18-.03.26-.04.04,0,.07-.01.11-.02,2.91-1.71,6.61-3.23,10.54-3.23,2.92,0,5.97.83,8.92,3.05,8.79,6.59,17.09,6.04,21.88,4.27h0s.02-.01.03-.01c2.24-.84,3.62-1.97,4.45-2.94-7.46,5.44-17.54,1.63-26.15-5.1Z"/><path class="cls-17" d="M234.98,113.74s.01.04.01.06c0-.02,0-.04-.02-.06h0Z"/><path class="cls-7" d="M234.21,113.98c.13.43.08.96-.19,1.59h0c-1.2,1.49-3.01,3.32-5.44,4.64,3.71-2.84,4.75-4.44,4.94-5.31.27-.33.49-.64.69-.92Z"/><path class="cls-7" d="M233.76,113.31c.21.18.37.41.45.67-.19.28-.42.59-.69.92.15-.69-.24-.93-.27-.97.11-.15.21-.28.3-.42.06-.08.13-.15.22-.21Z"/><path class="cls-19" d="M233.24,113.93c-.09-.08-.22-.17-.43-.24-1.24-.45-3.99-.03-6.63,1.66-1.07.68-2.43.79-3.93.3-2.1-.69-7.52-3.68-12.54-16.65-2.29-5.92-9.19-7.7-15.02-6.84,0,0-.01,0-.02,0-.1.01-.2.03-.3.05-.1.01-.2.03-.3.05-.34.06-.68.12-1.02.19-.18.03-.36.07-.55.11-.15.03-.3.07-.46.1-.03,0-.07.01-.1.02-.18.04-.36.08-.54.13-.18.04-.37.09-.56.14-.19.05-.37.1-.56.15l-1.16,8.8-.11.81c9.48-.22,12.15,3.99,15.94,10.66,4.84,8.48,11.9,9.7,20.31,7.32,3.92-1.1,6.67-3.83,8.21-5.79.15-.69-.24-.93-.27-.97Z"/><path class="cls-17" d="M233.41,93.42c.15-.02.29-.03.44-.05-.1.01-.2.03-.3.04-.05,0-.1,0-.14.01Z"/><path class="cls-8" d="M233.2,93.44c.07,0,.14-.01.22-.02-.09.01-.19.02-.28.03h.07Z"/><path class="cls-19" d="M232.86,93.47c.11,0,.22-.02.34-.03h-.07s-.05.01-.07.01c-.06,0-.13,0-.19.01Z"/><path class="cls-17" d="M232.32,93.49c.16,0,.31,0,.47-.02-.06,0-.12,0-.18.01-.02,0-.03,0-.05,0-.08,0-.16,0-.23,0Z"/><path class="cls-19" d="M232.28,115.13c.13-.15.25-.29.37-.44-.12.14-.24.29-.37.44Z"/><path class="cls-8" d="M232.55,93.49c-.16,0-.32,0-.49,0,.08,0,.17,0,.25,0,.08,0,.15,0,.23,0Z"/><path class="cls-19" d="M241.07,88.42c-.32-.3-.9-.17-1.21-.07-.3.1-.66.24-1.03.39-3.4,1.35-9.71,3.88-17.36-7.79-2.84-4.34-7.66-7.2-13.22-7.84-5.88-.68-11.69,1.22-15.98,5.21l-1.18,8.99h0s-.14,1.06-.14,1.06c3.9-2.59,14.5-8.4,23.01-1.75,8.61,6.73,18.69,10.54,26.15,5.1.99-1.16,1.2-2.09,1.18-2.06.11-.54.03-1-.22-1.23ZM230.36,93.42s-.05,0-.07,0c.02,0,.05,0,.07,0,.03,0,.05,0,.08,0-.03,0-.05,0-.08,0ZM230.56,93.43s0,0,0,0h0s-.02,0-.03,0c.01,0,.02,0,.03,0h0s.03,0,.04,0c.01,0,.03,0,.04,0,.03,0,.05,0,.08,0-.05,0-.1,0-.15-.01ZM230.88,93.46s-.05,0-.07,0h-.07s.05,0,.07,0,.05,0,.07,0,.05,0,.07,0c.05,0,.09,0,.14.01-.07,0-.14,0-.21-.01ZM231.55,93.49h0s-.07,0-.11,0c.07,0,.13,0,.2,0-.03,0-.06,0-.09,0ZM233.05,93.46s-.06,0-.09,0c.06,0,.11-.01.17-.01-.02,0-.05,0-.07,0ZM233.55,93.41s-.1.01-.14.01c.14-.01.29-.03.44-.05-.1.01-.2.03-.3.04Z"/><path class="cls-15" d="M225.3,120.69c-8.41,2.37-15.48,1.16-20.31-7.32-3.8-6.66-6.46-10.88-15.94-10.66l-.03.2h0s-.08.61-.08.61c.04,0,.07,0,.11,0-.04,0-.07,0-.11,0l-.32,2.46h.06c7.15,0,11.37,5.15,14.26,10.01.07.11.14.22.2.34.09.15.17.3.26.44,2.36,4.11,6.19,6.94,10.51,7.76,3.74.71,7.68-.07,11.58-2.27.07-.04.14-.08.21-.12,0,0,0,0,0,0,.97-.56,1.93-1.2,2.89-1.93,3.71-2.84,4.75-4.44,4.94-5.31-1.55,1.96-4.3,4.69-8.21,5.79Z"/><path class="cls-17" d="M230.55,93.43s.06,0,.08,0c-.03,0-.05,0-.08,0,0,0,0,0,0,0h0Z"/><path class="cls-15" d="M207.72,84.6c-.23-.04-.45-.09-.68-.12.23.03.46.07.68.12Z"/><polygon class="cls-14" points="196.43 41.25 196.1 41.5 196.09 41.5 196.43 41.25"/><path class="cls-3" d="M196.1,40.21s0-.02-.01-.03h0s0,.02,0,.03Z"/><rect class="cls-14" x="196.06" y="41.51" width=".04" height="0" transform="translate(11.22 118.95) rotate(-34.68)"/><path class="cls-14" d="M196.09,41.5l-.03.02h-.07s.02,0,.02-.01h.08Z"/><path class="cls-14" d="M196.01,41.51s-.01.01-.02.02h-.12s0,0,0,0h.15Z"/><path class="cls-14" d="M195.99,41.53s-.06.05-.09.08l-.03-.07h.12Z"/><path class="cls-14" d="M196.06,41.52l-.15.11v-.03s.05-.05.08-.08h.07Z"/><polygon class="cls-14" points="196.07 41.52 195.9 41.64 195.9 41.64 195.9 41.63 196.06 41.52 196.07 41.52"/><rect class="cls-14" x="195.9" y="41.61" width="0" height=".03" transform="translate(.34 84.79) rotate(-24.44)"/><polygon class="cls-14" points="195.89 41.61 195.89 41.61 195.86 41.54 195.89 41.61"/><rect class="cls-14" x="195.85" y="41.52" width="0" height=".02"/><polygon class="cls-21" points="195.85 41.52 195.82 41.45 195.82 41.44 195.85 41.52"/><polygon class="cls-14" points="195.85 41.52 195.85 41.52 195.82 41.45 195.85 41.52"/><path class="cls-18" d="M195.77,41.73s-.03.02-.04.03c-.02.02-.03.03-.05.04,0,0-.02,0-.03.01.02-.01.05-.03.08-.06.01,0,.03-.02.04-.03Z"/><path class="cls-18" d="M195.9,41.64s-.06.04-.09.06c-.01.01-.03.02-.04.03-.01,0-.03.02-.04.03-.03.03-.06.05-.08.06,0,0,.02-.02.03-.03.02-.02.04-.03.06-.05.06-.05.11-.09.16-.13v.03Z"/><path class="cls-21" d="M195.82,41.44l-.2-.43s0,0,0-.01l.2.44Z"/><path class="cls-21" d="M195.72,40.53l-.41-.21.31.68s0,0,0,.01l-.36-.77s.6.35,1.01.57l-.55-.28Z"/><path class="cls-19" d="M193.21,50.71c-.14.11-.28.22-.44.33.16-.12.31-.23.44-.33Z"/><path class="cls-17" d="M190.65,91.33s-.07.02-.11.03h0s.07-.02.11-.03Z"/><path class="cls-17" d="M189.32,93.23s0,0,0,0c0,0,0,0,0,0Z"/><path class="cls-17" d="M189.32,93.23s0,0-.01,0h0s0,0,.01,0Z"/><polygon class="cls-17" points="189.31 93.23 189.31 93.23 189.3 93.23 189.31 93.23"/><path class="cls-17" d="M189.29,93.22s.01,0,.02,0h-.02Z"/><path class="cls-17" d="M189.05,103.52s-.07,0-.11,0h0s.07,0,.11,0Z"/><polygon class="cls-17" points="188.78 92.38 187.42 102.64 188.4 95.2 188.78 92.38"/><path class="cls-19" d="M188.18,55.82c-.16.08-.32.17-.48.25h0c.16-.09.32-.17.48-.25Z"/><path class="cls-19" d="M193.07,52.82c-.13.09-.26.18-.39.27-.06.04-.12.09-.18.12-.59.41-1.26.84-2.01,1.3-.1.06-.2.12-.31.18-.46.28-.95.56-1.46.84-.09.05-.17.09-.26.14-.09.05-.17.1-.26.14-.16.08-.32.17-.48.25h0c-.16.09-.32.17-.49.25-.55.28-1.13.56-1.75.84-.04.02-.08.04-.12.06-.01,0-.03.01-.05.02-.07.03-.13.06-.2.09-.02.01-.04.02-.06.03-.12.05-.24.11-.35.16-.29.12-.59.25-.89.38-.18.07-.37.15-.55.22-.02.01-.05.02-.07.03-.16.07-.33.13-.5.19-.38.14-.77.29-1.17.43-.4.14-.81.28-1.23.41-.22.07-.44.14-.66.21-.17.05-.35.11-.53.16-.25.07-.5.14-.76.22-.39.11-.8.22-1.21.32-.07.02-.15.04-.23.06-.19.05-.38.09-.57.13-.02,0-.04,0-.06.01-.21.05-.41.09-.62.14-.03,0-.07.01-.1.02-.22.05-.45.1-.68.14-.24.05-.49.09-.73.14-.18.03-.36.07-.55.09-.23.04-.47.08-.7.11-.14.02-.28.04-.43.06-.39.06-.79.11-1.2.15-.08,0-.16.02-.24.03-.28.03-.57.06-.86.09-.22.02-.43.04-.65.05-.26.02-.51.04-.77.05-.06,0-.12,0-.19,0-.22.01-.44.02-.67.03-.55.02-1.1.03-1.67.03-.48,0-.96,0-1.45-.02-1.14-.04-2.27-.09-3.36-.17-.5-.03-1-.07-1.49-.11-.16-.01-.31-.03-.47-.04-.3-.03-.59-.05-.89-.08-.26-.03-.53-.05-.79-.08-.16-.02-.31-.03-.47-.05-.37-.04-.74-.09-1.1-.13-.55-.07-1.08-.14-1.61-.22-.18-.03-.35-.05-.53-.08-.29-.04-.58-.09-.86-.13-.23-.03-.46-.07-.69-.11-.16-.03-.32-.05-.48-.08-.68-.11-1.33-.23-1.98-.36-.35-.07-.7-.14-1.05-.21-.34-.07-.68-.14-1.02-.22-.17-.03-.34-.07-.5-.11-.11-.02-.22-.05-.34-.07-.09-.02-.18-.04-.27-.06-.28-.07-.56-.13-.84-.2-.16-.04-.31-.08-.46-.11-.16-.04-.31-.07-.46-.11-.16-.04-.32-.08-.48-.12-.29-.07-.57-.14-.84-.22-.14-.04-.28-.08-.43-.12-.28-.08-.55-.15-.82-.23-.27-.08-.53-.15-.79-.23-.13-.04-.26-.07-.38-.11-.25-.07-.5-.15-.74-.23-.2-.06-.39-.12-.58-.18-.33-.11-.64-.21-.95-.31-.08-.03-.15-.05-.23-.08-.22-.07-.44-.15-.65-.22-.18-.07-.35-.12-.52-.19-.1-.03-.2-.07-.29-.11-.18-.07-.35-.13-.52-.19-.41-.15-.77-.29-1.09-.42-.08-.03-.15-.06-.23-.09-.02,0-.05-.02-.07-.03l4.51,21.35,2.73,12.91.02.1s0,0,0,0c0,0,0,.02,0,.03l.03.15,1.52,7.22.92,4.38c.15.15.24.36.24.57,0,.1-.02.2-.05.29l.74,3.52c.83.82,5.03,4.7,11.52,6.75,9.59,3.03,19.43.84,29.27-6.5l.49-3.72s0-.01,0-.02h0v-.02l1.35-10.26v-.02s0-.03.01-.04l.32-2.45.12-.97s0,0,0-.01h0s1.46-11.06,1.46-11.06l3.4-25.75c-.3.23-.64.48-1.02.75ZM148.89,89.54c-2.54,0-4.61-2.07-4.61-4.61s2.07-4.61,4.61-4.61,4.61,2.07,4.61,4.61-2.07,4.61-4.61,4.61ZM168.76,90.6h0c-.85.81-2,1.23-3.44,1.26h-.13c-3.86,0-4.99-2.99-5.05-4.57-.01-.3.11-.59.35-.81.23-.22.55-.35.9-.36.34-.01.67.1.92.3.25.21.39.49.41.79.02.39.22,2.38,2.48,2.38h.04s.03,0,.03,0c.71-.01,1.25-.19,1.6-.52.57-.54.65-1.45.64-1.75h0c-.04-.62.51-1.16,1.21-1.2.7-.04,1.32.44,1.36,1.06.02.36.04,2.13-1.31,3.42ZM180.65,88.7c-2.54,0-4.61-2.07-4.61-4.61s2.07-4.61,4.61-4.61,4.61,2.07,4.61,4.61-2.07,4.61-4.61,4.61Z"/><path class="cls-19" d="M185.46,57.17s-.08.04-.12.06h0s.08-.04.12-.06Z"/><path class="cls-19" d="M185.33,57.23h0s-.03.02-.05.02c-.07.03-.14.06-.21.09.09-.04.17-.07.25-.11Z"/><path class="cls-7" d="M180.65,79.48c-2.54,0-4.61,2.07-4.61,4.61s2.07,4.61,4.61,4.61,4.61-2.07,4.61-4.61-2.07-4.61-4.61-4.61ZM179.17,84.68c-.68,0-1.24-.56-1.24-1.24s.56-1.24,1.24-1.24,1.24.55,1.24,1.24-.56,1.24-1.24,1.24Z"/><path class="cls-19" d="M181.48,58.78c-.4.14-.81.28-1.23.41.42-.14.83-.27,1.23-.41Z"/><path class="cls-16" d="M179.17,82.2c.68,0,1.24.56,1.24,1.24s-.56,1.24-1.24,1.24-1.24-.56-1.24-1.24.56-1.24,1.24-1.24Z"/><path class="cls-7" d="M168.84,87.26s0,0,0,0h0s0,0,0,0Z"/><path class="cls-8" d="M167.77,52.22c-.22.02-.43.04-.65.05-.06,0-.13.01-.19.02-.13.01-.27.02-.4.03-.24.02-.47.03-.71.05l1.95-.15Z"/><path class="cls-7" d="M170.07,87.18c-.04-.62-.66-1.1-1.36-1.06-.7.03-1.25.57-1.21,1.19h0c.01.31-.07,1.22-.64,1.76-.35.33-.89.51-1.6.52,0,0-.03,0-.03,0h-.04c-2.26,0-2.46-1.99-2.48-2.38-.01-.3-.16-.58-.41-.79-.25-.2-.58-.32-.92-.3-.35.01-.66.14-.9.36-.24.22-.36.51-.35.81.06,1.58,1.2,4.57,5.05,4.57h.13c1.44-.03,2.6-.45,3.44-1.25h0c1.36-1.29,1.33-3.07,1.31-3.42Z"/><path class="cls-8" d="M159.92,53.16c-.1,0-.21-.01-.31-.02,0,0,0,0,0,0,.1,0,.21.01.31.02Z"/><path class="cls-9" d="M196.72,41.05l-.29.21s-.53.39-.54.35c-.09.09.32-.28.22-.19-.03.03-.24.16-.27.19l.02-.09-.04-.08-.2-.44-.31-.68.41.21.55.28s.02.01.03.02l.14.07.1.05s.03.02.05.03c.01,0,.02,0,.03.01l.06.03s.03.02.03.02Z"/><path class="cls-20" d="M197.43,41.85s0,.03,0,.05v-.48s-.06-.04-.06-.04c-.01.01-.03.03-.04.04,0,0-.01.01-.02.02-.06.06-.13.12-.2.18-.14.13-.3.27-.46.41-.07.06-.14.12-.21.18-.03.03-.06.05-.09.08-.03.03-.07.06-.11.09-.07.06-.14.12-.21.18-.01,0-.02.02-.03.02-.13.11-.28.23-.42.34-.02.02-.04.03-.06.05-.08.07-.16.13-.25.19-.17.14-.35.27-.53.4-.18.14-.37.28-.57.41-.78.55-1.65,1.12-2.62,1.7-.23.14-.47.28-.71.41-.14.08-.28.16-.42.24-.13.07-.26.14-.39.22-.13.07-.26.14-.4.22-.25.13-.5.26-.76.4-.19.09-.37.19-.56.28-.12.06-.25.12-.37.18-.11.05-.21.11-.32.16-.14.07-.28.13-.41.19-.29.14-.58.27-.89.4-.15.07-.3.13-.45.2-.55.24-1.13.47-1.72.71-.14.05-.28.11-.42.16-.9.34-1.85.67-2.83.99-.35.11-.72.23-1.09.34,0,0,0,0,0,0-.19.06-.39.11-.58.17-.17.05-.35.1-.53.15-.13.04-.26.07-.39.1-.34.09-.68.18-1.03.27-.15.04-.31.08-.47.11-.27.06-.54.13-.82.19-.23.05-.46.11-.69.15-.05.01-.1.02-.15.03-.14.03-.28.06-.42.09-.39.08-.79.16-1.2.23-.19.03-.37.07-.56.1-.47.08-.94.16-1.41.23-.18.03-.36.05-.54.08-.34.05-.67.09-1.01.13,0,0,0,0-.01,0-.16.02-.32.04-.48.06-.08,0-.16.02-.24.03-.2.02-.4.04-.6.06-.34.04-.69.07-1.04.1-.09,0-.19.02-.28.03-.21.02-.43.03-.64.05-.28.02-.56.04-.84.05-.91.06-1.83.08-2.75.08-.39,0-.78,0-1.17-.01-.27,0-.54-.02-.8-.03-.27,0-.54-.02-.81-.04-.14,0-.28-.02-.42-.03-.1,0-.2-.01-.31-.02-.01,0-.02,0-.03,0h-.03s-.04,0-.06,0c-.2-.01-.4-.03-.6-.04-.15-.01-.3-.03-.45-.04-.2-.01-.39-.03-.58-.05-.16-.02-.34-.03-.5-.05-.08,0-.15-.01-.22-.02-.13-.01-.25-.03-.38-.04-.13-.01-.25-.03-.38-.04-.15-.02-.31-.04-.46-.06-.17-.02-.34-.04-.5-.07-.14-.02-.29-.04-.43-.06-.19-.03-.38-.05-.57-.08-.19-.03-.38-.05-.57-.09-.11-.02-.23-.04-.34-.05-.2-.03-.41-.07-.61-.1-.38-.07-.75-.14-1.13-.2-.34-.07-.68-.13-1.02-.2-.91-.18-1.8-.38-2.68-.59-.13-.03-.26-.06-.39-.09-.1-.03-.19-.05-.28-.07-.03,0-.06-.02-.1-.02,0,0,0,0,0,0-.15-.04-.3-.07-.45-.11-.01,0-.03,0-.04-.01-.01,0-.02,0-.03,0-.05-.01-.1-.03-.15-.04-.03,0-.07-.02-.1-.03-.03,0-.07-.02-.1-.03-.93-.24-1.83-.49-2.7-.74-.26-.07-.51-.15-.77-.22-.26-.08-.51-.15-.75-.23-.2-.06-.4-.12-.59-.18-.39-.12-.77-.24-1.14-.36-.18-.06-.37-.12-.55-.18-.03-.01-.06-.02-.09-.03-.06-.02-.12-.04-.18-.06-.03,0-.06-.02-.09-.03-.23-.08-.46-.16-.68-.23-.02,0-.03,0-.05-.01,0,0,0,0-.01,0,0,0-.01,0-.02,0-.51-.18-1.01-.35-1.48-.53-.1-.03-.19-.07-.29-.11-.3-.11-.6-.22-.88-.33-.11-.04-.21-.08-.32-.12-.07-.03-.14-.05-.2-.08-.01,0-.03,0-.04-.01,0,0-.02,0-.03-.01-.13-.05-.26-.1-.39-.15-.25-.09-.49-.19-.72-.28-.07-.03-.13-.05-.19-.08-.14-.06-.27-.11-.4-.16,0,0-.02,0-.02,0-.01,0-.03-.01-.05-.02-.07-.03-.14-.06-.21-.09-.16-.07-.32-.13-.47-.2-.04-.02-.08-.03-.12-.05-.03-.01-.06-.03-.09-.04-.09-.04-.18-.08-.28-.12-.05-.02-.1-.04-.15-.07-.03-.01-.05-.02-.07-.03-.03,0-.05-.02-.07-.03l-.05-.02s-.01,0-.02,0c-.02,0-.04-.01-.06-.03,0,0-.01,0-.02,0-.01,0-.02-.01-.03-.01-.02,0-.03-.01-.05-.02,0,0-.01,0-.02,0,0,0-.01,0-.02-.01,0,0-.01,0-.02,0,0,0-.01,0-.02,0l.02.89.02.7.31,4.87c-.1.08,0,.67-.05.79l1.27.64.72.36s12.04,5.74,30.4,6.35c18.36.6,30.4-10.43,30.4-10.43l.59-.55,1.43-1.32.13-.12v-1.11s.04-4.59.04-4.59c0,0,0,0,0,0h0v-.07s.01-.01.01-.02c0,0,0-.01.01-.02,0,0,0,0,0,0,.01-.05.03-.09.04-.15.02-.09.03-.2.03-.29,0-.03,0-.05-.01-.07Z"/><path class="cls-7" d="M148.89,80.31c-2.54,0-4.61,2.07-4.61,4.61s2.07,4.61,4.61,4.61,4.61-2.07,4.61-4.61-2.07-4.61-4.61-4.61ZM147.65,85.33c-.68,0-1.24-.55-1.24-1.24s.56-1.24,1.24-1.24,1.24.55,1.24,1.24-.56,1.24-1.24,1.24Z"/><path class="cls-16" d="M147.65,82.85c.68,0,1.24.56,1.24,1.24s-.56,1.24-1.24,1.24-1.24-.56-1.24-1.24.56-1.24,1.24-1.24Z"/><path class="cls-8" d="M147.4,51.17s-.06-.02-.09-.02h0s.06.01.09.02Z"/><path class="cls-8" d="M146.81,51.02s-.02,0-.03,0h0s.02,0,.03,0Z"/><path class="cls-8" d="M146.78,51.01c-.05-.01-.1-.03-.15-.04-.07-.02-.14-.03-.2-.05.12.03.24.06.36.09Z"/><path class="cls-19" d="M145.22,101.76c.15.15.24.36.24.57,0,.09-.02.19-.05.29l-.1-.49s0-.02,0-.03h0s0-.02,0-.02v-.05s-.07-.28-.07-.28Z"/><path class="cls-7" d="M142.77,90.15l1.52,7.23-1.52-7.23Z"/><path class="cls-15" d="M143.8,102.87c-.08-.03-.15-.06-.23-.08.08.03.15.05.23.08h0Z"/><polygon class="cls-7" points="141.26 90.83 143.41 101.04 143.41 101.04 141.26 90.83"/><path class="cls-7" d="M143.41,101.04h0l-.1-.03s.07.02.1.03h0Z"/><path class="cls-7" d="M143.31,101.01c-.2-.06-.39-.1-.58-.15.19.04.39.09.58.15Z"/><path class="cls-7" d="M142.75,90.14v.02s0-.02,0-.03c0,0,0,0,0,.01Z"/><path class="cls-7" d="M242.18,87.25c-.68-.64-1.71-.8-2.83-.43-.35.11-.72.26-1.12.42-3.38,1.35-8.49,3.39-15.4-7.17-3.11-4.75-8.36-7.87-14.39-8.56-5.73-.66-11.39.94-15.85,4.42l3.35-25.37-.22.2s-.27.25-.71.6c-.24.2-.55.44-.91.71l-3.4,25.75-1.46,11.05h0s0,.02,0,.02l-.12.97-.32,2.45s0,.03,0,.04v.02s-1.36,10.26-1.36,10.26h0v.02s0,.01,0,.02l-.49,3.72c-9.83,7.34-19.68,9.53-29.27,6.5-6.48-2.05-10.68-5.93-11.52-6.75l-.74-3.52-.11-.49s0-.02,0-.03h0s-.01-.07-.01-.07l-.06-.28-.92-4.38-1.52-7.22-.03-.11s0,.01,0,.02c0,.03,0,.05,0,.07v.02s0-.02,0-.03c0-.06-.01-.12-.03-.18-.02-.06-.04-.11-.06-.16.03.05.05.11.06.16,0,0,0,0,0,.01l-.02-.09-2.73-12.91-4.51-21.35c-.37-.15-.68-.28-.91-.38-.35-.15-.54-.24-.56-.25l-.36-.16,4.27,20.22c-2.55-2.03-8.22-5.74-14.8-4.9-5.57.71-10.46,4.51-14.53,11.31-4.32,7.22-8.06,11.15-11.11,11.71-2.07.37-3.62-.87-4.98-1.96-1.15-.92-2.23-1.78-3.46-1.49-1.62.39-2.73,1.72-2.84,3.41,0,.01,0,.03,0,.05-.13,2.42,1.74,5.72,7.37,7.73,1.73.62,3.36.88,4.92.88,6.17,0,11.13-4.23,15.61-8.05,4.29-3.67,8-6.83,11.77-5.47.56.2,1.12.4,1.69.6-3.77,1.12-7,3.71-9.14,7.38-3.62,6.21-6.55,10.06-9.51,12.45-3.44,2.78-7.03,3.7-11.3,2.89-5.53-1.05-8.47-.86-9.53.61-.59.82-.51,1.91.23,3.22.8,1.42,2.37,2.8,4.54,3.99,3.67,2.02,8.05,3.07,12.77,3.07.76,0,1.52-.03,2.3-.08,5.98-.42,12.25-2.5,18.14-6.01,3.61-2.15,6.03-4.27,7.97-5.98,3.65-3.21,5.51-4.84,10.94-3.14.86.86,5.2,4.95,12.14,7.16,2.48.79,5.47,1.38,8.86,1.38,6.18,0,13.71-1.95,22.01-8.16,7.1-.37,11.07,4.82,14.01,9.95,2.6,4.53,6.83,7.64,11.61,8.55.89.17,1.89.28,3.01.28,3.61,0,8.32-1.17,13.57-5.39,3.71-2.97,5.33-5.4,4.82-7.22,0-.02,0-.04-.02-.06,0,0,0-.02,0-.02-.16-.5-.57-1.17-1.6-1.54-1.95-.72-5.27.03-8.06,1.82-.65.42-1.53.46-2.55.12-1.47-.48-6.63-3.03-11.54-15.7-2.1-5.43-7.48-7.82-12.86-8.06,4.28-1.74,9.52-2.32,14.41,1.35,4.7,3.53,9.96,5.51,15.2,5.73.32.01.65.02.97.02,3.87,0,7.54-.97,10.19-2.71,1.92-1.26,3.22-2.84,3.66-4.46.34-1.24.11-2.34-.62-3.03ZM142.75,90.22v.04s0,0,0,.01c0-.02,0-.03,0-.05ZM142.7,90.45h0s0,.03-.01.04c0-.01.01-.02.01-.04ZM142.44,90.81s0,0,0,0c.1-.08.18-.18.24-.3,0,0,0,.01,0,.02-.02.03-.04.07-.06.1l-.04.05s-.04.05-.07.07c-.01,0-.02.02-.03.03,0,0,0,0-.01.01s0,0-.01.01c0,0,0,0-.01,0h0s-.01,0-.01.01c0,0,0-.01.01-.01ZM142.11,90.96s.04,0,.06-.01c-.02,0-.04.01-.06.02h0ZM126.42,86.72c-4.64-1.68-8.88,1.94-13.37,5.76-5.53,4.72-11.26,9.61-18.94,6.87-.03-.01-.07-.03-.11-.04-.53-.2-1.24-.53-1.3-.55-3.68-2.08-4.84-3.8-4.94-5.07-.02-.23,0-.44.04-.63h0c-.02-.12-.07-.24-.14-.34.07,0,.14.01.22.02.18-.72.69-1.25,1.42-1.45.03-.01.07-.02.1-.03.47-.11,1.25.51,2.08,1.18,1.47,1.18,3.49,2.79,6.28,2.29,3.59-.64,7.58-4.72,12.21-12.47,3.8-6.35,8.28-9.89,13.34-10.54,7.98-1.02,14.83,5.62,14.89,5.68.04.04.08.07.12.1l.14.09,2.29,10.87.12.6c-.34-.07-.7-.15-1.09-.22-.71-.14-1.5-.27-2.34-.38,0,0,0,0,0,0-.45-.06-.93-.11-1.41-.16-.11-.01-.22-.02-.33-.03-.67-.06-1.37-.1-2.08-.11-.11,0-.21,0-.32,0-.47,0-.95,0-1.43.01-.17,0-.34.01-.52.03-.17,0-.34.02-.51.03,0,0,0,0-.01,0-1.52-.5-3.01-1.01-4.43-1.53ZM139.52,89.63h0c-.08-.01-.15-.03-.23-.04.08.01.16.03.23.04ZM135.94,89.13c-.1,0-.19-.02-.29-.03.02,0,.03,0,.05,0,.08,0,.16.01.24.02ZM132.95,109.18c-1.89,1.66-4.24,3.72-7.73,5.8-4.32,2.57-8.81,4.31-13.19,5.19-.31.06-.62.12-.92.17-1.77.31-3.53.47-5.24.49-.05,0-.09,0-.14,0-4.43.03-8.57-.91-12.11-2.85-.03-.01-.05-.03-.08-.04-1.25-.41-3.84-3.35-3.93-3.5h0c-.05-.11-.1-.2-.14-.3h0s-.04-.09-.05-.13c-.02-.05-.03-.09-.04-.13-.01-.04-.03-.08-.03-.12,0-.03-.01-.06-.02-.09,0-.03-.01-.06-.01-.08-.03-.2,0-.35.07-.47.22-.3,1.43-1.19,7.91.03,1.11.21,2.17.31,3.19.31,8.03,0,13.47-6.37,19.33-16.43,2.44-4.19,6.44-6.8,10.99-7.16.36-.03.72-.05,1.08-.06.34-.01.67-.02,1.01-.02.24,0,.47,0,.71,0,.34,0,.67.02,1.01.04.44.03.87.06,1.3.1.12,0,.23.02.34.03.19.02.38.04.56.07.01,0,.03,0,.04,0,.09.01.19.03.28.04.26.03.52.07.77.11.18.03.35.05.52.08.42.07.82.14,1.2.21.08.02.16.03.23.05.09.01.17.03.25.05.13.03.26.05.39.08.2.04.4.09.58.13.03,0,.06.02.09.02s.06.01.09.02l-.03-.16c.17.11.26.17.27.17.07.05.13.08.21.1-.14-.04-.29-.07-.44-.11h0s0,0,0,0l2.15,10.2h0s.19.91.19.91l.1.47s0,.03,0,.04l.09.42.54,2.53c-5.5-1.38-7.89.72-11.38,3.78ZM189.31,93.22s0,0,.01,0t-.01,0s0,0,0,0h0ZM209.72,99c5.02,12.97,10.44,15.97,12.54,16.65,1.5.49,2.86.39,3.93-.3,2.64-1.69,5.39-2.12,6.63-1.66.2.07.34.16.43.24.11-.15.21-.28.3-.42.06-.08.13-.15.22-.21.21.18.37.41.45.67.13.43.08.95-.19,1.59h0c-1.2,1.49-3.01,3.32-5.44,4.64-.96.73-1.92,1.38-2.89,1.93,0,0,0,0,0,0-.07.04-.14.08-.21.12-3.9,2.2-7.84,2.98-11.58,2.27-4.32-.81-8.15-3.65-10.51-7.76-.09-.15-.17-.3-.26-.44-.07-.11-.13-.22-.2-.34-2.89-4.86-7.11-10.01-14.26-10.01h-.06l.32-2.46h0s.08-.6.08-.6h0s.03-.21.03-.21l.11-.81,1.16-8.8c.19-.05.37-.1.56-.15.18-.05.37-.1.56-.14.18-.05.36-.09.54-.13.04,0,.07-.02.1-.02.16-.04.31-.07.46-.1.18-.04.36-.08.55-.11.34-.07.68-.13,1.02-.19.1-.02.2-.03.3-.05.1-.02.2-.03.3-.05,0,0,.01,0,.02,0,5.83-.86,12.73.92,15.02,6.84ZM242.02,90.06c-.18.65-.55,1.37-1.14,2.09-.1.08-.2.15-.3.22-.1.08-.2.15-.3.22-.1.07-.2.14-.31.2-.1.07-.2.14-.31.2-.11.07-.21.13-.32.19-.11.07-.21.12-.32.18-.11.06-.21.12-.32.17-.08.04-.16.08-.23.12l-.32.15c-.16.07-.32.14-.48.21-.12.05-.24.1-.36.14-.11.04-.23.09-.34.13-.09.03-.18.06-.26.09-.06.02-.11.03-.16.05-.14.05-.29.09-.44.13-.15.04-.3.08-.45.12h0s0,0,0,0c0,0,0,0-.01,0-4.79,1.78-13.09,2.32-21.88-4.27-2.96-2.22-6-3.05-8.92-3.05-3.93,0-7.63,1.52-10.54,3.23-.04,0-.07.01-.11.02-.09.01-.18.03-.26.04-.3.05-.61.11-.92.17-.14.03-.28.05-.42.08-.2.04-.4.09-.6.13-.44.1-.87.2-1.31.32-.04,0-.07.02-.11.03h0s.25-1.92.25-1.92l.05-.35v-.02l.09-.7.14-1.05h0s1.18-8.99,1.18-8.99c4.3-3.99,10.1-5.88,15.98-5.21,5.56.64,10.37,3.5,13.22,7.84,7.64,11.67,13.96,9.14,17.36,7.79.37-.15.73-.29,1.03-.39.32-.11.89-.24,1.21.07.24.23.32.69.22,1.23.05-.05.11-.11.16-.16.19-.19.66.28.58.57Z"/><path class="cls-7" d="M142.75,90.07s0,.05,0,.07c0,0,0,0,0-.01,0-.02,0-.04,0-.06Z"/><path class="cls-7" d="M142.74,90.26s0-.06,0-.09c0,.03,0,.06,0,.08,0,0,0,0,0,0Z"/><path class="cls-7" d="M142.74,90v-.03s0,.02,0,.03l.03.15-.03-.13v-.02Z"/><path class="cls-19" d="M142.73,89.96l-.02-.09.02.1s0,0,0-.01Z"/><path class="cls-7" d="M142.69,90.49v-.03s.01,0,.01,0c0,.01,0,.02-.01.03Z"/><path class="cls-7" d="M142.66,89.79c.03.05.06.11.07.17,0,0,0,0,0,.01v.03s0,.02,0,.02c0,.02,0,.03,0,.05,0,.02,0,.04,0,.06,0-.12-.04-.23-.09-.34Z"/><path class="cls-7" d="M142.46,90.79s-.01.01-.02.01c.1-.08.19-.18.24-.31,0,0,0,.02,0,.02-.02.03-.03.07-.06.1l-.04.06s-.04.05-.07.07c-.01,0-.02.02-.03.03,0,0,0,0-.01.01Z"/><path class="cls-7" d="M142.44,90.81s.02,0,.02-.01c0,0-.02.01-.03.02t0,0Z"/><path class="cls-7" d="M142.42,90.82s.01-.01.02-.02t0,0h0s0,0-.01.01Z"/><path class="cls-7" d="M142.17,90.94s-.04.01-.06.02h0s.04-.01.06-.02Z"/><path class="cls-7" d="M141.22,90.67c.17.11.26.17.27.17.06.04.13.08.21.1-.14-.04-.29-.07-.44-.11l-.03-.16Z"/><path class="cls-19" d="M141.26,90.83l2.15,10.2s-.07-.02-.1-.03c-.2-.06-.39-.11-.58-.15.19.04.39.09.58.15.03,0,.07.02.1.03l.19.9c-7.24-2.35-12.28,3.23-17.56,8.07-6.72,6.16-16.45,8.63-23.17,8.57-.16,0-.32,0-.47,0-.12,0-.23,0-.35-.01s-.23-.01-.34-.02c-7.04-.39-11.32-3.66-12.22-4.41t0,0s-.04-.09-.05-.13-.03-.09-.04-.13c-.01-.04-.03-.08-.03-.12,0-.03-.01-.06-.02-.09,0-.03-.01-.06-.01-.08-.03-.2,0-.36.07-.46.22-.3,1.43-1.19,7.91.03,1.11.21,2.17.31,3.19.31,8.03,0,13.47-6.37,19.33-16.43,2.44-4.19,6.44-6.8,10.99-7.17.36-.03.72-.05,1.08-.06.58-.02,1.15-.03,1.71-.01.34,0,.67.02,1,.04.44.03.87.06,1.3.1.12,0,.23.02.34.03.19.02.38.04.56.06.01,0,.03,0,.04,0,.09.01.19.02.28.03.26.03.52.07.77.11.18.03.35.05.52.08.42.07.82.14,1.2.22.08.02.15.03.23.05.09.02.17.03.25.05.13.03.26.06.39.08.2.04.4.09.59.13.06.02.12.03.18.04h0Z"/><path class="cls-7" d="M141.26,90.83h0c-.06-.01-.12-.03-.18-.04.06.01.12.03.18.04Z"/><path class="cls-16" d="M141.23,46.73c-.3.06-.62.1-.95.1-.03,0-.07,0-.1,0l1.05-.1Z"/><path class="cls-7" d="M139.52,89.63h0c-.08-.01-.15-.03-.23-.04.08.01.15.03.23.04Z"/><path class="cls-19" d="M87.83,93.11c.01-.11.03-.22.06-.33,0-.01,0-.02,0-.03.3-.81,1.02-1.31,1.42-1.45.03-.01.07-.02.09-.03.47-.11,1.25.51,2.08,1.18,1.47,1.18,3.49,2.79,6.28,2.29,3.59-.65,7.58-4.73,12.21-12.47,3.8-6.35,8.28-9.89,13.34-10.54,7.98-1.02,14.83,5.62,14.89,5.68.04.04.08.07.12.1l.14.09,2.29,10.87.12.6c-.34-.07-.71-.15-1.09-.22-2.42-1.4-6.66-3.62-11.45-5.19-9.08-2.97-12.56,3.83-19.36,9.52-6.17,5.17-10.63,6.38-15.65,4.92-2.83-.82-4.68-3-5.57-4.42-.02-.23,0-.44.04-.63,0,.01.01.03.02.04Z"/><path class="cls-15" d="M128.35,83.67c-9.08-2.97-12.56,3.82-19.36,9.52-6.17,5.17-10.63,6.38-15.65,4.92-2.83-.82-4.68-3-5.57-4.41.1,1.27,1.27,2.99,4.94,5.07.05.02.77.35,1.3.55.03.01.07.03.11.04,7.68,2.73,13.4-2.15,18.94-6.87,4.49-3.83,8.72-7.44,13.37-5.76,1.42.51,2.91,1.03,4.43,1.53,0,0,0,0,.01,0,.17-.01.34-.02.51-.03.18-.01.35-.02.52-.03.48-.02.95-.02,1.43-.01.11,0,.21,0,.32,0,.71.01,1.41.05,2.08.11.11,0,.22.02.33.03.49.04.96.1,1.41.16,0,0,0,0,0,0,.84.11,1.63.24,2.34.38-2.42-1.4-6.66-3.63-11.45-5.19Z"/><path class="cls-7" d="M135.7,89.11c.08,0,.16.01.24.02-.11-.01-.22-.02-.34-.03.03,0,.07,0,.1,0Z"/><path class="cls-7" d="M134.61,89.84c.44.02.87.06,1.3.1-.42-.04-.86-.07-1.3-.1Z"/><path class="cls-9" d="M134.27,43.67c-.01.08-.02.15-.03.23,0,.03,0,.07-.01.11,0,.03,0,.07-.01.1-.02.13-.03.26-.05.39,0,0,0,.02,0,.03,0,.03,0,.06-.01.08-.01.12-.03.23-.04.34,0,0,0,.02,0,.03,0,.03,0,.06,0,.1,0,.03,0,.07-.01.1,0,.07-.01.13-.02.19-.02.17-.03.32-.05.47,0,0,0,.01,0,.02h0s0,.06,0,.09c-.19-.08-.37-.15-.55-.23-.08-.03-.16-.07-.24-.1-.3-.12-.56-.24-.78-.33l1.82-1.62Z"/><path class="cls-8" d="M134.16,44.53c0,.05-.01.1-.02.15,0,.03,0,.06,0,.09h0c-.01.1-.02.21-.03.31,0-.03,0-.06,0-.1,0,0,0-.02,0-.03.01-.11.03-.22.04-.34,0-.03,0-.05.01-.08Z"/><path class="cls-8" d="M134.07,45.37c-.02.17-.03.32-.05.47.01-.15.03-.3.05-.47Z"/><path class="cls-3" d="M134.02,45.87v.08h0s0-.05,0-.08Z"/><path class="cls-8" d="M132.51,46.2s-.1-.04-.14-.06h0s.09.04.14.06Z"/><path class="cls-7" d="M133.6,89.8c-.56-.01-1.14,0-1.71.01.58-.02,1.15-.03,1.71-.01Z"/><path class="cls-15" d="M132.37,46.14h0s-.06-.03-.06-.03c-.02,0-.04-.02-.06-.03.04.01.08.03.12.05Z"/><path class="cls-15" d="M132.2,46.06s-.04-.02-.06-.03c.01,0,.02,0,.03.01,0,0,.02,0,.03.02Z"/><path class="cls-9" d="M132.1,47.6l-.05-.71s.02,0,.03.01l.02.7Z"/><path class="cls-15" d="M132.06,46h0s-.06-.03-.09-.04c.03.01.06.03.09.04Z"/><path class="cls-15" d="M93.63,99.04c.26.06.51.12.76.18-.25-.05-.51-.11-.76-.18Z"/><path class="cls-15" d="M89.62,114.43c.16.16,4.38,3.72,12.08,4.11.11,0,.23.01.34.02s.23,0,.35.01c.16,0,.31,0,.47,0,6.72.06,16.45-2.41,23.17-8.57,5.28-4.84,10.32-10.43,17.56-8.07l.1.47s0,.03,0,.04l.09.42c-.08-.03-.15-.06-.23-.08.08.03.15.06.23.08l.53,2.53c-5.5-1.38-7.89.72-11.38,3.78-1.89,1.66-4.24,3.72-7.72,5.8-10.97,6.54-23.07,7.69-31.6,3-.03-.01-.05-.03-.08-.04-1.25-.4-3.84-3.35-3.93-3.5h0Z"/><path class="cls-19" d="M101.7,118.55c-7.7-.39-11.92-3.95-12.08-4.11h0c-.05-.1-.1-.2-.13-.29.9.75,5.17,4.02,12.22,4.41Z"/><path class="cls-7" d="M87.89,92.76c.18-.72.69-1.25,1.42-1.45-.4.14-1.12.64-1.42,1.45h0Z"/><path class="cls-7" d="M87.89,92.76s0,.02,0,.03c0,0,0-.02,0-.03h0Z"/><path class="cls-15" d="M87.81,93.07c.02-.1.05-.19.08-.28-.03.1-.05.21-.06.33,0-.02-.02-.03-.02-.04h0Z"/><path class="cls-7" d="M87.89,92.79c-.03.09-.06.18-.08.28-.02-.12-.07-.23-.14-.33.07,0,.14.01.22.02,0,0,0,.02,0,.03Z"/><path class="cls-12" d="M225.37,95.41c.91,0,.91-1.42,0-1.42s-.91,1.42,0,1.42h0Z"/><path class="cls-10" d="M191.46,104.3c-.4,0-.8-.01-1.2-.02-.15,0-.31.07-.41.17s-.18.26-.17.41c.01.32.25.57.58.58h.25c.09.06.19.09.29.08.22-.02.44-.04.66-.07.16-.02.29-.05.41-.17.1-.1.18-.26.17-.41-.01-.32-.25-.57-.58-.58Z"/><path class="cls-10" d="M195.21,105.72s-.08-.06-.12-.09c-.09-.05-.19-.08-.29-.08h-.07c-.08,0-.15.01-.22.05-.07.02-.13.06-.19.12-.06.05-.1.11-.12.19-.04.07-.05.14-.05.22,0,.05.01.1.02.15.03.1.08.18.15.26.04.03.08.06.12.09.09.05.19.08.29.08h.07c.08,0,.15-.01.22-.05.07-.02.13-.06.19-.12.06-.05.1-.11.12-.19.04-.07.05-.14.05-.22,0-.05-.01-.1-.02-.15-.03-.1-.08-.18-.15-.26Z"/><path class="cls-10" d="M198.17,107.68s0-.02-.01-.02c-.04-.05-.08-.11-.13-.15-.04-.03-.1-.09-.16-.12-.05-.02-.12-.06-.19-.07-.06-.01-.12-.02-.18-.02,0,0-.02,0-.03,0-.06,0-.12.01-.18.02,0,0-.02,0-.03,0-.05.02-.11.04-.16.07,0,0-.02,0-.03.01-.05.03-.09.07-.13.1,0,0-.01.01-.02.02-.06.05-.1.11-.12.19-.04.07-.05.14-.05.22,0,.08.01.15.05.22.02.07.06.13.12.19.04.03.08.06.12.09.05.03.1.05.15.06,0,0,0,0,0,0,0,0,0,0,0,0,.07.04.14.07.21.07.03,0,.06.01.08.01.06,0,.12,0,.18,0,.1,0,.2-.03.29-.08.07-.04.12-.09.16-.15.05-.06.09-.12.1-.2.03-.1.03-.2,0-.31-.02-.06-.04-.11-.07-.16Z"/><path class="cls-10" d="M200.91,110.2s0,0,0,0c-.01-.02-.03-.04-.05-.06-.02-.02-.03-.04-.05-.06,0,0,0,0-.01-.01-.07-.07-.16-.12-.26-.15-.1-.03-.2-.03-.31,0-.1.04-.21.08-.31.12-.08.02-.14.05-.2.1-.06.04-.11.09-.15.16-.04.07-.07.14-.07.21-.02.08-.01.15.01.23.02.05.04.09.06.14.05.09.12.16.21.21.05.02.09.04.14.06.04.01.08.01.13.02.05.03.1.05.15.07.05,0,.1.01.15.02.1,0,.2-.03.29-.08.05-.02.1-.07.14-.11,0,0,0,0,.01-.01.02-.02.04-.05.05-.06.01-.02.03-.04.05-.06.03-.05.06-.14.07-.16,0-.01,0-.02,0-.03.02-.13.04-.23,0-.37-.02-.06-.04-.11-.07-.17Z"/><path class="cls-10" d="M203.17,113.8c.08,0,.15-.01.22-.05.07-.02.13-.06.19-.12.06-.05.1-.11.12-.19.04-.07.05-.14.05-.22,0-.05-.01-.1-.02-.15-.03-.1-.08-.18-.15-.26-.04-.03-.08-.06-.12-.09-.09-.05-.19-.08-.29-.08h-.07c-.08,0-.15.01-.22.05-.07.02-.13.06-.19.12-.06.05-.1.11-.12.19-.04.07-.05.14-.05.22,0,.05.01.1.02.15.03.1.08.18.15.26.04.03.08.06.12.09.09.05.19.08.29.08h.07Z"/><path class="cls-10" d="M203.98,115.42s-.08-.06-.12-.09c-.09-.05-.19-.08-.29-.08-.05,0-.1.01-.15.02-.1.03-.18.08-.26.15-.02.02-.04.04-.07.07-.06.05-.1.11-.12.19-.04.07-.05.14-.05.22,0,.08.01.15.05.22.02.07.06.13.12.19.04.03.08.06.12.09.09.05.19.08.29.08.05,0,.1-.01.15-.02.1-.03.18-.08.26-.15l.07-.07c.06-.05.1-.11.12-.19.04-.07.05-.14.05-.22,0-.08-.01-.15-.05-.22-.02-.07-.06-.13-.12-.19Z"/><path class="cls-10" d="M206.48,118.76l-.09-.12c-.07-.07-.16-.12-.26-.15-.05,0-.1-.01-.15-.02-.1,0-.2.03-.29.08-.04.02-.09.05-.13.07-.07.04-.12.09-.16.15-.05.06-.09.12-.1.2-.02.08-.03.15-.01.23,0,.08.03.15.07.21.03.04.06.08.09.12.07.07.16.12.26.15.05,0,.1.01.15.02.1,0,.2-.03.29-.08.04-.02.09-.05.13-.07.07-.04.12-.09.16-.15.05-.06.09-.12.1-.2.02-.08.03-.15.01-.23,0-.08-.03-.15-.07-.21Z"/><path class="cls-10" d="M208.52,120.13c-.74,0-.75,1.16,0,1.16s.75-1.16,0-1.16Z"/><path class="cls-10" d="M212.81,123.31h0c-.01-.05-.03-.1-.06-.15-.04-.07-.09-.12-.15-.16-.05-.05-.12-.09-.2-.11-.06-.02-.11-.02-.17-.01-.06,0-.12,0-.19.02-.05.02-.09.04-.14.06-.09.05-.16.12-.21.21-.03.05-.05.09-.06.14h0s-.02.16-.02.16v.02s0,.09.02.14c0,0,.06.14.06.14h0s.03.04.05.06c.02.02.03.04.05.06,0,0,0,0,0,0,.04.03.08.07.12.09h0s.13.06.14.06h.01c.05,0,.1.01.15.02h.01c.05,0,.11-.01.16-.02h0s.13-.06.14-.06h0s0,0,0,0c.04-.03.08-.06.12-.09h0s.09-.12.09-.12h0s0,0,0,0c0,0,.06-.14.06-.14.02-.05.02-.11.02-.16,0,0-.02-.15-.02-.15ZM212.76,123.62s0,0,0,0c0-.01,0-.03,0-.05,0,.01,0,.03,0,.04Z"/><path class="cls-10" d="M216.94,123.12c-.11-.1-.25-.17-.41-.17-.08,0-.15.01-.22.03-.02,0-.04,0-.07.01-.13.01-.25.01-.38,0-.06-.01-.12-.02-.18-.04-.15-.04-.32-.02-.45.06-.12.07-.23.21-.27.35-.03.15-.03.31.06.45.08.13.2.23.35.27.23.06.47.09.7.08,0,0,0,0,.01,0,.25.14.57.09.77-.11.05-.05.1-.11.13-.18.02-.02.03-.04.04-.06.02-.05.04-.09.06-.14.02-.08.03-.15.01-.23-.02-.12-.07-.25-.16-.33Z"/><path class="cls-10" d="M218.35,123.08c-.74,0-.75,1.16,0,1.16s.75-1.16,0-1.16Z"/><path class="cls-10" d="M222.83,122.51s-.08-.06-.12-.09c-.09-.05-.19-.08-.29-.08h-.07c-.08,0-.15.01-.22.05-.07.02-.13.06-.19.12-.06.05-.1.11-.12.19-.04.07-.05.14-.05.22,0,.05.01.1.02.15.03.1.08.18.15.26.04.03.08.06.12.09.09.05.19.08.29.08h.07c.08,0,.15-.01.22-.05.07-.02.13-.06.19-.12.06-.05.1-.11.12-.19.04-.07.05-.14.05-.22,0-.05-.01-.1-.02-.15-.03-.1-.08-.18-.15-.26Z"/><path class="cls-10" d="M225.3,121.14c-.74,0-.75,1.16,0,1.16s.75-1.16,0-1.16Z"/><path class="cls-10" d="M224.79,94.76v.04c0,.74,1.16.75,1.16,0v-.04c0-.74-1.16-.75-1.16,0Z"/><path class="cls-10" d="M228.38,94.45c-.74,0-.75,1.16,0,1.16s.75-1.16,0-1.16Z"/><path class="cls-10" d="M222.06,94.02c.06,0,.12-.01.19-.02.01,0,.03,0,.04,0,.03,0,.07-.02.1-.04.04,0,.08-.02.11-.04.07-.02.13-.06.19-.12.03-.04.06-.08.09-.12.04-.06.06-.13.07-.2,0,0,0-.02.01-.03,0,0,0-.01,0-.02.02-.06.02-.12.03-.18,0-.01,0-.02,0-.03,0-.03,0-.06-.01-.09,0-.03,0-.06-.01-.09,0-.01,0-.02,0-.03-.02-.06-.04-.11-.07-.17,0,0-.01-.02-.02-.03-.03-.04-.06-.09-.1-.13,0,0,0,0-.01-.01-.05-.05-.1-.1-.17-.13-.05-.02-.1-.04-.15-.06,0,0,0,0-.01,0,0,0-.01,0-.02,0-.03,0-.07,0-.08-.01-.02,0-.06,0-.09-.01,0,0-.01,0-.02,0,0,0,0,0,0,0-.04,0-.12.01-.16.02,0,0-.02,0-.03,0-.02,0-.12.05-.14.06,0,0,0,0,0,0,0,0,0,0-.01,0,0,0,0,0-.01,0-.03.02-.09.07-.12.09,0,0,0,0,0,0,0,0,0,0,0,0-.03.04-.07.08-.1.12,0,0-.01.01-.01.02,0,0,0,0,0,.01-.02.05-.04.1-.06.15,0,0,0,.02,0,.03,0,0,0,.01,0,.02,0,.04-.01.07-.01.11,0,0,0,0,0,0,0,0,0,0,0,.01-.05.09-.08.19-.08.29,0,.08.01.15.05.22.02.07.06.13.12.19.07.07.16.12.26.15.02,0,.05.02.07.02.07.01.15.03.23.02Z"/><path class="cls-10" d="M218.06,92.75c.07.04.14.05.22.05.05,0,.1-.01.15-.02.1-.03.18-.08.26-.15.03-.04.06-.08.09-.12.05-.09.08-.19.08-.29v-.13c0-.08-.01-.15-.05-.22-.02-.07-.06-.13-.12-.19-.05-.06-.11-.1-.19-.12-.07-.04-.14-.05-.22-.05-.05,0-.1.01-.15.02-.1.03-.18.08-.26.15-.03.04-.06.08-.09.12-.05.09-.08.19-.08.29v.13c0,.08.01.15.05.22.02.07.06.13.12.19.05.06.11.1.19.12Z"/><path class="cls-10" d="M215.15,89.7l.04.03c.08.09.18.17.29.2,0,0,.02,0,.03,0,.02,0,.04.02.07.02.04.01.08.02.12.02.04,0,.08.01.11.01.03,0,.07,0,.08-.01.02,0,.06,0,.08-.01,0,0,.01,0,.02,0,.06-.02.12-.04.17-.07.11-.08.15-.12.23-.23.06-.09.09-.21.09-.32,0-.06-.01-.12-.02-.18,0-.03-.03-.07-.04-.1-.01-.03-.02-.06-.04-.09-.03-.05-.07-.09-.11-.14,0,0-.01-.01-.02-.02-.04-.04-.09-.08-.14-.11-.05-.03-.1-.05-.16-.07,0,0-.02,0-.03,0-.13-.02-.22-.03-.35,0-.06.02-.12.05-.17.08-.03.01-.12.05-.13.06,0,0,0,0,0,0,0,0-.11.09-.12.09,0,0,0,0,0,0-.06.05-.1.11-.12.19-.04.07-.05.14-.05.22,0,.08.01.15.05.22.02.07.06.13.12.19Z"/><path class="cls-10" d="M213.69,88.69s0,0,0-.01c0,0,0,0,0,0,0,0,0,0,0,0-.02-.05-.04-.09-.06-.14,0,0,0,0,0,0,0,0,0-.02-.01-.03-.03-.04-.06-.09-.1-.13,0,0,0,0-.01-.01-.04-.03-.08-.07-.13-.1,0,0,0,0,0,0,0,0,0,0,0,0-.05-.02-.09-.04-.14-.06,0,0,0,0,0,0,0,0,0,0-.01,0-.05,0-.11-.02-.16-.02,0,0,0,0,0,0-.13,0-.2.02-.32.09-.03.01-.05.03-.08.05,0,0-.01.01-.02.02-.01,0-.02.02-.03.03,0,0,0,0,0,.01-.08.1-.12.15-.16.28,0,.03-.01.07-.01.09,0,.02-.01.06-.01.09,0,0,0,0,0,0,0,0,0,0,0,0,0,.04.02.12.02.16,0,0,0,.01,0,.02,0,0,0,0,0,.01.02.05.04.1.06.15,0,0,0,0,0,.01,0,0,0,0,0,0,.01.02.04.05.05.06.01.02.03.04.05.06,0,0,0,0,0,.01.04.03.12.1.13.1,0,0,0,0,.01,0,.05.03.1.05.15.06,0,0,0,0,.01,0,.03,0,.08.01.08.01,0,0,.05,0,.08.01,0,0,0,0,0,0,0,0,0,0,0,0,.02,0,.13-.02.16-.02,0,0,0,0,0,0,.03,0,.07-.03.08-.03.01,0,.06-.02.08-.04.04-.03.09-.06.13-.1,0,0,0,0,0,0,.01-.02.08-.1.09-.12,0,0,0,0,0,0,0,0,0,0,0,0,0,0,0,0,0,0,0,0,0,0,0,0,.02-.05.04-.09.06-.14,0,0,0,0,0-.01.01-.05.02-.11.02-.17,0,0,0,0,0-.01,0-.06-.01-.11-.02-.17Z"/><path class="cls-10" d="M211.07,85.96s0,0,0-.01c0,0,0,0,0-.01-.02-.05-.04-.1-.06-.14,0,0,0-.01-.01-.02,0,0,0,0,0,0-.02-.02-.07-.1-.09-.12,0,0,0,0,0,0,0,0,0-.01-.01-.01-.02-.02-.05-.04-.06-.05-.02-.01-.04-.04-.07-.05,0,0-.01,0-.02-.01-.04-.02-.1-.04-.14-.06,0,0,0,0,0,0,0,0-.01,0-.02,0,0,0,0,0-.01,0-.05,0-.11-.02-.16-.02,0,0-.01,0-.02,0,0,0-.01,0-.02,0-.03,0-.06,0-.09.01-.03,0-.06,0-.09.01-.01,0-.03,0-.04.01-.05.02-.1.04-.15.06,0,0,0,0-.01,0,0,0-.01,0-.02.01-.05.03-.09.07-.13.1,0,0-.01.01-.02.02-.03.04-.07.08-.1.12,0,0,0,0,0,0-.02.03-.03.06-.04.09,0,.02-.03.06-.04.09,0,0,0,0,0,.01,0,.03-.02.13-.02.16,0,0,0,0,0,0,0,.08.01.15.05.22.01.04.03.07.05.11.02.04.03.07.05.11.05.09.12.16.21.21,0,0,.01,0,.02.01,0,0,0,0,0,0,.03.01.11.05.14.06,0,0,0,0,.01,0,0,0,0,0,0,0,0,0,0,0,0,0,.04,0,.11.02.16.02,0,0,.02,0,.02,0,0,0,0,0,.01,0,.03,0,.07,0,.08-.01.02,0,.06,0,.08-.01,0,0,.01,0,.02,0,0,0,0,0,.01,0,.05-.02.1-.04.14-.06,0,0,.01,0,.02-.01,0,0,.01,0,.02-.01.04-.03.09-.06.12-.1,0,0,0,0,0,0,.05-.04.08-.1.12-.15.04-.05.06-.13.08-.18,0,0,0-.01,0-.02,0,0,0,0,0,0,0,0,0,0,0,0,0-.05.02-.11.02-.16,0,0,0-.01,0-.02,0,0,0,0,0,0,0-.03-.02-.12-.02-.16Z"/><path class="cls-10" d="M208.09,87.24c.09.05.19.08.29.08.05,0,.1-.01.15-.02.1-.03.18-.08.26-.15.02-.02.04-.04.07-.07.06-.05.1-.11.12-.19.04-.07.05-.14.05-.22,0-.08-.01-.15-.05-.22-.02-.07-.06-.13-.12-.19-.04-.03-.08-.06-.12-.09-.09-.05-.19-.08-.29-.08-.05,0-.1.01-.15.02-.1.03-.18.08-.26.15-.02.02-.04.04-.07.07-.06.05-.1.11-.12.19-.04.07-.05.14-.05.22,0,.08.01.15.05.22.02.07.06.13.12.19.04.03.08.06.12.09Z"/><path class="cls-10" d="M205.02,86.5h0c0-.05-.01-.11-.02-.16h0s0,0,0,0h0s0,0,0-.01c-.02-.05-.04-.09-.06-.14,0,0,0,0,0,0-.04-.07-.09-.12-.15-.16-.06-.05-.12-.09-.2-.11-.08-.02-.16-.03-.23,0-.08,0-.15.03-.21.07-.04.03-.08.06-.12.09-.02.02-.04.05-.06.07,0,0,0,0-.01,0-.06.04-.11.1-.15.16-.02.05-.04.09-.06.14-.03.1-.03.2,0,.31.02.05.04.09.06.14.05.09.12.16.21.21h0s.05.02.07.03c.02,0,.05.02.07.03h0s0,0,.01,0c.05,0,.11.02.16.02h.01s.05,0,.08-.01c.03,0,.05,0,.08,0h0s0,0,0,0,0,0,.01,0h0s.11-.05.14-.06c0,0,0,0,0,0,0,0,0,0,0,0,.05-.03.09-.07.14-.11,0,0,0,0,0,0,.03-.04.07-.08.1-.12,0,0,0-.01.01-.02.01-.02.05-.11.06-.14h0s0,0,0,0c0,0,0,0,0-.01h0c0-.05.01-.11.02-.16,0,0,0,0,0,0s0,0,0-.01Z"/><path class="cls-10" d="M205.85,85.72s.09-.04.14-.06c.07-.04.12-.09.16-.15.04-.04.06-.08.07-.13.04-.07.05-.14.05-.22,0-.05-.01-.1-.02-.15-.02-.05-.04-.09-.06-.14-.04-.07-.09-.12-.15-.16-.06-.05-.12-.09-.2-.1-.09-.02-.17-.03-.26-.05-.08-.02-.15-.03-.23-.01-.08,0-.15.03-.21.07-.05.02-.08.06-.12.09-.05.02-.1.05-.15.09-.06.04-.11.09-.15.16-.04.07-.07.14-.07.21-.02.08-.01.15.01.23.02.05.04.09.06.14.05.09.12.16.21.21.05.02.09.04.14.06.1.03.2.03.31,0,.16-.03.31-.06.47-.09Z"/><path class="cls-10" d="M202.26,86.43c-.05-.09-.12-.16-.21-.21-.05-.02-.09-.04-.14-.06-.09-.02-.18-.02-.27,0-.04,0-.11-.01-.12-.02,0,0,0,0,0,0,0,0,0,0,0,0,0,0,0,0,0,0-.02,0-.14.02-.16.02,0,0,0,0,0,0,0,0,0,0,0,0-.01,0-.13.05-.14.06,0,0,0,0,0,0-.01,0-.05.03-.07.05-.02.01-.05.03-.06.04,0,0,0,0,0,0-.01.01-.08.11-.09.12,0,0,0,0,0,0,0,.01-.03.07-.04.09,0,.02-.02.04-.02.05-.02.06-.02.12-.02.18,0,0,0,.01,0,.02,0,.1.03.2.08.29,0,0,0,0,0,0,0,0,.09.11.09.12,0,0,0,0,0,0,.04.04.08.07.13.1,0,0,.04.02.07.03.02,0,.07.03.08.03,0,0,0,0,0,0,.01,0,.06,0,.09.01.02,0,.06,0,.07,0,0,0,0,0,0,0,0,0,0,0,0,0,.03,0,.13-.02.16-.02,0,0,0,0,0,0,0,0,0,0,0,0,.02,0,.09-.04.07-.03,0,0,.05-.02.07-.03,0,0,0,0,0,0,0,0,0,0,0,0,0,0,.01,0,.02-.02.01,0,.03,0,.04-.01.08-.02.14-.05.2-.1.06-.04.11-.09.15-.16.04-.07.07-.14.07-.21.02-.08.01-.15-.01-.23-.02-.05-.04-.09-.06-.14Z"/><path class="cls-10" d="M197.06,88.62c.14-.04.25-.12.33-.24.06,0,.12-.02.18-.05.07-.02.13-.06.19-.12.06-.05.1-.11.12-.19.04-.07.05-.14.05-.22,0-.05-.01-.1-.02-.15-.03-.1-.08-.18-.15-.26-.04-.03-.08-.06-.12-.09-.09-.05-.19-.08-.29-.08-.09,0-.19.01-.28.04-.02,0-.04.01-.06.02-.06.02-.12.05-.18.08,0,0,0,0,0,0-.05,0-.1.01-.15.02-.1.03-.18.08-.26.15-.08.09-.13.17-.16.28-.03.11-.03.23,0,.34.05.17.16.31.3.4.15.09.34.12.5.07Z"/><path class="cls-10" d="M194.19,89.29c0-.08-.03-.15-.07-.21-.03-.04-.06-.08-.09-.12-.07-.07-.16-.12-.26-.15-.05,0-.1-.01-.15-.02-.1,0-.2.03-.29.08-.04.02-.08.04-.12.07-.05.01-.11.03-.16.06-.07.05-.14.1-.21.16-.07.04-.12.09-.16.15-.05.06-.09.12-.1.2-.02.08-.03.15-.01.23,0,.08.03.15.07.21.03.04.06.08.09.12.07.07.16.12.26.15.05,0,.1.01.15.02.1,0,.2-.03.29-.08.04-.03.09-.05.13-.08.08-.04.17-.08.25-.12.05-.03.1-.07.13-.11.05-.03.09-.07.12-.12.05-.06.09-.12.1-.2.02-.08.03-.15.01-.23Z"/><path class="cls-10" d="M143.12,103.58c-.05-.09-.12-.16-.21-.21,0,0,0,0-.01,0-.02-.01-.05-.02-.07-.03-.02-.01-.05-.02-.07-.03,0,0,0,0,0,0,0,0,0,0-.01,0-.03,0-.07,0-.08-.01-.01,0-.03,0-.05,0-.03-.02-.07-.03-.1-.04-.05,0-.1-.01-.15-.02-.1,0-.2.03-.29.08,0,0,0,0,0,0,0,0-.11.08-.12.09,0,0,0,0,0,0,0,0,0,0,0,0,0,0-.09.11-.09.12,0,0,0,0,0,0,0,0,0,0,0,0,0,.01-.06.13-.06.14,0,0,0,0,0,0,0,0,0,0,0,0,0,.02-.01.09-.01.08,0,0,0,.05-.01.08,0,.03,0,.07.01.09,0,.02,0,.07.01.1,0,0,0,0,0,0,.01.03.05.11.06.14,0,0,0,0,0,0,0,0,0,.01.01.02.02.02.04.05.05.07.01.02.03.05.05.07.02.02.05.04.07.06.02.01.05.04.07.06,0,0,0,0,0,0,.03.02.1.05.14.06,0,0,0,0,.01,0,0,0,0,0,0,0,.02,0,.13.02.16.02,0,0,0,0,0,0,.01,0,.02,0,.03,0,.05,0,.11-.01.16-.02,0,0,0,0,0,0,0,0,0,0,.01,0,0,0,0,0,.01,0,.05-.02.1-.04.15-.06.02,0,.04-.02.06-.04.05-.03.1-.07.14-.11.01,0,.02-.02.03-.02.07-.07.12-.16.15-.26.02-.08.03-.15.01-.23,0-.08-.03-.15-.07-.21Z"/><path class="cls-10" d="M137.4,104.16s-.06-.04-.09-.06c0,0,0,0-.01,0-.14-.07-.29-.1-.45-.06-.3.07-.57.23-.81.43-.12.1-.21.22-.3.34-.09.13-.15.27-.21.41-.03.1-.03.2,0,.31.03.1.08.18.15.26.07.07.16.12.26.15.1.03.2.03.31,0,.16-.02.3-.08.44-.15.14-.06.27-.16.39-.26.12-.1.22-.22.31-.35.09-.13.16-.27.21-.42,0-.05.01-.1.02-.15,0-.05-.01-.1-.02-.15-.03-.12-.11-.22-.21-.3Z"/><path class="cls-10" d="M131.74,108.67s0-.03,0-.05c-.01-.07-.05-.13-.08-.19-.05-.09-.12-.16-.21-.21-.01,0-.02,0-.03-.01-.02-.02-.05-.04-.07-.05-.07-.05-.16-.09-.25-.12-.02,0-.04-.01-.06-.01-.06-.01-.13-.02-.2-.02-.15,0-.26.04-.39.1-.01,0-.03.02-.04.02-.05.03-.1.07-.14.12-.05.05-.1.12-.14.19,0,.02-.02.04-.02.06-.03.03-.06.05-.09.08-.04.05-.08.1-.12.15-.01.02-.02.04-.03.06-.08.15-.12.31-.12.48,0,.08.01.17.03.24.02.08.05.16.09.23.11.18.28.32.49.37.38.11.78-.07,1.06-.32.04-.03.07-.06.1-.1.06-.07.12-.14.16-.23.08-.16.14-.34.12-.53,0-.09-.02-.18-.05-.26,0,0,0,0,0,0Z"/><path class="cls-10" d="M127.35,112.29s0,0,0,0c0,.01,0,.01,0,0Z"/><path class="cls-10" d="M128.54,111.96s0-.05-.01-.08c0-.03,0-.05-.01-.08-.02-.08-.05-.14-.1-.2-.02-.03-.04-.05-.06-.07,0-.01-.02-.03-.03-.04-.07-.07-.16-.12-.26-.15-.03,0-.08-.01-.08-.01,0,0-.06-.01-.09-.01-.05,0-.11.01-.16.02,0,0,0,0,0,0,0,0,0,0,0,0-.01,0-.13.05-.14.06,0,0,0,0,0,0,0,0,0,0,0,0,0,0,0,0,0,0-.01,0-.1.08-.12.09,0,0,0,0,0,0,0,0,0,0,0,0,0,0,0,0,0,0-.01.02-.08.1-.09.12,0,0,0,0,0,0,0,0,0,0,0,0,0,0,0,0,0,0,0,0,0,0,0,0-.01.02-.02.06-.03.07,0,.01-.02.05-.03.07,0,0,0,.01,0,.02,0-.06-.02.11-.02.16,0,0,0,0,0,0,0,.01.02.14.02.15,0,0,0,0,0,0,0,0,0,0,0,0,0,0,0,0,0,0,.01.03.05.12.06.15,0,0,0,0,0,0,.03.04.06.08.09.12,0,0,0,0,0,0,.02.02.08.06.06.05,0,0,.04.03.06.05,0,0,0,0,0,0,.05.03.1.05.15.06.03,0,.08.01.08.01.01,0,.06.01.08.01,0,0,0,0,0,0,0,0,0,0,0,0,.02,0,.14-.02.15-.02,0,0,0,0,0,0,0,0,.01,0,.01,0,0,0,.1-.04.14-.06,0,0,0,0,0,0,0,0,0,0,0,0,.02-.01.1-.08.12-.09,0,0,0,0,0,0,0,0,0,0,0,0,0,0,0,0,0,0,0,0,0,0,0,0,.03-.04.06-.08.09-.12h0s0,0,0,0c0,0,0,0,0,0,0-.01.05-.13.06-.14,0,0,0,0,0,0,0,0,0,0,0,0,0,0,0,0,0,0,0-.05.01-.1.02-.15h0s0,0,0,0c0,0,0,0,0,0,0,0,0,0,0,0Z"/><path class="cls-10" d="M124.25,114.1c-.1-.13-.23-.19-.38-.22-.07-.02-.14-.04-.21-.04-.19-.02-.37.04-.53.14-.16.04-.31.1-.45.19-.3.17-.59.45-.7.79-.1.34.08.71.4.84.2.08.4.08.61.03.24-.06.46-.17.66-.31.33-.13.66-.32.77-.68.06-.22.02-.44-.09-.62-.02-.04-.04-.08-.07-.12Z"/><path class="cls-10" d="M118.55,117.04c-.07-.07-.16-.12-.26-.15-.08-.02-.17-.03-.25-.05-.08-.02-.15-.03-.23-.01-.08,0-.15.03-.21.07-.07.04-.12.09-.16.15-.05.05-.08.11-.1.18-.01.01-.02.03-.03.04,0,0,0,.01-.01.02,0,.01-.02.03-.02.04-.05.09-.08.19-.08.29,0,.1.03.2.08.29.05.09.12.16.21.21.09.05.19.08.29.08.02,0,.04,0,.06,0,0,0,.02,0,.03,0,.06,0,.12-.01.18-.02.02,0,.04,0,.05-.01,0,0,.02,0,.03,0,.05-.02.11-.04.16-.07.08-.04.15-.1.21-.15.01-.01.03-.02.04-.04.05-.05.09-.1.12-.16.05-.09.08-.19.08-.29,0-.08-.01-.15-.05-.22-.02-.07-.06-.13-.12-.19Z"/><path class="cls-10" d="M112.32,119.04c-.21-.11-.45-.16-.69-.14,0,0-.02,0-.02,0-.08-.02-.15-.03-.23-.01-.08,0-.15.03-.21.07-.1.07-.19.16-.24.28-.08.07-.15.16-.21.25-.1.18-.1.4,0,.58.11.18.29.28.5.29.07,0,.13,0,.19,0,.11-.01.23-.03.34-.06.14-.04.27-.1.39-.18.01,0,.03,0,.04,0,.13-.04.28-.14.35-.27.07-.13.11-.3.06-.45-.05-.14-.13-.27-.27-.35Z"/><path class="cls-10" d="M106.54,119.83c-.03-.06-.08-.12-.12-.17-.05-.05-.11-.1-.17-.13,0,0-.02-.01-.03-.02-.05-.03-.11-.05-.17-.07-.07-.03-.15-.03-.22-.04-.02,0-.05,0-.07,0-.06,0-.12.01-.18.03-.03,0-.07.03-.1.04-.03.01-.07.03-.1.04-.03.02-.06.04-.09.07-.09.03-.18.08-.24.14-.07.07-.12.16-.15.26-.05.19,0,.42.15.56.07.07.16.14.25.18.06.03.14.06.21.08.08.02.15.03.23.03.03,0,.06,0,.08,0,.04,0,.07-.01.11-.02.02,0,.03,0,.05,0,.08,0,.15-.01.22-.05.07-.02.13-.06.19-.12,0,0,.02-.02.02-.03.05-.04.1-.09.13-.15.05-.09.08-.19.08-.29,0-.06-.01-.12-.03-.18-.01-.06-.04-.11-.07-.17Z"/><path class="cls-10" d="M101.21,119.43s-.06-.08-.09-.12c-.07-.07-.16-.12-.26-.15-.05,0-.1-.01-.15-.02-.1,0-.2.03-.29.08-.04.02-.09.05-.13.07-.07.04-.12.09-.16.15-.05.06-.09.12-.1.2-.02.08-.03.15-.01.23,0,.08.03.15.07.21.03.04.06.08.09.12.07.07.16.12.26.15.05,0,.1.01.15.02.1,0,.2-.03.29-.08.04-.02.09-.05.13-.07.07-.04.12-.09.16-.15.05-.06.09-.12.1-.2.02-.08.03-.15.01-.23,0-.08-.03-.15-.07-.21Z"/><path class="cls-10" d="M131.9,86.69c-.17-.09-.34-.17-.51-.26-.12-.06-.24-.12-.36-.17-.08-.03-.17-.04-.26-.05-.06,0-.13,0-.2.02-.07.01-.13.04-.19.07-.06.03-.12.08-.17.12-.09.09-.14.19-.18.3-.05.14-.04.3-.01.44.01.07.05.14.08.21.03.07.08.13.13.18.11.11.25.19.41.24,0,0,0,0,.01,0,.06.03.12.05.17.07.13.05.27.06.41.07.07,0,.14,0,.21-.02.05,0,.1,0,.15,0,.12-.02.25-.07.33-.16.05-.05.09-.12.12-.18.03-.03.05-.06.07-.09.07-.13.11-.3.06-.45-.04-.14-.13-.28-.27-.35Z"/><path class="cls-10" d="M127.4,86.26c.07-.03.14-.05.21-.09.07-.04.12-.09.16-.15.05-.06.09-.12.1-.2,0-.05.01-.1.02-.15,0-.1-.03-.2-.08-.29-.08-.13-.16-.2-.28-.28-.07-.05-.15-.08-.23-.11-.05-.02-.11-.03-.16-.03,0,0-.01,0-.02,0-.07-.02-.15-.03-.22-.03-.02,0-.05,0-.07,0-.07,0-.14.01-.21.03-.07.02-.13.05-.2.08-.06.03-.12.08-.17.12-.03.04-.06.08-.09.12-.04.07-.07.14-.07.21-.01.05-.01.1,0,.15,0,.08.03.15.07.21.03.07.09.13.14.19.05.06.12.1.18.15.14.09.29.12.45.13.02,0,.04,0,.06,0,0,0,.02,0,.02,0,.03,0,.05,0,.08,0,.07,0,.15-.01.22-.03.03,0,.05-.02.08-.03Z"/><path class="cls-10" d="M122.24,86.15s.06-.01.09-.02c.07-.02.14-.06.21-.09.03-.01.05-.03.08-.04.07-.04.13-.09.18-.14.02-.02.05-.04.07-.06.04-.04.08-.09.1-.15.05-.05.08-.12.1-.19.03-.15.03-.31-.06-.45-.08-.12-.2-.24-.35-.27-.08-.02-.16-.03-.25-.03-.03,0-.07,0-.1,0-.12.01-.23.02-.34.07-.07.03-.15.06-.22.1-.07.04-.13.09-.19.14-.09.07-.16.17-.22.26-.05.09-.08.19-.08.29,0,.08.01.15.05.22.02.07.06.13.12.19.07.07.16.12.26.15.1.02.22.04.32.03.08,0,.15-.02.23-.03Z"/><path class="cls-10" d="M119.04,86.53s-.08-.06-.12-.09c-.09-.05-.19-.08-.29-.08-.05,0-.1.01-.15.02-.1.03-.18.08-.26.15-.02.02-.04.04-.07.07-.06.05-.1.11-.12.19-.04.07-.05.14-.05.22,0,.08.01.15.05.22.02.07.06.13.12.19.04.03.08.06.12.09.09.05.19.08.29.08.05,0,.1-.01.15-.02.1-.03.18-.08.26-.15l.07-.07c.06-.05.1-.11.12-.19.04-.07.05-.14.05-.22,0-.08-.01-.15-.05-.22-.02-.07-.06-.13-.12-.19Z"/><path class="cls-10" d="M115.18,89.02c-.11-.02-.22-.04-.33-.02-.11.01-.22.02-.32.07-.1.04-.2.08-.29.15-.09.06-.17.13-.24.21-.12.14-.22.29-.28.47-.02.04-.04.07-.06.11-.04.07-.07.14-.07.21-.02.08-.01.15.01.23.02.07.06.15.11.21.03.09.07.17.14.23.05.06.11.1.19.12.07.04.14.05.22.05.1,0,.2-.03.29-.08.11-.07.21-.16.31-.25.1-.09.18-.2.26-.31.08-.1.14-.22.2-.34.12-.07.23-.21.26-.34.03-.15.03-.31-.06-.45-.08-.12-.2-.24-.35-.27Z"/><path class="cls-10" d="M110.87,93.42c.07.07.16.12.26.15.02,0,.04,0,.07.01.08.02.15.03.23.01.08,0,.15-.03.21-.07.07-.04.12-.09.16-.15.05-.06.09-.12.1-.2,0-.05.01-.1.02-.15,0-.1-.03-.2-.08-.29-.03-.04-.06-.08-.09-.12-.07-.07-.16-.12-.26-.15-.02,0-.04,0-.07-.01-.08-.02-.15-.03-.23-.01-.08,0-.15.03-.21.07-.07.04-.12.09-.16.15-.05.06-.09.12-.1.2,0,.05-.01.1-.02.15,0,.1.03.2.08.29.03.04.06.08.09.12Z"/><path class="cls-10" d="M108.21,95.09c-.05-.06-.11-.1-.19-.12-.07-.04-.14-.05-.22-.05-.05,0-.1.01-.15.02-.1.03-.18.08-.26.15-.03.04-.06.08-.09.12-.05.09-.08.19-.08.29v.07c0,.08.01.15.05.22.02.07.06.13.12.19.05.06.11.1.19.12.07.04.14.05.22.05.05,0,.1-.01.15-.02.1-.03.18-.08.26-.15.03-.04.06-.08.09-.12.05-.09.08-.19.08-.29v-.07c0-.08-.01-.15-.05-.22-.02-.07-.06-.13-.12-.19Z"/><path class="cls-10" d="M103.53,97.97s-.04-.04-.07-.07c-.05-.06-.11-.1-.19-.12-.07-.04-.14-.05-.22-.05-.08,0-.15.01-.22.05-.07.02-.13.06-.19.12l-.09.12c-.05.09-.08.19-.08.29,0,.05.01.1.02.15.03.1.08.18.15.26.02.02.04.04.07.07.05.06.11.1.19.12.07.04.14.05.22.05.08,0,.15-.01.22-.05.07-.02.13-.06.19-.12.03-.04.06-.08.09-.12.05-.09.08-.19.08-.29,0-.05-.01-.1-.02-.15-.03-.1-.08-.18-.15-.26Z"/><path class="cls-10" d="M99.04,98.73c-.74,0-.75,1.16,0,1.16s.75-1.16,0-1.16Z"/><path class="cls-10" d="M133.7,105.86s0-.05-.01-.08c0,0,0,0,0-.01-.03-.11-.09-.21-.17-.29-.08-.08-.11-.09-.2-.13-.02,0-.06-.03-.09-.04-.03,0-.06,0-.08-.01-.02,0-.05,0-.08-.01,0,0,0,0-.01,0,0,0,0,0,0,0-.03,0-.06,0-.1-.01-.1,0-.2.03-.29.08-.05.03-.09.06-.13.1,0,0,0,0,0,0,0,0,0,0,0,0,0,0,0,0,0,0-.03.04-.06.08-.09.12,0,0,0,.01-.01.02-.01.02-.02.06-.03.08,0,.02-.02.05-.03.08,0,0,0,.01,0,.02,0,.03,0,.06-.01.08,0,.02,0,.05-.01.08,0,0,0,0,0,.01,0,0,0,.01,0,.02,0,.06.01.12.02.17,0,0,0,.01,0,.02,0,.03.02.05.03.08,0,.02.02.05.03.08,0,0,0,.01.01.02.03.04.06.09.1.13.04.04.1.08.13.1,0,0,.01,0,.02.01,0,0,0,0,0,0,.04.02.1.05.14.06,0,0,0,0,.01,0,0,0,0,0,0,0,.03,0,.07,0,.08.01.02,0,.05,0,.08.01,0,0,.01,0,.02,0,.04,0,.12,0,.17-.02.05-.02.11-.04.16-.07,0,0,.01,0,.02-.01.02-.01.09-.07.13-.1.04-.04.07-.09.1-.13,0,0,0-.01.01-.02,0,0,0,0,0,0,.01-.02.02-.06.03-.07,0-.02.02-.05.03-.07,0,0,0-.01,0-.02.01-.06.02-.12.02-.17,0,0,0-.01,0-.02,0-.03,0-.06-.01-.08Z"/><path class="cls-15" d="M187.59,89.52l-.15-.15c-.16-.17-.34-.29-.56-.36-.21-.11-.43-.16-.67-.15-.24,0-.46.04-.67.15-.22.07-.4.19-.56.36l-.27.35c-.16.27-.24.56-.24.88l.06.46c.08.29.23.55.45.77l.15.15c.16.17.34.29.56.36.21.11.43.16.67.15.24,0,.46-.04.67-.15.22-.07.4-.19.56-.36l.27-.35c.16-.27.24-.56.24-.88l-.06-.46c-.08-.29-.23-.55-.45-.77h0Z"/><path class="cls-15" d="M145.83,93.91h.15c.24,0,.46-.04.67-.15.22-.07.4-.19.56-.36.17-.16.29-.34.36-.56.11-.21.16-.43.15-.67l-.06-.46c-.08-.29-.23-.55-.45-.77l-.35-.27c-.27-.16-.56-.24-.88-.24h-.15c-.24,0-.46.04-.67.15-.22.07-.4.19-.56.36-.17.16-.29.34-.36.56-.11.21-.16.43-.15.67l.06.46c.08.29.23.55.45.77l.35.27c.27.16.56.24.88.24h0Z"/><path class="cls-11" d="M195.89,41.61l-.46-.99c-22.54-7.66-37.5-5.75-46.8-3.01-10.13,2.98-14.34,7.26-14.54,7.46l-.03,1.29-.3.09c.09.04,9.03,4.38,21.11,5.97,2.65.35,5.59.58,8.71.58,10.05,0,22.02-2.41,32.63-11.06l-.2-.25-.12-.1ZM155.06,51.31c-9.89-1.3-17.64-4.46-20.03-5.52,1.56-1.34,6.15-4.81,14.01-7.11,8.98-2.63,24.17-4.22,45.81,2.92-13.44,10.57-29.02,11.14-39.79,9.71Z"/><path class="cls-19" d="M194.85,41.6c-13.44,10.57-29.02,11.14-39.79,9.71-9.89-1.3-17.64-4.46-20.03-5.52,1.56-1.34,6.15-4.81,14.01-7.11,8.98-2.63,24.17-4.22,45.81,2.92Z"/><path class="cls-15" d="M193.52,4.69l-28.15,47.66s-7.12-.1-7.4-.17L187.52,1.2l6,3.49Z"/><path class="cls-7" d="M194.69,4.3l-.48.8-28.4,47.61c-.24-.12-.54-.01-.79-.13l28.49-47.88-6-3.49-29.55,50.99c-.08-.02-1,.72-1.2.68L186.82.8l.46-.8.7.41,6.02,3.49.7.41Z"/><path class="cls-5" d="M181.11,16.87c-.14,0-.28-.03-.41-.11-.41-.23-.56-.75-.33-1.16l7.08-12.69c.23-.41.75-.56,1.16-.33.41.23.56.75.33,1.16l-7.08,12.69c-.16.28-.45.44-.74.44Z"/><path class="cls-13" d="M195.9,41.63c-.05.04-.11.09-.16.13-.02.02-.04.03-.06.05,0,0-.02.02-.03.03,0,0,0,0,0,0,0,0-.01.01-.02.02,0,0-.01,0-.02.01,0,0,0,0,0,0-.09.08-.19.15-.28.23-.09.07-.19.15-.28.22-.09.07-.19.15-.29.22-.1.08-.2.15-.3.22-.1.08-.2.15-.31.23-.1.08-.21.15-.31.22-.09.06-.18.13-.27.19-.05.03-.09.06-.14.1-.19.13-.38.26-.57.39-.11.07-.23.15-.34.22-.12.08-.23.15-.35.22-.24.15-.47.3-.72.45-.25.15-.49.3-.75.44-.26.15-.53.3-.8.45-.26.14-.52.28-.78.42,0,0,0,0,0,0-.27.14-.54.28-.81.42,0,0-.01,0-.02,0-.27.14-.54.27-.82.4-.28.14-.57.27-.87.4-.15.07-.29.13-.44.2-.15.07-.3.13-.45.2-.6.26-1.22.52-1.85.76l-.48.18c-.16.06-.32.12-.48.18l-.99.35c-.17.06-.33.12-.5.17l-1.02.33c-.17.05-.34.11-.52.16-.17.05-.35.11-.52.16-.18.05-.35.1-.53.15-.18.05-.36.1-.54.15l-.84.22h-.04s-.53.14-.53.14l-.37.09c-.14.03-.28.07-.42.1l-.56.13c-.19.04-.38.08-.57.12-.19.04-.38.08-.57.12-.19.04-.38.08-.58.11l-.59.11h-.08c-.17.04-.33.07-.5.1l-1.19.19c-.4.06-.8.12-1.21.17l-.84.1c-.13.02-.26.03-.39.05l-.56.06c-.21.02-.43.04-.64.06l-1.95.15c-.9.05-1.81.08-2.71.08-.22,0-.44,0-.66,0-.16,0-.32,0-.48,0-.19,0-.38,0-.57-.02-.19,0-.38-.01-.57-.02-.44-.02-.87-.04-1.31-.07-.13,0-.27-.02-.4-.03-.19-.01-.38-.03-.57-.05s-.38-.03-.57-.05c-.19-.02-.38-.04-.57-.06-.14-.01-.27-.03-.41-.04-.16-.02-.33-.04-.49-.06-.23-.03-.45-.06-.68-.09-.23-.03-.45-.06-.68-.09-.19-.03-.37-.05-.56-.08-.09-.01-.17-.02-.25-.04-.02,0-.03,0-.05,0-.14-.02-.29-.04-.43-.06,0,0,0,0-.01,0-.23-.03-.46-.07-.68-.11-.14-.02-.28-.05-.43-.07-.3-.05-.61-.11-.9-.16-.27-.05-.55-.1-.81-.16-.09-.02-.18-.03-.27-.05-.18-.03-.36-.07-.53-.11-.09-.02-.17-.04-.26-.06-.18-.04-.36-.08-.53-.12-.44-.1-.88-.2-1.31-.3l-.51-.12c-.14-.03-.27-.06-.41-.1-.37-.09-.74-.19-1.11-.28-.3-.08-.6-.16-.9-.24-.03,0-.06-.02-.08-.02-.49-.13-.97-.27-1.44-.41-.31-.09-.62-.19-.93-.28-.15-.05-.31-.09-.46-.14-.15-.05-.3-.09-.45-.14-.15-.05-.3-.09-.44-.14s-.29-.09-.43-.14c-.15-.05-.29-.09-.43-.14-.14-.04-.27-.09-.4-.13,0,0-.01,0-.02,0-.28-.09-.55-.19-.82-.28-.8-.28-1.56-.55-2.27-.81-.13-.05-.26-.1-.39-.15-.21-.08-.41-.15-.61-.23,0,0-.02,0-.03-.01-.12-.05-.25-.09-.36-.14-.09-.03-.18-.07-.27-.11-.49-.19-.94-.37-1.36-.54v-.08s0-.01,0-.01c0,0,0-.01,0-.02.01-.15.03-.3.05-.47,0-.06.01-.13.02-.19,0-.03,0-.07.01-.1.01-.1.02-.2.03-.3h0s0-.06,0-.09c0-.05.01-.1.02-.15,0,0,0-.02,0-.03.02-.13.03-.26.05-.39,0-.03,0-.07.01-.1s0-.07.01-.11c.01-.08.02-.15.03-.23v-.06s.02-.05.02-.05l.28-1.66c1.59-8.24,7.34-24.48,27.89-24.63,4.82-.04,9.28.71,13.27,2.19,2.05.77,4.02,1.74,5.84,2.91.51.33,1.01.67,1.48,1.01.36.26.71.53,1.05.79,0,0,0,0,0,0,.19.15.38.3.56.46.14.12.28.24.42.36.08.06.15.13.23.2.12.1.24.21.35.31.32.29.64.59.95.89.12.12.25.25.37.37,2.89,2.94,4.93,6.12,6.32,8.87l.13.26s0,0,0,0c.09.19.18.37.27.55.04.09.09.19.13.28.04.09.09.19.13.28,0,0,0,0,0,0,.1.22.19.43.28.63.04.1.09.21.13.31.11.25.21.49.3.73.05.12.1.25.15.37.05.12.09.25.14.37.05.14.1.28.15.41.05.13.09.26.14.39l.36.77.2.43h0s.03.08.03.08v.02h0l.03.07Z"/><path class="cls-9" d="M198.96,40.37s-.01-.05-.02-.08c0-.01,0-.03-.01-.04,0-.03-.02-.05-.03-.07-.01-.02-.02-.05-.04-.07-.01-.02-.02-.03-.03-.05-.02-.04-.05-.07-.08-.1-.05-.04-.09-.08-.15-.11-.03-.02-.05-.03-.09-.05l-.05-.02-1.96-.9c-1.63-4.37-5.43-12.02-13.3-17.37-.22-.15-.45-.3-.68-.45-.03-.01-.05-.03-.07-.04-.21-.13-.41-.26-.62-.39-.5-.3-1.01-.59-1.52-.87-.17-.09-.34-.18-.52-.27-.1-.05-.21-.11-.31-.16-.33-.17-.66-.32-1-.48-.19-.09-.39-.18-.58-.26-.19-.08-.39-.17-.58-.25-.26-.11-.52-.21-.78-.31-.08-.03-.15-.06-.23-.09-.19-.07-.38-.14-.57-.2-4.03-1.42-8.49-2.13-13.27-2.09-22.85.16-28.38,19.08-29.7,27.23v.07s-2.15,2.08-2.15,2.08c-.01.01-.02.02-.03.03-.01.01-.03.03-.04.04-.01.02-.03.03-.04.05-.01.02-.03.04-.04.06,0,.01-.01.03-.02.04,0,.02-.02.04-.03.06-.01.04-.03.08-.03.11,0,.02,0,.03,0,.05,0,.01,0,.03,0,.05,0,.02,0,.05,0,.07v.05s0,.03,0,.04h0s.47,7.38.47,7.38c.02.3.2.56.47.68l2.36,1.08h0s.36.17.36.17c.01,0,.2.1.56.25.23.1.53.23.91.38.02,0,.05.02.07.03.08.03.15.06.23.09.32.13.69.27,1.09.42.16.06.34.12.52.19.1.04.19.07.29.11.17.06.34.12.52.19.21.07.43.14.65.22.07.03.15.05.23.08.3.1.62.2.95.31.19.06.39.12.58.18.24.08.49.15.74.23.12.04.25.08.38.11.26.08.52.15.79.23.27.08.55.15.82.23.14.04.28.08.43.12.28.07.56.14.84.22.16.04.32.09.48.12.15.04.3.08.46.11.15.04.31.07.46.11.28.07.56.13.84.2.09.02.18.04.27.06.11.03.22.05.34.07.16.04.33.07.5.11.34.07.67.14,1.02.22.35.07.69.14,1.05.21.65.12,1.31.25,1.98.36.16.03.32.06.48.08.23.04.45.08.69.11.28.05.57.09.86.13.17.03.35.05.53.08.53.08,1.06.15,1.61.22.36.05.73.09,1.1.13.16.02.32.03.47.05.26.03.53.06.79.08.3.03.59.06.89.08.16.01.31.03.47.04.49.04.99.08,1.49.11,1.1.08,2.22.13,3.36.17.49.02.97.02,1.45.02.56,0,1.12-.01,1.67-.03.22,0,.45-.02.67-.03.07,0,.13,0,.19,0,.26-.01.51-.03.77-.05.21-.02.43-.03.65-.05.29-.03.58-.05.86-.09.08,0,.16-.02.24-.03.41-.05.81-.1,1.2-.15.14-.02.28-.04.43-.06.24-.03.47-.07.7-.11.18-.03.36-.06.55-.09.24-.04.49-.09.73-.14.23-.04.46-.09.68-.14.03,0,.07-.01.1-.02.21-.05.41-.09.62-.14.02,0,.04,0,.06-.01.19-.04.38-.09.57-.13.08-.02.15-.03.23-.06.41-.1.81-.2,1.21-.32.26-.07.51-.14.76-.22.18-.05.35-.11.53-.16.22-.07.45-.14.66-.21.42-.14.83-.27,1.23-.41.4-.14.79-.28,1.17-.43.17-.06.34-.13.5-.19.03,0,.05-.02.07-.03.18-.07.37-.15.55-.22.3-.12.6-.25.89-.38.12-.05.24-.11.35-.16.02,0,.04-.01.06-.03.07-.03.14-.06.2-.09.01,0,.03-.01.05-.02.04-.02.09-.04.12-.05.62-.28,1.21-.57,1.75-.84.17-.08.33-.17.49-.25h0c.16-.09.32-.17.48-.25.09-.05.18-.1.26-.14.09-.05.17-.09.26-.14.52-.28,1-.56,1.46-.84.1-.06.2-.12.31-.18.75-.45,1.42-.89,2.01-1.3.06-.04.12-.08.18-.12.13-.09.26-.18.39-.27.38-.27.72-.52,1.02-.75.36-.27.67-.51.91-.71.43-.35.67-.57.71-.6l.22-.2h0s2.79-2.58,2.79-2.58c.16-.15.26-.37.26-.59v-6.86c0-.05,0-.11-.02-.17ZM196.09,40.18s0,.02,0,.03c0-.01,0-.02-.01-.03h0ZM134.27,43.67h0s0,0,0,0v-.06s.02-.05.02-.05c0-.02,0-.03,0-.05h0s0-.07.01-.1c0-.01,0-.03,0-.05,0-.03,0-.05,0-.05,0,0,0,0,0,0l.03-.18c.06-.38.14-.79.22-1.22.14-.76.33-1.58.55-2.45.04-.17.09-.34.13-.51.04-.15.08-.3.13-.46.04-.15.09-.31.14-.47.04-.15.09-.3.14-.45,0-.01,0-.02.01-.04.05-.15.1-.3.15-.46.03-.11.07-.21.11-.32.03-.1.06-.19.1-.29,0-.01,0-.02.01-.03.04-.11.08-.22.12-.33.18-.5.37-1.01.58-1.52.06-.16.13-.32.2-.48.07-.16.14-.32.21-.49.08-.18.16-.35.24-.53.08-.17.16-.34.24-.51.09-.19.18-.37.28-.56.17-.35.35-.69.55-1.03.06-.11.12-.22.18-.32.05-.09.1-.17.15-.26.06-.1.12-.2.18-.3.32-.54.66-1.07,1.02-1.6.12-.18.24-.35.37-.53.06-.09.12-.17.18-.25.01-.02.02-.03.03-.05.07-.09.14-.19.22-.28.11-.14.22-.29.33-.43.09-.11.18-.22.27-.33.09-.1.17-.2.25-.31.04-.05.08-.1.12-.15.15-.17.3-.34.45-.51.02-.03.05-.06.07-.08.13-.14.26-.29.4-.43.07-.08.15-.15.22-.23.06-.06.11-.12.17-.18.05-.05.11-.11.16-.16,0,0,0,0,0-.01.03-.03.07-.07.11-.1.15-.15.31-.3.47-.44.08-.07.16-.14.24-.22.16-.15.32-.29.49-.43.08-.07.16-.14.25-.21s.17-.14.26-.21c.17-.14.34-.28.52-.41.18-.14.35-.27.54-.4.18-.13.37-.26.55-.39.19-.13.38-.25.57-.37.1-.06.19-.12.29-.18.14-.09.3-.18.45-.27.15-.09.3-.18.45-.26.2-.11.41-.23.62-.34.21-.11.42-.22.64-.32.22-.11.43-.21.66-.31,1.22-.55,2.53-1.02,3.94-1.39.26-.07.52-.13.78-.2.26-.06.53-.12.8-.18.23-.05.46-.09.69-.13.01,0,.02,0,.03,0,.24-.04.47-.08.72-.12.07-.01.14-.02.22-.03.28-.04.57-.08.86-.12.22-.03.44-.05.66-.07.25-.03.51-.05.76-.07.12,0,.24-.02.35-.03.19-.01.38-.03.57-.04.12,0,.23-.01.35-.02.09,0,.19,0,.28-.01.04,0,.09,0,.13,0,.07,0,.14,0,.21,0,.04,0,.08,0,.12,0,.09,0,.18,0,.28,0,.13,0,.26,0,.4,0h0c.13,0,.26,0,.39,0,.25,0,.51,0,.76,0,.1,0,.2,0,.3,0,.06,0,.12,0,.17,0,.17,0,.34,0,.51.02.23,0,.45.02.68.03.05,0,.11,0,.16,0,.28.02.56.03.84.06h0c.56.05,1.12.1,1.67.17h0c.55.07,1.09.15,1.63.24.27.05.53.1.8.15h0c.53.1,1.06.22,1.58.34.26.06.52.13.78.2.51.14,1.02.29,1.52.45s.99.33,1.48.51c2.06.77,4.02,1.74,5.84,2.91.13.09.27.17.4.26.09.06.19.12.28.19.15.1.3.2.44.31.12.09.24.17.36.26.18.13.35.26.53.39.17.13.35.27.52.4,0,0,0,0,0,0,.19.15.38.3.56.45.14.12.28.24.42.36.08.06.16.13.23.2.04.04.09.07.13.11.08.07.15.13.22.2h0c.32.3.64.59.95.89.12.12.25.24.37.37,2.91,2.94,4.94,6.13,6.32,8.87.04.09.09.18.13.26,0,0,0,0,0,0,.09.19.18.37.27.55.02.05.04.09.07.14.02.05.04.09.07.14.04.09.09.19.13.28,0,0,0,0,0,0,.1.22.19.43.28.63.04.11.09.21.13.31.11.25.21.49.3.73.05.12.1.25.14.37.05.12.1.25.14.37.04.11.08.21.12.31.01.03.02.07.03.1.05.13.09.26.14.39h0s0,0,0,0c0,0,0,0,.01.01.01,0,.03.02.05.03.01.01.03.02.04.03.06.04.15.09.25.14.09.05.18.1.28.15.09.05.17.09.25.14l.12.06s.02.01.03.02l.14.07.1.05s.03.02.05.03c.01,0,.02.01.03.01l.06.03s.03.02.03.02l-.29.21-.34.24-.03.02h0s-.16.12-.16.12h0s-.05.04-.09.06c-.01.01-.03.02-.04.03-.02.01-.03.02-.05.03-.02.01-.03.03-.05.04,0,.01-.02.01-.03.01,0,0,0,0-.01,0,0,0-.01.01-.02.02,0,0-.01,0-.02.01,0,0,0,0,0,0-.09.08-.18.15-.28.23h0c-.09.08-.18.15-.28.22-.09.07-.19.15-.29.22-.1.08-.2.15-.3.22-.1.08-.2.15-.3.22,0,0,0,0,0,0-.08.06-.16.12-.24.18-.02.01-.04.03-.07.05-.09.06-.18.13-.27.19-.05.03-.09.07-.14.1-.06.04-.12.09-.18.13-.06.05-.13.09-.2.13-.06.04-.12.09-.19.13-.11.07-.23.15-.34.22-.12.08-.23.15-.35.22-.12.08-.24.15-.36.23-.12.07-.24.14-.36.22-.12.08-.25.15-.37.22s-.25.15-.38.22c-.26.15-.53.3-.79.45-.26.14-.52.28-.78.42,0,0,0,0,0,0-.26.14-.54.28-.81.41h0s0,0,0,0c0,0,0,0-.01,0-.27.14-.55.27-.82.4-.14.07-.29.14-.43.2-.07.03-.14.07-.22.1-.07.03-.14.07-.22.1-.14.07-.29.13-.44.2-.15.07-.3.13-.45.2-.15.07-.3.13-.45.2-.22.09-.43.18-.65.27-.24.1-.49.2-.74.3l-.48.18c-.16.06-.32.12-.48.18-.07.03-.14.05-.2.07-.19.07-.38.14-.57.2-.07.03-.14.05-.21.07h0c-.17.06-.33.12-.5.17-.04.01-.08.03-.11.04-.04.01-.08.03-.12.04t0,0c-.26.09-.52.17-.78.26-.17.05-.35.11-.52.16-.17.05-.35.11-.52.16-.14.04-.28.08-.41.12-.04.01-.08.02-.12.03-.18.05-.36.1-.54.15l-.85.22h-.04s-.3.09-.3.09l-.12.03-.11.03-.37.09c-.14.03-.28.07-.41.1l-.13.03-.43.1-.14.03-.07.02h-.02s-.08.02-.11.03c-.02,0-.03,0-.05.01-.01,0-.03,0-.04,0-.05,0-.1.02-.15.03-.09.02-.19.04-.28.06-.1.02-.19.04-.29.06-.19.04-.38.08-.58.11l-.6.11h-.07s0,.01,0,.01c-.17.03-.33.06-.5.09-.24.04-.47.08-.71.11-.16.03-.32.05-.48.08-.4.06-.8.12-1.21.17l-.84.1c-.06,0-.12.02-.18.02-.07,0-.14.02-.21.03l-.56.06c-.21.02-.43.04-.64.06-.11,0-.22.02-.32.03-.11,0-.22.02-.33.03-.06,0-.13.01-.19.02-.13.01-.27.02-.4.03-.24.02-.47.03-.71.05-.9.05-1.81.08-2.71.08-.22,0-.44,0-.66,0-.16,0-.32,0-.48,0-.19,0-.38-.01-.57-.02-.19,0-.38-.01-.57-.02-.44-.02-.87-.05-1.31-.07-.13-.01-.27-.02-.4-.03-.19-.01-.38-.03-.57-.05-.19-.01-.38-.03-.57-.05h0c-.19-.02-.38-.04-.56-.06-.14-.01-.27-.03-.41-.05-.16-.02-.33-.04-.49-.05h0c-.23-.03-.45-.06-.68-.09-.23-.03-.45-.06-.68-.09-.09-.01-.19-.03-.28-.04-.05,0-.09-.01-.14-.02-.05,0-.09-.01-.14-.02-.09-.01-.17-.02-.25-.04h-.05c-.14-.03-.29-.05-.43-.07h0s0,0-.01,0c-.11-.02-.23-.04-.34-.05-.11-.02-.23-.04-.34-.06-.14-.02-.28-.05-.43-.07-.15-.03-.3-.05-.45-.08h0c-.15-.03-.3-.05-.45-.08-.14-.03-.28-.05-.41-.08-.14-.03-.27-.05-.4-.08-.09-.02-.18-.03-.27-.05-.18-.04-.36-.07-.53-.11-.09-.02-.17-.04-.26-.05-.09-.02-.18-.04-.27-.06-.05-.01-.09-.02-.13-.03-.04-.01-.09-.02-.13-.03-.19-.04-.37-.08-.56-.12-.07-.01-.14-.03-.21-.05-.05-.01-.11-.03-.16-.04-.01,0-.02,0-.03,0-.12-.03-.24-.06-.36-.09-.09-.02-.17-.04-.26-.06-.09-.02-.17-.04-.26-.07-.14-.03-.27-.07-.41-.1-.19-.05-.37-.09-.56-.14-.18-.05-.37-.1-.55-.14-.3-.08-.6-.16-.9-.24h0s-.05-.02-.08-.03c-.24-.07-.49-.13-.73-.2-.24-.07-.48-.14-.71-.21-.16-.05-.31-.09-.47-.14h0c-.15-.05-.31-.09-.46-.14-.15-.05-.3-.09-.45-.14-.15-.05-.3-.09-.45-.14-.15-.05-.3-.09-.44-.14-.07-.02-.14-.05-.22-.07-.07-.02-.14-.05-.22-.07-.07-.02-.14-.05-.22-.07-.07-.02-.14-.05-.22-.07-.14-.05-.27-.09-.4-.14h0s0,0,0,0c-.28-.09-.55-.18-.82-.28-.81-.28-1.56-.55-2.27-.81-.13-.05-.26-.1-.39-.14-.21-.08-.41-.16-.61-.23,0,0-.02,0-.03-.01-.12-.05-.24-.1-.36-.14-.09-.03-.18-.07-.27-.11-.25-.1-.48-.19-.71-.28s-.44-.18-.65-.26h0c-.19-.08-.37-.15-.55-.23-.08-.03-.16-.07-.24-.1-.3-.12-.56-.24-.78-.33l1.82-1.62ZM197.41,42.26v.17s-.06,3.25-.06,3.25v1.36l-.02.02-.02,1.12v.06l-2.16,1.93s-12.04,11.04-30.4,10.43c-18.36-.6-30.4-6.35-30.4-6.35l-.74-.34s0-.02.01-.02l-1.27-.64c.05-.12-.05-.71.05-.79l-.31-4.87-.05-.71s.02,0,.03.01l-.02-.89s-.07-.03-.09-.04c.03.01.06.03.09.04,0,0,.01,0,.02.01,0,0,.01,0,.02,0,0,0,.02.01.02.01,0,0,.01,0,.02,0,0,0,.01,0,.02,0,0,0,.02.01.03.02.01,0,.02,0,.03.01,0,0,.01,0,.02,0,.02.01.04.02.06.03,0,0,.02,0,.03.01h0s.02,0,.04.01c.02.01.05.02.07.03.02.01.05.02.07.03.05.02.1.04.15.07.1.04.19.08.28.12.03.01.06.03.09.04.05.02.09.03.12.05.15.06.31.12.47.2.07.03.14.05.21.09.01,0,.03,0,.05.02,0,0,.01,0,.02,0,.13.05.27.11.4.16.06.03.12.05.19.08.23.09.47.18.72.28.13.05.26.1.39.15,0,0,.02,0,.03.01.01,0,.03,0,.04.01.07.03.14.05.2.08.11.04.21.08.32.12.28.11.57.22.88.33.09.03.19.07.29.11.47.17.97.35,1.48.53,0,0,.01,0,.02,0,0,0,0,0,.01,0,.01,0,.03.01.05.01.22.08.45.16.68.23.03,0,.06.02.09.03.03.01.06.02.09.03.06.02.12.04.18.06.18.06.36.12.55.18.37.12.75.24,1.14.36.19.06.39.12.59.18.25.08.5.15.75.23.25.07.51.15.77.22.87.25,1.77.5,2.7.74.03,0,.07.02.1.03.03,0,.07.02.1.03.05.01.1.03.15.04,0,0,.02,0,.03,0,.01,0,.02,0,.04.01.15.04.3.07.45.11h0s.06.02.1.03c.09.02.19.04.28.07.13.03.26.06.39.09.87.21,1.77.41,2.68.59.34.07.68.13,1.02.2.37.07.75.14,1.13.2.2.03.4.07.61.1.12.02.23.04.34.05.19.03.38.06.57.09.19.03.38.06.57.08.14.02.29.04.43.06.17.02.34.05.5.07.15.02.31.04.46.06.13.01.25.03.38.04.13.01.25.03.38.04.07,0,.14.01.22.02.16.02.34.03.5.05.19.02.39.04.58.05.15.01.3.03.45.04.2.01.4.03.6.04.02,0,.04,0,.06,0h.05c.1,0,.2.01.31.02.14,0,.28.02.42.03.27.01.54.03.81.04.27,0,.54.02.8.03.39,0,.78.01,1.17.01.92,0,1.84-.03,2.75-.08.28-.02.56-.03.84-.05.22-.02.43-.03.64-.05.09,0,.19-.02.28-.03.35-.03.7-.06,1.04-.1.2-.02.41-.04.6-.06.08-.01.16-.02.24-.03.16-.02.32-.04.48-.06,0,0,0,0,.01,0,.34-.04.68-.09,1.01-.13.18-.03.36-.05.54-.08.48-.07.95-.15,1.41-.23.19-.03.37-.07.56-.1.41-.07.8-.15,1.2-.23.14-.03.28-.06.42-.09.05-.01.1-.02.15-.03.23-.05.46-.1.69-.15.28-.06.55-.13.82-.19.16-.04.31-.07.47-.11.35-.09.69-.18,1.03-.27.13-.03.26-.07.39-.1.18-.05.35-.1.53-.15.19-.05.39-.11.58-.17,0,0,0,0,0,0,.37-.11.73-.22,1.09-.34.98-.32,1.93-.64,2.83-.99.14-.05.28-.11.42-.16.59-.23,1.17-.47,1.72-.71.15-.07.3-.13.45-.2.3-.13.6-.27.89-.4.14-.06.28-.13.41-.19.11-.05.22-.11.32-.16.12-.06.25-.12.37-.18.19-.09.38-.19.56-.28.26-.13.51-.26.76-.4.13-.07.27-.14.4-.22.13-.07.26-.14.39-.22.14-.08.28-.16.42-.24.24-.14.48-.28.71-.41.97-.58,1.84-1.15,2.62-1.7.2-.14.39-.27.57-.41.18-.13.36-.26.53-.4.09-.06.17-.13.25-.19.02-.01.04-.03.06-.05.14-.11.29-.22.42-.34.01,0,.02-.01.03-.02.07-.06.14-.12.21-.18.04-.03.07-.06.11-.09.03-.03.06-.05.09-.08.07-.06.14-.12.21-.18.16-.14.32-.28.46-.41.07-.06.13-.12.2-.18,0,0,.01-.01.02-.02.01-.01.03-.03.04-.04l.07.04v.41s0,.03,0,.03c0,.02,0,.04.01.07.02.11,0,.23-.03.34Z"/><path class="cls-4" d="M157.99,24.54c-5.21,3.86-8.87,7.13-10.05,8.96-.74,1.16-2.61,2.55-4.28,2.61-.22,0-.44,0-.65-.05-.62-.12-1.66-.59-1.72-2.31-.03-.87.21-1.77.7-2.59.6-1.02,1.75-2.78,3.44-4.63,1.68-1.85,3.91-3.78,6.65-5.15,4.11-2.03,7.31-2.5,8.37-1.21.48.59.8,1.94-2.47,4.36Z"/><path class="cls-4" d="M143.04,44.84c-.09.09-.19.17-.29.24-.28.21-.68.38-1.15.48l-1.05.1c-.59-.01-1.2-.15-1.7-.46-.08-.05-.15-.1-.23-.16-.6-.48-1.45-1.65-.36-4.09.02-.05.05-.09.07-.13.33-.48,2.04-2.83,3.69-2.83h.06c.62.02,1.16.36,1.52.96,1.46,2.43.76,4.69-.56,5.89Z"/></svg>