<?xml version="1.0" encoding="UTF-8"?>
<svg xmlns="http://www.w3.org/2000/svg" version="1.1" viewBox="0 0 941 241.2">
  <defs>
    <style>
      .cls-1 {
        fill: #741a3e;
      }

      .cls-2 {
        fill: #330d1d;
      }

      .cls-3 {
        fill: #9b2a5e;
      }
    </style>
  </defs>
  <!-- Generator: Adobe Illustrator 28.7.1, SVG Export Plug-In . SVG Version: 1.2.0 Build 142)  -->
  <g>
    <g id="Layer_1">
      <g>
        <path class="cls-1" d="M118.4,22.2c-6.2-6.4-13.5-11.4-21.9-15-8.4-3.6-17.6-5.3-27.6-5.3s-19,1.8-27.4,5.3c-8.4,3.6-15.7,8.5-22,14.9-6.2,6.4-11.1,13.9-14.5,22.6C1.7,53.4,0,62.8,0,73.1s1.7,19.7,5.1,28.4,8.2,16.2,14.5,22.6c6.2,6.4,13.6,11.3,22,14.9s17.5,5.3,27.4,5.3,19.2-1.8,27.6-5.3,15.7-8.5,21.9-15c6.2-6.4,11-14,14.4-22.7,3.4-8.7,5.1-18.1,5.1-28.2s-1.7-19.7-5.1-28.3c-3.4-8.6-8.2-16.1-14.4-22.6h0ZM108.7,91.6c-2.2,5.7-5.2,10.6-9,14.9-3.8,4.3-8.3,7.6-13.5,9.8-5.2,2.3-10.9,3.4-17.2,3.4s-11.9-1.2-17.1-3.4c-5.3-2.3-9.8-5.6-13.6-9.8-3.8-4.2-6.8-9.2-8.9-14.9-2.1-5.7-3.1-11.9-3.1-18.6s1-13.1,3.1-18.7,5.1-10.6,8.9-14.8c3.8-4.2,8.3-7.5,13.6-9.8,5.2-2.3,11-3.5,17.1-3.5s12.1,1.1,17.2,3.5c5.2,2.3,9.7,5.6,13.5,9.8,3.8,4.3,6.8,9.2,9,14.9s3.2,11.8,3.2,18.5-1.1,12.9-3.2,18.5Z"/>
        <path class="cls-1" d="M192.8,62c4.5-2.8,9.7-4.2,15.5-4.2s6.8.7,10.2,2c3.4,1.3,6.6,3.1,9.7,5.3,0,0,.2.1.2.2,4.6,3.4,11,2.8,14.6-1.6l.3-.3c3.7-4.4,3.1-11-1.2-14.7-3.1-2.7-6.7-5-10.8-6.9-7.6-3.5-16.1-5.3-25.4-5.3s-18.5,2.4-26.2,7.1c-7.8,4.7-13.9,11.2-18.3,19.3-4.5,8.2-6.7,17.3-6.7,27.6s2.2,19.4,6.7,27.6c4.5,8.1,10.6,14.6,18.3,19.3,7.8,4.7,16.5,7.1,26.2,7.1s16.9-1.8,24.7-5.4c4.1-1.9,7.7-4.1,10.8-6.5,4.6-3.6,5.3-10.4,1.6-15h0c-3.6-4.4-10.1-5.2-14.6-1.7-.3.2-.5.4-.8.6-2.9,2.1-5.9,3.7-9.2,4.8-3.2,1.1-6.5,1.7-9.9,1.7-5.6,0-10.8-1.4-15.4-4.3-4.6-2.9-8.2-6.8-10.9-11.6-2.7-4.9-4-10.4-4-16.5s1.3-11.7,3.9-16.7,6.2-8.8,10.7-11.6h0Z"/>
        <path class="cls-1" d="M315.4,34.2h-10c-1.4,0-2.5-1.1-2.5-2.5v-13.7c0-5.6-4.6-10.2-10.2-10.2h-3.8c-5.6,0-10.2,4.6-10.2,10.2l.3,93.4v22.5c0,5.6,4.6,10.2,10.2,10.2h3.8c5.7,0,10.2-4.6,10.2-10.2v-22.5l-.3-51.1c0-2,1.7-3.7,3.7-3.7h8.7c5.7,0,10.3-4.6,10.3-10.3v-2c0-5.7-4.6-10.2-10.3-10.2Z"/>
        <path class="cls-1" d="M418.4,43.2c-8.1-4.7-17.3-7-27.6-7s-19.6,2.3-27.8,7c-8.1,4.7-14.6,11.1-19.3,19.2-4.7,8.2-7.1,17.4-7.1,27.8s2.4,19.6,7.1,27.8c4.7,8.1,11.2,14.6,19.3,19.2,8.1,4.7,17.4,7,27.8,7s19.4-2.3,27.6-7c8.1-4.7,14.5-11.1,19.2-19.2,4.7-8.1,7-17.4,7-27.8s-2.3-19.6-7-27.8c-4.7-8.1-11.1-14.5-19.2-19.2ZM416.3,106.8c-2.6,4.9-6,8.7-10.4,11.6s-9.4,4.3-15.1,4.3-10.7-1.4-15.3-4.3-8-6.8-10.5-11.6c-2.5-4.9-3.8-10.4-3.8-16.5s1.2-11.7,3.8-16.7c2.5-4.9,6-8.8,10.5-11.6,4.5-2.8,9.6-4.2,15.3-4.2s10.7,1.4,15.1,4.2c4.4,2.8,7.9,6.7,10.4,11.5s3.8,10.4,3.6,16.8c.1,6.2-1.1,11.7-3.6,16.5Z"/>
        <path class="cls-3" d="M564.9,65.5c-1.8-3.4-3.9-6.5-6.3-9.2h0c-.5-.6-1.1-1.2-1.6-1.7-7.3-7.3-17-12.3-27.8-13.8,0,0-.2,0-.2,0-2.1-.3-4.3-.4-6.5-.4-11.9,0-22.9,4.3-31.3,11.4-1.2,1-3,.2-3-1.4V8.1c0-3.9-3.2-7.2-7.2-7.2h0c-4,0-7.2,3.2-7.2,7.2v77.5h.1c0,1.1-.1,2.3-.1,3.4v6.5c0,1.2,0,2.4.1,3.6.9,12.1,6.2,22.9,14.3,31,8.8,8.7,20.9,14.1,34.3,14.1s.8,0,1.1,0h.1c.2,0,.4,0,.7,0,8.9,0,16.9-2.2,24-6.7,6.8-4.3,12.2-10.2,16.3-17.6,0,0,0,0,0-.2.1-.2.2-.4.3-.7,4.1-7.8,6.1-16.8,6.1-26.8s-2.1-19-6.3-26.7h0ZM552.4,111.8c-3,5.8-7.1,10.4-12.3,13.8-5.2,3.4-11.2,5.1-18,5.1s-12.7-1.7-18-5-9.3-7.9-12.3-13.7c-3-5.8-4.5-12.4-4.5-19.8s1.5-13.9,4.5-19.7,7.1-10.2,12.3-13.6,11.2-5,18-5,12.7,1.7,18,5c5.2,3.3,9.3,7.8,12.3,13.6,3,5.7,4.5,12.3,4.5,19.7s-1.5,13.8-4.5,19.6Z"/>
        <path class="cls-3" d="M843.6,91.3c0,10.1,2,19,6.1,26.8,0,.2.2.4.3.7,0,0,0,0,0,.2,4,7.5,9.5,13.3,16.3,17.6,7.1,4.5,15,6.7,24,6.7s.4,0,.7,0h.1c.4,0,.7,0,1.1,0,13.4,0,25.5-5.4,34.3-14.1,8.1-8,13.4-18.9,14.3-31,0-1.2.1-2.4.1-3.6v-6.5c0-1.2,0-2.3-.1-3.4h.1V7.2c0-3.9-3.2-7.2-7.2-7.2h0c-4,0-7.2,3.2-7.2,7.2v42.2c0,1.6-1.8,2.4-3,1.4-8.5-7.1-19.4-11.4-31.3-11.4s-4.3.2-6.5.4c0,0-.2,0-.2,0-10.8,1.5-20.4,6.5-27.8,13.8-.5.5-1.1,1.1-1.6,1.7h0c-2.4,2.8-4.5,5.9-6.3,9.3-4.2,7.8-6.3,16.7-6.3,26.7h0ZM858,91.3c0-7.4,1.5-13.9,4.5-19.7,3-5.7,7.1-10.2,12.3-13.6,5.2-3.3,11.2-5,18-5s12.7,1.7,18,5c5.2,3.3,9.3,7.8,12.3,13.6s4.5,12.3,4.5,19.7-1.5,14-4.5,19.8c-3,5.8-7.1,10.3-12.3,13.6-5.2,3.3-11.2,5-18,5s-12.7-1.7-18-5.1c-5.2-3.4-9.3-8-12.3-13.8-3-5.8-4.5-12.3-4.5-19.6Z"/>
        <rect class="cls-3" x="592.4" y="1" width="14.3" height="141.4" rx="7.2" ry="7.2"/>
        <path class="cls-3" d="M782.3,42.6c-2.1,0-4.2,0-6.2.2-8,.9-15.2,4-21.2,8.6-.5.4-1,.8-1.4,1.1-8.4,7.1-13,17.8-13,28.8v52.3c0,4.8,3.9,8.6,8.6,8.6h0c3.2,0,5.7-2.6,5.7-5.7v-55c0-3.8.8-7.4,2.3-10.7.3-.7.7-1.5,1.1-2.2,5.5-7.6,14.8-12.4,25.1-11.5,14,1.2,25.3,14.4,25.3,28.4v49.1c0,4.2,3.4,7.6,7.6,7.6h0c3.8,0,6.9-3.1,6.9-6.9v-49.6c0-22.5-18.4-42.4-40.8-43.2h0Z"/>
        <path class="cls-3" d="M571.2,89v3.2c0-10.1-2.1-19-6.3-26.7-1.8-3.4-3.9-6.5-6.3-9.2,7.8,8.6,12.6,20.1,12.6,32.7Z"/>
        <path class="cls-3" d="M571.2,92.3v3.2c0,8.6-2.2,16.6-6.1,23.6,4.1-7.8,6.1-16.8,6.1-26.8Z"/>
        <path class="cls-3" d="M722.8,82s0,0,0,0c0-.2,0-.3,0-.5,0-.2,0-.3,0-.4,0,0,0-.2,0-.2,0,0,0,0,0,0-1-5.8-2.8-11.2-5.5-16.1-1.8-3.4-4-6.5-6.3-9.2,0,0-.2-.2-.3-.3-.4-.5-.9-1-1.3-1.4-7.4-7.4-17.1-12.4-28-13.8h0c-2.1-.3-4.2-.4-6.4-.4-13.4,0-25.6,5.4-34.4,14.2-8.8,8.8-14.3,21-14.3,34.5v6.5c0,5.3.8,10.3,2.4,15.1,2.4,7.5,6.6,14.1,12,19.5,8.8,8.7,20.9,14.1,34.3,14.1s.8,0,1.1,0h.1c10-.2,19.2-3.5,26.8-8.9,1.8-1.3,3.6-2.8,5.3-4.3l.3-.2c0,0,0,0,.2-.1.1-.1.2-.2.3-.3,1.3-1.4,1.9-3.1,1.9-4.9s-.2-1.9-.6-2.8c-.3-.8-.9-1.6-1.5-2.3-.9-.9-1.9-1.5-3-1.8-.7-.2-1.4-.3-2.1-.3-1.6,0-3.1.5-4.4,1.6-.2.2-.4.3-.6.6-.3.3-.5.6-.7.9-1.7,1.7-3.5,3.1-5.5,4.4,0,0,0,0-.2,0-5.2,3.3-11.1,5-17.8,5s-7.9-.6-11.5-1.8c0,0,0,0,0,0-2.3-.8-4.4-1.8-6.4-3.1-5.2-3.3-9.3-7.9-12.3-13.7-1.8-3.5-3.1-7.2-3.8-11.3-.3-1.8,1.1-3.5,3-3.5h62.5c1.1.3,2.7.3,5,0,12.2-1.7,12.4-11,12-14.4h0ZM704.5,82.1h-60.2c-2,0-3.4-1.9-2.8-3.9.7-2.3,1.6-4.4,2.7-6.5,3-5.7,7.1-10.2,12.3-13.6,5.2-3.3,11.2-5,18-5s12.7,1.7,18,5c5.2,3.3,9.3,7.8,12.3,13.6,1.1,2.1,2,4.2,2.6,6.5.6,1.9-.8,3.9-2.8,3.9h0Z"/>
        <path class="cls-2" d="M150.3,175.5c0,5.3-8.1,5.3-8.1,0s8.1-5.3,8.1,0ZM143.1,223.8h6.1v-37.2h-6.1v37.2Z"/>
        <path class="cls-2" d="M163.6,186.8h5.7l.4,5.4c2.2-4.4,6.8-6.1,10.9-6.1s10.4,2.2,12.4,8.1c2.7-5.7,7.8-8.1,13.1-8.1,9.8,0,15.6,6.4,15.6,16.5v21.1h-6.1v-21.1c0-6.1-3.5-10.7-9.6-10.7s-10.1,4.8-10.1,10.9v21h-6.1v-21c0-6.1-3.8-10.9-10-10.9s-10.1,4.8-10.1,10.9v21h-6.1v-37.1h0c0,0,0,0,0,0Z"/>
        <path class="cls-2" d="M235.5,186.9h5.9l.3,7.1c2.9-4.9,8.4-7.8,14.2-7.8,10.6.2,18.5,7.7,18.5,19.1s-7.7,19.3-18.8,19.3-11.1-2.2-14-7.5v24.1h-6v-54.4h0ZM268.2,205.5c0-8.3-5.5-13.3-13.1-13.3s-13,5.7-13,13.3,5.5,13.3,13,13.4c7.4,0,13.1-5,13.1-13.4Z"/>
        <path class="cls-2" d="M303.1,185.9c11.3,0,19.3,7.9,19.3,19.4s-8.1,19.1-19.3,19.1-19.2-7.9-19.2-19.1,8.2-19.4,19.2-19.4ZM303.1,191.5c-7.6,0-13.1,5.6-13.1,13.8s5.5,13.4,13,13.4,13.1-5.6,13.2-13.4c0-8.2-5.7-13.8-13.1-13.8h0Z"/>
        <path class="cls-2" d="M340,186.6l.5,5.6c2.5-4.8,7.1-6.1,11.4-6.1,3.2,0,6.4,1.1,8.6,2.8l-2.8,5.2c-2-1.4-3.9-2-6.5-2-5.9,0-10.9,4.3-10.9,11.1v20.6h-6.1v-37.1h5.8c0,0,0,0,0,0Z"/>
        <path class="cls-2" d="M379.7,186.8h11.5v5.2h-11.5v19.6c0,4.4,1.4,7.1,5.9,7.1s3.5-.5,5.2-1.4l1.8,5.1c-2.5,1.1-4.7,1.7-7.2,1.8-8,.1-11.7-4.5-11.7-12.7v-19.6h-7.4v-5.2h7.4v-10.2l6.1-.7v10.9h0Z"/>
        <path class="cls-2" d="M454.7,223.9v-6.8c-3.1,5.1-8.7,7.5-13.8,7.5-10.6,0-19-7.4-19-19.4s8.5-19.2,19-19.1c5.5,0,11,2.6,13.7,7.4v-6.8h6.1v37.1h-6.1c0,.1,0,.1,0,.1ZM441.2,192c-7.4,0-13.3,5.2-13.3,13.5s5.9,13.6,13.3,13.6c17.9,0,17.9-27.1,0-27.1h0Z"/>
        <path class="cls-2" d="M475.1,186.6h5.6l.3,5.9c3.2-4.4,7.7-6.4,12.7-6.4,9.4,0,16.3,6.3,16.3,17.2v20.5h-6.1v-20.4c0-7.1-4.2-11.6-11.2-11.6-6.8,0-11.4,5.4-11.4,12.1v19.9h-6.1v-37.1h0Z"/>
        <path class="cls-2" d="M560.1,171.2v52.5h-5.8l-.3-6.8c-3,5.1-8.4,7.5-13.9,7.5-10.6,0-18.8-7-18.8-19.2s8.2-19.2,18.7-19.2,11.2,2.4,13.9,7.4v-22.2h6.2ZM540.6,191.7c-7.2,0-13,4.7-13,13.4s5.8,13.4,13,13.4,13.1-5.4,13.1-13.5-5.8-13.4-13.2-13.4h0Z"/>
        <path class="cls-2" d="M605.6,186.8h11.5v5.2h-11.5v19.6c0,4.4,1.4,7.1,5.8,7.1s3.5-.5,5.2-1.4l1.8,5.1c-2.5,1.1-4.7,1.7-7.2,1.8-8,.1-11.7-4.5-11.7-12.7v-19.6h-7.4v-5.2h7.4v-10.2l6.2-.7v10.9h0Z"/>
        <path class="cls-2" d="M633.7,186.6l.5,5.6c2.5-4.8,7.1-6.1,11.4-6.1,3.2,0,6.4,1.1,8.6,2.8l-2.8,5.2c-2-1.4-3.9-2-6.5-2-5.9,0-10.9,4.3-10.9,11.1v20.6h-6.2v-37.1h5.8c0,0,0,0,0,0Z"/>
        <path class="cls-2" d="M692.2,223.9l-.2-6.8c-2.9,5.1-8.5,7.5-13.7,7.5-10.7,0-19-7.4-19-19.4s8.5-19.2,19-19.1c5.5,0,11,2.6,13.7,7.4v-6.8h6.1v37.1h-6.1c0,.1,0,.1,0,.1ZM678.8,192c-7.3,0-13.3,5.2-13.3,13.5s5.9,13.6,13.3,13.6c17.8,0,17.8-27.1,0-27.1h0Z"/>
        <path class="cls-2" d="M749,171.2v52.5h-5.8l-.3-6.8c-3,5.1-8.4,7.5-13.9,7.5-10.6,0-18.8-7-18.8-19.2s8.2-19.2,18.7-19.2,11.2,2.4,13.9,7.4v-22.2h6.2ZM729.5,191.7c-7.2,0-13,4.7-13,13.4s5.8,13.4,13,13.4,13.1-5.4,13.1-13.5-5.8-13.4-13.2-13.4h0Z"/>
        <path class="cls-2" d="M796.4,217.8c-3.8,4.4-10.2,6.6-16,6.6-11.5,0-19.5-7.6-19.5-19.4s8-19.2,19.2-19.2,20,7,18.5,21.8h-31.5c.7,6.8,6.3,11.1,13.4,11.1s9.3-1.6,11.8-4.6l4.1,3.8h0,0ZM792.8,202.5c-.3-7.2-5.2-11.1-12.5-11.1s-12.1,3.9-13.1,11h25.7c0,0,0,0,0,0Z"/>
      </g>
    </g>
  </g>
</svg>