<?xml version="1.0" encoding="UTF-8"?><svg id="Layer_1" xmlns="http://www.w3.org/2000/svg" viewBox="0 0 1010.42 244.57"><defs><style>.cls-1{fill:#330d1d;}.cls-1,.cls-2,.cls-3{stroke-width:0px;}.cls-2{fill:#741a3e;}.cls-3{fill:#9b2a5e;}</style></defs><polygon class="cls-1" points="952.82 3.33 961.89 3.33 961.89 30.69 965.43 30.69 965.43 3.33 974.86 3.33 974.86 0 952.82 0 952.82 3.33"/><path class="cls-1" d="M1007.2,0l-11.53,17.86-11.37-17.86h-3.45v30.69h3.54v-14.03c0-2.83-.05-5.28-.14-7.34-.05-1.15-.13-2.27-.22-3.39l10.29,15.86h2.45l10.49-15.92c-.11,1.22-.19,2.45-.24,3.69-.09,2.1-.14,4.47-.14,7.1v14.03h3.54V0h-3.22Z"/><path class="cls-2" d="M118.43,25.59c-6.18-6.44-13.47-11.43-21.87-14.98-8.41-3.55-17.61-5.32-27.59-5.32s-18.99,1.77-27.39,5.32c-8.41,3.55-15.73,8.51-21.97,14.88-6.24,6.37-11.07,13.89-14.48,22.56C1.71,56.72,0,66.18,0,76.43s1.71,19.71,5.12,28.38c3.41,8.67,8.24,16.19,14.48,22.56,6.24,6.37,13.56,11.33,21.97,14.88,8.41,3.55,17.54,5.32,27.39,5.32s19.18-1.77,27.59-5.32c8.41-3.55,15.7-8.54,21.87-14.98,6.17-6.43,10.97-13.99,14.38-22.66,3.42-8.67,5.12-18.06,5.12-28.18s-1.71-19.67-5.12-28.28c-3.42-8.6-8.21-16.13-14.38-22.56ZM108.68,94.95c-2.17,5.65-5.16,10.61-8.97,14.88-3.81,4.27-8.31,7.56-13.5,9.85-5.19,2.3-10.94,3.45-17.24,3.45s-11.89-1.15-17.14-3.45c-5.26-2.3-9.79-5.55-13.6-9.75-3.81-4.2-6.77-9.16-8.87-14.88-2.1-5.71-3.15-11.92-3.15-18.62s1.05-13.07,3.15-18.72c2.1-5.65,5.06-10.57,8.87-14.78,3.81-4.2,8.34-7.45,13.6-9.75,5.25-2.3,10.97-3.45,17.14-3.45s12.05,1.15,17.24,3.45c5.19,2.3,9.69,5.59,13.5,9.85,3.81,4.27,6.8,9.23,8.97,14.88,2.17,5.65,3.25,11.82,3.25,18.52s-1.08,12.88-3.25,18.52Z"/><path class="cls-2" d="M192.82,65.29c4.53-2.82,9.69-4.24,15.47-4.24,3.42,0,6.83.66,10.25,1.97,3.41,1.31,6.63,3.09,9.66,5.32.08.06.16.12.24.18,4.57,3.43,10.99,2.8,14.64-1.6l.28-.34c3.67-4.42,3.15-10.97-1.17-14.74-3.12-2.71-6.73-5.03-10.84-6.94-7.62-3.55-16.09-5.32-25.42-5.32s-18.46,2.37-26.21,7.09c-7.75,4.73-13.86,11.17-18.33,19.31-4.47,8.15-6.7,17.34-6.7,27.59s2.23,19.44,6.7,27.59c4.46,8.15,10.57,14.58,18.33,19.31,7.75,4.73,16.48,7.09,26.21,7.09,8.67,0,16.91-1.81,24.73-5.42,4.06-1.88,7.67-4.05,10.83-6.51,4.64-3.62,5.28-10.42,1.55-14.97h0c-3.62-4.42-10.1-5.17-14.63-1.68-.26.2-.53.4-.8.6-2.89,2.1-5.95,3.71-9.16,4.83-3.22,1.12-6.54,1.67-9.95,1.67-5.65,0-10.77-1.44-15.37-4.33-4.6-2.89-8.25-6.76-10.94-11.63-2.69-4.86-4.04-10.38-4.04-16.55s1.31-11.72,3.94-16.65c2.63-4.93,6.21-8.8,10.74-11.63Z"/><path class="cls-2" d="M315.37,37.57h-9.95c-1.36,0-2.46-1.1-2.46-2.45v-13.71c0-5.65-4.58-10.24-10.24-10.24h-3.75c-5.65,0-10.24,4.59-10.24,10.24l.33,93.42v22.5c0,5.65,4.59,10.24,10.24,10.24h3.75c5.66,0,10.24-4.59,10.24-10.24v-22.5l-.33-51.12c0-2.03,1.66-3.67,3.69-3.67h8.72c5.67,0,10.26-4.59,10.26-10.26v-1.97c0-5.65-4.59-10.24-10.26-10.24Z"/><path class="cls-2" d="M418.35,46.57c-8.15-4.66-17.34-7-27.59-7s-19.64,2.33-27.78,7c-8.15,4.66-14.58,11.07-19.31,19.21-4.73,8.15-7.09,17.41-7.09,27.79s2.36,19.64,7.09,27.79c4.73,8.15,11.16,14.55,19.31,19.21,8.14,4.66,17.4,7,27.78,7s19.44-2.33,27.59-7c8.14-4.66,14.55-11.07,19.21-19.21,4.66-8.14,7-17.41,7-27.79s-2.33-19.64-7-27.79c-4.67-8.14-11.07-14.55-19.21-19.21ZM416.28,110.12c-2.56,4.86-6.04,8.74-10.44,11.63-4.4,2.89-9.43,4.33-15.07,4.33s-10.74-1.44-15.27-4.33c-4.53-2.89-8.05-6.76-10.54-11.63-2.5-4.86-3.75-10.38-3.75-16.55s1.25-11.72,3.75-16.65c2.49-4.93,6.01-8.8,10.54-11.63,4.53-2.82,9.62-4.24,15.27-4.24s10.67,1.41,15.07,4.24c4.4,2.83,7.88,6.67,10.44,11.53,2.56,4.86,3.78,10.44,3.65,16.75.13,6.18-1.08,11.69-3.65,16.55Z"/><path class="cls-3" d="M564.94,68.87c-1.84-3.38-3.94-6.46-6.31-9.22l-.04-.04c-.53-.58-1.06-1.14-1.62-1.69-7.32-7.33-16.97-12.34-27.75-13.81-.09-.01-.16-.03-.25-.03-2.1-.29-4.26-.44-6.45-.44-11.93,0-22.86,4.29-31.34,11.43-1.21,1.01-3.04.2-3.04-1.38V11.46c0-3.95-3.21-7.16-7.16-7.16h0c-3.95,0-7.16,3.21-7.16,7.16v77.46h.13c-.09,1.14-.13,2.29-.13,3.44v6.49c0,1.22.04,2.44.13,3.63.89,12.07,6.18,22.94,14.28,30.96,8.81,8.73,20.92,14.13,34.3,14.13.38,0,.76,0,1.12-.01h.13c.22.01.44.01.66.01,8.92,0,16.91-2.23,23.97-6.69,6.82-4.29,12.25-10.16,16.27-17.61.04-.06.07-.1.1-.16.13-.22.25-.44.35-.66,4.07-7.83,6.11-16.77,6.11-26.83s-2.1-18.99-6.3-26.74ZM552.43,115.18c-3,5.8-7.1,10.38-12.32,13.76-5.23,3.37-11.21,5.06-17.96,5.06s-12.73-1.66-17.95-4.97c-5.22-3.31-9.33-7.86-12.32-13.65-2.99-5.8-4.49-12.39-4.49-19.77s1.5-13.95,4.49-19.68c2.99-5.73,7.1-10.25,12.32-13.56,5.22-3.31,11.2-4.96,17.95-4.96s12.73,1.65,17.96,4.96c5.22,3.31,9.32,7.83,12.32,13.56,2.99,5.73,4.48,12.29,4.48,19.68s-1.49,13.78-4.48,19.57Z"/><path class="cls-3" d="M843.62,94.65c0,10.06,2.04,19,6.11,26.83.1.22.22.44.35.66.03.06.06.1.1.16,4.02,7.45,9.45,13.33,16.27,17.61,7.06,4.46,15.05,6.69,23.97,6.69.22,0,.44,0,.66-.01h.13c.36.01.74.01,1.12.01,13.37,0,25.49-5.4,34.3-14.13,8.09-8.02,13.39-18.88,14.28-30.96.09-1.2.13-2.41.13-3.63v-6.49c0-1.15-.04-2.3-.13-3.44h.13V10.5c0-3.95-3.21-7.16-7.16-7.16h0c-3.95,0-7.16,3.21-7.16,7.16v42.24c0,1.58-1.84,2.39-3.04,1.38-8.48-7.14-19.41-11.43-31.34-11.43-2.19,0-4.35.15-6.45.44-.09,0-.16.01-.25.03-10.78,1.47-20.43,6.47-27.75,13.81-.55.55-1.09,1.11-1.62,1.69l-.04.04c-2.38,2.76-4.48,5.83-6.31,9.22-4.2,7.76-6.3,16.68-6.3,26.74ZM857.95,94.65c0-7.39,1.49-13.95,4.48-19.68,3-5.73,7.1-10.25,12.32-13.56,5.23-3.31,11.21-4.96,17.96-4.96,6.75,0,12.73,1.65,17.95,4.96,5.22,3.31,9.33,7.83,12.32,13.56,2.99,5.73,4.49,12.29,4.49,19.68,0,7.38-1.5,13.97-4.49,19.77-2.99,5.79-7.1,10.34-12.32,13.65-5.22,3.31-11.2,4.97-17.95,4.97-6.75,0-12.73-1.69-17.96-5.06-5.22-3.38-9.32-7.96-12.32-13.76-2.99-5.79-4.48-12.32-4.48-19.57Z"/><rect class="cls-3" x="592.44" y="4.3" width="14.33" height="141.35" rx="7.16" ry="7.16"/><path class="cls-3" d="M782.34,45.97c-2.13-.07-4.21,0-6.25.24-7.95.87-15.24,3.95-21.23,8.62-.48.37-.95.75-1.41,1.14-8.41,7.11-12.99,17.77-12.99,28.78v16.51s0,35.77,0,35.77c0,4.77,3.86,8.63,8.63,8.63h0c3.15,0,5.7-2.55,5.7-5.7v-55.04c0-3.82.76-7.38,2.29-10.7.35-.74.73-1.49,1.14-2.19,5.5-7.62,14.78-12.36,25.11-11.45,13.97,1.23,25.33,14.37,25.33,28.39v49.1c0,4.19,3.4,7.59,7.59,7.59h0c3.83,0,6.93-3.1,6.93-6.93v-49.55c0-22.5-18.36-42.44-40.85-43.2Z"/><path class="cls-3" d="M571.24,92.36v3.25c0-10.06-2.1-18.99-6.3-26.74-1.84-3.38-3.94-6.46-6.31-9.22,7.83,8.63,12.61,20.11,12.61,32.71Z"/><path class="cls-3" d="M571.24,95.61v3.24c0,8.56-2.2,16.61-6.11,23.59,4.07-7.83,6.11-16.77,6.11-26.83Z"/><path class="cls-3" d="M722.81,85.38s-.01-.06-.01-.07c-.01-.16-.04-.32-.07-.48-.01-.16-.03-.28-.06-.39-.01-.07-.03-.16-.04-.23-.01-.04-.01-.07-.01-.07-.96-5.83-2.79-11.18-5.45-16.11-1.84-3.41-3.95-6.49-6.34-9.24-.07-.1-.18-.2-.28-.31-.44-.48-.89-.95-1.34-1.4-7.38-7.38-17.12-12.41-28-13.84h-.03c-2.1-.28-4.24-.42-6.42-.42-13.43,0-25.56,5.42-34.38,14.2-8.85,8.82-14.32,21.01-14.32,34.5v6.5c0,5.26.83,10.32,2.36,15.06,2.44,7.47,6.61,14.13,12.04,19.52,8.81,8.72,20.91,14.11,34.3,14.11.38,0,.76,0,1.12-.01h.13c9.97-.25,19.22-3.51,26.84-8.89,1.85-1.31,3.62-2.76,5.26-4.32l.26-.25c.06-.03.1-.09.15-.13.12-.12.22-.22.32-.32,1.28-1.37,1.92-3.14,1.92-4.88,0-.95-.19-1.9-.57-2.77-.34-.83-.86-1.62-1.53-2.29-.86-.86-1.9-1.47-3-1.79-.67-.2-1.37-.31-2.07-.31-1.56,0-3.14.51-4.43,1.55-.22.16-.42.35-.63.55-.28.28-.51.55-.73.86-1.66,1.65-3.5,3.11-5.48,4.39-.04.03-.1.06-.15.09-5.19,3.31-11.11,4.97-17.8,4.97-4.11,0-7.93-.61-11.46-1.84-.03-.01-.06-.01-.07-.03-2.26-.79-4.39-1.82-6.42-3.11-5.23-3.31-9.33-7.86-12.32-13.65-1.81-3.47-3.06-7.23-3.78-11.29-.32-1.81,1.11-3.46,2.95-3.46h62.54c1.06.29,2.65.32,4.96,0,12.23-1.71,12.41-10.99,12.04-14.41ZM704.45,85.45h-60.18c-2.01,0-3.41-1.95-2.83-3.88.69-2.27,1.57-4.43,2.65-6.49,2.99-5.73,7.09-10.25,12.32-13.56,5.22-3.31,11.2-4.97,17.95-4.97s12.73,1.66,17.95,4.97c5.22,3.31,9.33,7.83,12.32,13.56,1.06,2.06,1.95,4.21,2.64,6.49.58,1.92-.82,3.88-2.83,3.88Z"/><path class="cls-1" d="M150.31,178.8c0,5.32-8.1,5.32-8.1-.08s8.1-5.32,8.1.08ZM143.11,227.1h6.15v-37.2h-6.15v37.2Z"/><path class="cls-1" d="M163.58,190.13h5.7l.38,5.4c2.25-4.35,6.75-6.07,10.95-6.07,5.1,0,10.35,2.17,12.45,8.1,2.7-5.7,7.8-8.1,13.05-8.1,9.75,0,15.6,6.37,15.6,16.5v21.15h-6.15v-21.15c0-6.08-3.52-10.72-9.6-10.72s-10.12,4.8-10.12,10.87v21h-6.15v-21c0-6.07-3.83-10.87-9.97-10.87s-10.05,4.8-10.05,10.87v21h-6.15v-37.05l.07.07Z"/><path class="cls-1" d="M235.51,190.2h5.85l.3,7.12c2.92-4.95,8.4-7.8,14.25-7.8,10.65.22,18.45,7.72,18.45,19.12s-7.72,19.27-18.82,19.27c-5.25,0-11.1-2.25-14.02-7.5v24.15h-6v-54.37ZM268.2,208.8c0-8.32-5.47-13.27-13.05-13.27s-12.97,5.7-12.97,13.27,5.48,13.27,12.97,13.35c7.42,0,13.05-5.02,13.05-13.35Z"/><path class="cls-1" d="M303.08,189.23c11.32,0,19.27,7.95,19.27,19.42s-8.1,19.12-19.27,19.12-19.2-7.87-19.2-19.12,8.17-19.42,19.2-19.42ZM303.15,194.85c-7.57,0-13.12,5.55-13.12,13.8,0,7.8,5.48,13.35,13.05,13.35s13.12-5.55,13.2-13.35c0-8.25-5.7-13.8-13.12-13.8Z"/><path class="cls-1" d="M339.98,189.98l.45,5.55c2.55-4.8,7.12-6.15,11.4-6.15,3.23-.07,6.38,1.05,8.62,2.77l-2.77,5.25c-1.95-1.35-3.9-2.02-6.45-2.02-5.92.07-10.87,4.27-10.87,11.1v20.62h-6.15v-37.05h5.7l.07-.08Z"/><path class="cls-1" d="M379.73,190.13h11.47v5.25h-11.55v19.57c0,4.35,1.43,7.12,5.85,7.12,1.65,0,3.52-.52,5.17-1.35l1.8,5.1c-2.48,1.12-4.72,1.73-7.2,1.8-7.95.15-11.7-4.5-11.7-12.67v-19.57h-7.42v-5.25h7.42v-10.2l6.15-.68v10.87Z"/><path class="cls-1" d="M454.73,227.25l-.15-6.75c-2.92,5.1-8.55,7.5-13.65,7.5-10.65,0-18.97-7.35-18.97-19.42s8.47-19.2,19.05-19.12c5.55,0,11.02,2.55,13.72,7.35l.07-6.75h6v37.05h-5.92l-.15.15ZM441.23,195.3c-7.35,0-13.27,5.25-13.27,13.5s5.92,13.57,13.27,13.57c17.85,0,17.85-27.15.07-27.15l-.07.07Z"/><path class="cls-1" d="M475.06,189.98h5.62l.3,5.92c3.23-4.42,7.73-6.45,12.67-6.45,9.37,0,16.27,6.3,16.27,17.17v20.47h-6.15v-20.4c0-7.12-4.2-11.55-11.25-11.55-6.75.08-11.4,5.4-11.4,12.07v19.87h-6.07v-37.12Z"/><path class="cls-1" d="M560.1,174.53v52.5h-5.77l-.3-6.75c-3,5.1-8.4,7.5-13.87,7.5-10.57,0-18.75-6.97-18.75-19.2s8.17-19.2,18.67-19.2c5.25,0,11.25,2.4,13.87,7.42v-22.2h6.07l.08-.07ZM540.6,195.08c-7.2,0-13.05,4.73-13.05,13.42s5.85,13.42,13.05,13.42,13.12-5.4,13.12-13.5-5.85-13.35-13.2-13.35h.08Z"/><path class="cls-1" d="M605.56,190.13h11.47v5.25h-11.55v19.57c0,4.35,1.43,7.12,5.85,7.12,1.65,0,3.52-.52,5.17-1.35l1.8,5.1c-2.48,1.12-4.72,1.73-7.2,1.8-7.95.15-11.7-4.5-11.7-12.67v-19.57h-7.42v-5.25h7.42v-10.2l6.15-.68v10.87Z"/><path class="cls-1" d="M633.68,189.98l.45,5.55c2.55-4.8,7.12-6.15,11.4-6.15,3.23-.07,6.38,1.05,8.62,2.77l-2.77,5.25c-1.95-1.35-3.9-2.02-6.45-2.02-5.92.07-10.87,4.27-10.87,11.1v20.62h-6.15v-37.05h5.7l.07-.08Z"/><path class="cls-1" d="M692.25,227.25l-.15-6.75c-2.92,5.1-8.55,7.5-13.65,7.5-10.65,0-18.97-7.35-18.97-19.42s8.47-19.2,19.05-19.12c5.55,0,11.02,2.55,13.72,7.35l.07-6.75h6v37.05h-5.92l-.15.15ZM678.75,195.3c-7.35,0-13.27,5.25-13.27,13.5s5.92,13.57,13.27,13.57c17.85,0,17.85-27.15.07-27.15l-.07.07Z"/><path class="cls-1" d="M749.03,174.53v52.5h-5.77l-.3-6.75c-3,5.1-8.4,7.5-13.87,7.5-10.57,0-18.75-6.97-18.75-19.2s8.17-19.2,18.67-19.2c5.25,0,11.25,2.4,13.87,7.42v-22.2h6.08l.07-.07ZM729.53,195.08c-7.2,0-13.05,4.73-13.05,13.42s5.85,13.42,13.05,13.42,13.12-5.4,13.12-13.5-5.85-13.35-13.2-13.35h.08Z"/><path class="cls-1" d="M796.43,221.17c-3.75,4.42-10.2,6.6-15.97,6.6-11.47,0-19.5-7.57-19.5-19.35s8.02-19.2,19.2-19.2,19.95,6.97,18.52,21.75h-31.5c.68,6.82,6.3,11.1,13.42,11.1,4.2,0,9.3-1.65,11.77-4.65l4.12,3.75h-.08ZM792.83,205.87c-.3-7.2-5.25-11.1-12.52-11.1-6.45,0-12.07,3.9-13.12,11.02h25.65v.08Z"/></svg>