<?xml version="1.0" encoding="UTF-8"?><svg id="Layer_1" xmlns="http://www.w3.org/2000/svg" viewBox="0 0 433.64 475.92"><defs><style>.cls-1{fill:#350b1c;}.cls-1,.cls-2,.cls-3{stroke-width:0px;}.cls-2{fill:#d3639c;}.cls-3{fill:#9b2a5e;}</style></defs><path class="cls-3" d="M356.15,168.09l15.81,281.09c.16,2.76-1.58,5.28-4.22,6.11-25.56,8.05-156.72,44.64-292.42-4.61-2.37-.86-3.95-3.12-3.96-5.65l-1.58-277.46,1.89-13.71L0,118.18,35.18,38.86c.67-1.51,1.92-2.68,3.48-3.24L131.92,1.97s30.55,35.21,72.19,34.34c41.63-.86,74.08-36.31,74.08-36.31,26.79,5.84,82.85,21.94,94.61,25.34,1.42.41,2.63,1.32,3.42,2.57l57.42,90.27-80.33,38.13,2.84,11.78Z"/><path class="cls-2" d="M129.14,188.13c-.04.12-.08.25-.11.38h0s.02.04.03.06c.02-.15.04-.3.08-.44Z"/><path class="cls-2" d="M321.43,199.45c-.92-.87-2.32-1.08-3.83-.58-.47.15-.98.36-1.52.57-4.57,1.83-11.47,4.58-20.81-9.69-4.2-6.42-11.29-10.63-19.45-11.57-7.74-.89-15.4,1.27-21.43,5.98l4.52-34.29h0s3.78-3.48,3.78-3.48c.22-.21.35-.5.35-.8v-9.27c0-.07-.01-.15-.03-.23,0-.04-.02-.07-.03-.11,0-.02,0-.03-.02-.05,0-.03-.02-.07-.04-.09-.02-.03-.03-.06-.05-.09l-.05-.07s-.07-.09-.11-.13c-.06-.06-.13-.11-.2-.15-.03-.02-.07-.04-.12-.06l-.07-.03-2.66-1.22c-2.12-5.68-6.95-15.47-16.8-22.65l13.72-23,.65-1.08-.95-.55-8.13-4.72-.94-.54-.62,1.08-13.53,23.45c-.13-.05-.26-.1-.39-.15-.1-.04-.21-.08-.31-.12-.25-.1-.51-.19-.77-.28-5.44-1.92-11.48-2.88-17.94-2.83-30.89.22-38.36,25.79-40.14,36.8v.09s-2.9,2.81-2.9,2.81c-.02.02-.03.03-.04.05-.02.02-.03.04-.05.06-.02.02-.03.05-.05.07-.02.02-.03.05-.05.08-.01.02-.02.03-.03.06-.01.03-.02.05-.03.08-.02.05-.04.1-.05.15,0,.02,0,.05-.01.07,0,.02,0,.04-.01.06,0,.03,0,.07,0,.1v.06s0,.03,0,.06h0s.64,9.97.64,9.97c.02.4.27.76.63.92l3.18,1.46h0s5.77,27.33,5.77,27.33c-3.45-2.74-11.11-7.75-20-6.62-7.53.96-14.14,6.1-19.64,15.29-5.84,9.75-10.89,15.08-15.02,15.82-2.8.5-4.89-1.17-6.73-2.65-1.55-1.24-3.01-2.41-4.68-2.02-2.19.52-3.69,2.33-3.83,4.61,0,.02,0,.04,0,.06-.17,3.27,2.35,7.74,9.96,10.45,2.33.83,4.55,1.19,6.65,1.19,8.34,0,15.04-5.72,21.1-10.88,5.8-4.95,10.82-9.24,15.9-7.4.75.27,1.52.54,2.29.81-5.09,1.52-9.46,5.01-12.35,9.98-4.89,8.4-8.85,13.59-12.86,16.83-4.65,3.76-9.51,5-15.28,3.91-7.48-1.42-11.44-1.16-12.87.83-.79,1.11-.69,2.57.31,4.35,1.08,1.91,3.2,3.78,6.14,5.4,4.97,2.73,10.88,4.14,17.26,4.14,1.02,0,2.06-.03,3.11-.11,8.09-.57,16.56-3.38,24.52-8.12,4.88-2.91,8.15-5.78,10.77-8.08,4.94-4.34,7.44-6.54,14.79-4.24,1.16,1.16,7.03,6.69,16.4,9.68,3.35,1.07,7.39,1.86,11.98,1.86,8.35,0,18.53-2.63,29.74-11.03,9.59-.5,14.96,6.51,18.94,13.45,3.51,6.12,9.23,10.33,15.7,11.55,1.2.23,2.56.38,4.06.38,4.88,0,11.24-1.58,18.34-7.28,5.02-4.02,7.21-7.3,6.52-9.76,0-.03-.01-.05-.02-.08,0,0,0-.02,0-.03-.21-.68-.77-1.58-2.16-2.09-2.64-.97-7.12.05-10.89,2.46-.87.56-2.07.62-3.45.17-1.98-.65-8.96-4.09-15.59-21.22-2.84-7.33-10.1-10.57-17.39-10.89,5.78-2.35,12.87-3.14,19.48,1.82,6.36,4.77,13.46,7.44,20.54,7.74.44.02.87.03,1.31.03,5.23,0,10.19-1.31,13.78-3.66,2.6-1.7,4.36-3.85,4.94-6.03.45-1.67.15-3.16-.84-4.09Z"/><polygon class="cls-1" points="440.06 128.85 356.15 168.09 353.31 156.31 433.64 118.18 436.84 123.49 440.06 128.85"/><polygon class="cls-1" points="71.67 153.86 69.78 167.57 -4.09 128.7 -4.09 127.4 0 118.18 71.67 153.86"/><path class="cls-1" d="M278.19,0s-32.45,35.45-74.08,36.31c-41.64.87-72.19-34.34-72.19-34.34l7.02-2.53c2.14-.77,4.52-.29,6.18,1.26,7.6,7.13,30.83,26.62,56.38,25.21,31.23-1.74,58.99-24.29,62.46-27.76l14.2,1.85h.03Z"/><path class="cls-2" d="M145.12.7c-1.66-1.55-4.04-2.03-6.18-1.26l-7.02,2.53,10.6-4.09,2.6,2.82Z"/></svg>