<?xml version="1.0" encoding="UTF-8"?><svg id="Layer_1" xmlns="http://www.w3.org/2000/svg" viewBox="0 0 612.09 369.89"><defs><style>.cls-1{fill:#d3639c;}.cls-1,.cls-2{stroke-width:0px;}.cls-2{fill:#9b2a5e;}</style></defs><path class="cls-1" d="M0,369.89s8.07-147.49,123.29-142.88c115.23,4.61,122.14,142.88,122.14,142.88H0Z"/><path class="cls-2" d="M19.95,293.47s-33.06-45.72,0-79.14,66.81,16.93,66.81,16.93l-66.81,62.21Z"/><path class="cls-2" d="M221.35,294.56s33.06-45.72,0-79.14c-33.06-33.42-66.81,16.93-66.81,16.93l66.81,62.21Z"/><path class="cls-1" d="M527.15,88.73l-12.66,1.15-17.29,230.46s-9.23,49.56-50.71,49.56h-38.93l-1.28-295h126.63s6.91,12.68-5.77,13.83Z"/><path class="cls-2" d="M407.57,369.89h-41.48c-41.48,0-50.69-49.56-50.69-49.56l-17.29-230.46-12.68-1.15c-12.68-1.15-5.76-13.83-5.76-13.83h126.62l1.28,295Z"/><rect class="cls-2" x="582.13" width="29.96" height="369.89"/></svg>