<?xml version="1.0" encoding="UTF-8"?><svg id="Layer_2" xmlns="http://www.w3.org/2000/svg" viewBox="0 0 190.9 277.53"><defs><style>.cls-1{stroke:#8e335d;stroke-miterlimit:10;stroke-width:1.58px;}.cls-1,.cls-2{fill:#fff;}.cls-3{fill:#8e335d;}</style></defs><polygon class="cls-3" points="115.5 0 104.92 114.4 104.49 119.07 104.34 120.7 103.97 124.68 103.82 126.36 100.28 164.65 100.14 166.12 100.12 166.29 99.21 176.12 99.06 177.77 98.59 182.92 98.43 184.56 98.22 186.88 98.07 188.52 98.01 189.13 97.88 190.51 97.02 199.83 96.94 200.73 96.88 201.33 96.16 209.15 95.58 215.46 92.56 248.11 89.91 276.74 68.42 276.74 70.79 251.05 74.08 215.46 74.67 209.15 75.38 201.39 75.45 200.73 75.53 199.77 75.79 197.05 75.94 195.41 75.97 195.08 76.12 193.44 76.16 192.98 76.31 191.34 76.37 190.77 76.52 189.13 76.57 188.52 76.73 186.88 76.94 184.56 77.09 182.92 77.57 177.77 77.72 176.12 78.63 166.29 78.71 165.45 78.78 164.65 82.2 127.71 82.36 125.9 82.79 121.27 82.95 119.6 83.61 112.43 91.81 23.74 115.5 0"/><polygon class="cls-1" points="180.64 215.46 176.54 276.74 14.36 276.74 10.25 215.46 180.64 215.46"/><path class="cls-3" d="M23.44,276.74l-1.79-27.72c-.42-4.69,5.24-7.36,8.59-4.04,4.3,4.25,9.26,8.51,13.26,10.18,8.72,3.63,17.53,1.07,25.54-3.13.59-.31,1.17-.63,1.75-.98,3.25-1.88,6.4-4.12,9.82-5.6,3.87-1.67,7.75.06,11.09,2.11.29.18.58.36.86.55,6.21,4.02,11.68,9.93,19.06,11.73,8.03,1.96,14.92-2.18,22.64-3.35,8.83-1.34,16.95,4.99,24.63,8.47.03.01.06.03.08.04,4.68,2.11,7.7,6.69,7.77,11.74H23.44Z"/><rect class="cls-1" x=".79" y="200.73" width="189.32" height="8.41" rx="1.55" ry="1.55"/><rect class="cls-1" x="8.15" y="209.15" width="174.59" height="6.31" rx="1.55" ry="1.55"/><path class="cls-3" d="M186.97,194.11c-.07-.05-.13-.11-.17-.14.75-1.14,1.21-2.51,1.21-3.99,0-3.89-3.12-7.06-6.98-7.06h-1.5c-.23-4.79-.82-12.33-5.31-21.06-4.22-8.24-9.96-15.59-16.95-21.74-.07-.73-.35-2.63-1.33-5.33-2.36-6.54-10.76-25.69-16.88-29.49-2.83-1.77-5.7-1.58-8.06.52-2.24,2.01-8.14,9.64-9.7,11.8-.98,1.37-1.64,2.55-2.06,3.63-4.78-1.08-9.72-1.81-14.75-2.18-2.48-.19-4.98-.29-7.5-.3h-.49c-4.67,0-9.15.27-13.55.83-2.33.29-4.63.66-6.93,1.12-1.22-3.89-4.31-8.6-6.76-11.93l-.27-.36c-1-1.39-1.97-2.69-3.12-3.73-1.98-1.75-4.19-2.37-6.96-1.92-2.16.37-4.26,1.43-6.21,3.2-3.97,3.58-7.73,10.01-11.15,19.11-2.11,5.64-3.43,10.61-3.81,12.11-9.57,7.81-15.38,17.51-18.8,25.28-4.11,9.37-5.55,17.42-5.97,20.44h-1.85c-3.85,0-6.97,3.17-6.97,7.06,0,1.28.33,2.49.93,3.51l-.11.08c-.17.12-.35.25-.53.38-1.97,1.44-4.95,3.6-4.04,7.05l.17.6h.38l74.43-.21,21.5-.06,30.14-.08,62.49-.18h.84l.18-.55c.77-2.32-1.95-4.87-3.56-6.41ZM189.02,199.45h-5.52c.13-.48.31-1.28.44-2.16.03-.25.03-.55.02-.89.63-.31,1.24-.72,1.77-1.19.03.04.07.07.11.11,1,.95,2.97,2.79,3.18,4.13ZM25.33,190.9c-.05-.06-.11-.09-.16-.13h22.94c-.33.11-.69.29-1.04.57h-10.34c-.16-.06-.34-.08-.55-.06-.07,0-.14.02-.23.06h-10.29c-.09-.19-.2-.33-.33-.44ZM25.44,193.42v.11c.02.47-.09,1-.27,1.53-.04.11-.09.22-.13.35-.24.57-.55,1.15-.86,1.64-.34.55-.69.99-.93,1.25-.09-.3-.24-.73-.36-1.25-.09-.34-.17-.71-.24-1.09-.04-.17-.04-.35-.04-.55.02-.11.02-.24.04-.35.05-.51.2-1.09.38-1.64.06-.15.11-.29.17-.44.22-.58.49-1.11.75-1.44.07-.09.12-.17.18-.2.13-.13.2-.15.22-.15h.09c.2,0,.35.04.46.15t0,.01c.28.24.44.77.52,1.63,0,.13,0,.27,0,.44ZM93.94,195.1v.09c0,.07.02.15.02.22h-10.16c.02-.11.04-.22.06-.31h10.08ZM83.91,192.98h10.23c-.03.15-.09.31-.11.48h-10.08c0-.17-.02-.33-.04-.48ZM94.31,197.05c.4,1.19,1.07,2.07,1.62,2.65l-14.54.04c.61-.64,1.32-1.57,1.83-2.69h11.09ZM83.49,191.34c-.11-.22-.22-.41-.34-.57h12.4c-.11.09-.22.18-.31.27-.09.1-.17.19-.26.3h-11.49ZM83.29,192.98c.02.15.04.31.06.48v.2c.03.49-.02.96-.11,1.44-.02.11-.06.2-.08.31-.14.57-.38,1.13-.63,1.64-.63,1.25-1.47,2.23-2.01,2.69-.11.11-.2.18-.28.22-.07-.06-.16-.13-.29-.22-.51-.42-1.41-1.3-1.94-2.69-.18-.49-.33-1.04-.38-1.64-.02-.09-.02-.16-.02-.26-.02-.01-.02-.05-.02-.07-.03-.58.02-1.13.15-1.64.04-.15.09-.31.15-.46.18-.44.42-.84.71-1.19.14-.16.31-.33.49-.45.29-.24.6-.44.9-.57.34-.15.65-.24.91-.26.09-.01.2-.01.29-.01.35,0,.73.05,1.08.27.05.04.11.09.18.15.13.11.24.25.33.42.26.38.42.95.51,1.64ZM78.2,191.34h-12.48s-.05-.06-.07-.09c-.53-.46-1.17-.48-1.61-.44-.37.02-.86.18-1.37.53h-12.24c-.05-.09-.13-.17-.22-.24-.18-.15-.36-.26-.56-.33h29.15c-.22.16-.42.35-.6.57ZM77.01,195.41h-10.45c.02-.11.04-.22.04-.33h10.39v.11c0,.07.02.15.02.22ZM66.56,193.44c-.02-.17-.05-.31-.07-.46h10.76c-.06.15-.09.31-.13.46h-10.56ZM51.16,193.44c-.02-.17-.05-.31-.07-.46h10.19c-.07.15-.13.29-.18.46h-9.94ZM60.83,195.08v.33h-9.72c.03-.11.03-.22.05-.33h9.67ZM61.06,197.05c.35,1.28.97,2.18,1.48,2.74l-13.61.04c.55-.6,1.25-1.61,1.72-2.78h10.41ZM61.7,197.05c-.13-.43-.22-.93-.25-1.46v-.51c.01-.64.12-1.19.31-1.64.07-.17.14-.31.23-.46.63-1.08,1.61-1.53,2.1-1.57h.22c.31,0,.64.05.92.29.29.26.49.68.62,1.28.03.15.07.29.09.46.04.25.05.51.07.8.02.29,0,.57-.03.84,0,.11-.02.22-.04.33-.09.57-.27,1.13-.48,1.64-.54,1.3-1.37,2.34-1.8,2.74-.04.04-.09.08-.11.1-.04-.02-.09-.06-.13-.1-.44-.38-1.28-1.27-1.72-2.74ZM49.81,191.57c.31.26.53.73.66,1.41.02.13.05.29.07.46.02.2.04.42.06.65.01.33,0,.66-.04.99l-.05.33c-.11.57-.3,1.13-.53,1.64-.61,1.37-1.48,2.41-1.87,2.71-.34-.3-1.28-1.17-1.77-2.71-.16-.47-.27-1-.31-1.6v-.39c0-.64.09-1.17.27-1.64.06-.15.11-.31.2-.44.52-.99,1.32-1.48,1.87-1.64.11-.04.22-.06.29-.06.09-.02.16-.02.24-.02.16,0,.33.02.49.08.15.03.29.11.42.23ZM45.41,195.06c0,.11,0,.22.02.35h-7.71c.04-.13.09-.24.11-.35h7.58ZM37.83,192.98h7.98c-.07.15-.13.29-.16.44h-7.75c-.02-.17-.03-.31-.07-.44ZM45.68,197.05c.39,1.36,1.1,2.27,1.61,2.78l-13.11.04c.51-.3,1.73-1.48,2.64-2.82h8.86ZM25.81,195.06h7.32c-.03.11-.05.22-.07.35h-7.36c.04-.13.07-.24.11-.35ZM26.07,193.42c0-.17-.02-.31-.02-.44h7.96c-.09.13-.18.29-.27.44h-7.67ZM33.61,196.1c0-.23.04-.47.07-.69.02-.13.06-.24.08-.35.16-.64.4-1.18.69-1.64.11-.17.22-.31.33-.44.53-.68,1.11-1.06,1.46-1.08h.09c.2,0,.35.04.48.15.18.16.31.47.4.93.03.13.05.27.07.44.02.24.06.51.06.82,0,.26-.04.53-.13.82-.04.11-.09.22-.15.35-.22.53-.58,1.1-.97,1.64-.73.99-1.6,1.85-2.02,2.16-.17-.31-.42-.99-.48-2.16,0-.29,0-.6.02-.95ZM66.12,197.05h11.24c.42,1.23,1.09,2.12,1.68,2.71h-3.51s-11.02.03-11.02.03c.55-.64,1.17-1.62,1.61-2.74ZM94.96,197.05c-.18-.49-.31-1.04-.38-1.64-.02-.09-.02-.16-.02-.26,0-.01-.02-.03-.02-.05-.03-.64.02-1.17.11-1.64.04-.17.09-.33.13-.48.24-.69.59-1.19.9-1.52.05-.03.11-.09.14-.12.28-.26.57-.44.84-.57.4-.18.79-.26,1.08-.26h.14c.28.01.61.09.92.26.22.13.42.29.62.57.26.36.49.87.66,1.64.02.15.05.31.07.48.06.34.09.74.11,1.16.02.17.02.33,0,.48,0,.11,0,.2-.02.31-.05.58-.22,1.15-.44,1.64-.58,1.26-1.53,2.18-2.17,2.65-.18.11-.33.2-.44.26-.04-.03-.1-.08-.17-.13-.05-.04-.11-.08-.17-.13-.53-.44-1.37-1.31-1.89-2.65ZM154.31,193.49h-7.31c-.05-.18-.12-.36-.2-.51h7.56c-.01.15-.03.33-.05.51ZM154.44,195.14c.03.09.07.18.11.27h-7.35c.02-.09.02-.2.02-.27h7.22ZM146.95,197.05h8.51c.75,1.06,1.68,2.01,2.27,2.49l-12.11.02c.47-.55,1-1.37,1.33-2.51ZM183.1,194.99c-.15.05-.3.11-.44.16h.47c.13.52.2,1.05.22,1.5,0,.2,0,.39-.02.55-.12.84-.31,1.61-.43,2.1-.33-.47-.81-1.35-1.15-2.28-.21-.55-.35-1.1-.43-1.63,0-.07,0-.16-.01-.24v-.29c.01-.55.05-1,.12-1.35.04-.22.1-.4.17-.53.04-.11.09-.18.15-.24.05-.05.12-.09.27-.09h.05c.08.02.19.15.28.33.09.13.18.31.27.53.17.4.33.93.48,1.48ZM183.04,192.98h2.45c-.13.18-.26.37-.4.53h-1.81c-.07-.2-.16-.38-.24-.53ZM182.27,199.46l-4.85.02c.14-.51.38-1.4.54-2.39v-.04h3.07s.06,0,.08-.01c.32.93.76,1.82,1.16,2.42ZM177.82,195.14h2.88c0,.09,0,.18.02.27h-2.85c-.02-.09-.03-.18-.05-.27ZM180.8,193.51h-3.46c-.07-.2-.14-.37-.22-.53h3.8c-.03.15-.09.33-.12.53ZM177.2,195.14l.05.27c.11.6.17,1.17.09,1.57v.07c-.14.9-.36,1.72-.51,2.21-.33-.43-.86-1.27-1.28-2.21-.23-.54-.42-1.11-.53-1.64-.02-.09-.03-.18-.03-.27-.04-.2-.06-.41-.06-.59.02-.4.06-.75.09-1.04.02-.2.06-.38.09-.53.1-.33.19-.53.33-.66.09-.07.2-.11.35-.11h.09s.09.02.28.28c.09.13.2.29.29.49.07.15.16.33.24.53.2.49.38,1.08.51,1.63ZM176.25,199.48l-7.46.02c.15-.38.46-1.33.68-2.45h5.43c.38.95.91,1.85,1.35,2.43ZM169.4,195.14h4.97c0,.09.01.18.03.27h-4.95c-.02-.09-.03-.18-.05-.27ZM174.4,193.51l-5.48-.02c-.07-.18-.16-.35-.23-.51h5.8c-.03.15-.07.33-.09.53ZM168.78,195.14l.05.27c.09.51.13.99.07,1.33-.01.09-.03.2-.07.31-.16.84-.38,1.59-.53,2.01-.35-.36-.91-1.13-1.39-2.01-.27-.53-.51-1.09-.65-1.64-.04-.09-.06-.18-.08-.27-.07-.3-.09-.57-.09-.83.02-.31.04-.58.06-.82,0-.18.05-.36.09-.51.09-.42.22-.69.38-.86.13-.11.27-.16.48-.16.03,0,.07,0,.11.02,0,0,.14.01.4.32.13.19.25.41.4.68.07.15.16.33.24.51.22.51.4,1.1.53,1.65ZM166.24,197.05c.49,1.03,1.15,1.96,1.64,2.45l-9.26.04c.2-.35.55-1.12.62-2.49h7ZM159.17,195.41c0-.09-.02-.18-.04-.27h6.43l.06.27h-6.45ZM165.53,193.49h-6.95c-.09-.18-.2-.36-.31-.51h7.33c-.02.15-.06.33-.07.51ZM158.51,195.14c.02.09.04.18.04.27.03.18.05.38.07.58.02.39.02.75,0,1.06-.05,1.1-.31,1.74-.46,2.05-.42-.31-1.24-1.11-1.95-2.05-.4-.53-.77-1.09-1-1.64-.06-.09-.1-.18-.13-.27-.13-.37-.2-.72-.2-1.01,0-.24,0-.44.05-.64,0-.18.04-.36.06-.51.09-.53.23-.86.42-1.04.12-.11.29-.17.47-.17h.11c.37.04.99.46,1.55,1.21.11.15.22.33.33.51.28.48.49,1.02.64,1.65ZM146.6,195.41s0,.04-.02.07c-.03.59-.12,1.1-.27,1.57-.4,1.26-1.11,2.1-1.55,2.52-.09.1-.19.17-.26.21-.05-.04-.13-.11-.22-.21-.44-.45-1.15-1.37-1.64-2.52-.24-.51-.4-1.07-.51-1.64-.02-.09-.04-.18-.06-.29-.03-.31-.05-.64-.03-.99.01-.24.03-.44.05-.66.02-.18.04-.34.07-.49.13-.66.35-1.11.66-1.37.17-.16.35-.24.55-.27h.75c.55.11,1.44.6,1.99,1.64.09.15.16.31.24.51.16.46.25,1.01.25,1.65v.27ZM116.74,193.47c-.04-.18-.08-.34-.13-.49h9.26c-.04.15-.07.31-.09.49h-9.04ZM125.74,195.41h-8.89c0-.07,0-.15.02-.22v-.07h8.85c0,.09.02.2.02.29ZM126.16,197.05c.37,1.01.92,1.9,1.41,2.56l-12.66.04c.55-.59,1.19-1.43,1.57-2.6h9.68ZM126.82,197.05c-.22-.51-.37-1.07-.46-1.64-.02-.09-.02-.2-.03-.29-.02-.26-.02-.5-.02-.75.02-.33.05-.62.09-.9.02-.18.05-.34.09-.49.15-.53.33-.91.6-1.15.28-.24.61-.31.92-.31.07,0,.14.02.23.02.46.03,1.39.45,2.01,1.44.11.15.19.31.28.49.2.46.33,1.01.34,1.65v.58c-.03.5-.1.95-.21,1.35-.35,1.23-.97,2.07-1.45,2.56-.16.18-.33.31-.42.4-.11-.07-.25-.22-.42-.4-.45-.53-1.11-1.44-1.55-2.56ZM131.29,197.05h10.67c.4,1.01.97,1.9,1.48,2.52l-13.39.04c.46-.58.97-1.42,1.24-2.56ZM141.47,193.47h-10.27c-.07-.18-.14-.34-.22-.49h10.56c-.03.15-.05.33-.07.49ZM141.51,195.41h-10.01v-.29h9.97c0,.11.02.2.04.29ZM142.4,191.14c-.05.05-.13.12-.18.2h-12.77c-.42-.26-.84-.39-1.17-.42-.42-.04-1.02-.02-1.55.42h-11.07c-.2-.22-.4-.41-.62-.57h28.04c-.24.07-.46.18-.68.37ZM115.24,191.79c.31.35.55.75.71,1.19.06.15.11.31.17.49.12.5.16,1.04.12,1.65v.03c0,.1-.01.17-.01.26-.08.6-.22,1.15-.41,1.64-.49,1.3-1.29,2.14-1.82,2.6-.17.14-.29.24-.39.31-.11-.06-.23-.17-.4-.31-.53-.5-1.31-1.43-1.9-2.6-.25-.51-.47-1.07-.62-1.64-.04-.11-.05-.2-.07-.31-.11-.46-.15-.95-.13-1.44,0-.06.02-.13.02-.19.02-.18.03-.34.05-.49.09-.69.26-1.26.5-1.64.11-.17.22-.31.34-.42.06-.06.11-.11.19-.15.32-.22.71-.27,1.06-.27.11,0,.2,0,.29.01.25.02.58.11.93.26.29.13.6.33.89.57.17.12.33.29.48.45ZM109.89,193.47h-9.12c-.02-.18-.05-.34-.07-.49h9.24c-.02.15-.03.31-.05.49ZM109.98,195.1c.02.11.04.2.07.31h-9.19c.02-.11.02-.2.02-.31h9.1ZM110.62,197.05c.51,1.06,1.17,1.98,1.75,2.6l-13.75.05c.67-.62,1.42-1.51,1.86-2.65h10.14ZM110.36,191.34h-10.23c-.11-.22-.23-.41-.38-.57h10.94c-.13.16-.24.35-.33.57ZM186.2,191.34h-29.63c-.2-.11-.38-.17-.54-.17-.31-.02-.59.04-.81.17h-9.7c-.38-.3-.78-.48-1.11-.57h41.9c-.03.18-.05.38-.11.57ZM122.64,118.58c1.75-2.46,7.45-9.75,9.46-11.54,1.81-1.63,3.85-1.74,6.1-.35,2.36,1.46,5.53,5.96,9.19,12.95,3.01,5.79,5.68,12.06,6.99,15.71.46,1.23.75,2.27.93,3.09-4.11-3.38-8.62-6.38-13.46-8.95-6.5-3.42-13.57-6.07-20.98-7.86.36-.89.95-1.9,1.77-3.05ZM53.79,107.2c1.72-1.55,3.55-2.48,5.39-2.79,2.28-.38,4,.09,5.59,1.52,1.02.91,1.94,2.15,2.89,3.47l.27.36c1.94,2.61,5.22,7.45,6.47,11.31-7.67,1.68-15.35,4.33-23.66,8.07-4.03,1.83-7.65,4-10.87,6.39,1.74-6.13,6.69-21.8,13.92-28.33ZM20.48,163.08c4.62-10.5,13.75-24.66,30.94-32.44,11.08-5.01,21.03-8.01,31.37-9.37,4.46-.58,8.98-.86,13.71-.86h.47c2.47.01,4.93.11,7.37.29,13.23.98,25.81,4.48,36.75,10.25,13.86,7.32,24.82,18.27,31.67,31.65,2.57,5.01,3.82,9.63,4.46,13.52H16.02c.91-3.63,2.3-8.18,4.46-13.04ZM15.62,177.77h161.83c.26,1.95.37,3.68.44,5.15H14.63c.18-1.14.48-2.93.99-5.15ZM11.12,184.56h169.91c1.81,0,3.4.91,4.37,2.32H6.76c.95-1.41,2.56-2.32,4.36-2.32ZM5.99,188.52h180.18c.05.2.11.41.12.61H5.85c.03-.2.09-.41.14-.61ZM23.84,190.77c-.13.09-.26.22-.39.38-.03.06-.07.11-.11.19h-7.52c-.04-.06-.07-.08-.11-.11-.26-.24-.59-.33-.97-.3-.24,0-.46.15-.68.41H5.95c-.05-.19-.09-.39-.1-.57h17.99ZM16.4,193.42c0-.17-.02-.31-.03-.44h6.17c-.05.15-.09.29-.15.44h-5.99ZM22.03,195.06c-.02.11-.02.24-.02.35h-5.83c.04-.13.08-.24.11-.37l5.74.02ZM9.44,193.4c0-.16-.05-.29-.09-.42h3.82c-.06.13-.11.27-.15.44l-3.58-.02ZM12.6,195.04c0,.13-.03.24-.05.37h-1.43c-.56,0-1.11-.09-1.62-.26,0-.03.02-.07.02-.11h3.08ZM13.17,195.41c.02-.13.04-.24.05-.37.1-.53.26-1.09.44-1.62.06-.17.11-.31.17-.44.2-.47.42-.88.62-1.15.22-.27.33-.29.33-.29h.09c.18,0,.33.03.44.14.22.2.36.62.44,1.3,0,.13.03.27.05.44,0,.15.02.29.02.46.02.36-.06.76-.17,1.16-.03.13-.07.24-.11.37-.18.57-.45,1.13-.74,1.64-.37.68-.79,1.26-1.06,1.57-.11-.36-.28-.93-.42-1.57-.06-.23-.11-.49-.15-.75-.04-.23-.04-.54,0-.89ZM7.07,195.72c.02-.22.05-.44.11-.68.09-.36.18-.74.31-1.09.05-.2.13-.38.2-.55.07-.16.13-.31.2-.42.13-.24.24-.38.33-.42h.05c.13,0,.21.04.24.09.08.06.15.17.2.33.04.11.08.26.11.42.06.31.09.69.09,1.15.02.13,0,.24,0,.37,0,.03,0,.09,0,.12-.06.48-.22.99-.41,1.48-.33.83-.75,1.59-1.06,2.01-.11-.44-.27-1.11-.38-1.84-.04-.28-.04-.6.02-.97ZM6.98,193.4c-.11-.13-.2-.27-.31-.42h.55c-.06.13-.13.27-.19.42h-.05ZM5.41,195.28c.11-.07.22-.16.33-.24h.53c.07.1.16.17.25.24-.11.57-.15,1.1-.07,1.5.2,1.3.53,2.41.55,2.45l.11.33.31-.13c.4-.18,1.17-1.39,1.66-2.69.64.2,1.33.31,2.04.31h1.57c.26,1.21.59,2.14.61,2.2l.11.29.29-.11c.38-.15,1.17-1.15,1.81-2.38h6.74c.25,1.04.55,1.81.56,1.85l.1.29.29-.11c.36-.13,1.08-.97,1.7-2.03h8.09c.07,1.98.69,2.74.73,2.78l.04.04-31.88.09c-.13-1.85,1.46-3.18,3.53-4.68Z"/><path class="cls-2" d="M155.31,138.44c-4.11-3.38-8.62-6.37-13.46-8.95-6.5-3.42-13.57-6.06-20.99-7.85.37-.9.95-1.9,1.77-3.05,1.75-2.47,7.45-9.75,9.46-11.54,1.81-1.63,3.85-1.74,6.1-.35,2.36,1.46,5.53,5.95,9.19,12.95,3.01,5.79,5.68,12.06,7,15.71.46,1.22.75,2.26.93,3.09Z"/><path class="cls-2" d="M74.4,121.07c-7.67,1.68-15.34,4.33-23.65,8.07-4.04,1.83-7.65,4-10.87,6.39,1.74-6.14,6.69-21.81,13.92-28.33,1.72-1.55,3.54-2.48,5.39-2.79,2.28-.38,4,.09,5.59,1.52,1.02.91,1.94,2.16,2.89,3.47l.27.37c1.94,2.61,5.22,7.45,6.47,11.31Z"/><path class="cls-2" d="M172.76,162.6c-6.85-13.38-17.81-24.33-31.67-31.65-10.94-5.77-23.52-9.27-36.75-10.25-2.44-.18-4.9-.28-7.37-.29h-.47c-4.73,0-9.25.28-13.71.86-10.34,1.36-20.29,4.36-31.37,9.37-17.19,7.78-26.32,21.94-30.94,32.44-2.16,4.86-3.55,9.41-4.46,13.04h161.2c-.64-3.89-1.89-8.51-4.46-13.52ZM123.79,157.98c0,4.59-3.67,8.31-8.2,8.31h-40.28c-4.53,0-8.2-3.72-8.2-8.31v-14.7c0-4.06,2.9-8.75,5.81-11.58,2.06-2.02,5.1-4.23,9.44-5.8h0c3.68-1.33,8.29-2.2,14.04-2.09,2.8.05,5.32.37,7.56.87,7.37,1.67,11.87,5.4,14.5,8.64,4.2,5.16,5.32,10.91,5.32,13.5v11.16Z"/><path class="cls-2" d="M7.22,192.98c-.05.13-.13.27-.18.42h-.05c-.11-.13-.2-.27-.31-.42h.55Z"/><path class="cls-2" d="M13.17,192.98c-.05.13-.11.27-.15.44l-3.58-.02c-.02-.16-.05-.29-.09-.42h3.82Z"/><path class="cls-2" d="M12.6,195.04c-.02.13-.04.24-.05.37h-1.42c-.57,0-1.11-.09-1.63-.26,0-.04.02-.07.02-.11h3.09Z"/><path class="cls-2" d="M22.03,195.06c-.02.11-.02.24-.02.35h-5.83c.04-.13.07-.24.11-.37l5.74.02Z"/><path class="cls-2" d="M22.54,192.98c-.05.15-.09.29-.15.44h-5.99c0-.16-.02-.31-.04-.44h6.17Z"/><path class="cls-2" d="M23.84,190.77c-.13.09-.26.22-.38.38-.04.05-.07.11-.11.18h-7.53c-.04-.05-.07-.07-.11-.11-.26-.24-.58-.33-.97-.29-.24,0-.46.15-.68.4H5.95c-.05-.18-.09-.38-.11-.57h17.99Z"/><path class="cls-2" d="M34.01,192.98c-.09.13-.18.29-.27.44h-7.67c0-.16-.02-.31-.02-.44h7.96Z"/><path class="cls-2" d="M33.13,195.06c-.04.11-.05.22-.07.35h-7.36c.04-.13.07-.24.11-.35h7.32Z"/><path class="cls-2" d="M45.43,195.41h-7.71c.04-.13.09-.24.11-.35h7.58c0,.11,0,.22.02.35Z"/><path class="cls-2" d="M45.81,192.98c-.07.15-.13.29-.16.44h-7.74c-.02-.16-.04-.31-.07-.44h7.98Z"/><path class="cls-2" d="M48.11,190.77c-.33.11-.69.29-1.04.57h-10.34c-.16-.05-.35-.07-.55-.05-.07,0-.15.02-.24.05h-10.28c-.09-.18-.2-.33-.33-.44-.05-.05-.11-.09-.16-.13h22.94Z"/><path class="cls-2" d="M61.28,192.98c-.07.15-.13.29-.18.46h-9.94c-.02-.16-.05-.31-.07-.46h10.19Z"/><path class="cls-2" d="M125.74,195.41h-8.9c0-.07,0-.15.02-.22v-.07h8.86c0,.09.02.2.02.29Z"/><path class="cls-2" d="M125.87,192.98c-.04.15-.07.31-.09.49h-9.04c-.04-.18-.07-.35-.13-.49h9.26Z"/><path class="cls-2" d="M141.51,195.41h-10.01v-.29h9.97c0,.11.02.2.04.29Z"/><path class="cls-2" d="M141.54,192.98c-.04.15-.05.33-.07.49h-10.27c-.07-.18-.15-.35-.22-.49h10.56Z"/><path class="cls-2" d="M143.08,190.77c-.24.07-.46.18-.68.37-.05.05-.13.13-.18.2h-12.77c-.42-.26-.84-.38-1.17-.42-.42-.04-1.02-.02-1.55.42h-11.07c-.2-.22-.4-.4-.62-.57h28.04Z"/><path class="cls-2" d="M154.55,195.41h-7.34c.02-.09.02-.2.02-.27h7.22c.04.09.07.18.11.27Z"/><path class="cls-2" d="M154.36,192.98c-.02.15-.04.33-.05.51h-7.31c-.05-.18-.13-.37-.2-.51h7.56Z"/><path class="cls-2" d="M165.6,192.98c-.02.15-.05.33-.07.51h-6.94c-.09-.18-.2-.37-.31-.51h7.32Z"/><path class="cls-2" d="M165.62,195.41h-6.45c0-.09-.02-.18-.04-.27h6.43l.05.27Z"/><path class="cls-2" d="M174.4,195.41h-4.95c-.02-.09-.04-.18-.05-.27h4.97c0,.09.02.18.04.27Z"/><path class="cls-2" d="M174.49,192.98c-.04.15-.07.33-.09.53l-5.48-.02c-.07-.18-.16-.35-.24-.51h5.81Z"/><path class="cls-2" d="M180.72,195.41h-2.85l-.05-.27,2.89.02c0,.07,0,.16.02.26Z"/><path class="cls-2" d="M180.92,192.98c-.04.15-.09.33-.13.53h-3.45c-.07-.2-.15-.37-.22-.53h3.8Z"/><path class="cls-2" d="M185.49,192.98c-.13.18-.26.37-.4.53h-1.81c-.07-.2-.16-.38-.24-.53h2.45Z"/><path class="cls-2" d="M186.31,190.77c-.04.18-.05.38-.11.57h-29.63c-.2-.11-.38-.16-.55-.16-.31-.02-.58.04-.8.16h-9.7c-.38-.29-.79-.47-1.11-.57h41.9Z"/><path class="cls-2" d="M189.02,199.45l-5.52.02c.13-.49.31-1.3.44-2.17.04-.26.04-.55.02-.9.64-.31,1.24-.71,1.77-1.19.04.04.07.07.11.11,1,.95,2.98,2.79,3.18,4.13Z"/><path class="cls-2" d="M183.35,196.65c0,.2,0,.38-.02.55-.13.84-.31,1.61-.44,2.1-.33-.47-.8-1.35-1.15-2.28-.2-.55-.35-1.1-.42-1.63,0-.07,0-.16-.02-.24v-.29c.02-.55.05-1,.13-1.35.04-.22.09-.4.16-.53.04-.11.09-.18.15-.24.05-.05.13-.09.27-.09h.05c.07.02.18.15.27.33.09.13.18.31.27.53.16.4.33.93.47,1.48-.15.05-.29.11-.44.16h.47c.13.51.2,1.04.22,1.5Z"/><path class="cls-2" d="M182.27,199.46l-4.86.02c.15-.51.38-1.41.55-2.39v-.04h3.07s.05,0,.07-.02c.33.93.77,1.83,1.17,2.43Z"/><path class="cls-2" d="M177.34,196.98v.07c-.15.9-.37,1.72-.51,2.21-.33-.44-.86-1.28-1.28-2.21-.24-.55-.42-1.11-.53-1.64-.02-.09-.04-.18-.04-.27-.04-.2-.06-.4-.06-.58.02-.4.06-.75.09-1.04.02-.2.05-.38.09-.53.09-.33.18-.53.33-.66.09-.07.2-.11.35-.11h.09s.09.02.27.27c.09.13.2.29.29.49.07.15.16.33.24.53.2.49.38,1.08.51,1.63l.05.27c.11.6.16,1.17.09,1.57Z"/><path class="cls-2" d="M176.25,199.48l-7.45.02c.15-.38.46-1.33.68-2.45h5.42c.38.95.91,1.84,1.35,2.43Z"/><path class="cls-2" d="M168.9,196.74c-.02.09-.04.2-.07.31-.16.84-.38,1.59-.53,2.01-.35-.37-.91-1.13-1.39-2.01-.27-.53-.51-1.1-.66-1.64-.04-.09-.05-.18-.07-.27-.07-.29-.09-.57-.09-.82.02-.31.04-.58.05-.82.02-.18.05-.37.09-.51.09-.42.22-.69.38-.86.13-.11.27-.16.47-.16.04,0,.07,0,.11.02,0,0,.15.02.4.33.13.18.26.4.4.68.07.15.16.33.24.51.22.51.4,1.1.53,1.64l.05.27c.09.51.13.99.07,1.33Z"/><path class="cls-2" d="M167.88,199.5l-9.26.04c.2-.35.55-1.11.62-2.48h7c.49,1.02,1.15,1.95,1.64,2.45Z"/><path class="cls-2" d="M158.62,195.99c.02.38.02.75,0,1.06-.05,1.1-.31,1.74-.46,2.05-.42-.31-1.24-1.11-1.95-2.05-.4-.53-.77-1.1-1-1.64-.05-.09-.09-.18-.13-.27-.13-.37-.2-.71-.2-1,.02-.24.02-.44.05-.64,0-.18.04-.37.05-.51.09-.53.24-.86.42-1.04.13-.11.29-.16.47-.16h.11c.37.04.99.46,1.55,1.21.11.15.22.33.33.51.27.47.49,1.02.64,1.64.02.09.04.18.04.27.04.18.05.38.07.58Z"/><path class="cls-2" d="M157.73,199.54l-12.11.02c.47-.55,1-1.37,1.33-2.5h8.51c.75,1.06,1.68,2.01,2.26,2.48Z"/><path class="cls-2" d="M146.6,195.14v.27s0,.04-.02.07c-.04.58-.13,1.1-.27,1.57-.4,1.26-1.11,2.1-1.55,2.52-.09.09-.18.16-.26.2-.05-.04-.13-.11-.22-.2-.44-.46-1.15-1.37-1.64-2.52-.24-.51-.4-1.08-.51-1.64-.02-.09-.04-.18-.05-.29-.04-.31-.05-.64-.04-.99.02-.24.04-.44.05-.66.02-.18.04-.35.07-.49.13-.66.35-1.11.66-1.37.16-.16.35-.24.55-.27h.75c.55.11,1.44.6,1.99,1.64.09.15.16.31.24.51.16.46.26,1,.26,1.64Z"/><path class="cls-2" d="M143.44,199.57l-13.39.04c.46-.58.97-1.42,1.24-2.56h10.67c.4,1,.97,1.9,1.48,2.52Z"/><path class="cls-2" d="M130.87,195.12v.58c-.04.49-.11.95-.22,1.35-.35,1.22-.97,2.06-1.44,2.56-.16.18-.33.31-.42.4-.11-.07-.26-.22-.42-.4-.46-.53-1.11-1.44-1.55-2.56-.22-.51-.37-1.08-.46-1.64-.02-.09-.02-.2-.04-.29-.02-.26-.02-.49-.02-.75.02-.33.05-.62.09-.9.02-.18.05-.35.09-.49.15-.53.33-.91.6-1.15.27-.24.6-.31.91-.31.07,0,.15.02.24.02.46.04,1.39.46,2.01,1.44.11.15.18.31.27.49.2.46.33,1,.35,1.64Z"/><path class="cls-2" d="M8.91,194.55c.02.13,0,.24,0,.37-.02.04-.02.09-.02.13-.05.47-.22.99-.4,1.48-.33.82-.75,1.59-1.06,2.01-.11-.44-.27-1.11-.38-1.84-.04-.27-.04-.6.02-.97.02-.22.05-.44.11-.68.09-.37.18-.75.31-1.1.05-.2.13-.38.2-.55.07-.16.13-.31.2-.42.13-.24.24-.38.33-.42h.05c.13,0,.2.04.24.09.07.05.15.16.2.33.04.11.07.26.11.42.05.31.09.69.09,1.15Z"/><path class="cls-2" d="M15.82,193.88c.02.37-.05.77-.16,1.17-.04.13-.07.24-.11.37-.18.57-.46,1.13-.75,1.64-.37.68-.79,1.26-1.06,1.57-.11-.37-.27-.93-.42-1.57-.05-.24-.11-.49-.15-.75-.04-.24-.04-.55,0-.9.02-.13.04-.24.05-.37.09-.53.26-1.1.44-1.63.05-.16.11-.31.16-.44.2-.47.42-.88.62-1.15.22-.27.33-.29.33-.29h.09c.18,0,.33.04.44.15.22.2.37.62.44,1.3.02.13.04.27.05.44,0,.15.02.29.02.46Z"/><path class="cls-2" d="M25.44,193.42v.11c.02.47-.09,1-.27,1.53-.04.11-.09.22-.13.35-.24.57-.55,1.15-.86,1.64-.35.55-.69.99-.93,1.24-.09-.29-.24-.73-.37-1.24-.09-.35-.16-.71-.24-1.1-.04-.16-.04-.35-.04-.55.02-.11.02-.24.04-.35.05-.51.2-1.1.38-1.64.05-.15.11-.29.16-.44.22-.58.49-1.11.75-1.44.07-.09.13-.16.18-.2.13-.13.2-.15.22-.15h.09c.2,0,.35.04.46.15t.02.02c.27.24.44.77.51,1.63,0,.13.02.27.02.44Z"/><path class="cls-2" d="M37.34,194.24c0,.26-.04.53-.13.82-.04.11-.09.22-.15.35-.22.53-.58,1.1-.97,1.64-.73.99-1.61,1.84-2.03,2.16-.16-.31-.42-.99-.47-2.16,0-.29,0-.6.02-.95,0-.24.04-.47.07-.69.02-.13.05-.24.07-.35.16-.64.4-1.19.69-1.64.11-.16.22-.31.33-.44.53-.68,1.11-1.06,1.46-1.08h.09c.2,0,.35.04.47.15.18.16.31.47.4.93.04.13.05.27.07.44.02.24.05.51.05.82Z"/><path class="cls-2" d="M33.76,199.87l-31.87.09c-.13-1.84,1.46-3.18,3.53-4.68.11-.07.22-.16.33-.24h.53c.07.09.16.16.26.24-.11.57-.15,1.1-.07,1.5.2,1.3.53,2.41.55,2.45l.11.33.31-.13c.4-.18,1.17-1.39,1.66-2.69.64.2,1.33.31,2.05.31h1.57c.26,1.21.58,2.14.6,2.19l.11.29.29-.11c.38-.15,1.17-1.15,1.81-2.37h6.74c.26,1.04.55,1.81.57,1.84l.09.29.29-.11c.37-.13,1.08-.97,1.7-2.03h8.09c.07,1.97.69,2.74.73,2.78l.04.04Z"/><path class="cls-2" d="M47.29,199.83l-13.11.04c.51-.29,1.74-1.48,2.65-2.81h8.86c.38,1.35,1.1,2.26,1.61,2.78Z"/><path class="cls-2" d="M50.6,194.09c.02.33,0,.66-.04.99l-.05.33c-.11.57-.29,1.13-.53,1.64-.6,1.37-1.48,2.41-1.86,2.7-.35-.29-1.28-1.17-1.77-2.7-.16-.47-.27-1-.31-1.61v-.38c0-.64.09-1.17.27-1.64.05-.15.11-.31.2-.44.51-.99,1.32-1.48,1.86-1.64.11-.04.22-.05.29-.05.09-.02.16-.02.24-.02.16,0,.33.02.49.07.15.04.29.11.42.24.31.26.53.73.66,1.41.02.13.05.29.07.46.02.2.04.42.05.66Z"/><path class="cls-2" d="M177.89,182.92H14.63c.18-1.13.47-2.92.99-5.15h161.84c.26,1.95.37,3.69.44,5.15Z"/><path class="cls-2" d="M127.57,199.61l-12.66.04c.55-.58,1.19-1.42,1.57-2.59h9.68c.37,1,.91,1.9,1.41,2.56Z"/><path class="cls-2" d="M62.54,199.79l-13.61.04c.55-.6,1.24-1.61,1.72-2.78h10.41c.35,1.28.97,2.17,1.48,2.74Z"/><path class="cls-2" d="M78.8,190.77c-.22.16-.42.35-.6.57h-12.48s-.05-.05-.07-.09c-.53-.46-1.17-.47-1.61-.44-.37.02-.86.18-1.37.53h-12.24c-.05-.09-.13-.16-.22-.24-.18-.15-.37-.26-.57-.33h29.15Z"/><path class="cls-2" d="M77.25,192.98c-.05.15-.09.31-.13.46h-10.56c-.02-.16-.05-.31-.07-.46h10.76Z"/><path class="cls-2" d="M77.01,195.41h-10.45c.02-.11.04-.22.04-.33h10.39v.11c0,.07.02.15.02.22Z"/><path class="cls-2" d="M185.4,186.88H6.76c.95-1.41,2.56-2.32,4.37-2.32h169.91c1.81,0,3.4.91,4.37,2.32Z"/><path class="cls-2" d="M186.29,189.13H5.85c.04-.2.09-.4.15-.6h180.17c.05.2.11.4.13.6Z"/><path class="cls-2" d="M116.24,195.12v.04c0,.09-.02.16-.02.26-.07.6-.22,1.15-.4,1.64-.49,1.3-1.3,2.14-1.83,2.59-.16.15-.29.24-.38.31-.11-.05-.24-.16-.4-.31-.53-.49-1.32-1.42-1.9-2.59-.26-.51-.47-1.08-.62-1.64-.04-.11-.05-.2-.07-.31-.11-.46-.15-.95-.13-1.44,0-.05.02-.13.02-.18.02-.18.04-.35.05-.49.09-.69.26-1.26.49-1.64.11-.16.22-.31.35-.42.05-.05.11-.11.18-.15.33-.22.71-.27,1.06-.27.11,0,.2,0,.29.02.26.02.58.11.93.26.29.13.6.33.9.57.16.13.33.29.47.46.31.35.55.75.71,1.19.05.15.11.31.16.49.13.49.16,1.04.13,1.64Z"/><path class="cls-2" d="M83.35,193.46v.2c.04.49-.02.97-.11,1.44-.02.11-.05.2-.07.31-.15.57-.38,1.13-.64,1.64-.62,1.24-1.46,2.23-2.01,2.69-.11.11-.2.18-.27.22-.07-.05-.16-.13-.29-.22-.51-.42-1.41-1.3-1.94-2.69-.18-.49-.33-1.04-.38-1.64-.02-.09-.02-.16-.02-.26-.02-.02-.02-.05-.02-.07-.04-.58.02-1.13.15-1.64.04-.15.09-.31.15-.46.18-.44.42-.84.71-1.19.15-.16.31-.33.49-.46.29-.24.6-.44.89-.57.35-.15.66-.24.91-.26.09-.02.2-.02.29-.02.35,0,.73.05,1.08.27.05.04.11.09.18.15.13.11.24.26.33.42.26.38.42.95.51,1.64.02.15.04.31.05.47Z"/><path class="cls-2" d="M79.04,199.76l-14.52.04c.55-.64,1.17-1.63,1.61-2.74h11.23c.42,1.22,1.1,2.12,1.68,2.7Z"/><path class="cls-2" d="M95.93,199.7l-14.54.04c.6-.64,1.32-1.57,1.83-2.69h11.09c.4,1.19,1.08,2.06,1.63,2.65Z"/><path class="cls-2" d="M112.37,199.65l-13.75.05c.68-.62,1.42-1.52,1.86-2.65h10.14c.51,1.06,1.17,1.97,1.75,2.59Z"/><path class="cls-2" d="M110.69,190.77c-.13.16-.24.35-.33.57h-10.23c-.11-.22-.24-.4-.38-.57h10.94Z"/><path class="cls-2" d="M109.94,192.98c-.02.15-.04.31-.05.49l-9.11-.02c-.02-.16-.05-.33-.07-.47h9.24Z"/><path class="cls-2" d="M110.05,195.41h-9.19c.02-.11.02-.2.02-.31h9.1c.02.11.04.2.07.31Z"/><path class="cls-2" d="M95.55,190.77c-.11.09-.22.18-.31.27s-.16.18-.26.29h-11.49c-.11-.22-.22-.4-.35-.57h12.4Z"/><path class="cls-2" d="M94.14,192.98c-.04.15-.09.31-.11.47h-10.08c0-.16-.02-.33-.04-.47h10.23Z"/><path class="cls-2" d="M93.96,195.41h-10.16c.02-.11.04-.22.05-.31h10.08v.09c0,.07.02.15.02.22Z"/><path class="cls-2" d="M66.01,194.24c.02.29,0,.57-.04.84,0,.11-.02.22-.04.33-.09.57-.27,1.13-.47,1.64-.55,1.3-1.37,2.34-1.81,2.74-.04.04-.09.07-.11.09-.04-.02-.09-.05-.13-.09-.44-.38-1.28-1.28-1.72-2.74-.13-.44-.22-.93-.26-1.46v-.51c.02-.64.13-1.19.31-1.64.07-.16.15-.31.24-.46.62-1.08,1.61-1.53,2.1-1.57h.22c.31,0,.64.05.91.29.29.26.49.68.62,1.28.04.15.07.29.09.46.04.26.05.51.07.8Z"/><path class="cls-2" d="M60.83,195.08v.33h-9.72c.04-.11.04-.22.05-.33h9.66Z"/><path class="cls-3" d="M118.47,133.32c-2.63-3.24-7.13-6.97-14.5-8.64-2.24-.5-4.76-.82-7.56-.87-5.75-.11-10.36.76-14.04,2.09h0c-4.34,1.57-7.38,3.78-9.44,5.8-2.91,2.83-5.81,7.52-5.81,11.58v14.7c0,4.59,3.67,8.31,8.2,8.31h40.28c4.53,0,8.2-3.72,8.2-8.31v-11.16c0-2.59-1.12-8.34-5.32-13.5ZM122.14,157.98c0,3.67-2.94,6.67-6.55,6.67h-40.28c-3.62,0-6.56-3-6.56-6.67v-14.7c0-2.59,1.65-6.81,5.32-10.41,1.81-1.77,4.43-3.71,8.13-5.16,3.42-1.35,7.77-2.28,13.24-2.28.31,0,.62,0,.93.02,2.65.05,5.14.35,7.45.91,5.57,1.29,10.12,4,13.37,8.01,3.91,4.78,4.95,10.08,4.95,12.45v11.16Z"/><path class="cls-2" d="M122.14,146.82v11.16c0,3.67-2.94,6.67-6.56,6.67h-40.28c-3.62,0-6.56-3-6.56-6.67v-14.7c0-2.59,1.64-6.81,5.32-10.41,3.49-3.42,9.99-7.43,21.37-7.43.31,0,.62,0,.93.02,9.02.16,16.22,3.25,20.82,8.91,3.91,4.79,4.95,10.08,4.95,12.46Z"/><polygon class="cls-3" points="83.61 112.43 78.71 165.45 100.14 166.12 104.92 114.4 83.61 112.43"/></svg>