<?xml version="1.0" encoding="UTF-8"?><svg id="Layer_1" xmlns="http://www.w3.org/2000/svg" viewBox="0 0 552.12 445.24"><defs><style>.cls-1{fill:none;}.cls-1,.cls-2,.cls-3,.cls-4,.cls-5,.cls-6,.cls-7,.cls-8,.cls-9,.cls-10,.cls-11,.cls-12,.cls-13,.cls-14,.cls-15,.cls-16,.cls-17,.cls-18,.cls-19{stroke-width:0px;}.cls-2{fill:#10a6ad;}.cls-3,.cls-11{opacity:.64;}.cls-3,.cls-14{fill:#fff;}.cls-4{fill:#f4c3de;}.cls-5{fill:#350b1c;}.cls-6{fill:#84f4f4;}.cls-7{fill:#36c8ea;}.cls-8{fill:#b24787;}.cls-9{fill:#561a38;}.cls-10{fill:#c65995;}.cls-11,.cls-18{fill:#82e9f4;}.cls-12{fill:#26a1b5;}.cls-13{fill:#d3639c;}.cls-15{fill:#3f0422;}.cls-16{fill:#64e0f4;}.cls-17{fill:#9b2a5e;}.cls-19{fill:#16a0b7;}</style></defs><path class="cls-15" d="M209.39,386.83c.02.07.04.14.05.2-.02-.07-.03-.15-.06-.21h0Z"/><path class="cls-5" d="M366.68,182.88c-.1.37-.16.75-.2,1.15-.02-.06-.06-.11-.07-.15h0c.07-.35.16-.68.28-.99Z"/><path class="cls-1" d="M48.29,277.78c-.1.37-.16.75-.2,1.15-.02-.06-.06-.11-.07-.15h0c.07-.35.16-.68.28-.99Z"/><path class="cls-5" d="M546.81,315.22c.65-.67,2.31,1,2.04,2-2.17,2.21-4.41,4.15-6.73,5.83,3.49-4.07,4.24-7.37,4.14-7.27.19-.18.37-.37.55-.55Z"/><path class="cls-5" d="M526.42,333.41c7.9-2.97,12.76-6.93,15.69-10.36,2.32-1.69,4.56-3.63,6.73-5.83-.62,2.29-1.92,4.81-4.02,7.36h0c-5.59,4.27-11.76,7.22-18.41,8.85t.02,0Z"/><path class="cls-5" d="M526.32,333.44s.08-.03.11-.03t-.02,0s0,0-.02,0c-.02,0-.05,0-.07.02Z"/><path class="cls-5" d="M526.39,333.43s-.02,0-.04.02c-.03,0-.06.02-.07.02,0,0,.02-.02.04-.02.02,0,.05,0,.07-.02Z"/><path class="cls-13" d="M449.99,305.08c-29.98-23.41-67.33-2.96-81.06,6.17l-.33,2.47v.08l-.17,1.23-.89,6.76c.13-.03.26-.07.39-.1,1.55-.4,3.09-.77,4.63-1.11.71-.15,1.42-.31,2.13-.45.49-.1.99-.2,1.47-.29,1.1-.21,2.18-.41,3.25-.59.31-.04.62-.09.93-.14.13-.03.26-.05.39-.07,10.26-6.03,23.28-11.38,37.13-11.38,10.28,0,21.01,2.94,31.42,10.76,30.95,23.2,60.19,21.29,77.07,15.03h-.03s.08-.04.1-.04c7.9-2.96,12.76-6.93,15.69-10.36-26.29,19.15-61.79,5.73-92.12-17.97Z"/><path class="cls-15" d="M524.06,400.62c.02.07.04.14.05.2-.02-.07-.03-.15-.06-.21h0Z"/><path class="cls-5" d="M521.33,401.45c.46,1.5.29,3.36-.67,5.61h0c-4.23,5.24-10.61,11.68-19.15,16.35,13.06-10.01,16.74-15.65,17.4-18.72.94-1.17,1.74-2.26,2.43-3.24Z"/><path class="cls-5" d="M519.76,399.08c.75.64,1.29,1.43,1.57,2.37-.68.98-1.49,2.07-2.43,3.24.53-2.43-.83-3.26-.96-3.41.38-.51.73-1,1.06-1.47.2-.29.46-.55.76-.73Z"/><path class="cls-17" d="M517.94,401.29c-.32-.29-.79-.59-1.5-.85-4.37-1.6-14.04-.09-23.35,5.86-3.77,2.41-8.56,2.78-13.83,1.05-7.39-2.42-26.48-12.97-44.17-58.66-8.07-20.85-32.37-27.12-52.9-24.1-.02,0-.05.01-.07.01-.34.05-.69.1-1.04.16-.34.05-.69.11-1.04.17-1.18.2-2.38.42-3.58.66-.64.12-1.27.25-1.92.4-.53.12-1.07.23-1.62.36-.11.02-.23.05-.36.08-.63.15-1.27.29-1.9.46-.65.15-1.31.32-1.96.49-.66.18-1.31.35-1.97.53l-4.1,31.01-.37,2.86c33.39-.79,42.78,14.07,56.16,37.53,17.03,29.87,41.93,34.15,71.55,25.79,13.8-3.89,23.48-13.5,28.93-20.4.53-2.43-.83-3.26-.96-3.41Z"/><path class="cls-15" d="M518.53,329.06c.51-.06,1.03-.11,1.55-.18-.35.04-.69.09-1.04.13-.16.02-.34.03-.51.05Z"/><path class="cls-6" d="M517.77,329.12c.25-.02.51-.04.76-.07-.33.04-.67.07-1,.09l.24-.02Z"/><path class="cls-17" d="M516.59,329.21c.4-.02.78-.06,1.18-.09l-.24.02c-.08.02-.16.02-.25.02-.23.02-.45.02-.68.04Z"/><path class="cls-15" d="M514.68,329.29c.55,0,1.1-.03,1.65-.07-.21.02-.42.03-.64.04-.07,0-.12,0-.19,0-.28,0-.55,0-.82.02Z"/><path class="cls-17" d="M514.53,405.5c.46-.52.9-1.03,1.31-1.54-.42.51-.85,1.02-1.31,1.54Z"/><path class="cls-6" d="M515.5,329.28c-.56.02-1.13.03-1.71.03.29,0,.59,0,.89-.02.27,0,.55-.02.82-.02Z"/><path class="cls-17" d="M545.49,311.45c-1.14-1.07-3.16-.61-4.27-.24-1.07.35-2.32.85-3.64,1.38-11.96,4.77-34.21,13.65-61.13-27.44-10.02-15.29-26.99-25.36-46.56-27.61-20.71-2.38-41.16,4.3-56.3,18.34l-4.17,31.65h0s-.49,3.72-.49,3.72c13.73-9.13,51.08-29.58,81.06-6.17,30.33,23.7,65.83,37.12,92.12,17.97,3.49-4.07,4.24-7.37,4.14-7.27.37-1.91.1-3.52-.76-4.33ZM507.77,329.03c-.09-.01-.17-.02-.25-.03.08,0,.16.02.25.02.09.02.18.02.27.03-.09,0-.18-.01-.27-.02ZM508.48,329.1s-.01-.01-.02,0h-.02s-.08-.01-.12-.02c.04.01.08.01.12.01h.01s.11.01.15.01c.05.01.1.01.14.01.09.01.17.02.27.03-.18,0-.35-.03-.53-.04ZM509.6,329.18c-.08,0-.16-.01-.24-.01l-.26-.03c.09,0,.18.01.26.02s.16.02.24.02.16,0,.24.01c.16.02.32.03.49.04-.24-.01-.48-.03-.73-.05ZM511.97,329.3h-.02c-.13-.01-.25-.01-.38-.02.24.01.47.02.72.02-.11.01-.21,0-.32,0ZM517.27,329.18c-.11,0-.22.01-.33.02.2-.02.39-.04.59-.05-.08.02-.17.02-.26.03ZM519.03,329.01c-.16.02-.34.04-.5.05.51-.05,1.03-.11,1.55-.18-.35.04-.7.09-1.05.13Z"/><path class="cls-13" d="M489.97,425.1c-29.62,8.36-54.52,4.08-71.55-25.79-13.38-23.46-22.77-38.32-56.16-37.53l-.1.71v.04l-.28,2.11c.13,0,.26,0,.39,0-.13,0-.26,0-.39.02l-1.14,8.68h.2c25.17,0,40.03,18.14,50.22,35.25.24.4.48.79.71,1.18.3.52.6,1.04.9,1.56,8.31,14.49,21.81,24.46,37.02,27.33,13.17,2.5,27.06-.26,40.79-8,.24-.13.48-.27.73-.41,0,0,0-.01.01-.01,3.41-1.96,6.8-4.23,10.18-6.81,13.06-10.01,16.74-15.65,17.4-18.72-5.45,6.9-15.13,16.51-28.93,20.4Z"/><path class="cls-15" d="M508.45,329.08c.11,0,.2.02.29.02-.09,0-.18,0-.27-.02,0,0,0,0-.02,0h0Z"/><path class="cls-13" d="M428.03,297.99c-.8-.15-1.6-.3-2.4-.42.81.11,1.6.25,2.4.42Z"/><polygon class="cls-12" points="388.28 145.3 387.1 146.17 387.07 146.17 388.28 145.3"/><path class="cls-2" d="M387.11,141.61s-.02-.07-.04-.11h0s.02.07.03.11Z"/><polygon class="cls-12" points="387.1 146.17 386.99 146.24 386.97 146.25 387.07 146.17 387.1 146.17"/><path class="cls-12" d="M387.07,146.17l-.11.08-.26.02s.06-.05.08-.07l.29-.03Z"/><path class="cls-12" d="M386.79,146.2s-.05.04-.08.07l-.44.04-.02-.06.55-.05Z"/><path class="cls-12" d="M386.71,146.26c-.11.1-.21.19-.33.29l-.11-.24.44-.04Z"/><path class="cls-12" d="M386.97,146.25l-.55.39-.04-.09c.11-.1.22-.19.33-.29l.26-.02Z"/><polygon class="cls-12" points="386.99 146.24 386.42 146.66 386.41 146.65 386.42 146.64 386.97 146.25 386.99 146.24"/><polygon class="cls-12" points="386.38 146.55 386.42 146.64 386.41 146.65 386.37 146.56 386.38 146.55"/><polygon class="cls-12" points="386.38 146.55 386.37 146.56 386.27 146.31 386.38 146.55"/><polygon class="cls-12" points="386.27 146.31 386.26 146.31 386.23 146.25 386.24 146.25 386.27 146.31"/><polygon class="cls-19" points="386.24 146.25 386.12 146 386.11 145.96 386.24 146.25"/><polygon class="cls-12" points="386.24 146.25 386.23 146.25 386.12 146 386.24 146.25"/><path class="cls-16" d="M385.96,146.98c-.06.04-.11.08-.15.12-.07.06-.11.09-.17.15-.03.03-.07.03-.11.04.07-.05.17-.12.29-.21.05-.03.1-.07.15-.1Z"/><path class="cls-16" d="M386.41,146.65c-.09.07-.2.15-.3.22-.05.04-.11.08-.15.11-.05.03-.1.07-.15.1-.12.09-.22.16-.29.21.03-.03.06-.06.09-.09.07-.06.13-.11.2-.17.2-.16.38-.32.57-.47l.04.09Z"/><path class="cls-19" d="M386.11,145.96l-.71-1.52s0-.02,0-.04l.7,1.56Z"/><path class="cls-19" d="M385.76,142.74l-1.43-.75,1.08,2.41s0,.02,0,.04l-1.26-2.72c.11.17,2.1,1.24,3.57,2.02l-1.95-1Z"/><path class="cls-17" d="M376.92,178.61c-.48.37-1,.76-1.56,1.16.55-.42,1.08-.8,1.56-1.16Z"/><path class="cls-15" d="M367.93,321.69c-.13.03-.26.07-.39.11h0c.13-.04.26-.07.39-.11Z"/><path class="cls-15" d="M363.25,328.38s-.02,0-.02,0c0,0,.02,0,.02,0Z"/><path class="cls-15" d="M363.22,328.37s-.02,0-.04,0h0s.03,0,.04,0Z"/><path class="cls-15" d="M363.18,328.36h-.02.02Z"/><path class="cls-15" d="M363.12,328.33s.04.02.07.02h-.02l-.05-.02Z"/><path class="cls-15" d="M362.27,364.63c-.12,0-.25,0-.38.02h0c.13,0,.25-.02.38-.02Z"/><polygon class="cls-15" points="361.31 325.37 356.54 361.51 360 335.32 361.31 325.37"/><path class="cls-17" d="M359.23,196.62c-.55.29-1.12.59-1.69.9h0c.57-.3,1.13-.6,1.69-.9Z"/><path class="cls-17" d="M376.43,186.06c-.45.31-.91.64-1.38.96-.21.15-.43.3-.65.44-2.09,1.43-4.45,2.97-7.09,4.57-.36.21-.72.43-1.08.64-1.63.98-3.34,1.96-5.16,2.96-.3.17-.6.33-.91.49-.31.17-.61.35-.93.51-.56.29-1.12.59-1.69.89h-.01c-.57.3-1.14.6-1.73.89-1.93.98-3.99,1.97-6.18,2.97-.14.07-.29.14-.44.2-.05.03-.1.05-.16.07-.24.11-.47.21-.72.32-.07.04-.14.07-.22.09-.41.19-.83.38-1.25.56-1.03.44-2.08.89-3.15,1.33-.65.26-1.29.52-1.94.78-.08.04-.16.07-.25.1-.57.23-1.15.46-1.75.68-1.33.51-2.71,1.02-4.12,1.51-1.4.5-2.84.98-4.32,1.46-.76.25-1.54.49-2.33.73-.61.19-1.22.38-1.85.56-.88.26-1.77.51-2.68.76-1.39.39-2.81.76-4.25,1.11-.26.08-.53.14-.8.2-.66.16-1.33.32-2,.47-.07.02-.14.03-.21.05-.73.17-1.45.33-2.19.49-.12.02-.24.05-.36.07-.79.17-1.6.34-2.41.49-.85.17-1.71.33-2.57.48-.64.11-1.28.23-1.92.33-.82.13-1.64.27-2.47.39-.5.08-.99.15-1.5.22-1.39.2-2.8.38-4.23.54-.28.03-.58.06-.86.09-1,.12-2.01.21-3.03.3-.76.08-1.53.13-2.28.19-.91.07-1.8.13-2.72.18-.22.02-.44.03-.67.03-.78.04-1.56.08-2.35.11-1.94.07-3.89.11-5.87.11-1.69,0-3.39-.02-5.11-.08-4.03-.13-7.98-.33-11.84-.6-1.77-.12-3.52-.25-5.25-.4-.55-.05-1.09-.1-1.64-.15-1.05-.09-2.08-.19-3.12-.29-.93-.09-1.85-.19-2.78-.29-.55-.06-1.1-.12-1.66-.18-1.3-.15-2.6-.3-3.87-.46-1.93-.23-3.82-.49-5.68-.76-.62-.09-1.24-.18-1.85-.27-1.02-.14-2.03-.3-3.03-.46-.82-.12-1.62-.25-2.42-.39-.57-.09-1.13-.19-1.7-.29-2.38-.39-4.7-.82-6.98-1.26-1.25-.23-2.47-.49-3.69-.73-1.21-.25-2.4-.5-3.58-.76-.59-.12-1.18-.25-1.75-.38-.39-.08-.79-.17-1.18-.26-.31-.08-.63-.15-.95-.21-1-.24-1.99-.47-2.96-.7-.55-.14-1.1-.27-1.63-.4-.55-.13-1.09-.26-1.62-.4-.57-.14-1.13-.29-1.69-.44-1.01-.26-2-.51-2.97-.77-.5-.14-1-.27-1.5-.41-.98-.27-1.95-.53-2.9-.8-.94-.27-1.87-.54-2.77-.81-.46-.13-.91-.26-1.35-.4-.89-.26-1.77-.53-2.62-.8-.69-.21-1.38-.43-2.05-.64-1.15-.37-2.27-.73-3.34-1.09-.27-.09-.54-.18-.8-.27-.78-.26-1.54-.52-2.28-.77-.64-.23-1.25-.44-1.84-.66-.35-.12-.69-.24-1.03-.37-.64-.23-1.25-.46-1.83-.67-1.43-.53-2.71-1.02-3.85-1.47-.28-.11-.54-.22-.81-.32-.08-.03-.17-.07-.24-.1l15.87,75.21,9.6,45.47.07.34s.01.02.01.03c.01.03.01.06.02.09l.11.53,5.37,25.44,3.25,15.44c.53.54.84,1.26.84,2.02,0,.34-.07.69-.19,1.02l2.61,12.41c2.94,2.88,17.72,16.56,40.56,23.77,33.77,10.66,68.45,2.96,103.09-22.9l1.73-13.11s0-.04.01-.06v-.02h0v-.04l4.77-36.14v-.06c.02-.05.03-.1.04-.14l1.14-8.63.44-3.41s0-.03.01-.05v-.03l5.13-38.93,11.96-90.69c-1.06.81-2.26,1.69-3.6,2.63ZM220.82,315.37c-8.96,0-16.24-7.28-16.24-16.24s7.28-16.25,16.23-16.25,16.25,7.28,16.25,16.25-7.28,16.24-16.24,16.24ZM290.8,319.13h0c-2.98,2.85-7.06,4.33-12.13,4.43h-.47c-13.58,0-17.57-10.53-17.79-16.1-.05-1.06.39-2.08,1.23-2.86.82-.77,1.94-1.22,3.16-1.26,1.2-.04,2.37.35,3.25,1.07.88.73,1.39,1.71,1.43,2.78.07,1.39.77,8.39,8.73,8.39h.15s.09-.01.11-.01c2.5-.04,4.4-.66,5.65-1.83,2-1.9,2.3-5.09,2.26-6.18h0c-.13-2.2,1.79-4.09,4.26-4.21,2.48-.14,4.64,1.54,4.79,3.73.07,1.26.15,7.51-4.63,12.05ZM332.7,312.44c-8.96,0-16.24-7.29-16.24-16.25s7.28-16.24,16.24-16.24,16.25,7.29,16.25,16.24-7.29,16.25-16.25,16.25Z"/><path class="cls-17" d="M349.62,201.37c-.15.07-.29.14-.44.2h0c.15-.07.29-.14.44-.2Z"/><path class="cls-17" d="M349.19,201.57h0c-.06.03-.11.06-.16.08-.24.11-.48.21-.73.32.3-.13.59-.26.89-.4Z"/><path class="cls-5" d="M332.7,279.95c-8.96,0-16.24,7.29-16.24,16.24s7.28,16.25,16.24,16.25,16.25-7.29,16.25-16.25-7.29-16.24-16.25-16.24ZM327.49,298.27c-2.4,0-4.36-1.96-4.36-4.36s1.96-4.36,4.36-4.36,4.37,1.95,4.37,4.36-1.97,4.36-4.37,4.36Z"/><path class="cls-17" d="M335.62,207.02c-1.41.5-2.85.99-4.32,1.46,1.47-.48,2.92-.96,4.32-1.46Z"/><path class="cls-14" d="M327.49,289.54c2.4,0,4.37,1.96,4.37,4.37s-1.96,4.36-4.37,4.36-4.36-1.96-4.36-4.36,1.96-4.37,4.36-4.37Z"/><path class="cls-5" d="M291.09,307.33s0,.02,0,.03v-.03h0Z"/><path class="cls-6" d="M287.33,183.93c-.76.07-1.52.13-2.29.19-.22.02-.45.04-.68.06-.47.04-.94.07-1.42.11-.83.07-1.66.12-2.5.17l6.88-.52Z"/><path class="cls-5" d="M295.43,307.08c-.15-2.19-2.31-3.87-4.79-3.73-2.47.12-4.39,2.01-4.26,4.2h0c.04,1.1-.26,4.29-2.26,6.19-1.25,1.17-3.15,1.79-5.65,1.83-.02,0-.09.01-.11.01h-.15c-7.96,0-8.66-7-8.73-8.39-.04-1.07-.55-2.05-1.43-2.78-.88-.72-2.05-1.11-3.25-1.07-1.22.04-2.34.49-3.16,1.26-.84.78-1.28,1.8-1.23,2.86.22,5.57,4.21,16.1,17.79,16.1h.47c5.07-.1,9.15-1.58,12.13-4.42h0c4.78-4.55,4.7-10.8,4.63-12.06Z"/><path class="cls-6" d="M259.68,187.22c-.36-.02-.72-.05-1.08-.07,0,0,0,0,0,0,.36.02.73.05,1.09.07Z"/><path class="cls-7" d="M389.29,144.57l-1.01.73c-.03-.11-1.87,1.36-1.9,1.25-.33.31,1.12-.97.76-.66-.11.11-.83.55-.96.66l.06-.3-.13-.29-.7-1.56-1.08-2.41,1.43.75,1.95,1s.08.04.11.07l.51.26.35.19c.07.03.12.07.18.1.04.02.07.03.11.05l.2.11c.08.04.12.07.12.07Z"/><path class="cls-18" d="M391.79,147.41c-.01.06-.02.11-.03.16v-.26l.03-1.43-.25-.13s-.09.09-.14.13c-.03.02-.05.05-.08.06-.22.21-.45.43-.69.65-.5.47-1.05.96-1.62,1.45-.24.22-.48.42-.73.63-.11.1-.21.19-.32.28-.12.1-.24.2-.37.31-.24.2-.49.41-.75.63-.04.03-.07.06-.11.08-.47.4-.97.8-1.48,1.19-.07.06-.14.11-.21.16-.28.23-.58.46-.88.68-.61.48-1.23.94-1.87,1.4-.64.49-1.31.97-2,1.45-2.74,1.94-5.82,3.95-9.23,5.98-.81.48-1.64.97-2.5,1.46-.49.28-.98.56-1.48.84-.45.25-.91.51-1.38.76-.46.26-.93.51-1.4.76-.88.47-1.77.93-2.68,1.4-.66.33-1.32.67-1.99,1-.43.21-.87.42-1.31.63-.37.19-.75.37-1.14.56-.48.23-.97.46-1.46.68-1.02.48-2.06.96-3.12,1.42-.53.24-1.06.46-1.6.7-1.95.85-3.98,1.67-6.06,2.49-.49.19-.98.38-1.47.57-3.18,1.21-6.51,2.37-9.97,3.48-1.25.4-2.53.8-3.83,1.19,0,0-.01,0-.03.01-.68.2-1.36.4-2.04.59-.61.18-1.23.36-1.85.53-.46.13-.91.25-1.36.36-1.19.33-2.41.65-3.63.95-.54.14-1.09.27-1.64.4-.95.22-1.91.45-2.89.67-.8.19-1.62.37-2.43.54-.17.04-.35.07-.52.11-.49.11-.98.21-1.48.31-1.39.28-2.79.56-4.22.82-.66.11-1.31.24-1.98.35-1.64.28-3.3.55-4.98.81-.63.09-1.26.18-1.89.27-1.19.17-2.37.32-3.57.47,0,.01-.03.01-.04.01-.56.07-1.12.13-1.68.2-.28.03-.56.06-.83.1-.7.08-1.42.15-2.13.22-1.2.13-2.43.25-3.65.35-.33.03-.67.06-1,.09-.75.06-1.5.12-2.26.18-.97.07-1.96.13-2.95.19-3.21.2-6.45.29-9.68.29-1.37,0-2.74-.02-4.11-.05-.94-.03-1.89-.06-2.83-.09-.95-.03-1.89-.08-2.84-.13-.49-.03-.98-.06-1.48-.09-.36-.03-.72-.05-1.08-.07-.04,0-.08-.01-.1-.01h-.1c-.07-.01-.15-.01-.21-.02-.7-.05-1.4-.1-2.1-.15-.53-.05-1.05-.09-1.58-.14-.69-.05-1.37-.11-2.05-.18-.58-.06-1.18-.12-1.76-.18-.27-.03-.53-.05-.78-.08-.45-.05-.89-.1-1.34-.15-.45-.05-.89-.1-1.34-.15-.54-.07-1.09-.14-1.63-.21-.59-.07-1.18-.15-1.77-.23-.51-.07-1.01-.14-1.52-.22-.67-.09-1.34-.18-2-.29-.67-.1-1.34-.19-2.01-.31-.4-.06-.8-.13-1.21-.19-.72-.12-1.43-.24-2.14-.36-1.33-.23-2.65-.48-3.97-.72-1.21-.23-2.4-.46-3.59-.7-3.2-.64-6.35-1.34-9.43-2.07-.46-.11-.93-.22-1.39-.33-.34-.09-.67-.16-1-.24-.12-.03-.22-.06-.34-.08-.01,0-.01-.01-.01-.01-.53-.13-1.06-.26-1.59-.39-.05-.01-.09-.02-.13-.04-.04-.01-.07-.02-.1-.02-.18-.05-.36-.09-.54-.14-.12-.03-.24-.06-.35-.09-.12-.03-.24-.06-.36-.09-3.27-.84-6.43-1.71-9.5-2.59-.91-.26-1.81-.53-2.7-.79-.9-.27-1.78-.53-2.65-.8-.7-.22-1.4-.43-2.08-.65-1.36-.43-2.7-.86-4-1.28-.65-.21-1.3-.43-1.93-.64-.11-.04-.22-.07-.32-.1-.22-.07-.43-.15-.64-.22-.11-.03-.21-.07-.31-.1-.81-.27-1.61-.55-2.39-.82-.06-.01-.11-.03-.16-.05-.01,0-.02,0-.04-.01-.02-.02-.05-.03-.07-.03-1.81-.62-3.54-1.24-5.21-1.85-.34-.12-.68-.25-1.01-.37-1.07-.39-2.1-.77-3.09-1.15-.38-.14-.75-.28-1.12-.42-.24-.09-.49-.19-.72-.28-.05-.02-.1-.03-.14-.05-.03-.01-.07-.02-.09-.04-.46-.18-.91-.35-1.36-.53-.87-.33-1.71-.67-2.52-.98-.23-.09-.45-.18-.67-.27-.48-.2-.96-.39-1.42-.58-.03-.01-.06-.03-.08-.03-.05-.03-.11-.04-.16-.06-.25-.11-.49-.2-.73-.3-.58-.25-1.13-.47-1.66-.69-.13-.06-.27-.12-.43-.18-.11-.05-.22-.09-.32-.14-.3-.13-.64-.28-.98-.42-.17-.08-.35-.15-.53-.23-.09-.04-.17-.07-.25-.11-.09-.03-.17-.07-.25-.1l-.16-.07s-.05-.02-.07-.03c-.08-.03-.13-.05-.21-.09-.02,0-.04,0-.06-.02-.04-.02-.07-.04-.11-.05-.06-.02-.11-.04-.17-.08-.02,0-.04-.01-.06-.02-.02,0-.05-.02-.08-.04-.03-.01-.05-.01-.08-.03-.02-.01-.05-.02-.08-.03l.08,3.14.08,2.45,1.09,17.17c-.36.28.01,2.37-.17,2.78l4.49,2.24,2.55,1.27s42.4,20.23,107.06,22.35c64.67,2.12,107.07-36.75,107.07-36.75l2.08-1.92,5.05-4.64.47-.44.03-3.91.11-16.18s-.01.01-.01.01h-.02v-.24s.04-.05.05-.07c.02-.03.03-.05.04-.08,0,0,.01-.01.01-.02.04-.16.09-.33.13-.53.07-.33.12-.69.09-1.03-.02-.09-.02-.16-.04-.24Z"/><path class="cls-5" d="M220.81,282.88c-8.95,0-16.23,7.28-16.23,16.25s7.28,16.24,16.24,16.24,16.24-7.28,16.24-16.24-7.28-16.25-16.25-16.25ZM216.46,300.55c-2.41,0-4.37-1.95-4.37-4.36s1.96-4.36,4.37-4.36,4.36,1.95,4.36,4.36-1.96,4.36-4.36,4.36Z"/><path class="cls-14" d="M216.46,291.82c2.4,0,4.37,1.96,4.37,4.37s-1.96,4.36-4.37,4.36-4.37-1.96-4.37-4.36,1.96-4.37,4.37-4.37Z"/><path class="cls-6" d="M215.58,180.23c-.11-.03-.22-.06-.33-.08h0c.11.02.22.05.33.08Z"/><path class="cls-6" d="M213.51,179.7s-.07-.02-.1-.02h0s.07,0,.1.02Z"/><path class="cls-6" d="M213.41,179.68c-.18-.04-.36-.09-.54-.13-.24-.07-.48-.12-.72-.19.42.11.83.21,1.25.32Z"/><path class="cls-17" d="M207.9,358.42c.53.54.83,1.26.83,2.02,0,.33-.07.68-.19,1.02l-.37-1.73s0-.07-.02-.09h0s0-.06,0-.06l-.04-.18-.2-.99Z"/><path class="cls-5" d="M199.27,317.53l5.37,25.45-5.37-25.45Z"/><path class="cls-13" d="M202.89,362.32c-.28-.1-.55-.2-.82-.29.28.09.55.19.82.29h0Z"/><polygon class="cls-5" points="193.95 319.93 201.53 355.87 201.53 355.87 193.95 319.93"/><path class="cls-5" d="M201.53,355.87h0l-.37-.1c.11.02.24.06.36.1h0Z"/><path class="cls-5" d="M201.17,355.77c-.69-.2-1.38-.37-2.05-.52.68.15,1.36.32,2.05.52Z"/><path class="cls-5" d="M199.2,317.49v.06s0-.07,0-.11c0,.02,0,.03,0,.05Z"/><path class="cls-5" d="M549.4,307.3c-2.41-2.27-6.04-2.81-9.98-1.5-1.23.4-2.55.93-3.95,1.49-11.91,4.76-29.89,11.93-54.24-25.26-10.95-16.72-29.43-27.71-50.69-30.15-20.17-2.33-40.12,3.32-55.84,15.58l11.79-89.36-.76.7c-.12.11-.96.88-2.49,2.12-.85.7-1.93,1.55-3.21,2.51l-11.96,90.69-5.13,38.93v.03s-.01.03-.01.05l-.44,3.41-1.14,8.63s-.02.09-.03.14v.06s-4.78,36.14-4.78,36.14v.03h0v.03s-.01.04-.01.06l-1.73,13.11c-34.64,25.86-69.32,33.56-103.09,22.9-22.84-7.21-37.62-20.89-40.56-23.77l-2.61-12.41-.37-1.73s-.01-.06-.02-.09v-.05s-.05-.18-.05-.18l-.21-.99-3.25-15.44-5.37-25.44-.09-.38s.01.05.01.07c0,.09.01.18.01.26v.06s0-.07-.01-.1c-.01-.21-.04-.42-.09-.62-.06-.2-.13-.39-.22-.57.1.18.18.37.22.57.01.02.02.03.02.05l-.06-.33-9.6-45.47-15.87-75.21c-1.31-.53-2.38-.98-3.19-1.33-1.24-.53-1.91-.84-1.96-.87l-1.27-.58,15.03,71.21c-8.98-7.14-28.95-20.2-52.13-17.26-19.63,2.49-36.84,15.9-51.17,39.85-15.21,25.42-28.38,39.29-39.14,41.23-7.29,1.31-12.74-3.06-17.54-6.9-4.04-3.23-7.84-6.28-12.2-5.26-5.7,1.36-9.61,6.06-9.99,12.01,0,.05,0,.11,0,.16-.45,8.52,6.12,20.16,25.95,27.22,6.08,2.17,11.85,3.11,17.34,3.11,21.73,0,39.2-14.9,54.98-28.36,15.12-12.91,28.19-24.07,41.44-19.28,1.96.71,3.95,1.41,5.96,2.12-13.27,3.96-24.66,13.05-32.19,26-12.74,21.88-23.07,35.42-33.51,43.85-12.12,9.8-24.77,13.03-39.81,10.18-19.48-3.7-29.82-3.03-33.55,2.16-2.07,2.9-1.8,6.71.81,11.34,2.81,4.99,8.34,9.85,15.99,14.06,12.94,7.12,28.36,10.8,44.97,10.8,2.67,0,5.37-.09,8.1-.28,21.07-1.49,43.16-8.8,63.89-21.17,12.72-7.58,21.23-15.05,28.06-21.05,12.87-11.3,19.4-17.03,38.54-11.05,3.02,3.03,18.31,17.43,42.75,25.22,8.73,2.78,19.25,4.85,31.22,4.85,21.75,0,48.28-6.86,77.51-28.74,25-1.3,38.98,16.96,49.35,35.04,9.15,15.94,24.06,26.92,40.91,30.11,3.13.59,6.67.98,10.59.98,12.71,0,29.29-4.13,47.8-18.98,13.08-10.47,18.79-19.03,16.99-25.44-.02-.07-.03-.14-.06-.21-.01-.02-.01-.06-.02-.08-.56-1.77-2.01-4.11-5.62-5.44-6.88-2.52-18.55.12-28.39,6.4-2.28,1.47-5.39,1.61-8.98.44-5.17-1.69-23.36-10.67-40.63-55.3-7.4-19.11-26.33-27.55-45.31-28.39,15.07-6.13,33.53-8.18,50.76,4.74,16.57,12.42,35.08,19.39,53.53,20.17,1.14.05,2.28.07,3.42.07,13.62,0,26.55-3.42,35.9-9.55,6.77-4.44,11.35-10.02,12.88-15.71,1.18-4.36.38-8.24-2.19-10.66ZM199.19,317.76v.13s-.01.03-.01.04c0-.06.01-.11.01-.17ZM199.02,318.59v.02s-.02.07-.05.11c.02-.04.04-.08.05-.13ZM198.09,319.86s0-.01,0-.02c.36-.28.65-.63.86-1.07-.01.03-.02.05-.03.08-.06.12-.13.23-.2.35l-.15.19c-.07.09-.15.18-.23.26-.04.03-.08.07-.12.1-.01.02-.03.03-.05.04s-.03.03-.04.04c-.02.01-.03.02-.05.03h0s-.04.03-.05.04c.02-.02.03-.04.05-.04ZM196.95,320.37c.07-.01.14-.02.21-.04-.07.03-.14.05-.21.06v-.02ZM141.67,305.46c-16.36-5.92-31.29,6.82-47.09,20.3-19.49,16.64-39.66,33.84-66.7,24.21-.12-.04-.25-.09-.37-.13-1.87-.7-4.38-1.87-4.57-1.94-12.95-7.33-17.05-13.39-17.41-17.85-.06-.8,0-1.54.15-2.23h0c-.07-.44-.24-.83-.48-1.18.24.02.5.04.78.08.64-2.55,2.43-4.39,5.01-5.1.12-.04.24-.08.34-.1,1.65-.39,4.4,1.81,7.32,4.15,5.19,4.15,12.28,9.84,22.12,8.06,12.64-2.27,26.71-16.64,43.02-43.91,13.37-22.36,29.18-34.85,46.97-37.12,28.11-3.6,52.22,19.79,52.46,20.02.13.13.27.25.42.35l.48.32,8.08,38.29.44,2.11c-1.19-.26-2.48-.53-3.84-.79-2.51-.48-5.28-.95-8.25-1.33,0,0-.01-.01-.02-.01-1.6-.21-3.26-.4-4.97-.55-.38-.04-.77-.08-1.17-.11-2.36-.2-4.82-.34-7.31-.39-.37-.01-.74-.01-1.11-.02-1.67-.03-3.34-.01-5.03.05-.61.02-1.21.05-1.83.09-.6.03-1.2.06-1.8.11-.01-.01-.02-.01-.04,0-5.35-1.76-10.59-3.57-15.6-5.38ZM187.81,315.71h0c-.27-.04-.54-.1-.82-.15.28.05.55.1.82.15ZM175.2,313.94c-.34-.03-.67-.06-1.01-.09.06,0,.11.01.17.01.29.03.57.05.84.08ZM164.69,384.55c-6.66,5.84-14.95,13.11-27.21,20.43-15.2,9.06-31.03,15.19-46.46,18.27-1.09.22-2.17.42-3.25.6-6.25,1.09-12.44,1.67-18.47,1.73-.16.01-.32.01-.48,0-15.59.11-30.2-3.2-42.64-10.05-.09-.05-.18-.1-.27-.15-4.42-1.43-13.54-11.81-13.84-12.32h0v-.02c-.18-.35-.35-.69-.48-1.02h0c-.07-.16-.13-.32-.19-.47-.06-.16-.11-.3-.15-.45-.05-.15-.09-.29-.12-.42-.02-.11-.05-.21-.07-.3-.02-.1-.04-.2-.04-.29-.1-.7-.02-1.25.25-1.64.76-1.06,5.03-4.2,27.85.12,3.91.75,7.64,1.1,11.23,1.1,28.3,0,47.46-22.43,68.08-57.87,8.59-14.76,22.7-23.95,38.72-25.23,1.27-.1,2.54-.17,3.8-.22,1.18-.05,2.37-.07,3.54-.07.84,0,1.67.01,2.49.03,1.19.02,2.37.07,3.54.13,1.56.09,3.08.2,4.57.35.41.03.81.07,1.21.11.68.07,1.34.15,1.99.23.05,0,.1,0,.15,0,.33.05.67.09.99.13.92.12,1.82.24,2.7.37.62.09,1.22.19,1.82.29,1.49.24,2.89.49,4.23.75.28.06.55.11.82.17.3.05.6.12.89.18.47.09.92.19,1.36.29.72.15,1.41.32,2.06.46.11.03.21.06.32.08s.21.04.31.07l-.12-.58c.6.39.93.6.95.61.23.16.47.27.73.36-.48-.13-1.01-.26-1.56-.39h0s.01.01.01.01l7.58,35.93h0s.67,3.2.67,3.2l.35,1.65s.02.09.03.13l.3,1.47,1.89,8.91c-19.37-4.87-27.78,2.52-40.08,13.32ZM363.18,328.36s.03.01.04.02t-.04-.01s-.01-.01-.02-.01h.02ZM435.09,348.69c17.69,45.69,36.78,56.24,44.17,58.66,5.27,1.73,10.06,1.36,13.83-1.05,9.31-5.95,18.98-7.46,23.35-5.86.71.26,1.18.56,1.5.85.38-.52.74-1,1.06-1.47.2-.29.47-.54.76-.73.75.64,1.29,1.43,1.57,2.37.47,1.5.29,3.36-.67,5.61h0c-4.22,5.24-10.61,11.68-19.15,16.35-3.38,2.58-6.77,4.85-10.18,6.81-.01,0-.01.01-.01.01-.25.14-.49.28-.73.41-13.73,7.74-27.62,10.5-40.79,8-15.21-2.87-28.71-12.84-37.02-27.33-.3-.52-.6-1.04-.9-1.56-.23-.39-.47-.78-.71-1.18-10.19-17.11-25.05-35.25-50.22-35.25h-.2l1.14-8.68h0s.28-2.12.28-2.12v-.04l.1-.71.37-2.86,4.1-31.01c.66-.18,1.31-.35,1.97-.53.65-.17,1.31-.34,1.96-.49.63-.17,1.27-.31,1.9-.46.13-.03.25-.06.36-.08.55-.13,1.09-.24,1.62-.36.65-.15,1.28-.28,1.92-.4,1.2-.24,2.4-.46,3.58-.66.35-.06.7-.12,1.04-.17.35-.06.7-.11,1.04-.16.02,0,.05-.01.07-.01,20.53-3.02,44.83,3.25,52.9,24.1ZM548.84,317.22c-.62,2.29-1.92,4.81-4.02,7.35-.35.27-.7.53-1.06.78-.35.27-.71.52-1.07.76-.35.25-.71.49-1.08.72-.36.25-.72.48-1.09.69-.37.24-.74.46-1.11.66-.37.23-.74.44-1.12.63-.38.22-.75.41-1.13.6-.27.15-.55.28-.82.41l-1.12.53c-.56.26-1.13.5-1.7.74-.42.17-.85.34-1.28.5-.4.15-.8.31-1.21.45-.31.12-.62.22-.93.32-.2.07-.39.12-.57.18-.51.16-1.03.32-1.54.46-.52.14-1.05.28-1.57.41h-.01s0,.02-.02.02c-.01.01-.02.01-.04.02-16.88,6.26-46.12,8.17-77.07-15.03-10.41-7.82-21.14-10.76-31.42-10.76-13.85,0-26.87,5.35-37.13,11.38-.13.02-.26.04-.39.07-.31.05-.62.1-.93.14-1.07.18-2.15.38-3.25.59-.48.09-.98.19-1.47.29-.71.14-1.42.3-2.13.45-1.54.34-3.08.71-4.63,1.11-.13.03-.26.07-.39.11h0s.89-6.77.89-6.77l.17-1.23v-.08l.33-2.47.49-3.71h0s4.17-31.66,4.17-31.66c15.14-14.04,35.59-20.72,56.3-18.34,19.57,2.25,36.54,12.32,46.56,27.61,26.92,41.09,49.17,32.21,61.13,27.44,1.32-.53,2.57-1.03,3.64-1.38,1.11-.37,3.13-.83,4.27.24.86.81,1.13,2.42.76,4.33.19-.18.37-.37.55-.56.66-.67,2.31,1,2.04,2Z"/><path class="cls-5" d="M199.19,317.23c0,.09.02.18.02.26,0-.02,0-.03,0-.05,0-.07,0-.14,0-.21Z"/><path class="cls-5" d="M199.18,317.92c.02-.11.02-.22.02-.33,0,.1,0,.2-.02.29,0,0,0,.02,0,.03Z"/><path class="cls-5" d="M199.16,317.01l-.02-.1.02.1.11.52-.11-.46v-.06Z"/><path class="cls-17" d="M199.12,316.87l-.07-.33.08.37s0-.03-.02-.04Z"/><path class="cls-5" d="M198.98,318.71l.05-.12v.02s-.02.07-.05.11Z"/><path class="cls-5" d="M198.88,316.26c.11.19.2.39.24.61,0,0,.02.02.02.04l.02.1v.06c.02.06.02.11.03.16,0,.07,0,.14,0,.21-.02-.42-.13-.82-.32-1.18Z"/><path class="cls-5" d="M198.19,319.79s-.05.04-.08.05c.36-.28.65-.63.86-1.08,0,.03-.02.06-.03.08-.06.12-.12.24-.2.35l-.15.2c-.07.09-.15.18-.24.25-.04.03-.08.07-.12.11,0,.02-.02.03-.04.04Z"/><path class="cls-5" d="M198.1,319.84s.06-.02.08-.05c-.03.02-.06.05-.09.07t0-.02Z"/><path class="cls-5" d="M198.04,319.89s.04-.04.07-.06t0,.02h0s-.03.03-.05.04Z"/><path class="cls-5" d="M197.16,320.33c-.07.03-.14.05-.2.06v-.02c.07,0,.14-.02.2-.04Z"/><path class="cls-5" d="M193.82,319.35c.6.38.93.59.95.61.23.15.47.27.73.36-.49-.13-1.01-.26-1.56-.39l-.12-.58Z"/><path class="cls-17" d="M193.95,319.93l7.58,35.93c-.12-.04-.24-.07-.36-.1-.69-.2-1.38-.37-2.05-.52.68.15,1.36.33,2.05.52.12.03.24.07.37.11l.67,3.19c-25.5-8.29-43.26,11.39-61.85,28.43-23.67,21.7-57.94,30.39-81.62,30.18-.56,0-1.12-.02-1.67-.03-.41,0-.81-.02-1.22-.04s-.81-.04-1.21-.06c-24.81-1.37-39.88-12.89-43.04-15.53t0,0c-.07-.15-.13-.31-.19-.46s-.11-.3-.15-.45c-.05-.15-.09-.29-.12-.42-.02-.11-.05-.2-.07-.3-.02-.1-.04-.2-.05-.29-.1-.7-.02-1.25.25-1.64.77-1.06,5.03-4.2,27.85.12,3.91.74,7.64,1.1,11.23,1.1,28.3,0,47.46-22.43,68.08-57.87,8.59-14.76,22.7-23.96,38.72-25.24,1.27-.1,2.53-.17,3.8-.22,2.04-.07,4.06-.09,6.04-.04,1.19.02,2.37.07,3.54.14,1.56.09,3.08.2,4.57.34.41.03.81.07,1.21.11.68.07,1.34.15,1.99.23.05,0,.1,0,.15.02.33.04.67.08.99.12.92.12,1.82.24,2.7.37.62.09,1.22.19,1.82.29,1.48.24,2.89.5,4.23.76.28.06.55.11.81.16.3.06.6.12.9.18.46.1.92.2,1.36.29.72.15,1.41.32,2.06.46.21.06.42.11.63.15h0Z"/><path class="cls-5" d="M193.94,319.93h0c-.21-.04-.42-.09-.63-.15.21.05.42.1.63.15Z"/><path class="cls-14" d="M193.85,164.58c-1.05.23-2.18.36-3.34.36-.12,0-.24,0-.36,0l3.7-.35Z"/><path class="cls-5" d="M187.81,315.71h0c-.27-.04-.54-.1-.81-.15.28.05.55.1.81.15Z"/><path class="cls-17" d="M5.75,327.97c.04-.4.11-.78.2-1.15,0-.04.02-.07.03-.11,1.06-2.84,3.6-4.6,5-5.1.12-.04.24-.07.33-.1,1.65-.39,4.41,1.81,7.32,4.15,5.19,4.15,12.28,9.84,22.13,8.06,12.63-2.27,26.7-16.64,43.01-43.91,13.38-22.36,29.18-34.85,46.97-37.12,28.11-3.6,52.23,19.79,52.46,20.02.13.13.27.24.42.34l.48.33,8.08,38.29.44,2.11c-1.2-.26-2.48-.53-3.85-.79-8.54-4.92-23.45-12.77-40.32-18.28-31.98-10.46-44.25,13.47-68.19,33.55-21.73,18.22-37.46,22.46-55.13,17.34-9.98-2.89-16.5-10.55-19.62-15.55-.07-.8,0-1.54.15-2.23.02.05.05.1.07.15Z"/><path class="cls-13" d="M148.48,294.72c-31.99-10.46-44.25,13.47-68.2,33.54-21.73,18.22-37.45,22.46-55.12,17.34-9.98-2.89-16.5-10.55-19.63-15.55.36,4.46,4.46,10.52,17.41,17.85.19.07,2.7,1.24,4.57,1.94.12.04.25.09.37.13,27.04,9.63,47.21-7.57,66.7-24.21,15.8-13.48,30.73-26.22,47.09-20.3,5.01,1.81,10.25,3.62,15.6,5.38.02-.01.03-.01.04,0,.6-.05,1.2-.08,1.8-.11.62-.04,1.22-.07,1.83-.09,1.69-.06,3.36-.08,5.03-.05.37.01.74.01,1.11.02,2.49.05,4.95.19,7.31.39.4.03.79.07,1.17.11,1.71.15,3.37.34,4.97.55.01,0,.02.01.02.01,2.97.38,5.74.85,8.25,1.33-8.54-4.92-23.45-12.77-40.32-18.28Z"/><path class="cls-5" d="M174.37,313.86c.29.02.56.05.84.08-.4-.04-.79-.07-1.19-.11.12,0,.24.02.35.02Z"/><path class="cls-5" d="M170.52,316.44c1.56.08,3.08.2,4.57.34-1.49-.14-3.01-.25-4.57-.34Z"/><path class="cls-7" d="M169.34,153.82c-.04.27-.07.55-.11.81-.02.12-.03.25-.05.37-.02.12-.03.24-.05.37-.06.46-.11.92-.17,1.37,0,.03,0,.07,0,.1-.02.1-.02.2-.04.29-.04.41-.09.81-.14,1.2,0,.03,0,.07,0,.1,0,.11-.02.23-.03.34-.02.12-.02.24-.04.37-.02.24-.05.46-.07.68-.07.59-.11,1.14-.16,1.65,0,.02,0,.05,0,.07v.04c-.02.1-.02.19-.03.28-.68-.28-1.31-.55-1.92-.8-.29-.12-.56-.24-.83-.35-1.04-.43-1.96-.83-2.75-1.17l6.43-5.71Z"/><path class="cls-6" d="M168.95,156.84c-.02.19-.04.37-.07.55-.02.1-.02.2-.03.3h0c-.04.37-.08.72-.12,1.08,0-.11.02-.23.03-.34,0-.03,0-.07,0-.1.05-.39.1-.79.14-1.2.02-.09.02-.19.04-.29Z"/><path class="cls-6" d="M168.61,159.81c-.06.59-.11,1.14-.16,1.65.05-.51.1-1.07.16-1.65Z"/><path class="cls-2" d="M168.44,161.57l-.02.28h0c0-.09.02-.18.03-.28Z"/><path class="cls-6" d="M163.13,162.72c-.17-.07-.34-.15-.5-.21h0c.16.07.33.13.5.21Z"/><path class="cls-5" d="M166.99,316.3c-1.98-.05-4-.03-6.04.04,2.04-.08,4.05-.09,6.04-.04Z"/><path class="cls-13" d="M162.63,162.5h0s-.22-.09-.22-.09c-.07-.03-.14-.06-.21-.09.14.05.28.11.43.18Z"/><path class="cls-13" d="M162.02,162.25c-.08-.03-.15-.07-.23-.1.04,0,.07.02.11.04.03.02.07.03.11.06Z"/><path class="cls-7" d="M161.71,167.64l-.16-2.49s.06.02.09.04l.07,2.45Z"/><path class="cls-13" d="M161.55,162.04h0c-.11-.04-.23-.09-.33-.14.11.05.22.09.33.14Z"/><path class="cls-13" d="M26.18,348.83c.9.23,1.8.43,2.69.62-.9-.18-1.79-.38-2.69-.62Z"/><path class="cls-13" d="M12.08,403.05c.58.58,15.42,13.11,42.56,14.49.4.02.8.04,1.21.06s.81.03,1.22.04c.55.02,1.11.02,1.67.03,23.67.2,57.94-8.48,81.62-30.18,18.6-17.04,36.36-36.72,61.85-28.43l.35,1.65s.02.09.02.13l.31,1.47c-.28-.1-.55-.2-.82-.29.28.1.55.2.82.29l1.88,8.9c-19.36-4.86-27.78,2.53-40.08,13.32-6.66,5.84-14.95,13.12-27.21,20.43-38.62,23.03-81.27,27.08-111.29,10.55-.1-.05-.19-.1-.28-.15-4.42-1.43-13.54-11.81-13.84-12.33h0Z"/><path class="cls-17" d="M54.63,417.54c-27.14-1.38-41.98-13.91-42.56-14.49h0v-.02c-.18-.35-.34-.69-.47-1.02,3.15,2.64,18.22,14.16,43.04,15.53Z"/><path class="cls-5" d="M5.98,326.71c.64-2.54,2.43-4.39,5.01-5.1-1.4.5-3.94,2.26-5,5.1h0Z"/><path class="cls-5" d="M5.99,326.71s-.02.07-.03.11c0-.03,0-.07.02-.11h0Z"/><path class="cls-13" d="M5.68,327.8c.07-.34.16-.68.28-.99-.1.37-.16.75-.2,1.15-.02-.06-.06-.11-.07-.15h0Z"/><path class="cls-5" d="M5.96,326.82c-.11.31-.21.64-.28.99-.07-.43-.24-.82-.48-1.16.24.02.51.04.78.07-.02.03-.02.07-.02.11Z"/><path class="cls-10" d="M490.2,336.04c3.22,0,3.22-5,0-5s-3.22,5,0,5h0Z"/><path class="cls-8" d="M370.75,367.37c-1.41-.02-2.81-.04-4.22-.06-.52,0-1.08.23-1.44.6s-.62.93-.6,1.44c.05,1.12.89,2.02,2.04,2.04h.88c.31.2.66.33,1.01.29.78-.08,1.55-.15,2.33-.23.55-.06,1.03-.19,1.44-.6.35-.35.62-.93.6-1.44-.05-1.12-.89-2.02-2.04-2.04Z"/><path class="cls-8" d="M383.99,372.38c-.14-.11-.27-.21-.41-.32-.32-.18-.66-.28-1.03-.28h-.24c-.28-.01-.54.05-.78.18-.25.08-.47.22-.66.42-.2.18-.34.4-.42.66-.13.24-.19.5-.18.78.02.18.05.36.07.54.1.35.27.64.52.9.14.11.27.21.41.32.32.18.66.28,1.03.28h.24c.28.01.54-.05.78-.18.25-.08.47-.22.66-.42.2-.18.34-.4.42-.66.13-.24.19-.5.18-.78-.02-.18-.05-.36-.07-.54-.1-.34-.27-.64-.52-.9Z"/><path class="cls-8" d="M394.41,379.27s-.03-.05-.05-.08c-.13-.18-.26-.4-.44-.54-.15-.12-.36-.32-.57-.41-.18-.08-.44-.22-.66-.26-.21-.04-.41-.07-.62-.08-.04,0-.07,0-.11,0-.21,0-.42.05-.62.08-.03,0-.07.01-.1.02-.19.06-.38.15-.56.23-.03.01-.06.03-.09.05-.17.11-.32.23-.47.37-.03.02-.05.05-.07.08-.2.18-.34.4-.42.66-.13.24-.19.5-.18.78-.01.28.05.54.18.78.08.25.22.47.42.66.14.11.27.21.41.32.16.1.33.16.51.21,0,0,0,0,.01,0,0,0,.01,0,.02.01.23.15.49.23.76.24.1.03.2.04.29.04.21,0,.43,0,.64,0,.37,0,.71-.09,1.03-.28.24-.13.43-.3.57-.52.18-.2.3-.43.36-.69.1-.36.1-.72,0-1.08-.06-.2-.15-.39-.24-.57Z"/><path class="cls-8" d="M404.05,388.15s-.01-.02-.02-.03c-.05-.07-.11-.14-.16-.21-.06-.07-.11-.14-.17-.22-.01-.02-.03-.03-.04-.05-.25-.25-.55-.43-.9-.52-.36-.1-.72-.1-1.08,0-.36.14-.73.29-1.09.43-.27.06-.5.18-.69.36-.22.14-.4.33-.52.57-.15.23-.23.49-.24.76-.06.27-.05.54.04.81.07.16.14.32.21.49.18.31.42.55.73.73.16.07.32.14.49.21.15.04.3.05.44.06.17.1.34.19.54.24.18.02.36.05.54.07.37,0,.71-.09,1.03-.28.19-.09.36-.25.5-.38.01-.01.03-.03.04-.04.06-.07.13-.17.18-.23.05-.06.12-.15.17-.23.11-.16.22-.49.26-.58.01-.04.02-.08.03-.12.08-.46.13-.82-.01-1.29-.06-.2-.14-.4-.25-.58Z"/><path class="cls-8" d="M411.99,400.82c.28.01.54-.05.78-.18.25-.08.47-.22.66-.42.2-.18.34-.4.42-.66.13-.24.19-.5.18-.78-.02-.18-.05-.36-.07-.54-.1-.35-.27-.64-.52-.9-.14-.11-.27-.21-.41-.32-.32-.18-.66-.28-1.03-.28h-.24c-.28-.01-.54.05-.78.18-.25.08-.47.22-.66.42-.2.18-.34.4-.42.66-.13.24-.19.5-.18.78.02.18.05.36.07.54.1.35.27.64.52.9.14.11.27.21.41.32.32.18.66.28,1.03.28h.24Z"/><path class="cls-8" d="M414.85,406.53c-.14-.11-.27-.21-.41-.32-.32-.18-.66-.28-1.03-.28-.18.02-.36.05-.54.07-.35.1-.64.27-.9.52-.08.08-.16.16-.24.24-.2.18-.34.4-.42.66-.13.24-.19.5-.18.78-.01.28.05.54.18.78.08.25.22.47.42.66.14.11.27.21.41.32.32.18.66.28,1.03.28.18-.02.36-.05.54-.07.35-.1.64-.27.9-.52l.24-.24c.2-.18.34-.4.42-.66.13-.24.19-.5.18-.78.01-.28-.05-.54-.18-.78-.08-.25-.22-.47-.42-.66Z"/><path class="cls-8" d="M423.67,418.3l-.32-.41c-.25-.25-.55-.43-.9-.52-.18-.02-.36-.05-.54-.07-.37,0-.71.09-1.03.28-.16.08-.31.16-.47.25-.24.13-.43.3-.57.52-.18.2-.3.43-.36.69-.08.27-.1.54-.04.81.01.27.09.52.24.76.11.14.21.27.32.41.25.25.55.43.9.52.18.02.36.05.54.07.37,0,.71-.09,1.03-.28.16-.08.31-.16.47-.25.24-.13.43-.3.57-.52.18-.2.3-.43.36-.69.08-.27.1-.54.04-.81-.01-.27-.09-.52-.24-.76Z"/><path class="cls-8" d="M430.84,423.13c-2.62,0-2.63,4.07,0,4.07s2.63-4.07,0-4.07Z"/><path class="cls-8" d="M445.98,434.34h-.01c-.05-.19-.12-.36-.21-.52-.13-.24-.3-.43-.53-.57-.19-.18-.42-.3-.69-.37-.2-.06-.4-.07-.6-.05-.22-.01-.44,0-.66.06-.16.06-.32.13-.48.2-.31.18-.55.43-.73.73-.1.16-.16.33-.22.5h0v.02l-.07.54v.07c0,.17.03.33.07.49.01,0,.2.48.21.49h0c.06.08.11.15.16.21.06.07.11.14.16.21.01,0,.01.01.01.01.13.12.27.24.42.32h.01s.47.21.49.22h.04c.18.03.36.05.54.08h.04c.18-.02.37-.04.56-.08h.02s.47-.2.49-.21h.01s0-.01.01-.01c.14-.1.29-.21.42-.32h0s.32-.42.32-.42h0s.01-.01.01-.01c0-.01.2-.48.2-.49.06-.18.07-.37.08-.56,0-.01-.07-.53-.07-.54ZM445.78,435.41s0,.02,0,.02c0-.05.02-.1.03-.16-.01.05-.02.09-.02.14Z"/><path class="cls-8" d="M460.53,433.66c-.4-.37-.89-.59-1.44-.6-.27,0-.53.04-.78.12-.08.02-.16.03-.24.05-.44.04-.89.04-1.33,0-.21-.04-.42-.07-.63-.13-.51-.14-1.11-.06-1.57.21-.42.25-.83.73-.94,1.22-.12.52-.09,1.11.21,1.57.29.44.7.8,1.22.94.81.22,1.64.31,2.47.3.01,0,.03.02.04.03.87.5,2,.31,2.71-.38.19-.18.34-.4.45-.64.05-.07.11-.14.15-.21.07-.16.14-.32.21-.49.08-.27.1-.54.04-.81-.06-.43-.23-.87-.56-1.17Z"/><path class="cls-8" d="M465.47,433.5c-2.62,0-2.63,4.07,0,4.07s2.63-4.07,0-4.07Z"/><path class="cls-8" d="M481.27,431.5c-.14-.11-.27-.21-.41-.32-.32-.18-.66-.28-1.03-.28h-.24c-.28-.01-.54.05-.78.18-.25.08-.47.22-.66.42-.2.18-.34.4-.42.66-.13.24-.19.5-.18.78.02.18.05.36.07.54.1.35.27.64.52.9.14.11.27.21.41.32.32.18.66.28,1.03.28h.24c.28.01.54-.05.78-.18.25-.08.47-.22.66-.42.2-.18.34-.4.42-.66.13-.24.19-.5.18-.78-.02-.18-.05-.36-.07-.54-.1-.34-.27-.64-.52-.9Z"/><path class="cls-8" d="M489.96,426.67c-2.62,0-2.63,4.07,0,4.07s2.63-4.07,0-4.07Z"/><path class="cls-8" d="M488.16,333.77v.15c0,2.62,4.07,2.63,4.07,0v-.15c0-2.62-4.07-2.63-4.07,0Z"/><path class="cls-8" d="M500.8,332.68c-2.62,0-2.63,4.07,0,4.07s2.63-4.07,0-4.07Z"/><path class="cls-8" d="M478.54,331.14c.22-.01.44-.05.65-.09.05,0,.1-.02.15-.03.12-.04.23-.08.35-.12.13-.03.26-.07.39-.14.25-.08.47-.22.66-.42.11-.14.21-.27.32-.41.13-.22.2-.47.24-.71.01-.03.03-.07.04-.1,0-.02.01-.04.02-.06.06-.21.07-.43.09-.65,0-.04,0-.08,0-.12,0-.11-.03-.22-.04-.32-.01-.1-.02-.22-.05-.33,0-.04-.02-.08-.03-.11-.07-.2-.15-.4-.25-.59-.02-.03-.04-.07-.06-.1-.11-.15-.23-.31-.35-.45-.01-.02-.03-.03-.04-.05-.17-.17-.37-.33-.58-.44-.16-.08-.36-.16-.52-.22-.02,0-.03-.01-.05-.02-.02,0-.04,0-.05-.01-.09-.02-.25-.03-.29-.04-.09-.01-.2-.03-.3-.04-.02,0-.04,0-.06,0,0,0-.02,0-.02,0-.14,0-.41.05-.55.07-.03,0-.06.01-.09.02-.08.03-.41.17-.49.21,0,0-.02,0-.02.01-.01,0-.03.01-.04.02-.01,0-.02.02-.04.03-.11.08-.32.23-.42.33,0,0-.01.01-.02.02-.01.01-.02.02-.03.03-.12.13-.23.29-.34.44-.02.03-.04.05-.05.08,0,.01-.01.03-.02.04-.08.16-.16.35-.22.52-.01.03-.02.06-.03.09,0,.02,0,.04-.01.06-.02.13-.04.26-.05.4,0,0,0,0-.01.01-.01.02-.02.03-.03.05-.18.32-.28.66-.28,1.03-.01.28.05.54.18.78.08.25.22.47.42.66.25.25.55.43.9.52.09.03.17.06.26.07.23.04.54.1.8.08Z"/><path class="cls-8" d="M464.44,326.68c.24.13.5.19.78.18.18-.02.36-.05.54-.07.35-.1.64-.27.9-.52.11-.14.21-.27.32-.41.18-.32.28-.66.28-1.03v-.47c.01-.28-.05-.54-.18-.78-.08-.25-.22-.47-.42-.66-.18-.2-.4-.34-.66-.42-.24-.13-.5-.19-.78-.18-.18.02-.36.05-.54.07-.34.1-.64.27-.9.52-.11.14-.21.27-.32.41-.18.32-.28.66-.28,1.03v.47c-.01.28.05.54.18.78.08.25.22.47.42.66.18.2.4.34.66.42Z"/><path class="cls-8" d="M454.2,315.94l.15.12c.27.33.62.58,1.03.69.03,0,.06,0,.1.01.08.03.15.06.23.09.13.05.28.05.41.07.13.02.27.05.4.04.1,0,.24-.03.29-.04.06,0,.2-.02.29-.04.03,0,.05-.01.08-.02.2-.07.41-.14.58-.25.4-.26.54-.42.81-.81.22-.33.32-.74.32-1.13,0-.21-.04-.43-.08-.62-.03-.12-.09-.24-.13-.34-.04-.09-.08-.22-.14-.32-.11-.17-.23-.33-.37-.48-.02-.02-.04-.04-.06-.06-.15-.13-.31-.28-.5-.37-.18-.09-.36-.17-.55-.23-.03-.01-.06-.02-.1-.02-.46-.07-.78-.12-1.24.01-.21.06-.41.16-.59.27-.1.04-.42.17-.46.2,0,0-.01,0-.02.01-.03.02-.4.3-.42.33,0,0-.01.01-.02.02-.2.18-.34.4-.42.66-.13.24-.19.5-.18.78-.01.28.05.54.18.78.08.25.22.47.42.66Z"/><path class="cls-8" d="M449.06,312.39s0-.03-.01-.05c0,0,0-.02,0-.02,0,0,0,0,0-.01-.07-.16-.14-.32-.21-.49,0,0,0,0,0-.01-.01-.03-.03-.06-.05-.09-.11-.15-.22-.31-.35-.45-.01-.01-.03-.03-.04-.04-.14-.12-.29-.25-.45-.35,0,0-.02,0-.02-.01,0,0,0,0-.01,0-.16-.07-.32-.14-.49-.21,0,0,0,0,0,0-.02,0-.03-.01-.05-.01-.18-.03-.37-.06-.56-.07,0,0-.02,0-.03,0-.47.03-.71.09-1.13.31-.09.05-.18.12-.27.19-.03.02-.05.04-.08.06-.04.03-.08.06-.11.09-.01.01-.02.02-.03.04-.3.35-.42.53-.56.97-.03.09-.04.26-.05.31,0,.07-.04.22-.04.32,0,0,0,.01,0,.02,0,0,0,0,0,.01.01.12.05.42.07.55,0,.02,0,.04.01.05,0,.02,0,.03.02.05.07.18.14.36.23.53,0,.01.02.03.03.04,0,0,0,.01.01.02.05.07.13.17.17.22.05.06.11.15.17.22.01.01.02.03.04.04.13.12.44.34.45.35.01,0,.03.02.04.03.17.09.35.16.53.22.01,0,.03,0,.04.01.09.02.3.04.28.04,0,0,.19.03.28.04,0,0,.02,0,.03,0,0,0,.01,0,.02,0,.07,0,.47-.06.55-.07,0,0,0,0,.01,0,.1-.02.24-.09.29-.12.05-.02.2-.07.29-.13.16-.11.32-.21.45-.35,0,0,.01-.01.02-.02.05-.06.28-.35.32-.42,0,0,0,0,0,0,0,0,0-.01.01-.02,0,0,0,0,0-.01,0,0,0,0,0,0,.07-.16.14-.32.21-.49,0-.01.01-.03.01-.05.04-.19.07-.39.08-.58,0-.02,0-.03,0-.05-.02-.2-.04-.39-.08-.59Z"/><path class="cls-8" d="M439.82,302.76s0-.03,0-.04c0-.01,0-.03-.01-.04-.06-.17-.14-.35-.21-.51-.01-.02-.02-.05-.04-.07,0-.01-.01-.02-.02-.03-.06-.08-.26-.34-.32-.42,0,0,0,0-.01-.01-.02-.02-.03-.04-.05-.05-.07-.06-.16-.13-.23-.18-.07-.05-.15-.12-.23-.18-.02-.01-.04-.02-.06-.04-.16-.08-.34-.15-.51-.21-.01,0-.02,0-.03-.01-.02,0-.04-.01-.07-.02-.01,0-.02,0-.04,0-.18-.03-.38-.06-.56-.08-.03,0-.05,0-.08,0-.02,0-.05,0-.07,0-.1,0-.21.03-.3.04-.09.01-.2.02-.3.04-.05,0-.1.02-.14.04-.17.06-.35.14-.51.22-.01,0-.03.01-.04.02-.02.01-.05.03-.07.04-.16.11-.32.23-.47.36-.02.02-.04.04-.06.06-.12.14-.23.29-.33.43,0,.01-.02.02-.02.03-.06.09-.1.22-.14.31-.03.08-.1.21-.13.31,0,.01,0,.03,0,.04-.02.1-.06.45-.07.55,0,0,0,.02,0,.03-.01.28.05.54.18.78.04.13.11.26.18.37.05.13.11.25.16.38.18.31.42.55.73.73.02.02.05.03.07.04,0,0,.01,0,.02,0,.1.05.39.17.49.21.02,0,.03.01.05.02.01,0,.02,0,.03,0,0,0,.01,0,.02,0,.15.03.4.06.55.07.03,0,.06,0,.08,0,.01,0,.02,0,.04,0,.09,0,.23-.03.28-.04.07,0,.19-.02.29-.04.03,0,.05-.01.08-.02.01,0,.03,0,.04-.01.17-.06.35-.14.51-.21.03-.01.05-.02.08-.04.02-.01.05-.03.07-.04.14-.1.3-.22.44-.34.01,0,.02-.02.03-.03.17-.15.3-.35.42-.53.13-.18.22-.47.28-.62,0-.02.02-.05.02-.07,0-.01,0-.02,0-.04,0,0,0-.01,0-.02.03-.16.06-.39.07-.55,0-.03,0-.05,0-.08,0,0,0-.02,0-.02-.01-.11-.05-.43-.07-.55Z"/><path class="cls-8" d="M429.34,307.27c.32.18.66.28,1.03.28.18-.02.36-.05.54-.07.35-.1.64-.27.9-.52.08-.08.16-.16.24-.24.2-.18.34-.4.42-.66.13-.24.19-.5.18-.78.01-.28-.05-.54-.18-.78-.08-.25-.22-.47-.42-.66-.14-.11-.27-.21-.41-.32-.32-.18-.66-.28-1.03-.28-.18.02-.36.05-.54.07-.35.1-.64.27-.9.52-.08.08-.16.16-.24.24-.2.18-.34.4-.42.66-.13.24-.19.5-.18.78-.01.28.05.54.18.78.08.25.22.47.42.66.14.11.27.21.41.32Z"/><path class="cls-8" d="M418.51,304.66h0c-.02-.19-.05-.37-.07-.55h0s0-.03-.01-.03v-.02s-.01-.01-.01-.02c-.07-.16-.13-.32-.2-.48,0-.01,0-.01,0-.01-.13-.24-.3-.43-.52-.57-.2-.18-.43-.3-.69-.37-.28-.08-.55-.09-.82-.03-.27.01-.52.09-.75.24-.14.1-.28.21-.42.32-.08.08-.14.17-.2.26-.02.02-.03.02-.04.03-.22.15-.4.34-.53.57-.07.17-.13.33-.2.49-.1.36-.1.72,0,1.08.07.17.13.33.2.49.18.31.43.55.73.73h.01c.08.04.17.07.25.11.08.03.16.07.25.1h.01s.03.02.04.02c.17.02.39.07.58.07h.04c.09-.01.18-.02.27-.04.1-.01.19-.02.28-.03h.01s0-.01.02-.01.02,0,.04,0h0c.09-.04.4-.17.49-.21,0,0,0-.01.02-.01.01-.01.02-.01.03-.02.17-.11.33-.23.48-.37.01,0,.02-.02.03-.03.12-.14.23-.29.34-.44.02-.03.03-.05.04-.08.04-.08.17-.39.21-.48h0s.01-.03.01-.03c0-.02.01-.03.01-.05h0c.02-.19.05-.37.07-.55,0-.01.01-.02.01-.03s0-.03-.01-.04Z"/><path class="cls-8" d="M421.47,301.93c.16-.07.32-.14.49-.21.24-.13.43-.3.57-.52.13-.13.21-.28.26-.45.13-.24.19-.5.18-.78-.02-.18-.05-.36-.07-.54-.07-.16-.14-.32-.21-.49-.13-.24-.3-.43-.52-.57-.2-.18-.43-.3-.69-.36-.31-.05-.61-.11-.92-.16-.27-.08-.54-.1-.81-.04-.27.01-.52.09-.76.24-.16.09-.29.2-.41.33-.19.07-.37.16-.52.3-.22.14-.4.33-.52.57-.15.23-.23.49-.24.76-.06.27-.05.54.04.81.07.16.14.32.21.49.18.31.42.55.73.73.16.07.32.14.49.21.36.1.72.1,1.08,0,.55-.1,1.09-.21,1.64-.31Z"/><path class="cls-8" d="M408.79,304.42c-.18-.31-.42-.55-.73-.73-.16-.07-.32-.14-.49-.21-.32-.09-.63-.08-.95-.02-.15-.02-.37-.05-.41-.05,0,0,0,0-.01,0-.01,0-.02,0-.04,0,0,0-.01,0-.02,0-.07,0-.48.06-.55.07-.01,0-.02,0-.03,0,0,0,0,0-.01,0-.05.02-.45.18-.5.21,0,0-.02.01-.03.02-.04.02-.17.12-.23.18-.06.04-.16.12-.2.16,0,0,0,0,0,0-.04.04-.29.37-.33.42,0,0-.01.02-.02.03-.02.04-.11.25-.14.32-.03.06-.06.13-.08.19-.07.21-.07.42-.05.63,0,.02,0,.04,0,.06,0,.37.09.71.28,1.03,0,0,.01.02.02.03.01.02.31.4.32.42,0,0,0,0,0,.01.13.14.29.26.46.35.03.02.15.07.23.1.08.04.23.1.27.11,0,0,.02,0,.03,0,.05.01.22.03.3.04.08.01.21.03.26.03.01,0,.02,0,.03,0,0,0,.01,0,.02,0,.1,0,.45-.05.55-.07,0,0,.02,0,.03,0,0,0,.02,0,.03,0,.08-.03.32-.13.25-.11-.02,0,.18-.07.26-.11,0,0,.02,0,.03-.02,0,0,0,0,.01,0,0,0,.04-.03.09-.07.05-.01.09-.02.14-.04.27-.06.5-.18.69-.36.22-.14.4-.33.52-.57.15-.23.23-.49.24-.76.06-.27.05-.54-.04-.81-.07-.16-.14-.32-.21-.49Z"/><path class="cls-8" d="M390.49,312.15c.48-.13.88-.43,1.17-.83.22-.01.43-.06.62-.16.25-.08.47-.22.66-.42.2-.18.34-.4.42-.66.13-.24.19-.5.18-.78-.02-.18-.05-.36-.07-.54-.1-.35-.27-.64-.52-.9-.14-.11-.27-.21-.41-.32-.32-.18-.66-.28-1.03-.28-.33,0-.67.04-.99.13-.08.02-.15.05-.22.08-.21.08-.42.17-.62.27,0,0,0,0-.01,0-.18.02-.36.05-.54.07-.35.1-.64.27-.9.52-.28.3-.46.59-.57.99-.1.38-.1.8,0,1.18.16.59.55,1.07,1.07,1.4.52.33,1.19.41,1.77.25Z"/><path class="cls-8" d="M380.38,314.51c-.01-.27-.09-.52-.24-.76-.11-.14-.21-.27-.32-.41-.25-.25-.55-.43-.9-.52-.18-.02-.36-.05-.54-.07-.37,0-.71.09-1.03.28-.14.08-.27.16-.41.24-.19.05-.37.11-.55.21-.24.18-.48.37-.72.55-.24.13-.43.3-.57.52-.18.2-.3.43-.36.69-.08.27-.1.54-.04.81.01.27.09.52.24.76.11.14.21.27.32.41.25.25.55.43.9.52.18.02.36.05.54.07.37,0,.71-.09,1.03-.28.15-.09.31-.18.46-.28.29-.14.59-.28.88-.42.19-.1.34-.24.47-.4.17-.12.32-.25.44-.43.18-.2.3-.43.36-.69.08-.27.1-.54.04-.81Z"/><path class="cls-8" d="M200.5,364.82c-.18-.31-.42-.55-.73-.73-.01,0-.03-.02-.05-.02-.08-.04-.16-.07-.25-.11-.08-.04-.17-.07-.25-.11,0,0-.01,0-.02,0-.02,0-.03,0-.05-.01-.09-.02-.25-.03-.29-.04-.05,0-.1-.01-.16-.02-.12-.06-.23-.12-.36-.15-.18-.02-.36-.05-.54-.07-.37,0-.71.09-1.03.28-.01,0-.02.01-.03.02-.03.02-.38.29-.42.32,0,0,0,0-.01.01,0,0-.01.02-.02.02-.02.03-.3.38-.32.42,0,0,0,.01-.01.02,0,0,0,.02-.01.03-.02.04-.19.45-.21.49,0,0,0,0,0,.01,0,.01,0,.02,0,.03-.02.09-.04.32-.04.28,0,0-.03.19-.04.28,0,.11.03.24.04.33.01.08.02.23.05.34,0,.01,0,.02.01.03.04.11.16.39.21.49,0,0,0,.01,0,.02.01.02.02.04.04.06.05.08.13.17.18.23.05.07.11.16.18.23.07.08.19.15.26.21.06.05.17.15.26.2,0,0,0,0,.01,0,.12.06.37.16.5.21.01,0,.03,0,.04.01.01,0,.02,0,.03,0,.08.02.46.06.55.07.01,0,.02,0,.03,0,.04,0,.07,0,.11,0,.17-.02.39-.05.56-.07,0,0,.01,0,.02,0,.02,0,.03,0,.05-.01.02,0,.03-.01.05-.02.18-.06.36-.15.53-.22.08-.03.15-.08.22-.13.17-.12.34-.26.5-.39.04-.03.07-.06.11-.09.25-.25.43-.55.52-.9.08-.27.1-.54.04-.81-.01-.27-.09-.52-.24-.76Z"/><path class="cls-8" d="M180.35,366.86c-.09-.09-.19-.15-.31-.2-.01,0-.02-.02-.04-.03-.49-.26-1.02-.34-1.57-.21-1.07.26-2.02.82-2.84,1.53-.41.35-.74.78-1.06,1.21-.33.45-.54.95-.75,1.46-.1.36-.1.72,0,1.08.1.35.27.64.52.9.25.25.55.43.9.52.36.1.72.1,1.08,0,.55-.09,1.06-.29,1.57-.52.51-.23.94-.56,1.37-.91.43-.35.77-.78,1.1-1.23.33-.45.55-.96.74-1.48.02-.18.05-.36.07-.54-.02-.18-.05-.36-.07-.54-.12-.43-.38-.79-.73-1.06Z"/><path class="cls-8" d="M160.41,382.75c0-.05-.02-.11-.03-.16-.05-.24-.17-.46-.27-.68-.18-.31-.42-.55-.73-.73-.04-.02-.08-.03-.12-.05-.08-.06-.16-.12-.24-.18-.26-.19-.57-.31-.87-.41-.07-.02-.14-.04-.21-.05-.22-.04-.46-.09-.69-.08-.53.02-.91.13-1.38.36-.05.03-.1.05-.14.09-.17.12-.36.25-.51.41-.19.19-.36.41-.48.65-.03.06-.06.13-.09.2-.12.09-.23.19-.33.29-.15.16-.29.35-.42.53-.04.06-.09.13-.12.2-.27.55-.43,1.08-.44,1.7,0,.28.04.58.11.86.06.28.18.56.33.8.39.64,1,1.11,1.72,1.32,1.35.39,2.73-.26,3.74-1.13.12-.11.24-.23.34-.35.2-.24.42-.51.56-.8.27-.57.49-1.2.44-1.85-.03-.31-.06-.62-.17-.91,0,0,0-.01,0-.02Z"/><path class="cls-8" d="M144.97,395.51s0-.01,0-.02c.02.05.02.05,0,.02Z"/><path class="cls-8" d="M149.16,394.33c-.01-.09-.02-.18-.04-.27-.01-.09-.02-.18-.04-.27-.06-.27-.18-.5-.36-.69-.06-.09-.13-.17-.21-.25-.03-.05-.07-.09-.1-.14-.25-.25-.55-.43-.9-.52-.09-.03-.28-.04-.3-.04,0,0-.21-.04-.3-.04-.19,0-.38.04-.56.08,0,0-.02,0-.03,0,0,0,0,0-.01,0-.04.02-.45.19-.49.21,0,0,0,0,0,0,0,0-.02,0-.03.02,0,0,0,0-.01,0-.05.03-.37.28-.41.32,0,0,0,0,0,0,0,0-.02.01-.02.02,0,0-.01.01-.02.02-.04.05-.28.36-.32.41,0,0,0,0,0,0,0,0,0,0,0,.01,0,0,0,.02-.01.02,0,0,0,0,0,.01-.04.08-.09.21-.11.25-.02.04-.07.17-.11.25,0,.02-.01.04-.01.06.03-.2-.07.39-.07.57,0,0,0,.02,0,.03,0,.04.07.5.07.54,0,0,0,0,0,0,0,0,0,0,0,.01,0,0,0,0,0,.01.04.12.18.43.22.52,0,0,0,0,0,0,.1.15.21.3.33.43,0,0,.01.01.02.02.07.06.27.2.21.16-.02-.01.14.11.21.16,0,0,0,0,.01,0,.16.1.35.18.53.22.09.02.28.04.29.04.04,0,.2.04.3.04,0,0,.02,0,.03,0,0,0,0,0,0,0,.05,0,.49-.06.54-.07,0,0,.01,0,.02,0,.02,0,.04,0,.05-.02-.03.01.35-.13.51-.22,0,0,.02,0,.02-.01,0,0,0,0,.01,0,.05-.04.36-.28.41-.32,0,0,0,0,0,0,0,0,.02-.01.02-.02,0,0,0,0,0-.01,0,0,0,0,0,0,.11-.14.21-.27.32-.41h0s.01-.02.02-.03c0,0,0,0,0-.01.02-.04.19-.45.21-.49,0,0,0,0,0,0,0,0,0-.02,0-.03,0,0,0,0,0,0,.02-.18.05-.36.07-.54h0s0-.01,0-.02c0,0,0,0,0-.01,0,0,0,0,0,0Z"/><path class="cls-8" d="M134.04,401.88c-.36-.46-.81-.68-1.35-.76-.24-.07-.49-.13-.75-.15-.67-.07-1.3.15-1.86.5-.56.15-1.1.37-1.6.67-1.04.61-2.09,1.6-2.45,2.78-.37,1.2.29,2.5,1.42,2.97.7.3,1.42.29,2.16.11.85-.2,1.61-.6,2.31-1.1,1.15-.45,2.32-1.14,2.69-2.4.22-.76.08-1.55-.33-2.2-.07-.15-.15-.29-.25-.41Z"/><path class="cls-8" d="M113.97,412.24c-.25-.25-.55-.43-.9-.52-.3-.06-.59-.11-.89-.17-.27-.08-.54-.1-.81-.04-.27.01-.52.09-.76.24-.24.13-.43.3-.57.52-.16.18-.27.39-.34.63-.04.05-.08.1-.12.15-.02.02-.03.05-.05.07-.03.05-.05.09-.08.14-.18.32-.28.66-.28,1.03,0,.37.09.71.28,1.03.18.31.42.55.73.73.32.18.66.28,1.03.28.07,0,.13,0,.2,0,.03,0,.07,0,.1,0,.21-.02.42-.05.62-.08.06-.01.13-.03.19-.05.03-.01.06-.02.09-.03.19-.07.38-.15.57-.24.27-.12.51-.34.73-.52.05-.04.1-.09.14-.14.16-.17.3-.37.43-.56.18-.32.28-.66.28-1.03.01-.28-.05-.54-.18-.78-.08-.25-.22-.47-.42-.66Z"/><path class="cls-8" d="M92.03,419.28c-.75-.4-1.59-.57-2.42-.49-.03,0-.06-.03-.09-.03-.27-.08-.54-.1-.81-.04-.27.01-.52.09-.76.24-.36.23-.68.57-.85.98-.28.26-.54.55-.73.89-.37.63-.37,1.43,0,2.06.37.64,1.03.98,1.76,1.01.23,0,.46,0,.68-.03.4-.05.8-.1,1.19-.21.48-.14.95-.36,1.39-.63.05,0,.1-.01.15-.02.47-.13.98-.5,1.22-.94.25-.47.37-1.05.21-1.57-.16-.49-.47-.97-.94-1.22Z"/><path class="cls-8" d="M71.68,422.06c-.1-.22-.28-.42-.44-.6-.16-.19-.39-.34-.58-.47-.03-.02-.07-.05-.11-.07-.19-.1-.39-.18-.58-.25-.24-.09-.53-.1-.77-.13-.08,0-.17-.01-.25,0-.21.02-.43.04-.63.09-.12.03-.24.09-.35.14-.11.05-.24.09-.34.16-.11.07-.2.16-.3.24-.33.1-.62.27-.86.51-.25.25-.43.55-.52.9-.19.68,0,1.49.52,1.98.26.24.55.48.88.62.22.1.49.23.74.29.27.07.55.1.82.12.1,0,.2.01.29,0,.13,0,.26-.04.39-.05.05,0,.11.02.16.01.28.01.54-.05.78-.18.25-.08.47-.22.66-.42.03-.03.06-.07.08-.11.18-.15.34-.32.47-.53.18-.32.28-.66.28-1.03-.02-.21-.04-.44-.09-.64-.05-.2-.15-.4-.24-.58Z"/><path class="cls-8" d="M52.91,420.65c-.11-.14-.21-.27-.32-.41-.25-.25-.55-.43-.9-.52-.18-.02-.36-.05-.54-.07-.37,0-.71.09-1.03.28-.16.08-.31.16-.47.25-.24.13-.43.3-.57.52-.18.2-.3.43-.36.69-.08.27-.1.54-.04.81.01.27.09.52.24.76.11.14.21.27.32.41.25.25.55.43.9.52.18.02.36.05.54.07.37,0,.71-.09,1.03-.28.16-.08.31-.16.47-.25.24-.13.43-.3.57-.52.18-.2.3-.43.36-.69.08-.27.1-.54.04-.81-.01-.27-.09-.52-.24-.76Z"/><path class="cls-8" d="M161,305.35c-.6-.31-1.2-.61-1.81-.92-.42-.22-.84-.43-1.29-.6-.29-.11-.6-.15-.9-.17-.23-.01-.47.03-.69.07-.23.04-.46.15-.66.25-.21.11-.42.27-.59.44-.31.31-.49.67-.64,1.07-.18.5-.14,1.05-.04,1.55.05.25.17.5.28.72.12.23.29.46.47.64.4.4.9.67,1.43.83.01,0,.03,0,.04,0,.2.09.41.18.61.25.45.16.96.23,1.44.24.24,0,.49-.02.73-.06.17.02.35.02.52-.02.43-.06.87-.23,1.17-.56.17-.19.3-.41.41-.63.1-.1.18-.21.24-.33.25-.47.37-1.05.21-1.57-.16-.49-.46-.98-.94-1.22Z"/><path class="cls-8" d="M145.12,303.82c.24-.1.5-.19.73-.33.24-.13.43-.3.57-.52.18-.2.3-.43.36-.69.02-.18.05-.36.07-.54,0-.37-.09-.71-.28-1.03-.29-.45-.55-.69-.98-1-.24-.17-.54-.29-.82-.38-.18-.06-.37-.09-.57-.11-.03,0-.05-.02-.08-.03-.24-.07-.51-.09-.76-.12-.08,0-.16,0-.24,0-.25.02-.51.04-.75.11-.24.06-.47.17-.7.28-.22.11-.41.29-.6.44-.11.14-.21.27-.32.41-.15.23-.23.49-.24.76-.05.18-.05.36,0,.54.01.27.09.52.24.76.11.25.31.47.48.67.18.21.41.37.64.51.5.32,1.03.42,1.6.48.07,0,.13,0,.2,0,.03,0,.05,0,.08.01.1,0,.19,0,.29,0,.26-.02.53-.05.79-.11.09-.02.18-.05.27-.09Z"/><path class="cls-8" d="M126.97,303.43c.11-.02.21-.05.32-.08.25-.08.5-.19.74-.3.09-.04.18-.09.27-.14.23-.14.44-.32.65-.48.09-.07.17-.14.24-.22.15-.15.27-.33.36-.51.17-.19.28-.41.34-.66.12-.52.09-1.11-.21-1.57-.28-.43-.7-.83-1.22-.94-.28-.06-.58-.1-.86-.12-.12,0-.24,0-.36,0-.41.04-.82.09-1.2.24-.26.1-.52.2-.76.34-.24.14-.46.33-.68.5-.32.25-.57.59-.79.93-.18.32-.28.66-.28,1.03-.01.28.05.54.18.78.08.25.22.47.42.66.25.25.55.43.9.52.37.07.76.13,1.13.11.27-.02.54-.06.81-.11Z"/><path class="cls-8" d="M115.69,304.77c-.14-.11-.27-.21-.41-.32-.32-.18-.66-.28-1.03-.28-.18.02-.36.05-.54.07-.35.1-.64.27-.9.52-.08.08-.16.16-.24.24-.2.18-.34.4-.42.66-.13.24-.19.5-.18.78-.01.28.05.54.18.78.08.25.22.47.42.66.14.11.27.21.41.32.32.18.66.28,1.03.28.18-.02.36-.05.54-.07.34-.1.64-.27.9-.52l.24-.24c.2-.18.34-.4.42-.66.13-.24.19-.5.18-.78.01-.28-.05-.54-.18-.78-.08-.25-.22-.47-.42-.66Z"/><path class="cls-8" d="M102.1,313.54c-.38-.07-.77-.13-1.15-.09-.39.04-.76.09-1.12.24-.36.15-.7.28-1.01.52-.3.22-.6.44-.85.73-.42.49-.76,1.03-.98,1.64-.08.12-.16.25-.22.38-.15.23-.23.49-.24.76-.06.27-.05.54.04.81.07.25.21.52.39.75.1.31.26.58.49.81.18.2.4.34.66.42.24.13.5.19.78.18.37,0,.71-.09,1.03-.28.38-.26.75-.55,1.08-.87.34-.33.63-.7.91-1.08.28-.37.5-.78.69-1.2.42-.25.82-.73.93-1.21.12-.52.09-1.11-.21-1.57-.27-.42-.7-.85-1.22-.94Z"/><path class="cls-8" d="M86.91,329.03c.25.25.55.43.9.52.08.01.15.02.23.04.27.08.54.1.81.04.27-.01.52-.09.76-.24.24-.13.43-.3.57-.52.18-.2.3-.43.36-.69.02-.18.05-.36.07-.54,0-.37-.09-.71-.28-1.03-.11-.14-.21-.27-.32-.41-.25-.25-.55-.43-.9-.52-.08-.01-.15-.02-.23-.04-.27-.08-.54-.1-.81-.04-.27.01-.52.09-.76.24-.24.13-.43.3-.57.52-.18.2-.3.43-.36.69-.02.18-.05.36-.07.54,0,.37.09.71.28,1.03.11.14.21.27.32.41Z"/><path class="cls-8" d="M77.53,334.93c-.18-.2-.4-.34-.66-.42-.24-.13-.5-.19-.78-.18-.18.02-.36.05-.54.07-.35.1-.64.27-.9.52-.11.14-.21.27-.32.41-.18.32-.28.66-.28,1.03v.24c-.01.28.05.54.18.78.08.25.22.47.42.66.18.2.4.34.66.42.24.13.5.19.78.18.18-.02.36-.05.54-.07.35-.1.64-.27.9-.52.11-.14.21-.27.32-.41.18-.32.28-.66.28-1.03v-.24c.01-.28-.05-.54-.18-.78-.08-.25-.22-.47-.42-.66Z"/><path class="cls-8" d="M61.04,345.05c-.08-.08-.16-.16-.24-.24-.18-.2-.4-.34-.66-.42-.24-.13-.5-.19-.78-.18-.28-.01-.54.05-.78.18-.25.08-.47.22-.66.42l-.32.41c-.18.32-.28.66-.28,1.03.02.18.05.36.07.54.1.34.27.64.52.9.08.08.16.16.24.24.18.2.4.34.66.42.24.13.5.19.78.18.28.01.54-.05.78-.18.25-.08.47-.22.66-.42.11-.14.21-.27.32-.41.18-.32.28-.66.28-1.03-.02-.18-.05-.36-.07-.54-.1-.35-.27-.64-.52-.9Z"/><path class="cls-8" d="M45.24,347.76c-2.62,0-2.63,4.07,0,4.07s2.63-4.07,0-4.07Z"/><path class="cls-8" d="M167.32,372.85s-.02-.19-.04-.28c0-.01,0-.03,0-.04-.11-.38-.31-.74-.59-1.02-.29-.29-.4-.32-.71-.45-.08-.03-.21-.1-.32-.12-.09-.02-.22-.03-.29-.04-.08-.01-.19-.03-.29-.04-.02,0-.03,0-.05,0-.01,0-.02,0-.03,0-.11-.02-.23-.03-.34-.05-.37,0-.71.09-1.03.28-.16.11-.32.23-.46.36,0,0-.02.02-.02.02,0,0,0,0-.01.01,0,0,0,0,0,0-.11.14-.21.27-.32.41-.01.02-.03.04-.04.06-.04.09-.08.2-.11.27-.03.07-.08.18-.11.27,0,.02-.01.05-.02.07-.02.09-.03.23-.04.28,0,.07-.03.19-.04.28,0,.01,0,.03,0,.04,0,.02,0,.05,0,.07.02.2.04.41.08.61,0,.02.01.05.02.07.03.09.08.19.11.27.03.08.07.19.12.27.01.02.02.04.04.06.11.16.22.32.36.46.13.14.34.28.46.36.02.01.04.03.06.04,0,0,.01,0,.02,0,.13.06.36.16.49.21.01,0,.02,0,.04.01.01,0,.02,0,.03,0,.09.02.25.03.28.04.08.01.19.03.29.04.03,0,.05,0,.08,0,.13-.01.42-.03.61-.09.19-.06.37-.14.55-.23.02-.01.04-.03.07-.04.07-.05.33-.23.46-.36.14-.14.25-.31.36-.47.02-.02.03-.04.04-.07,0-.01.01-.02.02-.03.04-.08.08-.19.11-.26.03-.08.08-.17.11-.26,0-.02.02-.05.02-.08.04-.2.07-.41.08-.61,0-.03,0-.05,0-.08,0-.09-.03-.23-.04-.28Z"/><path class="cls-13" d="M357.14,315.29l-.53-.53c-.55-.6-1.21-1.02-1.97-1.26-.73-.38-1.51-.56-2.35-.53-.84-.03-1.63.14-2.35.53-.76.25-1.41.67-1.97,1.26l-.96,1.24c-.55.95-.83,1.98-.83,3.08l.22,1.62c.29,1.04.81,1.93,1.57,2.7l.53.53c.55.6,1.21,1.02,1.97,1.26.73.38,1.51.56,2.35.53.84.03,1.63-.14,2.35-.53.76-.25,1.41-.67,1.97-1.26l.96-1.24c.55-.95.83-1.98.83-3.08l-.22-1.62c-.29-1.04-.81-1.93-1.57-2.7h0Z"/><path class="cls-13" d="M210.06,330.76h.53c.84.03,1.63-.14,2.35-.53.76-.25,1.41-.67,1.97-1.26.6-.55,1.02-1.21,1.26-1.97.38-.73.56-1.51.53-2.35l-.22-1.62c-.29-1.04-.81-1.93-1.57-2.7l-1.24-.96c-.95-.55-1.98-.83-3.08-.83h-.53c-.84-.03-1.63.14-2.35.53-.76.25-1.41.67-1.97,1.26-.6.55-1.02,1.21-1.26,1.97-.38.73-.56,1.51-.53,2.35l.22,1.62c.29,1.04.81,1.93,1.57,2.7l1.24.96c.95.55,1.98.83,3.08.83h0Z"/><path class="cls-9" d="M386.38,146.55l-1.61-3.47c-79.38-26.98-132.08-20.24-164.83-10.59-35.68,10.5-50.52,25.56-51.21,26.27l-.11,4.56-1.07.33c.31.15,31.8,15.41,74.37,21.03,9.34,1.24,19.68,2.06,30.67,2.06,35.39,0,77.55-8.49,114.92-38.94l-.71-.88-.41-.37ZM242.55,180.73c-34.84-4.58-62.13-15.71-70.55-19.44,5.5-4.72,21.65-16.94,49.36-25.05,31.64-9.25,85.14-14.86,161.35,10.28-47.34,37.23-102.2,39.22-140.16,34.21Z"/><path class="cls-17" d="M382.71,146.52c-47.34,37.23-102.2,39.22-140.16,34.21-34.84-4.58-62.13-15.71-70.55-19.44,5.5-4.72,21.65-16.94,49.36-25.05,31.64-9.25,85.14-14.86,161.35,10.28Z"/><path class="cls-13" d="M378.01,16.53l-99.15,167.88c-.1-.04-25.09-.35-26.05-.58L356.88,4.24l21.13,12.3Z"/><path class="cls-5" d="M382.15,15.15l-1.68,2.82-100.02,167.69c-.84-.43-1.92-.05-2.78-.47L378.01,16.53l-21.13-12.3-104.08,179.6c-.28-.06-3.53,2.55-4.22,2.41L354.43,2.81l1.61-2.81,2.46,1.43,21.19,12.3,2.46,1.43Z"/><path class="cls-4" d="M334.33,59.43c-.49,0-1-.12-1.46-.38-1.45-.81-1.97-2.63-1.16-4.08l24.92-44.7c.81-1.45,2.63-1.97,4.08-1.16,1.45.81,1.97,2.63,1.16,4.08l-24.92,44.7c-.55.98-1.57,1.54-2.62,1.54Z"/><path class="cls-11" d="M386.42,146.64c-.19.15-.37.31-.57.47-.07.06-.13.11-.2.17-.03.03-.06.06-.09.09,0,0-.02.02-.03.02-.02.02-.05.04-.07.06-.02.02-.05.03-.07.05-.02,0-.02.02-.03.02-.33.27-.65.54-.99.81-.33.26-.65.53-.99.79-.33.26-.68.53-1.02.79-.34.27-.69.53-1.04.79-.35.27-.71.53-1.08.8-.36.27-.72.53-1.1.79-.31.23-.63.46-.95.68-.16.11-.33.23-.49.34-.66.46-1.33.91-2.01,1.37-.4.26-.8.53-1.21.79-.41.27-.81.53-1.23.79-.83.53-1.67,1.05-2.53,1.57-.86.52-1.74,1.04-2.64,1.56-.92.53-1.85,1.06-2.8,1.59-.9.5-1.82.99-2.76,1.48,0,0,0,0,0,0-.94.49-1.89.99-2.86,1.47-.02.02-.04.02-.07.03-.94.48-1.91.95-2.89,1.42-1,.48-2.01.95-3.05,1.42-.51.24-1.03.47-1.56.7-.52.24-1.04.46-1.57.69-2.12.92-4.29,1.82-6.53,2.68l-1.69.64c-.56.21-1.13.42-1.7.64l-3.47,1.24c-.59.2-1.17.41-1.77.6l-3.59,1.17c-.61.19-1.21.37-1.83.56-.61.19-1.22.37-1.84.55-.62.18-1.25.36-1.87.54-.63.18-1.25.36-1.89.53l-2.97.79-.13.03-1.86.46-1.31.32c-.49.12-.98.24-1.47.35l-1.98.45c-.67.15-1.34.29-2,.44-.67.14-1.34.28-2.02.42-.68.14-1.35.27-2.04.4l-2.09.4-.27.05c-.59.11-1.17.2-1.77.31l-4.2.68c-1.41.21-2.83.42-4.27.6l-2.97.37c-.46.06-.91.11-1.38.16l-1.99.21c-.75.07-1.51.15-2.26.22l-6.88.52c-3.17.19-6.36.28-9.56.28-.77,0-1.56,0-2.33-.02-.56,0-1.13-.02-1.69-.03-.67,0-1.34-.03-2.01-.06-.67-.02-1.34-.05-2.01-.08-1.54-.07-3.08-.15-4.61-.26-.47-.03-.94-.07-1.42-.11-.67-.05-1.34-.11-2-.16s-1.34-.11-2-.18c-.67-.06-1.34-.13-2-.2-.48-.05-.96-.1-1.43-.15-.58-.07-1.15-.13-1.72-.2-.8-.1-1.6-.2-2.4-.3-.8-.11-1.59-.21-2.38-.33-.66-.09-1.31-.18-1.96-.29-.3-.04-.59-.08-.89-.13-.06,0-.12-.02-.18-.03-.51-.07-1.01-.15-1.51-.23-.02,0-.02,0-.04,0-.8-.12-1.6-.26-2.4-.4-.5-.08-1-.17-1.5-.26-1.07-.19-2.13-.38-3.19-.58-.96-.19-1.92-.37-2.87-.56-.31-.07-.63-.12-.94-.19-.64-.12-1.26-.26-1.88-.39-.31-.07-.61-.13-.91-.2-.63-.13-1.25-.27-1.87-.41-1.56-.34-3.1-.69-4.62-1.06l-1.81-.44c-.48-.11-.96-.23-1.44-.35-1.31-.33-2.61-.66-3.9-1-1.07-.29-2.13-.57-3.18-.86-.1-.02-.2-.06-.29-.08-1.72-.47-3.41-.95-5.07-1.44-1.11-.33-2.2-.65-3.27-.98-.54-.16-1.08-.33-1.6-.49-.53-.16-1.06-.33-1.58-.5-.52-.16-1.04-.33-1.56-.49s-1.03-.33-1.53-.5c-.51-.16-1.01-.33-1.52-.5-.48-.15-.95-.31-1.43-.47-.02,0-.04-.02-.06-.02-.98-.33-1.94-.65-2.88-.98-2.83-.98-5.5-1.94-7.99-2.85-.46-.18-.91-.34-1.36-.51-.73-.28-1.44-.55-2.13-.81-.03-.02-.07-.02-.1-.04-.43-.16-.86-.33-1.28-.5-.33-.12-.64-.25-.95-.37-1.73-.68-3.32-1.31-4.77-1.91l.02-.28v-.04s0-.04,0-.07c.05-.51.11-1.07.16-1.65.02-.22.05-.45.07-.68.02-.12.02-.24.04-.37.04-.35.08-.71.12-1.07h0c0-.11.02-.21.03-.31.02-.18.04-.36.07-.55,0-.03,0-.07,0-.1.06-.45.11-.9.17-1.37.02-.12.03-.24.05-.37s.03-.25.05-.37c.04-.27.07-.55.11-.81l.03-.22.02-.16.99-5.85c5.6-29.03,25.86-86.24,98.24-86.75,16.96-.14,32.67,2.48,46.73,7.73,7.23,2.7,14.16,6.14,20.58,10.26,1.8,1.15,3.54,2.35,5.23,3.57,1.25.91,2.48,1.85,3.68,2.79,0,0,0,0,0,0,.67.53,1.33,1.07,1.98,1.6.5.42.99.83,1.47,1.25.28.23.55.46.81.71.42.36.84.73,1.25,1.11,1.14,1.03,2.25,2.09,3.33,3.14.44.43.87.86,1.3,1.3,10.18,10.35,17.35,21.57,22.26,31.25l.46.93s0,0,0,0c.33.66.64,1.3.94,1.95.15.33.31.66.46.99.15.33.31.67.46,1,0,0,0,0,0,0,.34.76.68,1.51.99,2.23.15.37.31.73.46,1.08.37.88.72,1.74,1.06,2.57.18.44.35.88.51,1.3.17.44.33.87.5,1.3.19.5.36.98.53,1.44.17.47.33.93.48,1.36l1.26,2.72.71,1.52v.03s.12.25.12.25l.02.06h0l.11.25Z"/><path class="cls-7" d="M397.18,142.18c-.02-.1-.05-.19-.08-.29,0-.05-.02-.09-.05-.13-.02-.09-.06-.17-.1-.24-.04-.08-.08-.16-.14-.24-.04-.06-.08-.12-.12-.18-.08-.13-.18-.24-.29-.35-.16-.15-.33-.29-.52-.4-.09-.06-.19-.11-.3-.16l-.18-.08-6.92-3.17c-5.73-15.38-19.11-42.34-46.85-61.19-.78-.53-1.58-1.06-2.38-1.58-.09-.05-.16-.1-.24-.15-.73-.47-1.46-.92-2.2-1.37-1.75-1.07-3.54-2.08-5.36-3.05-.6-.33-1.21-.65-1.83-.96-.36-.19-.73-.38-1.1-.56-1.16-.59-2.33-1.14-3.51-1.68-.68-.31-1.36-.62-2.05-.91-.68-.29-1.37-.59-2.06-.87-.91-.38-1.83-.74-2.75-1.09-.27-.1-.54-.21-.81-.3-.66-.25-1.33-.49-2-.72-14.18-5.01-29.91-7.5-46.75-7.37-80.49.57-99.96,67.21-104.61,95.9l-.03.23-7.54,7.31s-.08.08-.11.12c-.04.05-.09.1-.13.15-.05.06-.09.12-.13.18-.05.06-.09.13-.13.21-.03.05-.05.09-.08.15-.03.07-.06.13-.09.2-.05.13-.1.27-.12.4-.02.06-.02.12-.03.18-.01.05-.02.11-.03.16-.01.08-.01.17-.01.25v.16s0,.09.01.15v.03l1.66,25.95c.06,1.05.7,1.97,1.65,2.41l8.3,3.8h0s1.27.59,1.27.59c.05.03.72.34,1.96.87.81.35,1.88.8,3.19,1.33.07.03.16.07.24.1.27.1.53.21.81.32,1.14.45,2.42.94,3.85,1.47.58.21,1.19.44,1.83.67.34.13.68.25,1.03.37.59.22,1.2.43,1.84.66.74.25,1.5.51,2.28.77.26.09.53.18.8.27,1.07.36,2.19.72,3.34,1.09.67.21,1.36.43,2.05.64.85.27,1.73.54,2.62.8.44.14.89.27,1.35.4.9.27,1.83.54,2.77.81.95.27,1.92.53,2.9.8.5.14,1,.27,1.5.41.97.26,1.96.51,2.97.77.56.15,1.12.3,1.69.44.53.14,1.07.27,1.62.4.53.13,1.08.26,1.63.4.97.23,1.96.46,2.96.7.32.06.64.13.95.21.39.09.79.18,1.18.26.57.13,1.16.26,1.75.38,1.18.26,2.37.51,3.58.76,1.22.24,2.44.5,3.69.73,2.28.44,4.6.87,6.98,1.26.57.1,1.13.2,1.7.29.8.14,1.6.27,2.42.39,1,.16,2.01.32,3.03.46.61.09,1.23.18,1.85.27,1.86.27,3.75.53,5.68.76,1.27.16,2.57.31,3.87.46.56.06,1.11.12,1.66.18.93.1,1.85.2,2.78.29,1.04.1,2.07.2,3.12.29.55.05,1.09.1,1.64.15,1.73.15,3.48.28,5.25.4,3.86.27,7.81.47,11.84.6,1.72.06,3.42.08,5.11.08,1.98,0,3.93-.04,5.87-.11.79-.03,1.57-.07,2.35-.11.23,0,.45-.01.67-.03.92-.05,1.81-.11,2.72-.18.75-.06,1.52-.11,2.28-.19,1.02-.09,2.03-.18,3.03-.3.28-.03.58-.06.86-.09,1.43-.16,2.84-.34,4.23-.54.51-.07,1-.14,1.5-.22.83-.12,1.65-.26,2.47-.39.64-.1,1.28-.22,1.92-.33.86-.15,1.72-.31,2.57-.48.81-.15,1.62-.32,2.41-.49.12-.02.24-.05.36-.07.74-.16,1.46-.32,2.19-.49.07-.02.14-.03.21-.05.67-.15,1.34-.31,2-.47.27-.06.54-.12.8-.2,1.44-.35,2.86-.72,4.25-1.11.91-.25,1.8-.5,2.68-.76.63-.18,1.24-.37,1.85-.56.79-.24,1.57-.48,2.33-.73,1.48-.48,2.92-.96,4.32-1.46,1.41-.49,2.79-1,4.12-1.51.6-.22,1.18-.45,1.75-.68.09-.03.17-.06.25-.1.65-.26,1.29-.52,1.94-.78,1.07-.44,2.12-.89,3.15-1.33.42-.18.84-.37,1.25-.56.08-.02.15-.05.22-.09.25-.11.48-.21.72-.32.05-.03.11-.05.16-.08.15-.06.3-.13.44-.19,2.19-1,4.25-1.99,6.18-2.97.59-.29,1.16-.59,1.73-.89h.01c.57-.3,1.13-.6,1.69-.89.32-.16.62-.34.93-.51.31-.16.61-.32.91-.49,1.82-1,3.53-1.98,5.16-2.96.36-.21.72-.43,1.08-.64,2.64-1.6,5-3.14,7.09-4.57.22-.14.44-.29.65-.44.47-.32.93-.65,1.38-.96,1.34-.94,2.54-1.82,3.6-2.63,1.28-.96,2.36-1.81,3.21-2.51,1.53-1.24,2.37-2.01,2.49-2.12l.76-.7h0s9.84-9.07,9.84-9.07c.58-.54.92-1.3.92-2.09v-24.17c0-.19-.03-.4-.07-.59ZM387.08,141.51s.02.07.03.11c-.01-.04-.02-.08-.04-.11h.01ZM169.33,153.83h0s.01-.01.01-.01l.03-.22.03-.16c0-.06,0-.11.02-.17v-.03c.01-.11.03-.22.05-.32,0-.05.01-.11.02-.17.02-.09.03-.16.03-.19,0-.02,0-.03,0-.03l.09-.64c.22-1.35.48-2.79.77-4.3.51-2.66,1.15-5.55,1.94-8.62.15-.59.31-1.19.47-1.8.15-.53.29-1.07.45-1.62.15-.54.31-1.09.48-1.64.15-.53.31-1.06.48-1.6,0-.04.03-.08.04-.13.17-.54.34-1.07.52-1.62.12-.37.24-.74.37-1.12.11-.34.22-.68.34-1.02.01-.04.03-.08.04-.12.13-.38.27-.77.41-1.17.62-1.76,1.29-3.54,2.03-5.34.22-.56.46-1.13.7-1.7.24-.57.48-1.14.74-1.71.27-.62.55-1.25.84-1.87.27-.6.55-1.2.84-1.8.32-.66.64-1.31.97-1.96.61-1.22,1.25-2.43,1.92-3.64.2-.38.41-.76.63-1.14.17-.31.35-.61.53-.92.2-.35.41-.71.62-1.07,1.13-1.89,2.32-3.77,3.6-5.63.42-.62.86-1.24,1.3-1.85.2-.3.42-.59.64-.89.04-.06.08-.11.12-.17.25-.33.5-.67.76-1,.38-.51.77-1.01,1.17-1.51.31-.39.62-.78.94-1.17.3-.36.59-.72.89-1.08.15-.18.29-.35.44-.52.52-.61,1.05-1.21,1.59-1.8.08-.1.17-.2.26-.29.46-.51.93-1.01,1.4-1.51.26-.27.52-.54.78-.8.2-.21.4-.42.61-.62.19-.19.38-.39.58-.57.01-.02.02-.03.03-.04.12-.12.25-.24.37-.36.54-.53,1.08-1.05,1.64-1.56.28-.26.56-.51.84-.76.57-.52,1.14-1.02,1.73-1.51.29-.26.58-.5.88-.75s.6-.49.9-.73c.6-.49,1.21-.97,1.83-1.44.62-.48,1.25-.94,1.89-1.4.64-.46,1.29-.92,1.95-1.36.66-.45,1.33-.89,2.01-1.32.34-.22.68-.43,1.03-.64.51-.32,1.04-.64,1.57-.94.52-.32,1.06-.62,1.59-.92.72-.4,1.45-.8,2.19-1.18.74-.39,1.49-.76,2.25-1.13.76-.37,1.53-.73,2.31-1.08,4.3-1.93,8.92-3.58,13.88-4.91.9-.24,1.82-.47,2.74-.69.93-.22,1.86-.43,2.81-.63.8-.16,1.61-.32,2.42-.47.04-.01.08-.02.12-.03.83-.14,1.67-.29,2.52-.42.25-.05.51-.08.76-.12,1-.15,2.01-.29,3.03-.42.77-.09,1.54-.18,2.32-.26.89-.09,1.78-.18,2.69-.25.41-.03.83-.07,1.25-.09.67-.05,1.34-.09,2.02-.13.41-.02.81-.04,1.22-.06.33-.02.66-.03.99-.04.15,0,.31-.01.47-.01.24-.02.49-.02.73-.03.14,0,.29,0,.43,0,.32-.01.64-.02.97-.02.47-.01.93-.02,1.41-.02h.01c.46-.01.92-.01,1.37-.01.89,0,1.78.01,2.66.03.36,0,.71.01,1.07.02.2,0,.41,0,.61.02.6.01,1.19.03,1.78.06.8.03,1.59.07,2.38.12.19.01.37.02.56.03.99.06,1.98.12,2.96.21h.02c1.98.16,3.94.36,5.87.61h.01c1.94.24,3.85.53,5.75.85.95.16,1.88.34,2.83.52h.01c1.87.36,3.72.76,5.55,1.21.92.22,1.83.45,2.73.69,1.81.48,3.59,1.01,5.35,1.57s3.5,1.16,5.21,1.8c7.24,2.7,14.16,6.14,20.58,10.26.47.3.94.6,1.4.91.33.21.66.43.99.66.53.35,1.05.71,1.56,1.08.43.3.86.6,1.28.91.62.46,1.24.92,1.86,1.39.61.46,1.22.94,1.82,1.41,0,0,0,0,0,0,.67.53,1.33,1.06,1.98,1.6.5.42.99.83,1.47,1.26.27.22.55.46.81.7.15.13.3.26.45.4.27.23.53.47.79.71h.01c1.14,1.04,2.25,2.09,3.33,3.15.44.43.87.86,1.29,1.29,10.24,10.36,17.4,21.58,22.27,31.25.15.31.31.62.46.93,0,.01,0,.01,0,.01.33.66.64,1.3.95,1.94.08.17.15.33.23.5.07.16.15.33.23.49.15.33.31.67.46,1,0,.01,0,.01,0,.01.34.76.68,1.51,1,2.23.15.37.31.73.46,1.09.37.88.73,1.73,1.06,2.56.18.44.35.88.51,1.31.17.44.34.87.5,1.29.15.38.28.73.41,1.09.04.12.08.24.12.35.17.47.33.93.48,1.36h0s0,.02.01.02c0,.01.03.02.05.04.04.03.1.08.19.12.04.04.09.07.15.1.22.14.53.31.88.5.3.17.64.36.98.54.3.16.6.32.89.48l.42.22s.08.04.11.07l.51.26.35.19c.06.03.12.06.18.09.04.02.07.04.1.05l.21.11c.08.04.12.06.12.06l-1.01.74-1.18.86-.11.07h-.02s-.55.43-.55.43v-.02c-.1.07-.2.15-.31.22-.05.04-.11.08-.15.12-.06.04-.11.08-.16.12-.06.05-.1.09-.17.14-.03.04-.07.04-.11.04-.01.01-.03.02-.04.03-.02.02-.05.04-.07.06-.02,0-.05.03-.07.05-.01,0-.02.01-.03.02-.32.27-.65.54-.98.81h-.01c-.33.27-.64.53-.99.79-.33.26-.67.53-1.02.79-.34.27-.69.53-1.04.79-.35.27-.71.53-1.07.79,0,0-.01,0-.01.01-.28.21-.57.41-.86.63-.08.05-.15.1-.23.16-.31.22-.63.45-.96.67-.16.12-.32.23-.49.34-.21.15-.43.3-.65.45-.22.16-.45.32-.69.47-.22.15-.44.3-.67.45-.4.26-.8.53-1.2.79-.41.27-.82.53-1.23.79-.42.27-.84.53-1.26.8-.42.25-.85.51-1.28.77-.43.27-.87.53-1.31.79s-.88.52-1.33.78c-.92.53-1.85,1.06-2.8,1.59-.9.49-1.82.99-2.76,1.48,0,.01,0,.01,0,.01-.93.49-1.89.98-2.86,1.46h0s0,.01-.02.02c-.01,0-.03,0-.04.02-.95.48-1.92.95-2.89,1.41-.51.24-1.01.48-1.52.72-.25.11-.51.23-.76.35-.25.12-.51.24-.77.35-.51.24-1.03.47-1.56.7-.52.24-1.04.47-1.57.69-.53.23-1.06.46-1.6.69-.76.32-1.52.64-2.3.95-.86.35-1.74.7-2.62,1.04l-1.69.65c-.56.22-1.12.43-1.7.63-.24.09-.48.18-.72.26-.67.25-1.34.49-2.02.72-.24.09-.49.18-.73.26h-.01c-.59.21-1.17.41-1.76.6-.14.04-.27.09-.4.14-.14.04-.28.09-.41.13t-.02,0c-.91.31-1.83.61-2.76.9-.61.19-1.22.37-1.84.56-.61.19-1.22.37-1.84.55-.48.14-.97.28-1.45.42-.14.04-.27.08-.41.12-.63.18-1.26.36-1.89.53l-2.98.79-.13.03-1.06.27-.42.11-.37.09-1.32.32c-.48.12-.97.23-1.46.35l-.45.1-1.53.34-.48.11-.24.06h-.06c-.14.04-.27.07-.4.1-.06.01-.11.02-.17.04-.05.01-.09.01-.14.02-.17.03-.35.07-.52.11-.33.07-.67.14-1,.21-.34.07-.68.14-1.02.21-.67.14-1.35.27-2.03.4l-2.1.4-.26.05h0c-.59.1-1.17.2-1.76.31-.83.14-1.66.27-2.5.4-.57.1-1.13.19-1.7.27-1.41.21-2.83.42-4.27.61l-2.96.36c-.22.03-.43.06-.65.08-.24.03-.48.06-.73.09l-1.99.21c-.75.07-1.5.14-2.26.22-.38.03-.76.06-1.14.09-.38.03-.77.07-1.15.09-.22.03-.45.04-.68.06-.47.04-.94.07-1.41.11-.83.06-1.67.12-2.5.17-3.17.19-6.37.28-9.56.28-.77,0-1.56-.01-2.33-.02-.56-.01-1.13-.02-1.69-.03-.67-.01-1.35-.04-2.02-.06-.66-.03-1.34-.05-2.01-.08-1.54-.07-3.08-.16-4.61-.26-.47-.04-.94-.07-1.42-.11-.66-.05-1.33-.1-2-.16-.67-.05-1.34-.12-2-.18h-.01c-.67-.06-1.33-.13-1.99-.2-.48-.05-.96-.1-1.43-.16-.58-.06-1.15-.13-1.72-.19h0c-.8-.1-1.59-.2-2.39-.31-.8-.1-1.59-.21-2.38-.32-.33-.04-.66-.09-.98-.14-.16-.02-.33-.04-.49-.07-.17-.03-.33-.05-.49-.08-.3-.04-.6-.08-.89-.13l-.18-.03c-.5-.07-1.01-.15-1.5-.23h0s-.02-.01-.04-.01c-.4-.06-.8-.13-1.2-.19-.4-.07-.8-.14-1.2-.21-.5-.08-1-.17-1.5-.26-.53-.09-1.06-.19-1.59-.28h-.01c-.53-.1-1.06-.19-1.58-.29-.48-.1-.97-.19-1.45-.28-.48-.1-.95-.19-1.42-.29-.31-.06-.63-.12-.94-.18-.63-.13-1.26-.26-1.88-.4-.31-.06-.61-.13-.91-.19-.32-.06-.63-.13-.94-.2-.16-.04-.32-.07-.47-.1-.15-.04-.31-.08-.46-.11-.66-.14-1.31-.29-1.96-.44-.24-.05-.48-.11-.73-.16-.19-.04-.37-.09-.55-.13-.04,0-.07-.02-.11-.03-.42-.1-.85-.2-1.27-.3-.31-.07-.61-.14-.91-.21-.3-.08-.6-.15-.9-.23-.48-.11-.96-.23-1.44-.35-.66-.16-1.32-.32-1.97-.49-.65-.17-1.29-.34-1.94-.51-1.06-.28-2.12-.57-3.17-.85h-.01c-.1-.03-.19-.06-.29-.09-.86-.24-1.71-.47-2.56-.71-.84-.24-1.68-.49-2.5-.73-.56-.16-1.1-.32-1.65-.48h-.01c-.54-.17-1.08-.33-1.62-.5-.54-.16-1.07-.32-1.6-.48-.53-.17-1.06-.33-1.58-.5-.52-.16-1.05-.33-1.56-.49-.26-.08-.51-.16-.77-.25-.25-.08-.51-.16-.76-.25-.25-.08-.51-.16-.76-.24-.25-.08-.51-.17-.76-.25-.48-.16-.95-.31-1.42-.48h-.03s-.02-.01-.03-.01c-.98-.33-1.94-.65-2.88-.98-2.84-.98-5.5-1.94-7.99-2.85-.46-.18-.92-.34-1.36-.51-.73-.28-1.45-.55-2.14-.81-.03-.02-.06-.03-.1-.04-.43-.16-.86-.34-1.28-.5-.32-.12-.64-.25-.95-.37-.87-.34-1.69-.67-2.49-.99s-1.56-.62-2.28-.93h-.01c-.68-.27-1.31-.54-1.92-.8-.29-.12-.56-.23-.83-.35-1.05-.43-1.96-.83-2.75-1.17l6.42-5.7ZM391.74,148.85v.6s-.2,11.44-.2,11.44v4.8l-.08.07-.06,3.94v.2l-7.6,6.8s-42.4,38.87-107.07,36.75c-64.66-2.12-107.06-22.35-107.06-22.35l-2.59-1.19s.03-.06.04-.08l-4.49-2.24c.18-.41-.19-2.5.17-2.78l-1.09-17.17-.17-2.49s.06.03.09.04l-.08-3.14c-.11-.05-.23-.1-.33-.15.1.05.22.09.33.14.03.01.05.02.08.04.03.02.05.02.08.03.03.02.06.04.08.04.02.01.04.02.06.02.02.01.04.01.06.02.03.02.07.04.11.06.04,0,.07.03.11.05.02.01.04.02.06.02.08.04.13.06.21.09.03.01.06.02.09.04h.01s.08.03.13.05c.08.04.16.08.25.11.08.04.16.07.25.11.18.08.36.15.53.23.34.14.68.29.98.42.1.05.21.09.32.14.16.06.3.12.43.18.53.22,1.08.44,1.66.69.24.1.48.19.73.3.05.02.11.03.16.06.02,0,.05.02.08.03.46.19.94.38,1.42.58.22.09.44.18.67.27.81.31,1.65.65,2.52.98.45.18.9.35,1.36.53.02.02.06.03.09.04.04.02.09.03.14.05.23.09.48.19.72.28.37.14.74.28,1.12.42.99.38,2.02.76,3.09,1.15.33.12.67.25,1.01.37,1.67.61,3.4,1.23,5.21,1.85.02,0,.05.01.07.03.02.01.03.01.04.01.05.02.1.04.16.05.78.27,1.58.55,2.39.82.1.03.2.07.31.1.11.04.22.07.32.1.21.07.42.14.64.22.63.21,1.28.43,1.93.64,1.3.42,2.64.85,4,1.28.68.22,1.38.43,2.08.65.87.27,1.75.53,2.65.8.89.26,1.79.53,2.7.79,3.07.88,6.23,1.75,9.5,2.59.12.03.24.06.36.09.11.03.23.06.35.09.18.04.36.09.54.13.03.01.06.02.1.03.04.02.08.03.13.04.53.13,1.06.26,1.59.39h.01c.12.02.22.06.34.09.33.08.66.15,1,.24.46.11.93.22,1.39.33,3.08.73,6.23,1.43,9.43,2.07,1.19.24,2.38.47,3.59.7,1.32.24,2.64.49,3.97.72.71.12,1.42.24,2.14.36.41.06.81.13,1.21.19.67.12,1.34.21,2.01.31.66.11,1.33.2,2,.29.51.08,1.01.15,1.52.22.59.08,1.18.16,1.77.23.54.07,1.09.14,1.63.21.45.05.89.1,1.34.15.45.05.89.1,1.34.15.25.03.51.05.78.08.58.06,1.18.12,1.76.18.68.07,1.36.13,2.05.18.53.05,1.05.09,1.58.14.7.05,1.4.1,2.1.15.06,0,.14,0,.21.02h.19c.36.03.72.05,1.09.08.5.03.99.06,1.48.09.95.05,1.89.1,2.84.13.94.03,1.89.06,2.83.09,1.37.03,2.74.05,4.11.05,3.23,0,6.47-.09,9.68-.29.99-.06,1.98-.12,2.95-.19.76-.06,1.51-.12,2.26-.18.33-.03.67-.06,1-.09,1.22-.1,2.45-.22,3.65-.35.71-.07,1.43-.14,2.13-.22.27-.04.55-.07.83-.1.56-.07,1.12-.13,1.68-.2.01,0,.03,0,.04-.01,1.2-.15,2.38-.3,3.57-.47.63-.09,1.26-.18,1.89-.27,1.68-.26,3.34-.53,4.98-.81.67-.11,1.32-.24,1.98-.35,1.43-.26,2.83-.54,4.22-.82.5-.1.99-.2,1.48-.31.17-.04.35-.07.52-.11.81-.17,1.63-.35,2.43-.54.98-.22,1.94-.45,2.89-.67.55-.13,1.1-.26,1.64-.4,1.22-.3,2.44-.62,3.63-.95.45-.11.9-.23,1.36-.36.62-.17,1.24-.35,1.85-.53.68-.19,1.36-.39,2.04-.59.02-.01.03-.01.03-.01,1.3-.39,2.58-.79,3.83-1.19,3.46-1.11,6.79-2.27,9.97-3.48.49-.19.98-.38,1.47-.57,2.08-.82,4.11-1.64,6.06-2.49.54-.24,1.07-.46,1.6-.7,1.06-.46,2.1-.94,3.12-1.42.49-.22.98-.45,1.46-.68.39-.19.77-.37,1.14-.56.44-.21.88-.42,1.31-.63.67-.33,1.33-.67,1.99-1,.91-.47,1.8-.93,2.68-1.4.47-.25.94-.5,1.4-.76.47-.25.93-.51,1.38-.76.5-.28.99-.56,1.48-.84.86-.49,1.69-.98,2.5-1.46,3.41-2.03,6.49-4.04,9.23-5.98.69-.48,1.36-.96,2-1.45.64-.46,1.26-.92,1.87-1.4.3-.22.6-.45.88-.68.07-.05.14-.1.21-.16.51-.39,1.01-.79,1.48-1.19.04-.02.07-.05.11-.08.26-.22.51-.43.75-.63.13-.11.25-.21.37-.31.11-.09.21-.18.32-.28.25-.21.49-.41.73-.63.57-.49,1.12-.98,1.62-1.45.24-.22.47-.44.69-.65.03-.01.05-.04.08-.06.05-.04.09-.09.14-.13l.25.13-.03,1.43c.02.06.03.09.03.1.02.08.02.15.04.24.06.4.03.82-.09,1.2Z"/><path class="cls-3" d="M252.86,86.43c-18.36,13.6-31.25,25.1-35.39,31.58-2.61,4.08-9.18,8.98-15.06,9.19-.77.03-1.53-.02-2.27-.17-2.17-.43-5.84-2.06-6.06-8.12-.11-3.08.74-6.24,2.47-9.14,2.12-3.58,6.17-9.78,12.11-16.29,5.93-6.51,13.76-13.33,23.42-18.12,14.47-7.16,25.76-8.8,29.49-4.26,1.7,2.07,2.82,6.82-8.71,15.35Z"/><path class="cls-3" d="M200.23,157.92c-.33.3-.68.59-1.03.85-.97.73-2.41,1.33-4.06,1.68l-3.7.35c-2.09-.04-4.23-.53-5.99-1.64-.28-.17-.55-.36-.8-.56-2.12-1.69-5.09-5.81-1.28-14.39.07-.16.16-.32.26-.46,1.16-1.68,7.19-9.95,13-9.95h.2c2.18.07,4.09,1.28,5.36,3.4,5.14,8.57,2.69,16.5-1.98,20.74Z"/></svg>