<?xml version="1.0" encoding="UTF-8"?><svg id="Layer_2" xmlns="http://www.w3.org/2000/svg" viewBox="0 0 170.73 195.19"><defs><style>.cls-1{fill:#fff;stroke:#8e335d;stroke-miterlimit:10;stroke-width:1.41px;}.cls-2{fill:#8e335d;}</style></defs><path class="cls-1" d="M65.29,194.49h40.3c17.69,0,33.03-12.52,36.24-29.91.46-2.46.76-5.03.92-7.71L161.56,13.88H9.17l18.81,142.98c.27,2.68.61,5.18,1.03,7.51,3.14,17.49,18.51,30.12,36.28,30.12Z"/><path class="cls-2" d="M142.11,58.15c-6.87-3.11-14.13-8.77-22.03-7.58-6.9,1.05-13.06,4.75-20.24,3-6.91-1.69-11.94-7.39-17.82-10.99-2.99-1.83-6.45-3.37-9.91-1.88-3.6,1.55-6.87,4.06-10.35,5.88-7.16,3.75-15.04,6.05-22.84,2.8-3.58-1.49-8.01-5.3-11.86-9.11-2.99-2.96-8.06-.58-7.69,3.62l16.12,112.26c.25,2.49.57,4.8.94,6.89,2.49,13.86,14.63,23.92,28.87,23.92h40.3c14.17,0,26.3-9.99,28.84-23.76.4-2.14.67-4.42.8-6.78v-.11s13.86-86.44,13.86-86.44c.44-4.97-2.36-9.63-6.91-11.69-.03-.01-.05-.02-.08-.03Z"/><rect class="cls-1" x=".71" y=".71" width="169.32" height="7.53" rx="1.38" ry="1.38"/><rect class="cls-1" x="7.29" y="8.23" width="156.15" height="5.64" rx="1.38" ry="1.38"/></svg>