<?xml version="1.0" encoding="UTF-8"?><svg id="Layer_1" xmlns="http://www.w3.org/2000/svg" viewBox="0 0 502.28 538.18"><defs><style>.cls-1{fill:#d3639c;}.cls-1,.cls-2{stroke-width:0px;}.cls-2{fill:#9b2a5e;}</style></defs><path class="cls-2" d="M301.01,0v136.34c-8.89,0-17.23,2.37-24.4,6.53l-6.44-6.53-17.96-18.25V0h48.8Z"/><path class="cls-2" d="M301.01,233.93v304.25h-48.8V226.39c4.28-4.13,7.99-7.75,10.86-10.56,5.37,6.63,12.44,11.83,20.56,14.92h0c5.39,2.06,11.25,3.18,17.37,3.18Z"/><path class="cls-1" d="M349.8,228.36v309.83h-48.79V233.93c6.65,0,12.97-1.32,18.74-3.74,5.94-2.47,11.27-6.07,15.76-10.56.87-.87,1.71-1.78,2.51-2.71,3.17,3.1,7.2,7.02,11.78,11.43Z"/><path class="cls-2" d="M339.5,215.14c-.48.6-.97,1.21-1.48,1.79-.2-.19-.4-.39-.59-.57.52-.58,1.02-1.17,1.51-1.76.18.18.37.36.56.55Z"/><path class="cls-1" d="M349.8,0v116.01l-20,20.32-5.71,5.8c-6.87-3.7-14.72-5.8-23.08-5.8V0h48.79Z"/><path class="cls-2" d="M199.83,166.3s-12.03,7.15-20.37,18.84H0v-48.8h165.28c5.58,25.97,34.54,29.96,34.54,29.96Z"/><path class="cls-2" d="M501.21,136.34l1.08,48.8h-81.78c-8.34-11.69-20.37-18.84-20.37-18.84,0,0,28.96-3.99,34.54-29.96h66.52Z"/><path class="cls-1" d="M349.8,185.13c0,11.32-3.85,21.73-10.3,30-.19-.18-.38-.36-.56-.55-.49.6-.98,1.18-1.51,1.76.19.18.39.38.59.57-.79.93-1.64,1.84-2.51,2.71-4.48,4.48-9.82,8.09-15.76,10.56-5.77,2.42-12.09,3.74-18.74,3.74-6.12,0-11.98-1.13-17.37-3.18h0c-8.11-3.09-15.19-8.29-20.56-14.92-3.31-4.07-5.96-8.69-7.82-13.71-1.97-5.29-3.04-11.01-3.04-16.98,0-13.47,5.46-25.68,14.29-34.5,3-3,6.39-5.62,10.1-7.76,7.17-4.16,15.51-6.53,24.4-6.53,8.35,0,16.21,2.1,23.08,5.8,4.22,2.27,8.07,5.14,11.42,8.5,8.83,8.83,14.29,21.03,14.29,34.5Z"/><path class="cls-1" d="M180.06,233.93H0v-48.8h179.46c-4.84,6.77-8.44,15.08-7.72,24.39.72,9.48,3.81,17.73,8.31,24.4Z"/><path class="cls-2" d="M339.5,215.14c-.48.6-.97,1.21-1.48,1.79-.2-.19-.4-.39-.59-.57.52-.58,1.02-1.17,1.51-1.76.18.18.37.36.56.55Z"/><path class="cls-1" d="M502.28,185.13v48.8h-82.37c4.51-6.68,7.59-14.92,8.31-24.4.72-9.31-2.88-17.62-7.72-24.39h81.78Z"/><path class="cls-2" d="M339.5,215.14c-.48.6-.97,1.21-1.48,1.79-.2-.19-.4-.39-.59-.57.52-.58,1.02-1.17,1.51-1.76.18.18.37.36.56.55Z"/><path class="cls-1" d="M252.21,226.39v32.32c-41.31,56.79-51.25,165.38-51.25,165.38-18.24-51.67-6.51-88.26-6.51-88.26l-58.13,64.58c12.92-147.46,64.64-149.76,64.64-149.76,10.86,3.99,22.59,2.72,31.16-5.24,4.24-3.94,8.36-7.82,12.21-11.48,2.78-2.65,5.43-5.18,7.88-7.54Z"/><path class="cls-2" d="M266.51,150.63c-8.83,8.83-14.29,21.03-14.29,34.5,0,5.97,1.08,11.7,3.04,16.98,1.85,5.01,4.51,9.64,7.82,13.71-2.87,2.81-6.58,6.44-10.86,10.56-2.46,2.37-5.1,4.9-7.88,7.54-3.85,3.66-7.97,7.54-12.21,11.48-8.57,7.96-20.3,9.22-31.16,5.24-7.97-2.93-15.47-8.69-20.9-16.72-4.51-6.68-7.59-14.92-8.31-24.4-.72-9.31,2.88-17.62,7.72-24.39,8.34-11.69,20.37-18.84,20.37-18.84,0,0-28.96-3.99-34.54-29.96-1.01-4.68-1.26-10.09-.44-16.32,7.71-58.28,61.53-28.17,61.53-28.17l25.83,26.24,17.96,18.25,6.44,6.53c-3.71,2.14-7.1,4.76-10.1,7.76Z"/><path class="cls-2" d="M339.5,215.14c-.48.6-.97,1.21-1.48,1.79-.2-.19-.4-.39-.59-.57.52-.58,1.02-1.17,1.51-1.76.18.18.37.36.56.55Z"/><path class="cls-2" d="M407.56,334.59s11.73,36.6-6.51,88.26c0,0-9.94-108.6-51.25-165.39v-29.11c1.86,1.78,3.81,3.65,5.84,5.58,3.85,3.66,7.97,7.54,12.21,11.48,8.57,7.96,20.3,9.22,31.16,5.24.93-.34,1.86-.73,2.78-1.15,6.34.96,51.89,12.58,63.9,149.67l-58.13-64.58Z"/><path class="cls-2" d="M400.14,166.3s12.03,7.15,20.37,18.84c4.84,6.77,8.44,15.08,7.72,24.39-.72,9.48-3.81,17.73-8.31,24.4-4.8,7.09-11.2,12.41-18.12,15.57-.92.42-1.84.81-2.78,1.15-10.86,3.99-22.59,2.72-31.16-5.24-4.24-3.94-8.36-7.82-12.21-11.48-2.03-1.93-3.98-3.8-5.84-5.58-4.58-4.41-8.61-8.33-11.78-11.43.51-.58,1-1.18,1.48-1.79,6.45-8.27,10.3-18.69,10.3-30,0-13.47-5.46-25.68-14.29-34.5-3.36-3.36-7.2-6.23-11.42-8.5l5.71-5.8,20-20.32,23.79-24.16s53.83-30.12,61.53,28.17c.82,6.23.57,11.64-.44,16.32-5.58,25.97-34.54,29.96-34.54,29.96Z"/><path class="cls-2" d="M339.5,215.14c-.48.6-.97,1.21-1.48,1.79-.2-.19-.4-.39-.59-.57.52-.58,1.02-1.17,1.51-1.76.18.18.37.36.56.55Z"/></svg>