<?xml version="1.0" encoding="UTF-8"?><svg id="Layer_1" xmlns="http://www.w3.org/2000/svg" viewBox="0 0 72.86 122.94"><defs><style>.cls-1{fill:#10a6ad;}.cls-1,.cls-2,.cls-3,.cls-4,.cls-5,.cls-6,.cls-7,.cls-8,.cls-9,.cls-10,.cls-11,.cls-12,.cls-13,.cls-14,.cls-15{stroke-width:0px;}.cls-2,.cls-8{opacity:.64;}.cls-2,.cls-11{fill:#fff;}.cls-3{fill:#f4c3de;}.cls-4{fill:#350b1c;}.cls-5{fill:#84f4f4;}.cls-6{fill:#36c8ea;}.cls-7{fill:#561a38;}.cls-8,.cls-14{fill:#82e9f4;}.cls-9{fill:#26a1b5;}.cls-10{fill:#d3639c;}.cls-12{fill:#64e0f4;}.cls-13{fill:#9b2a5e;}.cls-15{fill:#16a0b7;}</style></defs><polygon class="cls-9" points="70.15 43.8 69.8 44.06 69.79 44.06 70.15 43.8"/><path class="cls-1" d="M69.8,42.69s0-.02-.01-.03h0s0,.02,0,.03Z"/><rect class="cls-9" x="69.76" y="44.07" width=".04" height="0" transform="translate(-12.68 47.54) rotate(-34.68)"/><path class="cls-9" d="M69.79,44.06l-.03.02h-.08s.02,0,.02-.01h.09Z"/><path class="cls-9" d="M69.7,44.07s-.01.01-.02.02h-.13s0,0,0,0h.16Z"/><path class="cls-9" d="M69.68,44.09s-.06.06-.1.09l-.03-.07h.13Z"/><path class="cls-9" d="M69.76,44.08l-.16.12v-.03s.05-.06.09-.09h.08Z"/><polygon class="cls-9" points="69.76 44.08 69.59 44.21 69.59 44.2 69.59 44.2 69.76 44.08 69.76 44.08"/><rect class="cls-9" x="69.58" y="44.17" width="0" height=".03" transform="translate(-12.05 32.76) rotate(-24.44)"/><polygon class="cls-9" points="69.58 44.17 69.58 44.18 69.55 44.1 69.58 44.17"/><rect class="cls-9" x="69.54" y="44.08" width="0" height=".02"/><polygon class="cls-15" points="69.54 44.08 69.5 44.01 69.5 44 69.54 44.08"/><polygon class="cls-9" points="69.54 44.08 69.54 44.08 69.5 44.01 69.54 44.08"/><path class="cls-12" d="M69.45,44.31s-.03.02-.05.04c-.02.02-.03.03-.05.04,0,0-.02,0-.03.01.02-.01.05-.04.09-.06.01,0,.03-.02.04-.03Z"/><path class="cls-12" d="M69.59,44.2s-.06.04-.09.07c-.01.01-.03.02-.05.03-.01,0-.03.02-.04.03-.04.03-.07.05-.09.06,0,0,.02-.02.03-.03.02-.02.04-.03.06-.05.06-.05.12-.1.17-.14v.03Z"/><path class="cls-15" d="M69.5,44l-.21-.46s0,0,0-.01l.21.47Z"/><path class="cls-15" d="M69.39,43.03l-.43-.23.33.73s0,0,0,.01l-.38-.82c.03.05.63.37,1.08.61l-.59-.3Z"/><path class="cls-13" d="M66.73,53.84c-.14.11-.3.23-.47.35.17-.13.32-.24.47-.35Z"/><path class="cls-13" d="M61.4,59.27c-.17.09-.34.18-.51.27h0c.17-.09.34-.18.51-.27Z"/><path class="cls-13" d="M66.58,56.08c-.14.09-.27.19-.42.29-.06.05-.13.09-.2.13-.63.43-1.34.9-2.14,1.38-.11.06-.22.13-.33.19-.49.3-1.01.59-1.56.89-.09.05-.18.1-.27.15-.09.05-.18.11-.28.15-.17.09-.34.18-.51.27h0c-.17.09-.34.18-.52.27-.58.3-1.2.59-1.86.9-.04.02-.09.04-.13.06-.02,0-.03.02-.05.02-.07.03-.14.06-.22.1-.02.01-.04.02-.07.03-.12.06-.25.11-.38.17-.31.13-.63.27-.95.4-.2.08-.39.16-.58.24-.02.01-.05.02-.08.03-.17.07-.35.14-.53.2-.4.15-.82.31-1.24.46-.42.15-.86.3-1.3.44-.23.08-.46.15-.7.22-.18.06-.37.11-.56.17-.27.08-.53.15-.81.23-.42.12-.85.23-1.28.33-.08.02-.16.04-.24.06-.2.05-.4.1-.6.14-.02,0-.04,0-.06.02-.22.05-.44.1-.66.15-.04,0-.07.02-.11.02-.24.05-.48.1-.73.15-.26.05-.52.1-.77.14-.19.03-.39.07-.58.1-.25.04-.49.08-.74.12-.15.02-.3.05-.45.07-.42.06-.84.11-1.28.16-.08,0-.17.02-.26.03-.3.04-.61.06-.91.09-.23.02-.46.04-.69.06-.27.02-.54.04-.82.05-.07,0-.13,0-.2,0-.24.01-.47.02-.71.03-.58.02-1.17.03-1.77.03-.51,0-1.02,0-1.54-.02-1.21-.04-2.41-.1-3.57-.18-.53-.04-1.06-.08-1.58-.12-.17-.02-.33-.03-.49-.05-.32-.03-.63-.06-.94-.09-.28-.03-.56-.06-.84-.09-.17-.02-.33-.04-.5-.05-.39-.05-.78-.09-1.17-.14-.58-.07-1.15-.15-1.71-.23-.19-.03-.37-.05-.56-.08-.31-.04-.61-.09-.91-.14-.25-.04-.49-.08-.73-.12-.17-.03-.34-.06-.51-.09-.72-.12-1.42-.25-2.1-.38-.38-.07-.74-.15-1.11-.22-.36-.08-.72-.15-1.08-.23-.18-.04-.36-.08-.53-.11-.12-.02-.24-.05-.36-.08-.09-.02-.19-.05-.29-.06-.3-.07-.6-.14-.89-.21-.17-.04-.33-.08-.49-.12-.17-.04-.33-.08-.49-.12-.17-.04-.34-.09-.51-.13-.3-.08-.6-.15-.9-.23-.15-.04-.3-.08-.45-.12-.3-.08-.59-.16-.87-.24-.28-.08-.56-.16-.83-.24-.14-.04-.27-.08-.41-.12-.27-.08-.53-.16-.79-.24-.21-.06-.42-.13-.62-.19-.35-.11-.68-.22-1.01-.33-.08-.03-.16-.05-.24-.08-.24-.08-.46-.16-.69-.23-.19-.07-.38-.13-.55-.2-.11-.04-.21-.07-.31-.11-.19-.07-.38-.14-.55-.2-.43-.16-.82-.31-1.16-.44-.08-.03-.16-.07-.24-.1-.02,0-.05-.02-.07-.03l4.78,22.67,2.89,13.71.02.1s0,0,0,0c0,0,0,.02,0,.03l.03.16,1.62,7.67,1.96,9.31c.89.87,5.34,4.99,12.23,7.17,10.18,3.21,20.63.89,31.07-6.9l.52-3.95s0-.01,0-.02h0v-.02l1.44-10.89v-.02s0-.03.01-.04l.34-2.6.13-1.03s0,0,0-.02h0s1.55-11.74,1.55-11.74l3.61-27.34c-.32.24-.68.51-1.09.79ZM19.67,95.06c-2.7,0-4.9-2.19-4.9-4.9s2.19-4.9,4.89-4.9,4.9,2.19,4.9,4.9-2.19,4.9-4.9,4.9ZM40.77,96.2h0c-.9.86-2.13,1.31-3.66,1.34h-.14c-4.09,0-5.3-3.17-5.36-4.85-.02-.32.12-.63.37-.86.25-.23.58-.37.95-.38.36-.01.71.11.98.32.27.22.42.52.43.84.02.42.23,2.53,2.63,2.53h.05s.03,0,.03,0c.75-.01,1.33-.2,1.7-.55.6-.57.69-1.53.68-1.86h0c-.04-.66.54-1.23,1.28-1.27.75-.04,1.4.46,1.44,1.12.02.38.05,2.26-1.4,3.63ZM53.4,94.18c-2.7,0-4.9-2.2-4.9-4.9s2.19-4.9,4.9-4.9,4.9,2.2,4.9,4.9-2.2,4.9-4.9,4.9Z"/><path class="cls-13" d="M58.5,60.7s-.09.04-.13.06h0s.09-.04.13-.06Z"/><path class="cls-13" d="M58.37,60.76h0s-.03.02-.05.02c-.07.03-.14.06-.22.1.09-.04.18-.08.27-.12Z"/><path class="cls-4" d="M53.4,84.38c-2.7,0-4.9,2.2-4.9,4.9s2.19,4.9,4.9,4.9,4.9-2.2,4.9-4.9-2.2-4.9-4.9-4.9ZM51.83,89.91c-.72,0-1.31-.59-1.31-1.31s.59-1.31,1.31-1.31,1.32.59,1.32,1.31-.59,1.31-1.32,1.31Z"/><path class="cls-13" d="M54.28,62.4c-.42.15-.86.3-1.3.44.44-.14.88-.29,1.3-.44Z"/><path class="cls-11" d="M51.83,87.28c.72,0,1.32.59,1.32,1.32s-.59,1.31-1.32,1.31-1.31-.59-1.31-1.31.59-1.32,1.31-1.32Z"/><path class="cls-4" d="M40.85,92.64s0,0,0,0h0s0,0,0,0Z"/><path class="cls-5" d="M39.72,55.44c-.23.02-.46.04-.69.06-.07,0-.14.01-.2.02-.14.01-.28.02-.43.03-.25.02-.5.04-.75.05l2.07-.16Z"/><path class="cls-4" d="M42.16,92.56c-.05-.66-.7-1.17-1.44-1.12-.74.04-1.32.61-1.28,1.27h0c.01.33-.08,1.29-.68,1.87-.38.35-.95.54-1.7.55,0,0-.03,0-.03,0h-.05c-2.4,0-2.61-2.11-2.63-2.53-.01-.32-.17-.62-.43-.84-.27-.22-.62-.33-.98-.32-.37.01-.71.15-.95.38-.25.24-.39.54-.37.86.07,1.68,1.27,4.85,5.36,4.85h.14c1.53-.03,2.76-.48,3.66-1.33h0c1.44-1.37,1.42-3.26,1.4-3.64Z"/><path class="cls-5" d="M31.39,56.44c-.11,0-.22-.01-.33-.02,0,0,0,0,0,0,.11,0,.22.01.33.02Z"/><path class="cls-6" d="M70.46,43.58l-.3.22s-.56.41-.57.38c-.1.09.34-.29.23-.2-.03.03-.25.17-.29.2l.02-.09-.04-.09-.21-.47-.33-.73.43.23.59.3s.02.01.03.02l.15.08.11.06s.04.02.05.03c.01,0,.02,0,.03.01l.06.03s.04.02.04.02Z"/><path class="cls-14" d="M71.21,44.43s0,.03,0,.05v-.51s-.07-.04-.07-.04c-.02.01-.03.03-.04.04,0,0-.02.02-.02.02-.07.06-.14.13-.21.2-.15.14-.32.29-.49.44-.07.07-.14.13-.22.19-.03.03-.06.06-.1.08-.04.03-.07.06-.11.09-.07.06-.15.12-.23.19-.01,0-.02.02-.03.02-.14.12-.29.24-.45.36-.02.02-.04.03-.06.05-.08.07-.17.14-.27.2-.18.14-.37.28-.56.42-.19.15-.39.29-.6.44-.83.58-1.75,1.19-2.78,1.8-.24.14-.49.29-.75.44-.15.08-.3.17-.45.25-.14.08-.27.15-.42.23-.14.08-.28.15-.42.23-.27.14-.53.28-.81.42-.2.1-.4.2-.6.3-.13.06-.26.13-.39.19-.11.06-.23.11-.34.17-.14.07-.29.14-.44.2-.31.14-.62.29-.94.43-.16.07-.32.14-.48.21-.59.26-1.2.5-1.83.75-.15.06-.3.11-.44.17-.96.36-1.96.71-3.01,1.05-.38.12-.76.24-1.15.36,0,0,0,0,0,0-.2.06-.41.12-.61.18-.18.05-.37.11-.56.16-.14.04-.27.08-.41.11-.36.1-.73.2-1.09.29-.16.04-.33.08-.49.12-.29.07-.58.14-.87.2-.24.06-.49.11-.73.16-.05.01-.11.02-.16.03-.15.03-.3.06-.45.09-.42.08-.84.17-1.27.25-.2.03-.39.07-.6.11-.49.08-.99.17-1.5.24-.19.03-.38.05-.57.08-.36.05-.71.1-1.08.14,0,0,0,0-.01,0-.17.02-.34.04-.51.06-.08,0-.17.02-.25.03-.21.02-.43.05-.64.07-.36.04-.73.08-1.1.11-.1,0-.2.02-.3.03-.23.02-.45.04-.68.05-.29.02-.59.04-.89.06-.97.06-1.94.09-2.92.09-.41,0-.83,0-1.24-.02-.28,0-.57-.02-.85-.03-.29,0-.57-.02-.86-.04-.15,0-.3-.02-.45-.03-.11,0-.22-.02-.33-.02-.01,0-.02,0-.03,0h-.03s-.05,0-.06,0c-.21-.02-.42-.03-.63-.05-.16-.02-.32-.03-.48-.04-.21-.02-.41-.03-.62-.05-.17-.02-.36-.04-.53-.05-.08,0-.16-.02-.24-.02-.14-.02-.27-.03-.4-.05-.14-.02-.27-.03-.4-.05-.16-.02-.33-.04-.49-.06-.18-.02-.36-.05-.53-.07-.15-.02-.3-.04-.46-.07-.2-.03-.4-.05-.6-.09-.2-.03-.4-.06-.61-.09-.12-.02-.24-.04-.36-.06-.22-.04-.43-.07-.65-.11-.4-.07-.8-.14-1.2-.22-.36-.07-.72-.14-1.08-.21-.96-.19-1.91-.4-2.84-.62-.14-.03-.28-.07-.42-.1-.1-.03-.2-.05-.3-.07-.04,0-.07-.02-.1-.02,0,0,0,0,0,0-.16-.04-.32-.08-.48-.12-.02,0-.03,0-.04-.01-.01,0-.02,0-.03,0-.05-.02-.11-.03-.16-.04-.04,0-.07-.02-.11-.03-.04,0-.07-.02-.11-.03-.99-.25-1.94-.52-2.86-.78-.27-.08-.55-.16-.81-.24-.27-.08-.54-.16-.8-.24-.21-.07-.42-.13-.63-.2-.41-.13-.81-.26-1.21-.39-.2-.06-.39-.13-.58-.19-.03-.01-.07-.02-.1-.03-.07-.02-.13-.05-.19-.07-.03,0-.06-.02-.09-.03-.24-.08-.49-.17-.72-.25-.02,0-.03,0-.05-.02,0,0,0,0-.01,0,0,0-.02,0-.02,0-.55-.19-1.07-.37-1.57-.56-.1-.04-.2-.08-.3-.11-.32-.12-.63-.23-.93-.35-.11-.04-.23-.08-.34-.13-.07-.03-.15-.06-.22-.08-.02,0-.03,0-.04-.02,0,0-.02,0-.03-.01-.14-.05-.27-.11-.41-.16-.26-.1-.52-.2-.76-.3-.07-.03-.14-.05-.2-.08-.14-.06-.29-.12-.43-.17,0,0-.02,0-.02,0-.02,0-.03-.01-.05-.02-.08-.03-.15-.06-.22-.09-.17-.08-.34-.14-.5-.21-.04-.02-.08-.04-.13-.05-.03-.02-.07-.03-.1-.04-.09-.04-.19-.08-.3-.13-.05-.02-.11-.05-.16-.07-.03-.01-.05-.02-.08-.03-.03,0-.05-.02-.08-.03l-.05-.02s-.02,0-.02,0c-.02,0-.04-.02-.06-.03,0,0-.01,0-.02,0-.01,0-.02-.01-.03-.02-.02,0-.03-.01-.05-.02,0,0-.01,0-.02,0,0,0-.02,0-.02-.01,0,0-.02,0-.02,0,0,0-.02,0-.02,0l.02.95.02.74.33,5.18c-.11.08,0,.71-.05.84l1.35.68.77.38s12.78,6.1,32.27,6.74c19.49.64,32.27-11.08,32.27-11.08l.63-.58,1.52-1.4.14-.13v-1.18s.04-4.88.04-4.88c0,0,0,0,0,0h0v-.07s.01-.02.02-.02c0,0,0-.02.01-.02,0,0,0,0,0,0,.01-.05.03-.1.04-.16.02-.1.04-.21.03-.31,0-.03,0-.05-.01-.07Z"/><path class="cls-4" d="M19.67,85.27c-2.7,0-4.89,2.19-4.89,4.9s2.19,4.9,4.9,4.9,4.9-2.19,4.9-4.9-2.19-4.9-4.9-4.9ZM18.36,90.59c-.73,0-1.32-.59-1.32-1.31s.59-1.31,1.32-1.31,1.31.59,1.31,1.31-.59,1.31-1.31,1.31Z"/><path class="cls-11" d="M18.36,87.96c.72,0,1.32.59,1.32,1.32s-.59,1.31-1.32,1.31-1.32-.59-1.32-1.31.59-1.32,1.32-1.32Z"/><path class="cls-5" d="M18.09,54.33s-.07-.02-.1-.02h0s.07.01.1.02Z"/><path class="cls-5" d="M17.47,54.17s-.02,0-.03,0h0s.02,0,.03,0Z"/><path class="cls-5" d="M17.44,54.16c-.05-.01-.11-.03-.16-.04-.07-.02-.14-.04-.22-.06.13.03.25.06.38.1Z"/><path class="cls-11" d="M11.55,49.61c-.32.07-.66.11-1.01.11-.04,0-.07,0-.11,0l1.11-.11Z"/><path class="cls-6" d="M4.16,46.37c-.01.08-.02.16-.03.25,0,.04,0,.08-.01.11,0,.04,0,.07-.01.11-.02.14-.03.28-.05.41,0,0,0,.02,0,.03,0,.03,0,.06-.01.09-.01.12-.03.24-.04.36,0,0,0,.02,0,.03,0,.03,0,.07,0,.1,0,.04,0,.07-.01.11,0,.07-.01.14-.02.21-.02.18-.03.34-.05.5,0,0,0,.01,0,.02h0s0,.07,0,.1c-.2-.08-.4-.16-.58-.24-.09-.04-.17-.07-.25-.11-.31-.13-.59-.25-.83-.35l1.94-1.72Z"/><path class="cls-5" d="M4.04,47.28c0,.06-.01.11-.02.16,0,.03,0,.06,0,.09h0c-.01.11-.02.22-.04.32,0-.03,0-.07,0-.1,0,0,0-.02,0-.03.01-.12.03-.24.04-.36,0-.03,0-.06.01-.09Z"/><path class="cls-5" d="M3.94,48.17c-.02.18-.03.34-.05.5.01-.15.03-.32.05-.5Z"/><path class="cls-1" d="M3.89,48.7v.08h0s0-.05,0-.08Z"/><path class="cls-5" d="M2.29,49.05c-.05-.02-.1-.04-.15-.06h0s.1.04.15.06Z"/><path class="cls-10" d="M2.13,48.98h0s-.07-.03-.07-.03c-.02,0-.04-.02-.06-.03.04.01.08.03.13.05Z"/><path class="cls-10" d="M1.95,48.91s-.05-.02-.07-.03c.01,0,.02,0,.03.01,0,0,.02,0,.03.02Z"/><path class="cls-6" d="M1.86,50.53l-.05-.75s.02,0,.03.01l.02.74Z"/><path class="cls-10" d="M1.81,48.84h0s-.07-.03-.1-.04c.03.01.07.03.1.04Z"/><path class="cls-10" d="M60.77,95.04l-.16-.16c-.17-.18-.36-.31-.59-.38-.22-.12-.46-.17-.71-.16-.25,0-.49.04-.71.16-.23.07-.43.2-.59.38l-.29.37c-.17.29-.25.6-.25.93l.07.49c.09.31.25.58.47.81l.16.16c.17.18.36.31.59.38.22.12.46.17.71.16.25,0,.49-.04.71-.16.23-.07.43-.2.59-.38l.29-.37c.17-.29.25-.6.25-.93l-.07-.49c-.09-.31-.25-.58-.47-.81h0Z"/><path class="cls-10" d="M16.43,99.7h.16c.25,0,.49-.04.71-.16.23-.07.43-.2.59-.38.18-.17.31-.36.38-.59.12-.22.17-.46.16-.71l-.07-.49c-.09-.31-.25-.58-.47-.81l-.37-.29c-.29-.17-.6-.25-.93-.25h-.16c-.25,0-.49.04-.71.16-.23.07-.43.2-.59.38-.18.17-.31.36-.38.59-.12.22-.17.46-.16.71l.07.49c.09.31.25.58.47.81l.37.29c.29.17.6.25.93.25h0Z"/><path class="cls-7" d="M69.58,44.17l-.49-1.05c-23.93-8.13-39.81-6.1-49.68-3.19-10.76,3.17-15.23,7.71-15.44,7.92l-.03,1.37-.32.1c.09.05,9.59,4.65,22.42,6.34,2.82.37,5.93.62,9.24.62,10.67,0,23.38-2.56,34.64-11.74l-.21-.27-.12-.11ZM26.22,54.48c-10.5-1.38-18.73-4.74-21.27-5.86,1.66-1.42,6.53-5.11,14.88-7.55,9.54-2.79,25.66-4.48,48.64,3.1-14.27,11.22-30.81,11.82-42.25,10.31Z"/><path class="cls-13" d="M68.47,44.16c-14.27,11.22-30.81,11.82-42.25,10.31-10.5-1.38-18.73-4.74-21.27-5.86,1.66-1.42,6.53-5.11,14.88-7.55,9.54-2.79,25.66-4.48,48.64,3.1Z"/><path class="cls-10" d="M67.06,4.98l-29.89,50.61s-7.56-.11-7.85-.18L60.69,1.28l6.37,3.71Z"/><path class="cls-4" d="M68.31,4.57l-.51.85-30.15,50.55c-.25-.13-.58-.02-.84-.14L67.06,4.98l-6.37-3.71-31.37,54.14c-.08-.02-1.06.77-1.27.73L59.95.85l.49-.85.74.43,6.39,3.71.74.43Z"/><path class="cls-3" d="M53.89,17.92c-.15,0-.3-.04-.44-.11-.44-.24-.59-.79-.35-1.23l7.51-13.47c.24-.44.79-.59,1.23-.35.44.24.59.79.35,1.23l-7.51,13.47c-.17.3-.47.46-.79.46Z"/><path class="cls-8" d="M69.59,44.2c-.06.05-.11.09-.17.14-.02.02-.04.03-.06.05,0,0-.02.02-.03.03,0,0,0,0,0,0,0,0-.01.01-.02.02,0,0-.01,0-.02.01,0,0,0,0,0,0-.1.08-.2.16-.3.24-.1.08-.2.16-.3.24-.1.08-.2.16-.31.24-.1.08-.21.16-.31.24-.11.08-.21.16-.32.24-.11.08-.22.16-.33.24-.09.07-.19.14-.29.2-.05.03-.1.07-.15.1-.2.14-.4.28-.61.41-.12.08-.24.16-.36.24-.12.08-.25.16-.37.24-.25.16-.5.32-.76.47-.26.16-.53.31-.8.47-.28.16-.56.32-.84.48-.27.15-.55.3-.83.45,0,0,0,0,0,0-.28.15-.57.3-.86.44,0,0-.01,0-.02,0-.28.14-.58.29-.87.43-.3.14-.61.29-.92.43-.15.07-.31.14-.47.21-.16.07-.31.14-.47.21-.64.28-1.29.55-1.97.81l-.51.19c-.17.06-.34.13-.51.19l-1.05.37c-.18.06-.35.12-.53.18l-1.08.35c-.18.06-.37.11-.55.17-.18.06-.37.11-.55.17-.19.05-.38.11-.56.16-.19.05-.38.11-.57.16l-.9.24h-.04s-.56.15-.56.15l-.4.1c-.15.04-.29.07-.44.11l-.6.14c-.2.05-.4.09-.6.13-.2.04-.41.08-.61.13-.2.04-.41.08-.61.12l-.63.12h-.08c-.18.05-.35.08-.53.11l-1.26.2c-.42.06-.85.13-1.29.18l-.89.11c-.14.02-.28.03-.41.05l-.6.06c-.23.02-.45.04-.68.07l-2.07.16c-.96.06-1.92.08-2.88.08-.23,0-.47,0-.7,0-.17,0-.34,0-.51,0-.2,0-.41,0-.61-.02-.2,0-.41-.01-.61-.02-.46-.02-.93-.05-1.39-.08-.14,0-.28-.02-.43-.03-.2-.01-.4-.03-.6-.05s-.4-.03-.6-.05c-.2-.02-.4-.04-.6-.06-.14-.01-.29-.03-.43-.05-.17-.02-.35-.04-.52-.06-.24-.03-.48-.06-.72-.09-.24-.03-.48-.06-.72-.1-.2-.03-.4-.05-.59-.09-.09-.01-.18-.02-.27-.04-.02,0-.04,0-.05,0-.15-.02-.3-.04-.45-.07,0,0,0,0-.01,0-.24-.04-.48-.08-.72-.12-.15-.02-.3-.05-.45-.08-.32-.06-.64-.12-.96-.17-.29-.06-.58-.11-.86-.17-.09-.02-.19-.04-.28-.06-.19-.04-.38-.08-.57-.12-.09-.02-.18-.04-.28-.06-.19-.04-.38-.08-.56-.12-.47-.1-.93-.21-1.39-.32l-.55-.13c-.14-.03-.29-.07-.43-.11-.4-.1-.79-.2-1.18-.3-.32-.09-.64-.17-.96-.26-.03,0-.06-.02-.09-.02-.52-.14-1.03-.29-1.53-.43-.33-.1-.66-.2-.99-.29-.16-.05-.32-.1-.48-.15-.16-.05-.32-.1-.48-.15-.16-.05-.31-.1-.47-.15s-.31-.1-.46-.15c-.15-.05-.3-.1-.46-.15-.14-.05-.29-.09-.43-.14,0,0-.01,0-.02,0-.29-.1-.58-.2-.87-.29-.85-.29-1.66-.58-2.41-.86-.14-.05-.28-.1-.41-.15-.22-.08-.43-.16-.64-.24,0,0-.02,0-.03-.01-.13-.05-.26-.1-.39-.15-.1-.04-.19-.08-.29-.11-.52-.2-1-.4-1.44-.58v-.08s0-.01,0-.01c0,0,0-.01,0-.02.01-.15.03-.32.05-.5,0-.07.01-.14.02-.21,0-.04,0-.07.01-.11.01-.11.02-.21.04-.32h0s0-.06,0-.09c0-.05.01-.11.02-.16,0,0,0-.02,0-.03.02-.14.03-.27.05-.41,0-.04,0-.07.01-.11s0-.08.01-.11c.01-.08.02-.16.03-.25v-.07s.02-.05.02-.05l.3-1.76c1.69-8.75,7.8-25.99,29.61-26.15,5.11-.04,9.85.75,14.09,2.33,2.18.81,4.27,1.85,6.2,3.09.54.35,1.07.71,1.58,1.08.38.28.75.56,1.11.84,0,0,0,0,0,0,.2.16.4.32.6.48.15.13.3.25.44.38.08.07.16.14.24.21.13.11.25.22.38.33.34.31.68.63,1,.95.13.13.26.26.39.39,3.07,3.12,5.23,6.5,6.71,9.42l.14.28s0,0,0,0c.1.2.19.39.28.59.05.1.09.2.14.3.05.1.09.2.14.3,0,0,0,0,0,0,.1.23.2.45.3.67.05.11.09.22.14.33.11.27.22.52.32.77.05.13.11.27.15.39.05.13.1.26.15.39.06.15.11.29.16.43.05.14.1.28.14.41l.38.82.21.46h0s.03.09.03.09v.02h0l.03.08Z"/><path class="cls-6" d="M72.84,42.86s-.02-.06-.02-.09c0-.02,0-.03-.02-.04,0-.03-.02-.05-.03-.07-.01-.02-.02-.05-.04-.07-.01-.02-.02-.04-.04-.05-.02-.04-.05-.07-.09-.11-.05-.05-.1-.09-.16-.12-.03-.02-.06-.03-.09-.05l-.05-.02-2.09-.96c-1.73-4.64-5.76-12.76-14.12-18.44-.24-.16-.48-.32-.72-.48-.03-.02-.05-.03-.07-.05-.22-.14-.44-.28-.66-.41-.53-.32-1.07-.63-1.62-.92-.18-.1-.36-.2-.55-.29-.11-.06-.22-.11-.33-.17-.35-.18-.7-.34-1.06-.51-.2-.09-.41-.19-.62-.27-.2-.09-.41-.18-.62-.26-.27-.11-.55-.22-.83-.33-.08-.03-.16-.06-.24-.09-.2-.08-.4-.15-.6-.22-4.27-1.51-9.02-2.26-14.09-2.22-24.26.17-30.13,20.26-31.53,28.91v.07s-2.28,2.2-2.28,2.2c-.01.01-.02.02-.03.04-.01.02-.03.03-.04.05-.02.02-.03.04-.04.05-.02.02-.03.04-.04.06,0,.02-.02.03-.02.05,0,.02-.02.04-.03.06-.02.04-.03.08-.04.12,0,.02,0,.04,0,.05,0,.02,0,.03,0,.05,0,.02,0,.05,0,.08v.05s0,.03,0,.05H0s.5,7.83.5,7.83c.02.32.21.59.5.73l2.5,1.15h0s.38.18.38.18c.02,0,.22.1.59.26.24.11.57.24.96.4.02,0,.05.02.07.03.08.03.16.06.24.1.34.14.73.28,1.16.44.17.06.36.13.55.2.1.04.2.08.31.11.18.07.36.13.55.2.22.08.45.15.69.23.08.03.16.05.24.08.32.11.66.22,1.01.33.2.06.41.13.62.19.26.08.52.16.79.24.13.04.27.08.41.12.27.08.55.16.83.24.29.08.58.16.87.24.15.04.3.08.45.12.29.08.59.15.9.23.17.05.34.09.51.13.16.04.32.08.49.12.16.04.33.08.49.12.29.07.59.14.89.21.1.02.19.04.29.06.12.03.24.05.36.08.17.04.35.08.53.11.36.08.71.15,1.08.23.37.07.74.15,1.11.22.69.13,1.39.26,2.1.38.17.03.34.06.51.09.24.04.48.08.73.12.3.05.61.1.91.14.18.03.37.05.56.08.56.08,1.13.16,1.71.23.38.05.77.09,1.17.14.17.02.33.04.5.05.28.03.56.06.84.09.31.03.62.06.94.09.17.02.33.03.49.05.52.05,1.05.08,1.58.12,1.16.08,2.35.14,3.57.18.52.02,1.03.02,1.54.02.6,0,1.18-.01,1.77-.03.24,0,.47-.02.71-.03.07,0,.14,0,.2,0,.28-.02.55-.03.82-.05.23-.02.46-.03.69-.06.31-.03.61-.05.91-.09.08,0,.17-.02.26-.03.43-.05.86-.1,1.28-.16.15-.02.3-.04.45-.07.25-.04.5-.08.74-.12.19-.03.39-.07.58-.1.26-.05.52-.09.77-.14.24-.05.49-.1.73-.15.04,0,.07-.02.11-.02.22-.05.44-.1.66-.15.02,0,.04,0,.06-.02.2-.05.4-.09.6-.14.08-.02.16-.04.24-.06.43-.11.86-.22,1.28-.33.27-.08.54-.15.81-.23.19-.05.37-.11.56-.17.24-.07.47-.14.7-.22.45-.14.88-.29,1.3-.44.43-.15.84-.3,1.24-.46.18-.07.36-.14.53-.2.03,0,.05-.02.08-.03.2-.08.39-.16.58-.24.32-.13.64-.27.95-.4.13-.05.25-.11.38-.17.02,0,.05-.02.07-.03.08-.03.14-.06.22-.1.02,0,.03-.02.05-.02.05-.02.09-.04.13-.06.66-.3,1.28-.6,1.86-.9.18-.09.35-.18.52-.27h0c.17-.09.34-.18.51-.27.1-.05.19-.1.28-.15.09-.05.18-.1.27-.15.55-.3,1.06-.6,1.56-.89.11-.06.22-.13.33-.19.8-.48,1.51-.95,2.14-1.38.07-.04.13-.09.2-.13.14-.1.28-.2.42-.29.4-.28.77-.55,1.09-.79.39-.29.71-.55.97-.76.46-.37.71-.61.75-.64l.23-.21h0s2.97-2.73,2.97-2.73c.17-.16.28-.39.28-.63v-7.29c0-.06,0-.12-.02-.18ZM69.79,42.65s0,.02,0,.03c0-.01,0-.02-.01-.03h0ZM4.15,46.37h0s0,0,0,0v-.07s.02-.05.02-.05c0-.02,0-.03,0-.05h0s0-.08.02-.11c0-.02,0-.03,0-.05,0-.03,0-.05,0-.06,0,0,0,0,0,0l.03-.19c.07-.41.14-.84.23-1.3.15-.8.35-1.67.58-2.6.05-.18.09-.36.14-.54.05-.16.09-.32.14-.49.05-.16.09-.33.14-.49.05-.16.09-.32.14-.48,0-.01,0-.02.01-.04.05-.16.1-.32.16-.49.04-.11.07-.22.11-.34.03-.1.07-.2.1-.31,0-.01,0-.02.01-.04.04-.11.08-.23.12-.35.19-.53.39-1.07.61-1.61.07-.17.14-.34.21-.51.07-.17.14-.34.22-.52.08-.19.17-.38.25-.56.08-.18.17-.36.25-.54.1-.2.19-.39.29-.59.18-.37.38-.73.58-1.1.06-.11.12-.23.19-.34.05-.09.11-.18.16-.28.06-.11.12-.21.19-.32.34-.57.7-1.14,1.09-1.7.13-.19.26-.37.39-.56.06-.09.13-.18.19-.27.01-.02.02-.03.04-.05.08-.1.15-.2.23-.3.11-.15.23-.3.35-.46.09-.12.19-.24.28-.35.09-.11.18-.22.27-.33.05-.05.09-.11.13-.16.16-.18.32-.36.48-.54.02-.03.05-.06.08-.09.14-.15.28-.3.42-.46.08-.08.16-.16.24-.24.06-.06.12-.13.18-.19.06-.06.11-.12.17-.17,0,0,0,0,0-.01.04-.04.08-.07.11-.11.16-.16.33-.32.49-.47.08-.08.17-.15.25-.23.17-.16.34-.31.52-.46.09-.08.17-.15.27-.23s.18-.15.27-.22c.18-.15.36-.29.55-.43.19-.14.38-.28.57-.42.19-.14.39-.28.59-.41.2-.14.4-.27.61-.4.1-.07.2-.13.31-.19.15-.1.31-.19.47-.28.16-.1.32-.19.48-.28.22-.12.44-.24.66-.36.22-.12.45-.23.68-.34.23-.11.46-.22.7-.33,1.3-.58,2.69-1.08,4.18-1.48.27-.07.55-.14.83-.21.28-.07.56-.13.85-.19.24-.05.49-.1.73-.14.01,0,.02,0,.04,0,.25-.04.5-.09.76-.13.08-.02.15-.02.23-.04.3-.05.61-.09.91-.13.23-.03.46-.05.7-.08.27-.03.54-.05.81-.08.12,0,.25-.02.38-.03.2-.02.4-.03.61-.04.12,0,.24-.01.37-.02.1,0,.2,0,.3-.01.05,0,.09,0,.14,0,.07,0,.15,0,.22,0,.04,0,.09,0,.13,0,.1,0,.19,0,.29,0,.14,0,.28,0,.43,0h0c.14,0,.28,0,.41,0,.27,0,.54,0,.8,0,.11,0,.21,0,.32,0,.06,0,.12,0,.18,0,.18,0,.36,0,.54.02.24,0,.48.02.72.04.06,0,.11,0,.17,0,.3.02.6.04.89.06h0c.6.05,1.19.11,1.77.18h0c.58.07,1.16.16,1.73.26.29.05.57.1.85.16h0c.56.11,1.12.23,1.67.36.28.07.55.14.82.21.55.14,1.08.3,1.61.47s1.06.35,1.57.54c2.18.81,4.27,1.85,6.2,3.09.14.09.28.18.42.27.1.06.2.13.3.2.16.11.32.21.47.33.13.09.26.18.39.27.19.14.37.28.56.42.18.14.37.28.55.43,0,0,0,0,0,0,.2.16.4.32.6.48.15.13.3.25.44.38.08.07.17.14.24.21.05.04.09.08.14.12.08.07.16.14.24.21h0c.34.31.68.63,1,.95.13.13.26.26.39.39,3.09,3.12,5.24,6.5,6.71,9.42.05.09.09.19.14.28,0,0,0,0,0,0,.1.2.19.39.29.58.02.05.05.1.07.15.02.05.05.1.07.15.05.1.09.2.14.3,0,0,0,0,0,0,.1.23.2.46.3.67.05.11.09.22.14.33.11.27.22.52.32.77.05.13.11.27.15.39.05.13.1.26.15.39.05.11.08.22.12.33.01.04.02.07.04.11.05.14.1.28.14.41h0s0,0,0,0c0,0,0,0,.02.01.01,0,.03.02.06.04.01.01.03.02.05.03.07.04.16.09.27.15.09.05.19.11.3.16.09.05.18.1.27.14l.13.07s.02.01.03.02l.15.08.11.06s.04.02.05.03c.01,0,.02.01.03.02l.06.03s.04.02.04.02l-.3.22-.36.26-.03.02h0s-.17.13-.17.13h0s-.06.04-.09.06c-.02.01-.03.02-.05.04-.02.01-.03.02-.05.04-.02.02-.03.03-.05.04,0,.01-.02.01-.03.01,0,0,0,0-.01,0,0,0-.02.01-.02.02,0,0-.02,0-.02.02,0,0,0,0,0,0-.1.08-.2.16-.3.24h0c-.1.08-.19.16-.3.24-.1.08-.2.16-.31.24-.1.08-.21.16-.31.24-.11.08-.21.16-.32.24,0,0,0,0,0,0-.08.06-.17.12-.26.19-.02.02-.05.03-.07.05-.09.07-.19.14-.29.2-.05.04-.1.07-.15.1-.06.05-.13.09-.2.14-.07.05-.14.1-.21.14-.07.05-.13.09-.2.14-.12.08-.24.16-.36.24-.12.08-.25.16-.37.24-.13.08-.25.16-.38.24-.13.08-.26.15-.39.23-.13.08-.26.16-.39.24s-.27.16-.4.24c-.28.16-.56.32-.84.48-.27.15-.55.3-.83.45,0,0,0,0,0,0-.28.15-.57.3-.86.44h0s0,0,0,0c0,0,0,0-.01,0-.29.14-.58.29-.87.43-.15.07-.3.14-.46.22-.08.03-.15.07-.23.11-.08.04-.15.07-.23.11-.15.07-.31.14-.47.21-.16.07-.31.14-.47.21-.16.07-.32.14-.48.21-.23.1-.46.19-.69.29-.26.11-.52.21-.79.31l-.51.2c-.17.07-.34.13-.51.19-.07.03-.14.05-.22.08-.2.08-.4.15-.61.22-.07.03-.15.05-.22.08h0c-.18.06-.35.12-.53.18-.04.01-.08.03-.12.04-.04.01-.08.03-.12.04t0,0c-.27.09-.55.18-.83.27-.18.06-.37.11-.55.17-.18.06-.37.11-.55.17-.14.04-.29.08-.44.13-.04.01-.08.02-.12.04-.19.05-.38.11-.57.16l-.9.24h-.04s-.32.09-.32.09l-.13.03-.11.03-.4.1c-.14.04-.29.07-.44.11l-.14.03-.46.1-.14.03-.07.02h-.02s-.08.02-.12.03c-.02,0-.03,0-.05.01-.02,0-.03,0-.04,0-.05,0-.11.02-.16.03-.1.02-.2.04-.3.06-.1.02-.2.04-.31.06-.2.04-.41.08-.61.12l-.63.12-.08.02h0c-.18.03-.35.06-.53.09-.25.04-.5.08-.75.12-.17.03-.34.06-.51.08-.43.06-.85.13-1.29.18l-.89.11c-.07,0-.13.02-.2.02-.07,0-.14.02-.22.03l-.6.06c-.23.02-.45.04-.68.07-.11,0-.23.02-.34.03-.11,0-.23.02-.35.03-.07,0-.14.01-.2.02-.14.01-.28.02-.43.03-.25.02-.5.04-.75.05-.96.06-1.92.08-2.88.08-.23,0-.47,0-.7,0-.17,0-.34,0-.51,0-.2,0-.41-.01-.61-.02-.2,0-.4-.02-.61-.02-.46-.02-.93-.05-1.39-.08-.14-.01-.28-.02-.43-.03-.2-.02-.4-.03-.6-.05-.2-.02-.4-.04-.6-.05h0c-.2-.02-.4-.04-.6-.06-.14-.02-.29-.03-.43-.05-.17-.02-.35-.04-.52-.06h0c-.24-.03-.48-.06-.72-.09-.24-.03-.48-.06-.72-.1-.1-.01-.2-.03-.3-.04-.05,0-.1-.01-.15-.02-.05,0-.1-.02-.15-.02-.09-.01-.18-.02-.27-.04h-.05c-.15-.03-.3-.05-.45-.08h0s0,0-.01,0c-.12-.02-.24-.04-.36-.06-.12-.02-.24-.04-.36-.06-.15-.02-.3-.05-.45-.08-.16-.03-.32-.06-.48-.08h0c-.16-.03-.32-.06-.48-.09-.14-.03-.29-.06-.44-.08-.14-.03-.29-.06-.43-.09-.09-.02-.19-.04-.28-.05-.19-.04-.38-.08-.57-.12-.09-.02-.18-.04-.27-.06-.1-.02-.19-.04-.28-.06-.05-.01-.1-.02-.14-.03-.05-.01-.09-.02-.14-.03-.2-.04-.39-.09-.59-.13-.07-.02-.14-.03-.22-.05-.06-.01-.11-.03-.17-.04-.01,0-.02,0-.03,0-.13-.03-.26-.06-.38-.09-.09-.02-.18-.04-.27-.06-.09-.02-.18-.05-.27-.07-.14-.03-.29-.07-.43-.11-.2-.05-.4-.1-.59-.15-.2-.05-.39-.1-.58-.15-.32-.08-.64-.17-.96-.26h0s-.06-.02-.09-.03c-.26-.07-.52-.14-.77-.21-.25-.07-.51-.15-.75-.22-.17-.05-.33-.1-.5-.14h0c-.16-.05-.33-.1-.49-.15-.16-.05-.32-.1-.48-.14-.16-.05-.32-.1-.48-.15-.16-.05-.32-.1-.47-.15-.08-.02-.15-.05-.23-.08-.08-.02-.15-.05-.23-.08-.08-.02-.15-.05-.23-.07-.08-.02-.15-.05-.23-.08-.14-.05-.29-.09-.43-.14h0s0,0,0,0c-.3-.1-.58-.2-.87-.3-.86-.3-1.66-.58-2.41-.86-.14-.05-.28-.1-.41-.15-.22-.08-.44-.17-.65-.24,0,0-.02,0-.03-.01-.13-.05-.26-.1-.39-.15-.1-.04-.19-.08-.29-.11-.26-.1-.51-.2-.75-.3s-.47-.19-.69-.28h0c-.2-.08-.39-.16-.58-.24-.09-.04-.17-.07-.25-.11-.32-.13-.59-.25-.83-.35l1.94-1.72ZM71.2,44.87v.18s-.06,3.45-.06,3.45v1.45l-.02.02-.02,1.19v.06l-2.29,2.05s-12.78,11.72-32.27,11.08c-19.49-.64-32.27-6.74-32.27-6.74l-.78-.36s0-.02.01-.02l-1.35-.68c.05-.12-.06-.75.05-.84l-.33-5.18-.05-.75s.02,0,.03.01l-.02-.95s-.07-.03-.1-.05c.03.02.07.03.1.04,0,0,.02,0,.02.01,0,0,.02,0,.02,0,0,0,.02.01.02.01,0,0,.01,0,.02,0,0,0,.01,0,.02,0,0,0,.02.01.03.02.01,0,.02,0,.03.02,0,0,.01,0,.02,0,.02.01.04.02.06.03,0,0,.02,0,.03.01h0s.02,0,.04.02c.02.01.05.02.08.03.02.01.05.02.08.03.05.02.11.05.16.07.1.04.2.09.3.13.03.02.06.03.1.04.05.02.09.04.13.05.16.07.33.13.5.21.07.03.14.06.22.09.02,0,.03,0,.05.02,0,0,.02,0,.02,0,.14.06.28.11.43.17.07.03.13.05.2.08.24.09.5.2.76.3.14.05.27.11.41.16,0,0,.02,0,.03.01.01,0,.03,0,.04.02.07.03.14.06.22.08.11.04.22.08.34.13.3.11.61.23.93.35.1.04.2.08.3.11.5.18,1.02.37,1.57.56,0,0,.02,0,.02,0,0,0,0,0,.01,0,.02,0,.03.01.05.02.24.08.48.17.72.25.03,0,.06.02.09.03.03.01.07.02.1.03.06.02.13.04.19.07.19.06.39.13.58.19.39.13.8.26,1.21.39.2.07.42.13.63.2.26.08.53.16.8.24.27.08.54.16.81.24.93.27,1.88.53,2.86.78.04,0,.07.02.11.03.03,0,.07.02.11.03.05.01.11.03.16.04,0,0,.02,0,.03,0,.01,0,.02,0,.04.01.16.04.32.08.48.12h0s.07.02.1.03c.1.02.2.05.3.07.14.03.28.07.42.1.93.22,1.88.43,2.84.62.36.07.72.14,1.08.21.4.07.8.15,1.2.22.21.04.43.07.65.11.12.02.24.04.36.06.2.04.4.06.61.09.2.03.4.06.6.09.15.02.3.05.46.07.18.02.36.05.53.07.16.02.33.04.49.06.14.02.27.03.4.05.14.02.27.03.4.05.08,0,.15.02.24.02.17.02.36.04.53.05.2.02.41.04.62.05.16.02.32.03.48.04.21.02.42.03.63.05.02,0,.04,0,.06,0h.06c.11,0,.22.02.33.02.15,0,.3.02.45.03.29.02.57.03.86.04.28,0,.57.02.85.03.41,0,.83.02,1.24.02.97,0,1.95-.03,2.92-.09.3-.02.6-.04.89-.06.23-.02.46-.04.68-.05.1,0,.2-.02.3-.03.37-.03.74-.07,1.1-.11.21-.02.43-.04.64-.07.08-.01.17-.02.25-.03.17-.02.34-.04.51-.06,0,0,0,0,.01,0,.36-.05.72-.09,1.08-.14.19-.03.38-.05.57-.08.51-.08,1.01-.16,1.5-.24.2-.03.4-.07.6-.11.43-.08.85-.16,1.27-.25.15-.03.3-.06.45-.09.05-.01.11-.02.16-.03.24-.05.49-.11.73-.16.3-.07.58-.14.87-.2.17-.04.33-.08.49-.12.37-.09.74-.19,1.09-.29.14-.03.27-.07.41-.11.19-.05.37-.11.56-.16.2-.06.41-.12.61-.18,0,0,0,0,0,0,.39-.12.78-.24,1.15-.36,1.04-.33,2.05-.68,3.01-1.05.15-.06.3-.11.44-.17.63-.25,1.24-.49,1.83-.75.16-.07.32-.14.48-.21.32-.14.63-.28.94-.43.15-.07.3-.14.44-.2.12-.06.23-.11.34-.17.13-.06.27-.13.39-.19.2-.1.4-.2.6-.3.27-.14.54-.28.81-.42.14-.08.28-.15.42-.23.14-.08.28-.15.42-.23.15-.08.3-.17.45-.25.26-.15.51-.3.75-.44,1.03-.61,1.96-1.22,2.78-1.8.21-.14.41-.29.6-.44.19-.14.38-.28.56-.42.09-.07.18-.14.27-.2.02-.02.04-.03.06-.05.15-.12.3-.24.45-.36.01,0,.02-.02.03-.02.08-.07.15-.13.23-.19.04-.03.08-.06.11-.09.03-.03.06-.05.1-.08.08-.06.15-.12.22-.19.17-.15.34-.3.49-.44.07-.07.14-.13.21-.2,0,0,.02-.01.02-.02.02-.01.03-.03.04-.04l.08.04v.43s0,.03,0,.03c0,.02,0,.05.01.07.02.12,0,.25-.03.36Z"/><path class="cls-2" d="M29.33,26.05c-5.53,4.1-9.42,7.57-10.67,9.52-.79,1.23-2.77,2.71-4.54,2.77-.23,0-.46,0-.68-.05-.65-.13-1.76-.62-1.83-2.45-.03-.93.22-1.88.74-2.75.64-1.08,1.86-2.95,3.65-4.91,1.79-1.96,4.15-4.02,7.06-5.46,4.36-2.16,7.77-2.65,8.89-1.28.51.62.85,2.05-2.62,4.63Z"/><path class="cls-2" d="M13.47,47.6c-.1.09-.2.18-.31.26-.29.22-.73.4-1.22.51l-1.11.11c-.63-.01-1.27-.16-1.8-.49-.08-.05-.16-.11-.24-.17-.64-.51-1.53-1.75-.39-4.34.02-.05.05-.1.08-.14.35-.51,2.17-3,3.92-3h.06c.66.02,1.23.39,1.62,1.02,1.55,2.58.81,4.97-.6,6.25Z"/><path class="cls-4" d="M69.38,53.89s-.28.27-.75.64c-.25.21-.58.47-.96.76l-3.61,27.34-1.55,11.73h0v.02l-.13,1.03-.34,2.6s-.01.03-.01.05h-.01s-1.43,10.91-1.43,10.91v.02s-.01.01-.01.01l-.52,3.96c-10.44,7.79-20.89,10.11-31.07,6.9-6.89-2.17-11.34-6.3-12.23-7.17l-.79-3.74-.11-.52v-.03h0s-.01-.07-.01-.07l-.06-.29-.98-4.66-4.58-21.67-4.78-22.67c-.4-.16-.72-.3-.96-.4-.38-.16-.58-.26-.59-.26l-.39-.18,4.53,21.47.58,2.74,2.57,12.17,2.68,12.69.2.96.11.5s0,.03,0,.04l.09.44.57,2.69h-.01s.58,1.94.68,1.97c.91.92,5.52,5.26,12.88,7.6,2.63.84,5.81,1.47,9.41,1.47,6.56,0,14.56-2.07,23.37-8.67.05,0,.14-.2.24-.46.28-.72.46-1.48.57-2.25l.22-1.66.08-.63.03-.23,1.11-8.37.24-1.84.24-1.84h0s.42-3.18.42-3.18l.15-1.12,1.59-12.08.43-3.28,3.12-23.66-.23.21Z"/></svg>