<?xml version="1.0" encoding="UTF-8"?><svg id="Layer_1" xmlns="http://www.w3.org/2000/svg" viewBox="0 0 927.31 132.8"><defs><style>.cls-1{fill:#330d1d;}.cls-1,.cls-2,.cls-3{stroke-width:0px;}.cls-2{fill:#741a3e;}.cls-3{fill:#9b2a5e;}</style></defs><polygon class="cls-1" points="875.48 3 883.65 3 883.65 27.62 886.83 27.62 886.83 3 895.32 3 895.32 0 875.48 0 875.48 3"/><path class="cls-1" d="M924.41,0l-10.37,16.07-10.24-16.07h-3.1v27.62h3.18v-12.62c0-2.55-.04-4.75-.12-6.61-.05-1.03-.11-2.05-.2-3.05l9.26,14.27h2.2l9.44-14.32c-.09,1.1-.17,2.21-.22,3.32-.08,1.89-.12,4.02-.12,6.39v12.62h3.18V0h-2.9Z"/><path class="cls-2" d="M106.58,23.03c-5.56-5.79-12.12-10.29-19.68-13.48-7.57-3.19-15.84-4.79-24.83-4.79s-17.09,1.6-24.65,4.79c-7.57,3.19-14.16,7.66-19.77,13.39-5.62,5.74-9.96,12.5-13.03,20.31C1.54,51.05,0,59.56,0,68.78s1.54,17.73,4.61,25.54c3.07,7.8,7.42,14.57,13.03,20.31,5.61,5.74,12.21,10.2,19.77,13.39,7.56,3.19,15.78,4.79,24.65,4.79s17.26-1.6,24.83-4.79c7.56-3.19,14.13-7.68,19.68-13.48,5.55-5.79,9.87-12.59,12.94-20.39,3.07-7.8,4.61-16.25,4.61-25.36s-1.54-17.7-4.61-25.45c-3.07-7.74-7.39-14.51-12.94-20.31ZM97.8,85.45c-1.95,5.08-4.64,9.55-8.07,13.39-3.43,3.84-7.48,6.8-12.15,8.87-4.67,2.07-9.84,3.1-15.52,3.1s-10.7-1.03-15.43-3.1c-4.73-2.07-8.81-4.99-12.24-8.78-3.43-3.78-6.09-8.25-7.98-13.39-1.89-5.14-2.84-10.73-2.84-16.76s.94-11.76,2.84-16.85c1.89-5.08,4.55-9.52,7.98-13.3,3.43-3.78,7.51-6.71,12.24-8.78,4.73-2.07,9.87-3.1,15.43-3.1s10.85,1.04,15.52,3.1c4.67,2.07,8.72,5.03,12.15,8.87,3.43,3.84,6.12,8.31,8.07,13.39,1.95,5.08,2.93,10.64,2.93,16.67s-.98,11.59-2.93,16.67Z"/><path class="cls-2" d="M173.52,58.76c4.08-2.54,8.72-3.81,13.92-3.81,3.07,0,6.15.59,9.22,1.77,3.07,1.18,5.97,2.78,8.69,4.79.07.05.14.11.21.16,4.11,3.09,9.89,2.52,13.18-1.44l.26-.31c3.3-3.98,2.84-9.87-1.06-13.27-2.8-2.44-6.05-4.53-9.75-6.25-6.86-3.19-14.48-4.79-22.88-4.79s-16.61,2.13-23.59,6.38c-6.98,4.26-12.48,10.05-16.49,17.38-4.02,7.33-6.03,15.61-6.03,24.83s2.01,17.5,6.03,24.83c4.02,7.33,9.52,13.12,16.49,17.38,6.97,4.26,14.83,6.38,23.59,6.38,7.8,0,15.22-1.63,22.26-4.88,3.65-1.69,6.9-3.64,9.74-5.86,4.18-3.26,4.75-9.37,1.39-13.47h0c-3.26-3.98-9.09-4.65-13.16-1.52-.24.18-.48.36-.72.54-2.6,1.89-5.35,3.34-8.25,4.34-2.9,1.01-5.88,1.51-8.96,1.51-5.09,0-9.7-1.3-13.83-3.9-4.14-2.6-7.42-6.09-9.84-10.46-2.42-4.37-3.64-9.34-3.64-14.9s1.18-10.55,3.55-14.98c2.36-4.43,5.59-7.92,9.67-10.46Z"/><path class="cls-2" d="M283.81,33.81h-8.95c-1.22,0-2.21-.99-2.21-2.2v-12.34c0-5.08-4.12-9.22-9.22-9.22h-3.37c-5.08,0-9.22,4.13-9.22,9.22l.3,84.07v20.25c0,5.08,4.13,9.22,9.22,9.22h3.37c5.09,0,9.22-4.13,9.22-9.22v-20.25l-.3-46c0-1.83,1.49-3.3,3.32-3.3h7.85c5.1,0,9.23-4.13,9.23-9.23v-1.77c0-5.08-4.13-9.22-9.23-9.22Z"/><path class="cls-2" d="M376.48,41.91c-7.33-4.19-15.6-6.3-24.83-6.3s-17.67,2.1-25,6.3c-7.33,4.2-13.12,9.96-17.38,17.29-4.26,7.33-6.38,15.67-6.38,25s2.13,17.68,6.38,25c4.26,7.33,10.05,13.09,17.38,17.29,7.33,4.2,15.66,6.3,25,6.3s17.5-2.1,24.83-6.3c7.33-4.2,13.09-9.96,17.29-17.29,4.2-7.33,6.3-15.66,6.3-25s-2.1-17.67-6.3-25c-4.2-7.33-9.96-13.09-17.29-17.29ZM374.62,99.1c-2.31,4.38-5.44,7.86-9.4,10.46-3.96,2.6-8.48,3.9-13.57,3.9s-9.66-1.3-13.74-3.9c-4.08-2.6-7.24-6.09-9.49-10.46-2.25-4.37-3.37-9.34-3.37-14.9s1.12-10.55,3.37-14.98c2.24-4.43,5.41-7.92,9.49-10.46,4.08-2.54,8.66-3.81,13.74-3.81s9.61,1.27,13.57,3.81c3.96,2.54,7.09,6,9.4,10.37,2.31,4.38,3.4,9.4,3.28,15.07.12,5.56-.98,10.52-3.28,14.9Z"/><path class="cls-3" d="M508.4,61.98c-1.65-3.04-3.54-5.81-5.68-8.29l-.04-.04c-.47-.52-.96-1.02-1.46-1.52-6.59-6.6-15.27-11.1-24.97-12.43-.08-.01-.14-.03-.22-.03-1.89-.26-3.83-.39-5.8-.39-10.74,0-20.58,3.86-28.21,10.29-1.08.91-2.74.18-2.74-1.24V10.31c0-3.56-2.88-6.44-6.44-6.44h0c-3.56,0-6.44,2.88-6.44,6.44v69.71h.12c-.08,1.02-.12,2.06-.12,3.1v5.84c0,1.1.04,2.19.12,3.27.8,10.87,5.56,20.64,12.85,27.86,7.93,7.86,18.83,12.72,30.86,12.72.34,0,.68,0,1.01-.01h.12c.2.01.39.01.59.01,8.03,0,15.22-2.01,21.57-6.02,6.14-3.86,11.02-9.15,14.64-15.85.04-.05.07-.09.09-.14.12-.2.22-.39.31-.59,3.66-7.05,5.5-15.09,5.5-24.14s-1.89-17.09-5.67-24.07ZM497.14,103.65c-2.7,5.22-6.39,9.34-11.09,12.39-4.71,3.03-10.09,4.55-16.17,4.55s-11.46-1.5-16.15-4.47c-4.7-2.98-8.4-7.07-11.09-12.28-2.69-5.22-4.04-11.15-4.04-17.79s1.35-12.56,4.04-17.72c2.69-5.16,6.39-9.23,11.09-12.2,4.7-2.98,10.08-4.46,16.15-4.46s11.46,1.48,16.17,4.46c4.7,2.98,8.39,7.05,11.09,12.2,2.69,5.16,4.03,11.06,4.03,17.72s-1.34,12.4-4.03,17.61Z"/><path class="cls-3" d="M759.2,85.18c0,9.05,1.84,17.1,5.5,24.14.09.2.2.39.31.59.03.05.05.09.09.14,3.62,6.71,8.5,11.99,14.64,15.85,6.35,4.02,13.54,6.02,21.57,6.02.2,0,.39,0,.59-.01h.12c.33.01.67.01,1.01.01,12.03,0,22.94-4.86,30.86-12.72,7.28-7.22,12.05-16.99,12.85-27.86.08-1.08.12-2.17.12-3.27v-5.84c0-1.04-.04-2.07-.12-3.1h.12s0-69.71,0-69.71c0-3.56-2.88-6.44-6.44-6.44h0c-3.56,0-6.44,2.88-6.44,6.44v38.01c0,1.42-1.65,2.15-2.74,1.24-7.63-6.42-17.47-10.29-28.21-10.29-1.97,0-3.91.13-5.8.39-.08,0-.14.01-.22.03-9.7,1.33-18.38,5.83-24.97,12.43-.5.5-.98,1-1.46,1.52l-.04.04c-2.14,2.48-4.03,5.25-5.68,8.29-3.78,6.98-5.67,15.01-5.67,24.07ZM772.1,85.18c0-6.65,1.34-12.56,4.03-17.72,2.7-5.16,6.39-9.23,11.09-12.2,4.71-2.98,10.09-4.46,16.17-4.46,6.08,0,11.46,1.48,16.15,4.46,4.7,2.98,8.4,7.05,11.09,12.2,2.69,5.16,4.04,11.06,4.04,17.72s-1.35,12.57-4.04,17.79c-2.69,5.21-6.39,9.3-11.09,12.28-4.7,2.98-10.08,4.47-16.15,4.47-6.08,0-11.46-1.52-16.17-4.55-4.7-3.04-8.39-7.16-11.09-12.39-2.69-5.21-4.03-11.09-4.03-17.61Z"/><rect class="cls-3" x="533.15" y="3.87" width="12.89" height="127.21" rx="6.45" ry="6.45"/><path class="cls-3" d="M704.05,41.37c-1.92-.07-3.79,0-5.62.21-7.15.79-13.71,3.56-19.11,7.76-.43.33-.85.67-1.27,1.02-7.57,6.4-11.69,15.99-11.69,25.9v14.85s0,32.19,0,32.19c0,4.29,3.48,7.77,7.77,7.77h0c2.84,0,5.13-2.3,5.13-5.13v-49.53c0-3.44.68-6.64,2.06-9.63.31-.67.66-1.34,1.02-1.97,4.95-6.86,13.3-11.12,22.59-10.31,12.57,1.11,22.8,12.93,22.8,25.55v44.19c0,3.77,3.06,6.83,6.83,6.83h0c3.44,0,6.23-2.79,6.23-6.23v-44.59c0-20.25-16.52-38.19-36.76-38.88Z"/><path class="cls-3" d="M514.07,83.12v2.93c0-9.05-1.89-17.09-5.67-24.07-1.65-3.04-3.54-5.81-5.68-8.29,7.05,7.77,11.35,18.1,11.35,29.43Z"/><path class="cls-3" d="M514.07,86.04v2.91c0,7.7-1.98,14.95-5.5,21.23,3.66-7.05,5.5-15.09,5.5-24.14Z"/><path class="cls-3" d="M650.48,76.83s-.01-.05-.01-.07c-.01-.14-.04-.29-.07-.43-.01-.14-.03-.25-.05-.35-.01-.07-.03-.14-.04-.21-.01-.04-.01-.07-.01-.07-.87-5.25-2.51-10.06-4.91-14.5-1.65-3.07-3.56-5.84-5.71-8.32-.07-.09-.16-.18-.25-.28-.39-.43-.8-.85-1.21-1.26-6.64-6.64-15.41-11.17-25.19-12.45h-.03c-1.89-.25-3.82-.38-5.77-.38-12.09,0-23,4.88-30.94,12.78-7.97,7.94-12.89,18.91-12.89,31.05v5.85c0,4.74.75,9.29,2.13,13.56,2.19,6.72,5.94,12.72,10.84,17.57,7.93,7.85,18.82,12.7,30.86,12.7.34,0,.68,0,1.01-.01h.12c8.98-.22,17.3-3.16,24.16-8,1.67-1.18,3.25-2.48,4.74-3.88l.24-.22c.05-.03.09-.08.13-.12.11-.11.2-.2.29-.29,1.15-1.23,1.73-2.82,1.73-4.4,0-.85-.17-1.71-.51-2.49-.3-.75-.77-1.46-1.38-2.06-.77-.77-1.71-1.33-2.7-1.61-.6-.18-1.23-.28-1.86-.28-1.4,0-2.82.46-3.99,1.39-.2.14-.38.31-.56.5-.25.25-.46.5-.66.77-1.5,1.48-3.15,2.8-4.93,3.95-.04.03-.09.05-.13.08-4.67,2.98-10,4.47-16.02,4.47-3.7,0-7.14-.55-10.31-1.65-.03-.01-.05-.01-.07-.03-2.03-.71-3.95-1.64-5.77-2.8-4.71-2.98-8.4-7.07-11.09-12.28-1.63-3.12-2.76-6.51-3.4-10.16-.29-1.63,1-3.11,2.65-3.11h56.28c.96.26,2.39.29,4.46,0,11.01-1.54,11.17-9.89,10.84-12.96ZM633.96,76.9h-54.16c-1.81,0-3.07-1.76-2.55-3.49.62-2.05,1.42-3.99,2.39-5.84,2.69-5.16,6.38-9.23,11.09-12.2,4.7-2.98,10.08-4.47,16.15-4.47s11.46,1.5,16.15,4.47c4.7,2.98,8.4,7.05,11.09,12.2.96,1.85,1.76,3.79,2.38,5.84.52,1.73-.73,3.49-2.55,3.49Z"/></svg>